<svg width="16" height="13" viewBox="0 0 16 13" fill="none" xmlns="http://www.w3.org/2000/svg">
<path d="M8.06851 10.6805H3.93989L3.21861 12.999H0L4.58362 0.586914H7.41617L12.0343 12.999H8.79841L8.06851 10.6805ZM4.66117 8.3698H7.34809L6.00032 4.06499L4.66117 8.3698Z" fill="#33363F"/>
<path d="M12.79 1.39756C12.79 0.988479 12.9391 0.652995 13.2364 0.391968C13.5337 0.130941 13.9198 0 14.3955 0C14.8712 0 15.2564 0.130941 15.5545 0.391968C15.8518 0.652995 16.0009 0.988479 16.0009 1.39756C16.0009 1.80665 15.8518 2.14213 15.5545 2.40316C15.2572 2.66504 14.8703 2.79513 14.3955 2.79513C13.9206 2.79513 13.5337 2.66419 13.2364 2.40316C12.9391 2.14213 12.79 1.80665 12.79 1.39756ZM15.8622 12.9991H12.9607V3.77591H15.8622V12.9991Z" fill="#33363F"/>
</svg>
