<svg width="16" height="13" viewBox="0 0 16 13" fill="none" xmlns="http://www.w3.org/2000/svg">
<path d="M8.06851 10.6815H3.93989L3.21861 12.9999H0L4.58362 0.587891H7.41617L12.0343 12.9999H8.79841L8.06851 10.6815ZM4.66117 8.37077H7.34809L6.00032 4.06597L4.66117 8.37077Z" fill="white"/>
<path d="M12.79 1.39854C12.79 0.989456 12.9391 0.653972 13.2364 0.392945C13.5337 0.131918 13.9198 0.000976562 14.3955 0.000976562C14.8712 0.000976562 15.2564 0.131918 15.5545 0.392945C15.8518 0.653972 16.0009 0.989456 16.0009 1.39854C16.0009 1.80763 15.8518 2.14311 15.5545 2.40414C15.2572 2.66602 14.8703 2.79611 14.3955 2.79611C13.9206 2.79611 13.5337 2.66516 13.2364 2.40414C12.9391 2.14311 12.79 1.80763 12.79 1.39854ZM15.8622 13.0001H12.9607V3.77688H15.8622V13.0001Z" fill="white"/>
</svg>
