<svg width="1440" height="900" viewBox="0 0 1440 900" fill="none" xmlns="http://www.w3.org/2000/svg">
    <g clip-path="url(#clip0_363_60)">
        <rect y="0.298828" width="1440" height="900" fill="black"/>
        <path d="M239 47C240.105 47 241 46.1046 241 45C241 43.8954 240.105 43 239 43V47ZM140 47H239V43H140V47ZM140 43C116.252 43 97 23.7482 97 0H93C93 25.9574 114.043 47 140 47V43Z"
              fill="#01EE8A"/>
        <path d="M1625.22 286.71C1780.64 97.0863 1780.64 -210.355 1625.22 -399.979C1469.8 -589.603 1217.82 -589.603 1062.41 -399.979C906.991 -210.355 906.991 97.0863 1062.41 286.71C1217.82 476.334 1469.8 476.334 1625.22 286.71Z"
              fill="url(#paint0_radial_363_60)" fill-opacity="0.4"/>
    </g>
    <defs>
        <radialGradient id="paint0_radial_363_60" cx="0" cy="0" r="1" gradientUnits="userSpaceOnUse"
                        gradientTransform="translate(1343.82 -56.633) scale(397.97 485.563)">
            <stop stop-color="#48E4F3"/>
            <stop offset="0.12" stop-color="#3BBCF5" stop-opacity="0.83"/>
            <stop offset="0.33" stop-color="#267AF8" stop-opacity="0.54"/>
            <stop offset="0.52" stop-color="#1645FB" stop-opacity="0.31"/>
            <stop offset="0.69" stop-color="#0A1FFD" stop-opacity="0.14"/>
            <stop offset="0.82" stop-color="#0208FE" stop-opacity="0.04"/>
            <stop offset="0.9" stop-color="#0000FF" stop-opacity="0"/>
        </radialGradient>
        <clipPath id="clip0_363_60">
            <rect width="1440" height="900" fill="white"/>
        </clipPath>
    </defs>
</svg>
