<svg width="20" height="15" viewBox="0 0 20 15" fill="none" xmlns="http://www.w3.org/2000/svg">
    <path fill-rule="evenodd" clip-rule="evenodd"
          d="M0.00173786 5H19.9983C19.9862 2.82497 19.8897 1.64706 19.1213 0.87868C18.2426 0 16.8284 0 14 0H6C3.17157 0 1.75736 0 0.87868 0.87868C0.110296 1.64706 0.0138448 2.82497 0.00173786 5ZM20 7H0V9C0 11.8284 0 13.2426 0.87868 14.1213C1.75736 15 3.17157 15 6 15H14C16.8284 15 18.2426 15 19.1213 14.1213C20 13.2426 20 11.8284 20 9V7ZM5 10C4.44772 10 4 10.4477 4 11C4 11.5523 4.44772 12 5 12H5.01C5.56228 12 6.01 11.5523 6.01 11C6.01 10.4477 5.56228 10 5.01 10H5Z"
          fill="white"/>
    <path opacity="0.4"
          d="M0 6C0 3.17157 0 1.75736 0.87868 0.87868C1.75736 0 3.17157 0 6 0H14C16.8284 0 18.2426 0 19.1213 0.87868C20 1.75736 20 3.17157 20 6V9C20 11.8284 20 13.2426 19.1213 14.1213C18.2426 15 16.8284 15 14 15H6C3.17157 15 1.75736 15 0.87868 14.1213C0 13.2426 0 11.8284 0 9V6Z"
          fill="white"/>
</svg>
