<svg width="44" height="38" viewBox="0 0 44 38" fill="none" xmlns="http://www.w3.org/2000/svg">
    <path d="M16.8058 17L17.2851 17.1426L17.1787 17.5H16.8058V17ZM26.2 10.5C21.9878 10.5 18.4285 13.3007 17.2851 17.1426L16.3266 16.8574C17.5927 12.6031 21.5333 9.5 26.2 9.5V10.5ZM35.5 19.8C35.5 14.6638 31.3362 10.5 26.2 10.5V9.5C31.8885 9.5 36.5 14.1115 36.5 19.8H35.5ZM26.2 29.1C31.3362 29.1 35.5 24.9362 35.5 19.8H36.5C36.5 25.4885 31.8885 30.1 26.2 30.1V29.1ZM13 29.1H26.2V30.1H13V29.1ZM8.5 24.6C8.5 27.0853 10.5147 29.1 13 29.1V30.1C9.96243 30.1 7.5 27.6376 7.5 24.6H8.5ZM8.5 22V24.6H7.5V22H8.5ZM13 17.5C10.5147 17.5 8.5 19.5147 8.5 22H7.5C7.5 18.9624 9.96243 16.5 13 16.5V17.5ZM16.8058 17.5H13V16.5H16.8058V17.5Z"
          fill="#01EE8A"/>
    <path d="M22.3956 13.25L21.9164 13.3926L22.0227 13.75H22.3956V13.25ZM15.3501 22.2C15.3501 22.2 15.3501 22.2 15.3501 22.2C15.3501 22.2 15.3501 22.2 15.3501 22.2C15.3501 22.2 15.3501 22.2 15.3501 22.2C15.3501 22.2 15.3501 22.2 15.3501 22.2C15.3501 22.2 15.3501 22.2 15.3501 22.2C15.3501 22.2 15.3501 22.2 15.3501 22.2C15.3501 22.2 15.3501 22.2 15.3501 22.2C15.3501 22.2 15.3501 22.2 15.3501 22.2C15.3501 22.2 15.3501 22.2 15.3501 22.2C15.3501 22.2 15.3501 22.2 15.3501 22.2H15.3501C15.3501 22.2 15.3501 22.2 15.3501 22.2H15.3501C15.3501 22.2 15.3501 22.2 15.3501 22.2H15.3501C15.3501 22.2 15.3501 22.2 15.3501 22.2H15.3501C15.3501 22.2 15.3501 22.2 15.3501 22.2H15.3501C15.3501 22.2 15.3501 22.2 15.3501 22.2H15.3501C15.3501 22.2 15.3501 22.2 15.3501 22.2H15.3501C15.3501 22.2 15.3501 22.2 15.3501 22.2H15.3501C15.3501 22.2 15.3501 22.2 15.3501 22.2H15.3501C15.3501 22.2 15.3501 22.2 15.3501 22.2H15.3501C15.3501 22.2 15.3501 22.2 15.3501 22.2H15.3501C15.3501 22.2 15.3501 22.2 15.3501 22.2H15.3501C15.3501 22.2 15.3501 22.2 15.3501 22.2H15.3501C15.3501 22.2 15.3501 22.2 15.3501 22.2H15.3501C15.3501 22.2 15.3501 22.2 15.3501 22.2H15.3501C15.3501 22.2 15.3501 22.2 15.3501 22.2H15.3501C15.3501 22.2 15.3501 22.2 15.3501 22.2H15.3501C15.3501 22.2 15.3501 22.2 15.3501 22.2C15.3501 22.2 15.3501 22.2 15.3501 22.2C15.3501 22.2 15.3501 22.2 15.3501 22.2C15.3501 22.2 15.3501 22.2 15.35 22.2C15.35 22.2 15.35 22.2 15.35 22.2C15.35 22.2 15.35 22.2 15.35 22.2C15.35 22.2 15.35 22.2 15.35 22.2C15.35 22.2 15.35 22.2 15.35 22.2C15.35 22.2 15.35 22.2 15.35 22.2C15.35 22.2 15.35 22.2 15.35 22.2C15.35 22.2 15.35 22.2 15.35 22.2C15.35 22.2 15.35 22.2 15.35 22.2C15.35 22.2 15.35 22.2 15.35 22.2C15.35 22.2 15.35 22.2 15.35 22.2C15.35 22.2 15.35 22.2 15.35 22.2C15.35 22.2 15.35 22.2 15.35 22.2H15.35C15.35 22.2 15.35 22.2 15.35 22.2H15.35C15.35 22.2 15.35 22.2 15.35 22.2H15.35C15.35 22.2 15.35 22.2 15.35 22.2H15.35C15.35 22.2 15.35 22.2 15.35 22.2H15.35C15.35 22.2 15.35 22.2 15.35 22.2H15.35C15.35 22.2 15.35 22.2 15.35 22.2H15.35C15.35 22.2 15.35 22.2 15.35 22.2H15.35C15.35 22.2 15.35 22.2 15.35 22.2H15.35C15.35 22.2 15.35 22.2 15.35 22.2H15.35C15.35 22.2 15.35 22.2 15.35 22.2H15.35C15.35 22.2 15.35 22.2 15.35 22.2H15.35C15.35 22.2 15.35 22.2 15.35 22.2H15.35C15.35 22.2 15.35 22.2 15.35 22.2H15.35C15.35 22.2 15.35 22.2 15.35 22.2H15.35C15.35 22.2 15.35 22.2 15.35 22.2H15.35C15.35 22.2 15.35 22.2 15.35 22.2H15.35C15.35 22.2 15.35 22.2 15.35 22.2C15.35 22.2 15.35 22.2 15.35 22.2C15.35 22.2 15.35 22.2 15.35 22.2C15.35 22.2 15.35 22.2 15.35 22.2C15.35 22.2 15.35 22.2 15.35 22.2C15.35 22.2 15.35 22.2 15.35 22.2C15.35 22.2 15.35 22.2 15.35 22.2C15.35 22.2 15.35 22.2 15.35 22.2C15.35 22.2 15.35 22.2 15.35 22.2C15.35 22.2 15.35 22.2 15.35 22.2C15.35 22.2 15.35 22.2 15.35 22.2C15.35 22.2 15.35 22.2 15.35 22.2C15.35 22.2 15.35 22.2 15.35 22.2C15.35 22.2 15.35 22.2 15.35 22.2C15.35 22.2 15.35 22.2 15.35 22.2C15.35 22.2 15.35 22.2 15.35 22.2C15.35 22.2 15.35 22.2 15.35 22.2C15.35 22.2 15.35 22.2 15.35 22.2C15.35 22.2 15.35 22.2 15.35 22.2C15.35 22.2 15.35 22.2 15.35 22.2H15.35C15.35 22.2 15.35 22.2 15.35 22.2H15.35C15.35 22.2 15.35 22.2 15.35 22.2H15.35C15.35 22.2 15.35 22.2 15.35 22.2H15.35C15.35 22.2 15.35 22.2 15.35 22.2H15.35C15.35 22.2 15.35 22.2 15.35 22.2H15.35C15.35 22.2 15.35 22.2 15.35 22.2H15.35C15.35 22.2 15.35 22.2 15.35 22.2H15.35C15.35 22.2 15.35 22.2 15.35 22.2H15.35C15.35 22.2 15.35 22.2 15.35 22.2H15.35C15.35 22.2 15.35 22.2 15.35 22.2H15.35C15.35 22.2 15.35 22.2 15.35 22.2H15.35C15.35 22.2 15.35 22.2 15.35 22.2H15.35C15.35 22.2 15.35 22.2 15.35 22.2H15.35C15.35 22.2 15.35 22.2 15.35 22.2H15.35C15.35 22.2 15.35 22.2 15.35 22.2H15.35C15.35 22.2 15.35 22.2 15.35 22.2H15.35C15.35 22.2 15.35 22.2 15.35 22.2C15.35 22.2 15.35 22.2 15.35 22.2C15.35 22.2 15.35 22.2 15.35 22.2C15.35 22.2 15.35 22.2 15.35 22.2C15.35 22.2 15.35 22.2 15.35 22.2C15.35 22.2 15.35 22.2 15.35 22.2C15.35 22.2 15.35 22.2 15.35 22.2C15.35 22.2 15.35 22.2 15.35 22.2C15.35 22.2 15.35 22.2 15.35 22.2C15.35 22.2 15.35 22.2 15.35 22.2C15.35 22.2 15.35 22.2 15.35 22.2C15.35 22.2 15.35 22.2 15.35 22.2C15.35 22.2 15.35 22.2 15.35 22.2C15.35 22.2 15.35 22.2 15.35 22.2C15.35 22.2 15.35 22.2 15.35 22.2C15.35 22.2 15.35 22.2 15.35 22.2H15.35C15.35 22.2 15.35 22.2 15.35 22.2H15.35C15.35 22.2 15.35 22.2 15.35 22.2H15.35C15.35 22.2 15.35 22.2 15.35 22.2H15.35C15.35 22.2 15.35 22.2 15.35 22.2H15.35C15.35 22.2 15.35 22.2 15.35 22.2H15.35C15.35 22.2 15.35 22.2 15.35 22.2H15.35C15.35 22.2 15.35 22.2 15.35 22.2H15.35C15.35 22.2 15.35 22.2 15.35 22.2H15.35C15.35 22.2 15.35 22.2 15.35 22.2H15.35C15.35 22.2 15.35 22.2 15.35 22.2H15.35C15.35 22.2 15.35 22.2 15.35 22.2H15.35C15.35 22.2 15.35 22.2 15.35 22.2H15.35C15.35 22.2 15.35 22.2 15.35 22.2H15.35C15.35 22.2 15.35 22.2 15.35 22.2H15.35C15.35 22.2 15.35 22.2 15.35 22.2H15.35C15.35 22.2 15.35 22.2 15.35 22.2H15.35C15.35 22.2 15.35 22.2 15.35 22.2C15.35 22.2 15.35 22.2 15.35 22.2C15.35 22.2 15.35 22.2 15.35 22.2C15.35 22.2 15.35 22.2 15.35 22.2C15.35 22.2 15.35 22.2 15.35 22.2C15.35 22.2 15.35 22.2 15.35 22.2C15.35 22.2 15.35 22.2 15.35 22.2C15.35 22.2 15.35 22.2 15.35 22.2C15.35 22.2 15.35 22.2 15.35 22.2C15.35 22.2 15.35 22.2 15.35 22.2V23.2C15.35 23.2 15.35 23.2 15.35 23.2C15.35 23.2 15.35 23.2 15.35 23.2C15.35 23.2 15.35 23.2 15.35 23.2C15.35 23.2 15.35 23.2 15.35 23.2C15.35 23.2 15.35 23.2 15.35 23.2C15.35 23.2 15.35 23.2 15.35 23.2C15.35 23.2 15.35 23.2 15.35 23.2C15.35 23.2 15.35 23.2 15.35 23.2C15.35 23.2 15.35 23.2 15.35 23.2C15.35 23.2 15.35 23.2 15.35 23.2H15.35C15.35 23.2 15.35 23.2 15.35 23.2H15.35C15.35 23.2 15.35 23.2 15.35 23.2H15.35C15.35 23.2 15.35 23.2 15.35 23.2H15.35C15.35 23.2 15.35 23.2 15.35 23.2H15.35C15.35 23.2 15.35 23.2 15.35 23.2H15.35C15.35 23.2 15.35 23.2 15.35 23.2H15.35C15.35 23.2 15.35 23.2 15.35 23.2H15.35C15.35 23.2 15.35 23.2 15.35 23.2H15.35C15.35 23.2 15.35 23.2 15.35 23.2H15.35C15.35 23.2 15.35 23.2 15.35 23.2H15.35C15.35 23.2 15.35 23.2 15.35 23.2H15.35C15.35 23.2 15.35 23.2 15.35 23.2H15.35C15.35 23.2 15.35 23.2 15.35 23.2H15.35C15.35 23.2 15.35 23.2 15.35 23.2H15.35C15.35 23.2 15.35 23.2 15.35 23.2H15.35C15.35 23.2 15.35 23.2 15.35 23.2H15.35C15.35 23.2 15.35 23.2 15.35 23.2C15.35 23.2 15.35 23.2 15.35 23.2C15.35 23.2 15.35 23.2 15.35 23.2C15.35 23.2 15.35 23.2 15.35 23.2C15.35 23.2 15.35 23.2 15.35 23.2C15.35 23.2 15.35 23.2 15.35 23.2C15.35 23.2 15.35 23.2 15.35 23.2C15.35 23.2 15.35 23.2 15.35 23.2C15.35 23.2 15.35 23.2 15.35 23.2C15.35 23.2 15.35 23.2 15.35 23.2C15.35 23.2 15.35 23.2 15.35 23.2C15.35 23.2 15.35 23.2 15.35 23.2C15.35 23.2 15.35 23.2 15.35 23.2C15.35 23.2 15.35 23.2 15.35 23.2C15.35 23.2 15.35 23.2 15.35 23.2C15.35 23.2 15.35 23.2 15.35 23.2H15.35C15.35 23.2 15.35 23.2 15.35 23.2H15.35C15.35 23.2 15.35 23.2 15.35 23.2H15.35C15.35 23.2 15.35 23.2 15.35 23.2H15.35C15.35 23.2 15.35 23.2 15.35 23.2H15.35C15.35 23.2 15.35 23.2 15.35 23.2H15.35C15.35 23.2 15.35 23.2 15.35 23.2H15.35C15.35 23.2 15.35 23.2 15.35 23.2H15.35C15.35 23.2 15.35 23.2 15.35 23.2H15.35C15.35 23.2 15.35 23.2 15.35 23.2H15.35C15.35 23.2 15.35 23.2 15.35 23.2H15.35C15.35 23.2 15.35 23.2 15.35 23.2H15.35C15.35 23.2 15.35 23.2 15.35 23.2H15.35C15.35 23.2 15.35 23.2 15.35 23.2H15.35C15.35 23.2 15.35 23.2 15.35 23.2H15.35C15.35 23.2 15.35 23.2 15.35 23.2H15.35C15.35 23.2 15.35 23.2 15.35 23.2H15.35C15.35 23.2 15.35 23.2 15.35 23.2C15.35 23.2 15.35 23.2 15.35 23.2C15.35 23.2 15.35 23.2 15.35 23.2C15.35 23.2 15.35 23.2 15.35 23.2C15.35 23.2 15.35 23.2 15.35 23.2C15.35 23.2 15.35 23.2 15.35 23.2C15.35 23.2 15.35 23.2 15.35 23.2C15.35 23.2 15.35 23.2 15.35 23.2C15.35 23.2 15.35 23.2 15.35 23.2C15.35 23.2 15.35 23.2 15.35 23.2C15.35 23.2 15.35 23.2 15.35 23.2C15.35 23.2 15.35 23.2 15.35 23.2C15.35 23.2 15.35 23.2 15.35 23.2C15.35 23.2 15.35 23.2 15.35 23.2C15.35 23.2 15.35 23.2 15.35 23.2C15.35 23.2 15.35 23.2 15.35 23.2C15.35 23.2 15.35 23.2 15.35 23.2C15.35 23.2 15.35 23.2 15.35 23.2C15.35 23.2 15.35 23.2 15.35 23.2C15.35 23.2 15.35 23.2 15.35 23.2H15.35C15.35 23.2 15.35 23.2 15.35 23.2H15.35C15.35 23.2 15.35 23.2 15.35 23.2H15.35C15.35 23.2 15.35 23.2 15.35 23.2H15.35C15.35 23.2 15.35 23.2 15.35 23.2H15.35C15.35 23.2 15.35 23.2 15.35 23.2H15.35C15.35 23.2 15.35 23.2 15.35 23.2H15.35C15.35 23.2 15.35 23.2 15.35 23.2H15.35C15.35 23.2 15.35 23.2 15.35 23.2H15.35C15.35 23.2 15.35 23.2 15.35 23.2H15.35C15.35 23.2 15.35 23.2 15.35 23.2H15.35C15.35 23.2 15.35 23.2 15.35 23.2H15.35C15.35 23.2 15.35 23.2 15.35 23.2H15.35C15.35 23.2 15.35 23.2 15.35 23.2H15.35C15.35 23.2 15.35 23.2 15.35 23.2H15.35C15.35 23.2 15.35 23.2 15.35 23.2H15.35C15.35 23.2 15.35 23.2 15.35 23.2H15.35C15.35 23.2 15.35 23.2 15.35 23.2C15.35 23.2 15.35 23.2 15.35 23.2C15.35 23.2 15.35 23.2 15.35 23.2C15.35 23.2 15.35 23.2 15.35 23.2C15.35 23.2 15.35 23.2 15.35 23.2C15.35 23.2 15.35 23.2 15.35 23.2C15.35 23.2 15.35 23.2 15.35 23.2C15.35 23.2 15.35 23.2 15.35 23.2C15.35 23.2 15.35 23.2 15.35 23.2C15.35 23.2 15.35 23.2 15.35 23.2C15.35 23.2 15.35 23.2 15.35 23.2C15.35 23.2 15.35 23.2 15.35 23.2C15.3501 23.2 15.3501 23.2 15.3501 23.2C15.3501 23.2 15.3501 23.2 15.3501 23.2C15.3501 23.2 15.3501 23.2 15.3501 23.2C15.3501 23.2 15.3501 23.2 15.3501 23.2H15.3501C15.3501 23.2 15.3501 23.2 15.3501 23.2H15.3501C15.3501 23.2 15.3501 23.2 15.3501 23.2H15.3501C15.3501 23.2 15.3501 23.2 15.3501 23.2H15.3501C15.3501 23.2 15.3501 23.2 15.3501 23.2H15.3501C15.3501 23.2 15.3501 23.2 15.3501 23.2H15.3501C15.3501 23.2 15.3501 23.2 15.3501 23.2H15.3501C15.3501 23.2 15.3501 23.2 15.3501 23.2H15.3501C15.3501 23.2 15.3501 23.2 15.3501 23.2H15.3501C15.3501 23.2 15.3501 23.2 15.3501 23.2H15.3501C15.3501 23.2 15.3501 23.2 15.3501 23.2H15.3501C15.3501 23.2 15.3501 23.2 15.3501 23.2H15.3501C15.3501 23.2 15.3501 23.2 15.3501 23.2H15.3501C15.3501 23.2 15.3501 23.2 15.3501 23.2H15.3501C15.3501 23.2 15.3501 23.2 15.3501 23.2H15.3501C15.3501 23.2 15.3501 23.2 15.3501 23.2H15.3501C15.3501 23.2 15.3501 23.2 15.3501 23.2H15.3501C15.3501 23.2 15.3501 23.2 15.3501 23.2C15.3501 23.2 15.3501 23.2 15.3501 23.2C15.3501 23.2 15.3501 23.2 15.3501 23.2C15.3501 23.2 15.3501 23.2 15.3501 23.2C15.3501 23.2 15.3501 23.2 15.3501 23.2C15.3501 23.2 15.3501 23.2 15.3501 23.2C15.3501 23.2 15.3501 23.2 15.3501 23.2C15.3501 23.2 15.3501 23.2 15.3501 23.2C15.3501 23.2 15.3501 23.2 15.3501 23.2C15.3501 23.2 15.3501 23.2 15.3501 23.2V22.2ZM15.35 22.2C11.5668 22.2 8.5 19.1332 8.5 15.35H7.5C7.5 19.6854 11.0146 23.2 15.35 23.2V22.2ZM8.5 15.35C8.5 11.5668 11.5668 8.5 15.35 8.5V7.5C11.0146 7.5 7.5 11.0146 7.5 15.35H8.5ZM15.35 8.5C18.4523 8.5 21.0741 10.5627 21.9164 13.3926L22.8748 13.1074C21.9099 9.86513 18.9068 7.5 15.35 7.5V8.5ZM22.3956 13.75H24.275V12.75H22.3956V13.75ZM24.275 13.75C26.6084 13.75 28.5 15.6416 28.5 17.975H29.5C29.5 15.0893 27.1607 12.75 24.275 12.75V13.75ZM28.5 17.975C28.5 20.3084 26.6084 22.2 24.275 22.2V23.2C27.1607 23.2 29.5 20.8607 29.5 17.975H28.5ZM24.275 22.2H15.3501V23.2H24.275V22.2Z"
          fill="#01EE8A"/>
    <g filter="url(#filter0_f_825_733)">
        <path d="M16.8058 17L17.2851 17.1426L17.1787 17.5H16.8058V17ZM26.2 10.5C21.9878 10.5 18.4285 13.3007 17.2851 17.1426L16.3266 16.8574C17.5927 12.6031 21.5333 9.5 26.2 9.5V10.5ZM35.5 19.8C35.5 14.6638 31.3362 10.5 26.2 10.5V9.5C31.8885 9.5 36.5 14.1115 36.5 19.8H35.5ZM26.2 29.1C31.3362 29.1 35.5 24.9362 35.5 19.8H36.5C36.5 25.4885 31.8885 30.1 26.2 30.1V29.1ZM13 29.1H26.2V30.1H13V29.1ZM8.5 24.6C8.5 27.0853 10.5147 29.1 13 29.1V30.1C9.96243 30.1 7.5 27.6376 7.5 24.6H8.5ZM8.5 22V24.6H7.5V22H8.5ZM13 17.5C10.5147 17.5 8.5 19.5147 8.5 22H7.5C7.5 18.9624 9.96243 16.5 13 16.5V17.5ZM16.8058 17.5H13V16.5H16.8058V17.5Z"
              fill="#01EE8A"/>
        <path d="M22.3956 13.25L21.9164 13.3926L22.0227 13.75H22.3956V13.25ZM15.3501 22.2C15.3501 22.2 15.3501 22.2 15.3501 22.2C15.3501 22.2 15.3501 22.2 15.3501 22.2C15.3501 22.2 15.3501 22.2 15.3501 22.2C15.3501 22.2 15.3501 22.2 15.3501 22.2C15.3501 22.2 15.3501 22.2 15.3501 22.2C15.3501 22.2 15.3501 22.2 15.3501 22.2C15.3501 22.2 15.3501 22.2 15.3501 22.2C15.3501 22.2 15.3501 22.2 15.3501 22.2C15.3501 22.2 15.3501 22.2 15.3501 22.2C15.3501 22.2 15.3501 22.2 15.3501 22.2H15.3501C15.3501 22.2 15.3501 22.2 15.3501 22.2H15.3501C15.3501 22.2 15.3501 22.2 15.3501 22.2H15.3501C15.3501 22.2 15.3501 22.2 15.3501 22.2H15.3501C15.3501 22.2 15.3501 22.2 15.3501 22.2H15.3501C15.3501 22.2 15.3501 22.2 15.3501 22.2H15.3501C15.3501 22.2 15.3501 22.2 15.3501 22.2H15.3501C15.3501 22.2 15.3501 22.2 15.3501 22.2H15.3501C15.3501 22.2 15.3501 22.2 15.3501 22.2H15.3501C15.3501 22.2 15.3501 22.2 15.3501 22.2H15.3501C15.3501 22.2 15.3501 22.2 15.3501 22.2H15.3501C15.3501 22.2 15.3501 22.2 15.3501 22.2H15.3501C15.3501 22.2 15.3501 22.2 15.3501 22.2H15.3501C15.3501 22.2 15.3501 22.2 15.3501 22.2H15.3501C15.3501 22.2 15.3501 22.2 15.3501 22.2H15.3501C15.3501 22.2 15.3501 22.2 15.3501 22.2H15.3501C15.3501 22.2 15.3501 22.2 15.3501 22.2H15.3501C15.3501 22.2 15.3501 22.2 15.3501 22.2C15.3501 22.2 15.3501 22.2 15.3501 22.2C15.3501 22.2 15.3501 22.2 15.3501 22.2C15.3501 22.2 15.3501 22.2 15.35 22.2C15.35 22.2 15.35 22.2 15.35 22.2C15.35 22.2 15.35 22.2 15.35 22.2C15.35 22.2 15.35 22.2 15.35 22.2C15.35 22.2 15.35 22.2 15.35 22.2C15.35 22.2 15.35 22.2 15.35 22.2C15.35 22.2 15.35 22.2 15.35 22.2C15.35 22.2 15.35 22.2 15.35 22.2C15.35 22.2 15.35 22.2 15.35 22.2C15.35 22.2 15.35 22.2 15.35 22.2C15.35 22.2 15.35 22.2 15.35 22.2C15.35 22.2 15.35 22.2 15.35 22.2C15.35 22.2 15.35 22.2 15.35 22.2H15.35C15.35 22.2 15.35 22.2 15.35 22.2H15.35C15.35 22.2 15.35 22.2 15.35 22.2H15.35C15.35 22.2 15.35 22.2 15.35 22.2H15.35C15.35 22.2 15.35 22.2 15.35 22.2H15.35C15.35 22.2 15.35 22.2 15.35 22.2H15.35C15.35 22.2 15.35 22.2 15.35 22.2H15.35C15.35 22.2 15.35 22.2 15.35 22.2H15.35C15.35 22.2 15.35 22.2 15.35 22.2H15.35C15.35 22.2 15.35 22.2 15.35 22.2H15.35C15.35 22.2 15.35 22.2 15.35 22.2H15.35C15.35 22.2 15.35 22.2 15.35 22.2H15.35C15.35 22.2 15.35 22.2 15.35 22.2H15.35C15.35 22.2 15.35 22.2 15.35 22.2H15.35C15.35 22.2 15.35 22.2 15.35 22.2H15.35C15.35 22.2 15.35 22.2 15.35 22.2H15.35C15.35 22.2 15.35 22.2 15.35 22.2H15.35C15.35 22.2 15.35 22.2 15.35 22.2C15.35 22.2 15.35 22.2 15.35 22.2C15.35 22.2 15.35 22.2 15.35 22.2C15.35 22.2 15.35 22.2 15.35 22.2C15.35 22.2 15.35 22.2 15.35 22.2C15.35 22.2 15.35 22.2 15.35 22.2C15.35 22.2 15.35 22.2 15.35 22.2C15.35 22.2 15.35 22.2 15.35 22.2C15.35 22.2 15.35 22.2 15.35 22.2C15.35 22.2 15.35 22.2 15.35 22.2C15.35 22.2 15.35 22.2 15.35 22.2C15.35 22.2 15.35 22.2 15.35 22.2C15.35 22.2 15.35 22.2 15.35 22.2C15.35 22.2 15.35 22.2 15.35 22.2C15.35 22.2 15.35 22.2 15.35 22.2C15.35 22.2 15.35 22.2 15.35 22.2C15.35 22.2 15.35 22.2 15.35 22.2C15.35 22.2 15.35 22.2 15.35 22.2C15.35 22.2 15.35 22.2 15.35 22.2C15.35 22.2 15.35 22.2 15.35 22.2H15.35C15.35 22.2 15.35 22.2 15.35 22.2H15.35C15.35 22.2 15.35 22.2 15.35 22.2H15.35C15.35 22.2 15.35 22.2 15.35 22.2H15.35C15.35 22.2 15.35 22.2 15.35 22.2H15.35C15.35 22.2 15.35 22.2 15.35 22.2H15.35C15.35 22.2 15.35 22.2 15.35 22.2H15.35C15.35 22.2 15.35 22.2 15.35 22.2H15.35C15.35 22.2 15.35 22.2 15.35 22.2H15.35C15.35 22.2 15.35 22.2 15.35 22.2H15.35C15.35 22.2 15.35 22.2 15.35 22.2H15.35C15.35 22.2 15.35 22.2 15.35 22.2H15.35C15.35 22.2 15.35 22.2 15.35 22.2H15.35C15.35 22.2 15.35 22.2 15.35 22.2H15.35C15.35 22.2 15.35 22.2 15.35 22.2H15.35C15.35 22.2 15.35 22.2 15.35 22.2H15.35C15.35 22.2 15.35 22.2 15.35 22.2H15.35C15.35 22.2 15.35 22.2 15.35 22.2C15.35 22.2 15.35 22.2 15.35 22.2C15.35 22.2 15.35 22.2 15.35 22.2C15.35 22.2 15.35 22.2 15.35 22.2C15.35 22.2 15.35 22.2 15.35 22.2C15.35 22.2 15.35 22.2 15.35 22.2C15.35 22.2 15.35 22.2 15.35 22.2C15.35 22.2 15.35 22.2 15.35 22.2C15.35 22.2 15.35 22.2 15.35 22.2C15.35 22.2 15.35 22.2 15.35 22.2C15.35 22.2 15.35 22.2 15.35 22.2C15.35 22.2 15.35 22.2 15.35 22.2C15.35 22.2 15.35 22.2 15.35 22.2C15.35 22.2 15.35 22.2 15.35 22.2C15.35 22.2 15.35 22.2 15.35 22.2C15.35 22.2 15.35 22.2 15.35 22.2H15.35C15.35 22.2 15.35 22.2 15.35 22.2H15.35C15.35 22.2 15.35 22.2 15.35 22.2H15.35C15.35 22.2 15.35 22.2 15.35 22.2H15.35C15.35 22.2 15.35 22.2 15.35 22.2H15.35C15.35 22.2 15.35 22.2 15.35 22.2H15.35C15.35 22.2 15.35 22.2 15.35 22.2H15.35C15.35 22.2 15.35 22.2 15.35 22.2H15.35C15.35 22.2 15.35 22.2 15.35 22.2H15.35C15.35 22.2 15.35 22.2 15.35 22.2H15.35C15.35 22.2 15.35 22.2 15.35 22.2H15.35C15.35 22.2 15.35 22.2 15.35 22.2H15.35C15.35 22.2 15.35 22.2 15.35 22.2H15.35C15.35 22.2 15.35 22.2 15.35 22.2H15.35C15.35 22.2 15.35 22.2 15.35 22.2H15.35C15.35 22.2 15.35 22.2 15.35 22.2H15.35C15.35 22.2 15.35 22.2 15.35 22.2H15.35C15.35 22.2 15.35 22.2 15.35 22.2C15.35 22.2 15.35 22.2 15.35 22.2C15.35 22.2 15.35 22.2 15.35 22.2C15.35 22.2 15.35 22.2 15.35 22.2C15.35 22.2 15.35 22.2 15.35 22.2C15.35 22.2 15.35 22.2 15.35 22.2C15.35 22.2 15.35 22.2 15.35 22.2C15.35 22.2 15.35 22.2 15.35 22.2C15.35 22.2 15.35 22.2 15.35 22.2C15.35 22.2 15.35 22.2 15.35 22.2V23.2C15.35 23.2 15.35 23.2 15.35 23.2C15.35 23.2 15.35 23.2 15.35 23.2C15.35 23.2 15.35 23.2 15.35 23.2C15.35 23.2 15.35 23.2 15.35 23.2C15.35 23.2 15.35 23.2 15.35 23.2C15.35 23.2 15.35 23.2 15.35 23.2C15.35 23.2 15.35 23.2 15.35 23.2C15.35 23.2 15.35 23.2 15.35 23.2C15.35 23.2 15.35 23.2 15.35 23.2C15.35 23.2 15.35 23.2 15.35 23.2H15.35C15.35 23.2 15.35 23.2 15.35 23.2H15.35C15.35 23.2 15.35 23.2 15.35 23.2H15.35C15.35 23.2 15.35 23.2 15.35 23.2H15.35C15.35 23.2 15.35 23.2 15.35 23.2H15.35C15.35 23.2 15.35 23.2 15.35 23.2H15.35C15.35 23.2 15.35 23.2 15.35 23.2H15.35C15.35 23.2 15.35 23.2 15.35 23.2H15.35C15.35 23.2 15.35 23.2 15.35 23.2H15.35C15.35 23.2 15.35 23.2 15.35 23.2H15.35C15.35 23.2 15.35 23.2 15.35 23.2H15.35C15.35 23.2 15.35 23.2 15.35 23.2H15.35C15.35 23.2 15.35 23.2 15.35 23.2H15.35C15.35 23.2 15.35 23.2 15.35 23.2H15.35C15.35 23.2 15.35 23.2 15.35 23.2H15.35C15.35 23.2 15.35 23.2 15.35 23.2H15.35C15.35 23.2 15.35 23.2 15.35 23.2H15.35C15.35 23.2 15.35 23.2 15.35 23.2C15.35 23.2 15.35 23.2 15.35 23.2C15.35 23.2 15.35 23.2 15.35 23.2C15.35 23.2 15.35 23.2 15.35 23.2C15.35 23.2 15.35 23.2 15.35 23.2C15.35 23.2 15.35 23.2 15.35 23.2C15.35 23.2 15.35 23.2 15.35 23.2C15.35 23.2 15.35 23.2 15.35 23.2C15.35 23.2 15.35 23.2 15.35 23.2C15.35 23.2 15.35 23.2 15.35 23.2C15.35 23.2 15.35 23.2 15.35 23.2C15.35 23.2 15.35 23.2 15.35 23.2C15.35 23.2 15.35 23.2 15.35 23.2C15.35 23.2 15.35 23.2 15.35 23.2C15.35 23.2 15.35 23.2 15.35 23.2C15.35 23.2 15.35 23.2 15.35 23.2H15.35C15.35 23.2 15.35 23.2 15.35 23.2H15.35C15.35 23.2 15.35 23.2 15.35 23.2H15.35C15.35 23.2 15.35 23.2 15.35 23.2H15.35C15.35 23.2 15.35 23.2 15.35 23.2H15.35C15.35 23.2 15.35 23.2 15.35 23.2H15.35C15.35 23.2 15.35 23.2 15.35 23.2H15.35C15.35 23.2 15.35 23.2 15.35 23.2H15.35C15.35 23.2 15.35 23.2 15.35 23.2H15.35C15.35 23.2 15.35 23.2 15.35 23.2H15.35C15.35 23.2 15.35 23.2 15.35 23.2H15.35C15.35 23.2 15.35 23.2 15.35 23.2H15.35C15.35 23.2 15.35 23.2 15.35 23.2H15.35C15.35 23.2 15.35 23.2 15.35 23.2H15.35C15.35 23.2 15.35 23.2 15.35 23.2H15.35C15.35 23.2 15.35 23.2 15.35 23.2H15.35C15.35 23.2 15.35 23.2 15.35 23.2H15.35C15.35 23.2 15.35 23.2 15.35 23.2C15.35 23.2 15.35 23.2 15.35 23.2C15.35 23.2 15.35 23.2 15.35 23.2C15.35 23.2 15.35 23.2 15.35 23.2C15.35 23.2 15.35 23.2 15.35 23.2C15.35 23.2 15.35 23.2 15.35 23.2C15.35 23.2 15.35 23.2 15.35 23.2C15.35 23.2 15.35 23.2 15.35 23.2C15.35 23.2 15.35 23.2 15.35 23.2C15.35 23.2 15.35 23.2 15.35 23.2C15.35 23.2 15.35 23.2 15.35 23.2C15.35 23.2 15.35 23.2 15.35 23.2C15.35 23.2 15.35 23.2 15.35 23.2C15.35 23.2 15.35 23.2 15.35 23.2C15.35 23.2 15.35 23.2 15.35 23.2C15.35 23.2 15.35 23.2 15.35 23.2C15.35 23.2 15.35 23.2 15.35 23.2C15.35 23.2 15.35 23.2 15.35 23.2C15.35 23.2 15.35 23.2 15.35 23.2C15.35 23.2 15.35 23.2 15.35 23.2H15.35C15.35 23.2 15.35 23.2 15.35 23.2H15.35C15.35 23.2 15.35 23.2 15.35 23.2H15.35C15.35 23.2 15.35 23.2 15.35 23.2H15.35C15.35 23.2 15.35 23.2 15.35 23.2H15.35C15.35 23.2 15.35 23.2 15.35 23.2H15.35C15.35 23.2 15.35 23.2 15.35 23.2H15.35C15.35 23.2 15.35 23.2 15.35 23.2H15.35C15.35 23.2 15.35 23.2 15.35 23.2H15.35C15.35 23.2 15.35 23.2 15.35 23.2H15.35C15.35 23.2 15.35 23.2 15.35 23.2H15.35C15.35 23.2 15.35 23.2 15.35 23.2H15.35C15.35 23.2 15.35 23.2 15.35 23.2H15.35C15.35 23.2 15.35 23.2 15.35 23.2H15.35C15.35 23.2 15.35 23.2 15.35 23.2H15.35C15.35 23.2 15.35 23.2 15.35 23.2H15.35C15.35 23.2 15.35 23.2 15.35 23.2H15.35C15.35 23.2 15.35 23.2 15.35 23.2C15.35 23.2 15.35 23.2 15.35 23.2C15.35 23.2 15.35 23.2 15.35 23.2C15.35 23.2 15.35 23.2 15.35 23.2C15.35 23.2 15.35 23.2 15.35 23.2C15.35 23.2 15.35 23.2 15.35 23.2C15.35 23.2 15.35 23.2 15.35 23.2C15.35 23.2 15.35 23.2 15.35 23.2C15.35 23.2 15.35 23.2 15.35 23.2C15.35 23.2 15.35 23.2 15.35 23.2C15.35 23.2 15.35 23.2 15.35 23.2C15.35 23.2 15.35 23.2 15.35 23.2C15.3501 23.2 15.3501 23.2 15.3501 23.2C15.3501 23.2 15.3501 23.2 15.3501 23.2C15.3501 23.2 15.3501 23.2 15.3501 23.2C15.3501 23.2 15.3501 23.2 15.3501 23.2H15.3501C15.3501 23.2 15.3501 23.2 15.3501 23.2H15.3501C15.3501 23.2 15.3501 23.2 15.3501 23.2H15.3501C15.3501 23.2 15.3501 23.2 15.3501 23.2H15.3501C15.3501 23.2 15.3501 23.2 15.3501 23.2H15.3501C15.3501 23.2 15.3501 23.2 15.3501 23.2H15.3501C15.3501 23.2 15.3501 23.2 15.3501 23.2H15.3501C15.3501 23.2 15.3501 23.2 15.3501 23.2H15.3501C15.3501 23.2 15.3501 23.2 15.3501 23.2H15.3501C15.3501 23.2 15.3501 23.2 15.3501 23.2H15.3501C15.3501 23.2 15.3501 23.2 15.3501 23.2H15.3501C15.3501 23.2 15.3501 23.2 15.3501 23.2H15.3501C15.3501 23.2 15.3501 23.2 15.3501 23.2H15.3501C15.3501 23.2 15.3501 23.2 15.3501 23.2H15.3501C15.3501 23.2 15.3501 23.2 15.3501 23.2H15.3501C15.3501 23.2 15.3501 23.2 15.3501 23.2H15.3501C15.3501 23.2 15.3501 23.2 15.3501 23.2H15.3501C15.3501 23.2 15.3501 23.2 15.3501 23.2C15.3501 23.2 15.3501 23.2 15.3501 23.2C15.3501 23.2 15.3501 23.2 15.3501 23.2C15.3501 23.2 15.3501 23.2 15.3501 23.2C15.3501 23.2 15.3501 23.2 15.3501 23.2C15.3501 23.2 15.3501 23.2 15.3501 23.2C15.3501 23.2 15.3501 23.2 15.3501 23.2C15.3501 23.2 15.3501 23.2 15.3501 23.2C15.3501 23.2 15.3501 23.2 15.3501 23.2C15.3501 23.2 15.3501 23.2 15.3501 23.2V22.2ZM15.35 22.2C11.5668 22.2 8.5 19.1332 8.5 15.35H7.5C7.5 19.6854 11.0146 23.2 15.35 23.2V22.2ZM8.5 15.35C8.5 11.5668 11.5668 8.5 15.35 8.5V7.5C11.0146 7.5 7.5 11.0146 7.5 15.35H8.5ZM15.35 8.5C18.4523 8.5 21.0741 10.5627 21.9164 13.3926L22.8748 13.1074C21.9099 9.86513 18.9068 7.5 15.35 7.5V8.5ZM22.3956 13.75H24.275V12.75H22.3956V13.75ZM24.275 13.75C26.6084 13.75 28.5 15.6416 28.5 17.975H29.5C29.5 15.0893 27.1607 12.75 24.275 12.75V13.75ZM28.5 17.975C28.5 20.3084 26.6084 22.2 24.275 22.2V23.2C27.1607 23.2 29.5 20.8607 29.5 17.975H28.5ZM24.275 22.2H15.3501V23.2H24.275V22.2Z"
              fill="#01EE8A"/>
    </g>
    <defs>
        <filter id="filter0_f_825_733" x="0.5" y="0.5" width="43" height="36.6001" filterUnits="userSpaceOnUse"
                color-interpolation-filters="sRGB">
            <feFlood flood-opacity="0" result="BackgroundImageFix"/>
            <feBlend mode="normal" in="SourceGraphic" in2="BackgroundImageFix" result="shape"/>
            <feGaussianBlur stdDeviation="3.5" result="effect1_foregroundBlur_825_733"/>
        </filter>
    </defs>
</svg>
