<svg width="18" height="15" viewBox="0 0 18 15" fill="none" xmlns="http://www.w3.org/2000/svg">
<circle cx="8.82336" cy="4" r="4" fill="#4D38FF"/>
<circle cx="13.8234" cy="4" r="3" fill="#4D38FF"/>
<circle cx="3.82336" cy="4" r="3" fill="#4D38FF"/>
<path fill-rule="evenodd" clip-rule="evenodd" d="M14.3918 13H16.7184C17.31 13 17.7637 12.4901 17.62 11.9162C17.2517 10.4458 16.2713 8 13.8234 8C12.9373 8 12.2435 8.32047 11.7014 8.79914C13.2092 9.77735 13.9887 11.4902 14.3918 13Z" fill="#4D38FF"/>
<path fill-rule="evenodd" clip-rule="evenodd" d="M5.94534 8.79913C5.40325 8.32046 4.70945 8 3.82337 8C1.37545 8 0.395026 10.4458 0.0267943 11.9162C-0.116926 12.4901 0.336718 13 0.92834 13H3.25492C3.658 11.4902 4.43759 9.77734 5.94534 8.79913Z" fill="#4D38FF"/>
<path d="M8.82336 9C12.532 9 13.4899 12.301 13.7372 14.0061C13.8165 14.5526 13.3756 15 12.8234 15H4.82336C4.27108 15 3.8302 14.5526 3.9095 14.0061C4.15688 12.301 5.11471 9 8.82336 9Z" fill="#4D38FF"/>
</svg>
