<svg width="18" height="15" viewBox="0 0 18 15" fill="none" xmlns="http://www.w3.org/2000/svg">
    <circle cx="9" cy="4" r="4" fill="#33363F"/>
    <circle cx="14" cy="4" r="3" fill="#33363F"/>
    <circle cx="4" cy="4" r="3" fill="#33363F"/>
    <path fill-rule="evenodd" clip-rule="evenodd"
          d="M14.5683 13H16.8949C17.4865 13 17.9402 12.4901 17.7965 11.9162C17.4282 10.4458 16.4478 8 13.9999 8C13.1138 8 12.42 8.32047 11.8779 8.79914C13.3857 9.77735 14.1653 11.4902 14.5683 13Z"
          fill="#33363F"/>
    <path fill-rule="evenodd" clip-rule="evenodd"
          d="M6.1221 8.79913C5.58001 8.32046 4.88621 8 4.00012 8C1.5522 8 0.571784 10.4458 0.203552 11.9162C0.0598317 12.4901 0.513476 13 1.1051 13H3.43167C3.83476 11.4902 4.61435 9.77734 6.1221 8.79913Z"
          fill="#33363F"/>
    <path d="M9 9C12.7087 9 13.6665 12.301 13.9139 14.0061C13.9932 14.5526 13.5523 15 13 15H5C4.44772 15 4.00684 14.5526 4.08614 14.0061C4.33351 12.301 5.29134 9 9 9Z"
          fill="#33363F"/>
</svg>
