<svg width="570" height="342" viewBox="0 0 570 342" fill="none" xmlns="http://www.w3.org/2000/svg">
    <rect x="0.5" y="0.5" width="569" height="340.9" rx="19.5" fill="#12161D" stroke="#12161D"/>
    <circle cx="22.0341" cy="20.9922" r="5.99215" fill="#ED6A5E"/>
    <circle cx="42.5215" cy="20.9922" r="5.99215" fill="#F6BD4F"/>
    <circle cx="63.0088" cy="20.9922" r="5.99215" fill="#61C354"/>
    <path d="M70.1074 89.6602C70.1074 90.6094 69.7559 91.3623 69.0527 91.9189C68.3496 92.4697 67.3418 92.7715 66.0293 92.8242V94.2393H64.9043V92.8242C62.4316 92.7422 60.9902 91.6904 60.5801 89.6689L62.0742 89.3438C62.2266 90.082 62.5371 90.6357 63.0059 91.0049C63.4746 91.3682 64.1074 91.5703 64.9043 91.6113V87.3135L64.6406 87.2432C63.6562 87.0029 62.9326 86.7422 62.4697 86.4609C62.0127 86.1738 61.6758 85.8311 61.459 85.4326C61.248 85.0342 61.1426 84.5596 61.1426 84.0088C61.1426 83.1357 61.4619 82.4561 62.1006 81.9697C62.7451 81.4775 63.6797 81.2109 64.9043 81.1699V80.0273H66.0293V81.1699C67.1191 81.2109 67.96 81.4453 68.5518 81.873C69.1436 82.2949 69.5713 83.001 69.835 83.9912L68.3057 84.2812C68.1768 83.6602 67.9248 83.1914 67.5498 82.875C67.1748 82.5586 66.668 82.3799 66.0293 82.3389V86.083C67.0371 86.3291 67.7666 86.5576 68.2178 86.7686C68.6689 86.9795 69.0293 87.2197 69.2988 87.4893C69.5684 87.7588 69.7705 88.0723 69.9053 88.4297C70.04 88.7812 70.1074 89.1914 70.1074 89.6602ZM62.6543 84.0527C62.6543 84.3867 62.7217 84.668 62.8564 84.8965C62.9971 85.1191 63.1992 85.3066 63.4629 85.459C63.7266 85.6055 64.207 85.7695 64.9043 85.9512V82.3213C64.166 82.3506 63.6064 82.5146 63.2256 82.8135C62.8447 83.1064 62.6543 83.5195 62.6543 84.0527ZM68.5957 89.6338C68.5957 89.2471 68.5137 88.9277 68.3496 88.6758C68.1914 88.4238 67.9658 88.2158 67.6729 88.0518C67.3799 87.8818 66.832 87.6943 66.0293 87.4893V91.6289C66.873 91.5762 67.5117 91.3799 67.9453 91.04C68.3789 90.6943 68.5957 90.2256 68.5957 89.6338ZM84.8291 83.4902V89.5195C84.8291 90.4336 84.9727 91.0693 85.2598 91.4268C85.5469 91.7783 86.0596 91.9541 86.7979 91.9541C87.5537 91.9541 88.1514 91.6963 88.5908 91.1807C89.0303 90.665 89.25 89.9385 89.25 89.001V83.4902H90.8408V90.9697C90.8408 92.0771 90.8584 92.7539 90.8936 93H89.3994C89.3936 92.9707 89.3877 92.8916 89.3818 92.7627C89.376 92.6338 89.3672 92.4873 89.3555 92.3232C89.3496 92.1533 89.3408 91.8369 89.3291 91.374H89.3027C88.9395 92.0303 88.5176 92.4961 88.0371 92.7715C87.5625 93.041 86.9707 93.1758 86.2617 93.1758C85.2188 93.1758 84.4541 92.918 83.9678 92.4023C83.4873 91.8809 83.2471 91.0225 83.2471 89.8271V83.4902H84.8291ZM102.012 88.2012C102.012 91.5176 100.863 93.1758 98.5664 93.1758C97.125 93.1758 96.1553 92.6367 95.6572 91.5586H95.6133C95.6367 91.6055 95.6484 92.0918 95.6484 93.0176V96.7354H94.0576V85.459C94.0576 84.4629 94.04 83.8066 94.0049 83.4902H95.543C95.5488 83.5137 95.5576 83.6016 95.5693 83.7539C95.5811 83.9004 95.5928 84.1201 95.6045 84.4131C95.6221 84.7002 95.6309 84.9141 95.6309 85.0547H95.666C95.959 84.4395 96.3311 83.9941 96.7822 83.7188C97.2393 83.4375 97.834 83.2969 98.5664 83.2969C99.7266 83.2969 100.591 83.6982 101.159 84.501C101.728 85.2979 102.012 86.5312 102.012 88.2012ZM100.377 88.2012C100.377 86.877 100.198 85.9336 99.8408 85.3711C99.4834 84.8027 98.9209 84.5186 98.1533 84.5186C97.2686 84.5186 96.6299 84.8408 96.2373 85.4854C95.8447 86.124 95.6484 87.0938 95.6484 88.3945C95.6484 89.6426 95.8447 90.5566 96.2373 91.1367C96.6299 91.7168 97.2627 92.0068 98.1357 92.0068C98.915 92.0068 99.4834 91.7109 99.8408 91.1191C100.198 90.5273 100.377 89.5547 100.377 88.2012ZM112.559 90.2842C112.559 91.1865 112.216 91.8955 111.53 92.4111C110.851 92.9209 109.907 93.1758 108.7 93.1758C107.493 93.1758 106.573 92.9883 105.94 92.6133C105.313 92.2324 104.903 91.6348 104.71 90.8203L106.107 90.5479C106.219 91.0518 106.456 91.4209 106.819 91.6553C107.188 91.8838 107.815 91.998 108.7 91.998C110.282 91.998 111.073 91.4971 111.073 90.4951C111.073 90.1201 110.93 89.8184 110.643 89.5898C110.355 89.3555 109.916 89.165 109.324 89.0186C107.777 88.6377 106.796 88.3389 106.38 88.1221C105.964 87.9053 105.645 87.6357 105.422 87.3135C105.199 86.9854 105.088 86.5781 105.088 86.0918C105.088 85.2305 105.398 84.5566 106.02 84.0703C106.641 83.584 107.54 83.3408 108.718 83.3408C109.749 83.3408 110.572 83.5371 111.188 83.9297C111.803 84.3164 112.187 84.8818 112.339 85.626L110.915 85.8018C110.851 85.3799 110.643 85.0605 110.291 84.8438C109.939 84.627 109.415 84.5186 108.718 84.5186C107.282 84.5186 106.564 84.9609 106.564 85.8457C106.564 86.1973 106.685 86.4785 106.925 86.6895C107.171 86.9004 107.563 87.0703 108.103 87.1992L109.148 87.4717C110.104 87.7061 110.789 87.9375 111.205 88.166C111.627 88.3945 111.958 88.6816 112.198 89.0273C112.438 89.3672 112.559 89.7861 112.559 90.2842ZM123.694 88.2363C123.694 89.8359 123.325 91.0605 122.587 91.9102C121.854 92.7539 120.794 93.1758 119.405 93.1758C118.046 93.1758 117.003 92.748 116.276 91.8926C115.556 91.0371 115.195 89.8184 115.195 88.2363C115.195 86.6016 115.564 85.374 116.303 84.5537C117.047 83.7275 118.099 83.3145 119.458 83.3145C120.888 83.3145 121.951 83.7217 122.648 84.5361C123.346 85.3506 123.694 86.584 123.694 88.2363ZM122.033 88.2363C122.033 86.9766 121.831 86.0361 121.427 85.415C121.028 84.7939 120.381 84.4834 119.484 84.4834C118.576 84.4834 117.911 84.7998 117.489 85.4326C117.067 86.0654 116.856 87 116.856 88.2363C116.856 89.4668 117.067 90.4043 117.489 91.0488C117.911 91.6875 118.544 92.0068 119.388 92.0068C120.319 92.0068 120.993 91.6934 121.409 91.0664C121.825 90.4395 122.033 89.4961 122.033 88.2363ZM132.492 93V86.8916C132.492 86.0947 132.337 85.5029 132.026 85.1162C131.722 84.7295 131.232 84.5361 130.559 84.5361C129.832 84.5361 129.234 84.8027 128.766 85.3359C128.303 85.8633 128.071 86.5811 128.071 87.4893V93H126.489V85.5205C126.489 84.4131 126.472 83.7363 126.437 83.4902H127.931C127.937 83.5195 127.942 83.5986 127.948 83.7275C127.954 83.8564 127.96 84.0059 127.966 84.1758C127.978 84.3398 127.989 84.6533 128.001 85.1162H128.027C128.643 83.915 129.656 83.3145 131.068 83.3145C132.082 83.3145 132.838 83.5898 133.336 84.1406C133.834 84.6855 134.083 85.5264 134.083 86.6631V93H132.492ZM142.222 91.752H145.562V93H136.931V91.752H140.64V84.7383H137.836V83.4902H142.222V91.752ZM140.464 81.6445V79.957H142.222V81.6445H140.464ZM147.627 88.2363C147.627 86.6543 148.005 85.4385 148.761 84.5889C149.517 83.7393 150.609 83.3145 152.039 83.3145C153.105 83.3145 153.984 83.5723 154.676 84.0879C155.367 84.5977 155.795 85.2861 155.959 86.1533L154.271 86.2764C154.178 85.7432 153.943 85.3242 153.568 85.0195C153.193 84.709 152.66 84.5537 151.969 84.5537C151.043 84.5537 150.363 84.8408 149.93 85.415C149.502 85.9893 149.288 86.918 149.288 88.2012C149.288 89.502 149.502 90.4541 149.93 91.0576C150.363 91.6553 151.04 91.9541 151.96 91.9541C152.593 91.9541 153.117 91.7988 153.533 91.4883C153.949 91.1777 154.207 90.7031 154.307 90.0645L155.977 90.1699C155.9 90.7324 155.687 91.2451 155.335 91.708C154.989 92.165 154.529 92.5254 153.955 92.7891C153.381 93.0469 152.739 93.1758 152.03 93.1758C150.595 93.1758 149.502 92.7539 148.752 91.9102C148.002 91.0664 147.627 89.8418 147.627 88.2363Z"
          fill="#01EE8A"/>
    <path d="M175.682 91.4707C175.395 92.0859 175.014 92.5342 174.539 92.8154C174.064 93.0908 173.473 93.2285 172.764 93.2285C171.58 93.2285 170.71 92.8213 170.153 92.0068C169.597 91.1924 169.318 89.9648 169.318 88.3242C169.318 85.0078 170.467 83.3496 172.764 83.3496C173.473 83.3496 174.064 83.4756 174.539 83.7275C175.02 83.9795 175.403 84.3926 175.69 84.9668H175.708L175.69 83.6396V79.957H177.272V91.04C177.272 92.0303 177.29 92.6836 177.325 93H175.813C175.79 92.9121 175.77 92.6982 175.752 92.3584C175.734 92.0186 175.726 91.7227 175.726 91.4707H175.682ZM170.953 88.2715C170.953 89.5723 171.126 90.5215 171.472 91.1191C171.823 91.7109 172.392 92.0068 173.177 92.0068C174.032 92.0068 174.665 91.6992 175.075 91.084C175.485 90.4629 175.69 89.4785 175.69 88.1309C175.69 86.8711 175.491 85.9541 175.093 85.3799C174.7 84.8057 174.067 84.5186 173.194 84.5186C172.403 84.5186 171.832 84.8203 171.48 85.4238C171.129 86.0273 170.953 86.9766 170.953 88.2715ZM181.746 88.5791C181.746 89.6455 181.98 90.4805 182.449 91.084C182.924 91.6875 183.571 91.9893 184.392 91.9893C184.995 91.9893 185.522 91.8604 185.974 91.6025C186.431 91.3389 186.735 90.9814 186.888 90.5303L188.276 90.9258C188.019 91.6523 187.544 92.209 186.853 92.5957C186.167 92.9824 185.347 93.1758 184.392 93.1758C183.009 93.1758 181.945 92.7451 181.201 91.8838C180.457 91.0225 180.085 89.7891 180.085 88.1836C180.085 86.6191 180.448 85.418 181.175 84.5801C181.907 83.7363 182.962 83.3145 184.339 83.3145C185.716 83.3145 186.759 83.7334 187.468 84.5713C188.177 85.4092 188.531 86.6748 188.531 88.3682V88.5791H181.746ZM184.356 84.4834C183.571 84.4834 182.95 84.7412 182.493 85.2568C182.036 85.7666 181.793 86.4697 181.764 87.3662H186.896C186.732 85.4443 185.886 84.4834 184.356 84.4834ZM199.307 88.2012C199.307 91.5176 198.158 93.1758 195.861 93.1758C194.42 93.1758 193.45 92.6367 192.952 91.5586H192.908C192.932 91.6055 192.943 92.0918 192.943 93.0176V96.7354H191.353V85.459C191.353 84.4629 191.335 83.8066 191.3 83.4902H192.838C192.844 83.5137 192.853 83.6016 192.864 83.7539C192.876 83.9004 192.888 84.1201 192.899 84.4131C192.917 84.7002 192.926 84.9141 192.926 85.0547H192.961C193.254 84.4395 193.626 83.9941 194.077 83.7188C194.534 83.4375 195.129 83.2969 195.861 83.2969C197.021 83.2969 197.886 83.6982 198.454 84.501C199.022 85.2979 199.307 86.5312 199.307 88.2012ZM197.672 88.2012C197.672 86.877 197.493 85.9336 197.136 85.3711C196.778 84.8027 196.216 84.5186 195.448 84.5186C194.563 84.5186 193.925 84.8408 193.532 85.4854C193.14 86.124 192.943 87.0938 192.943 88.3945C192.943 89.6426 193.14 90.5566 193.532 91.1367C193.925 91.7168 194.558 92.0068 195.431 92.0068C196.21 92.0068 196.778 91.7109 197.136 91.1191C197.493 90.5273 197.672 89.5547 197.672 88.2012ZM207.006 91.752H210.346V93H201.715V91.752H205.424V81.2051H202.884V79.957H207.006V91.752ZM220.989 88.2363C220.989 89.8359 220.62 91.0605 219.882 91.9102C219.149 92.7539 218.089 93.1758 216.7 93.1758C215.341 93.1758 214.298 92.748 213.571 91.8926C212.851 91.0371 212.49 89.8184 212.49 88.2363C212.49 86.6016 212.859 85.374 213.598 84.5537C214.342 83.7275 215.394 83.3145 216.753 83.3145C218.183 83.3145 219.246 83.7217 219.943 84.5361C220.641 85.3506 220.989 86.584 220.989 88.2363ZM219.328 88.2363C219.328 86.9766 219.126 86.0361 218.722 85.415C218.323 84.7939 217.676 84.4834 216.779 84.4834C215.871 84.4834 215.206 84.7998 214.784 85.4326C214.362 86.0654 214.151 87 214.151 88.2363C214.151 89.4668 214.362 90.4043 214.784 91.0488C215.206 91.6875 215.839 92.0068 216.683 92.0068C217.614 92.0068 218.288 91.6934 218.704 91.0664C219.12 90.4395 219.328 89.4961 219.328 88.2363ZM224.725 96.7354C224.291 96.7354 223.928 96.7031 223.635 96.6387V95.4521C223.857 95.4873 224.104 95.5049 224.373 95.5049C224.836 95.5049 225.27 95.332 225.674 94.9863C226.084 94.6406 226.43 94.0898 226.711 93.334L226.869 92.9033L222.738 83.4902H224.426L226.746 89.1328C227.279 90.4453 227.566 91.1895 227.607 91.3652L227.968 90.3984L230.692 83.4902H232.362L228.354 93C227.833 94.377 227.291 95.3438 226.729 95.9004C226.172 96.457 225.504 96.7354 224.725 96.7354ZM253.474 87.0674C253.474 89.0479 253.107 90.5625 252.375 91.6113C251.648 92.6543 250.573 93.1758 249.149 93.1758C247.726 93.1758 246.656 92.6572 245.941 91.6201C245.227 90.5771 244.869 89.0596 244.869 87.0674C244.869 85.0225 245.218 83.4932 245.915 82.4795C246.612 81.4658 247.708 80.959 249.202 80.959C250.661 80.959 251.736 81.4717 252.428 82.4971C253.125 83.5166 253.474 85.04 253.474 87.0674ZM251.865 87.0674C251.865 85.3682 251.657 84.1406 251.241 83.3848C250.831 82.623 250.151 82.2422 249.202 82.2422C248.229 82.2422 247.529 82.6172 247.102 83.3672C246.68 84.1172 246.469 85.3506 246.469 87.0674C246.469 88.7373 246.683 89.959 247.11 90.7324C247.544 91.5 248.229 91.8838 249.167 91.8838C250.099 91.8838 250.781 91.4883 251.215 90.6973C251.648 89.9062 251.865 88.6963 251.865 87.0674ZM248.139 88.1221V85.9336H250.204V88.1221H248.139ZM258.949 93V90.3721H261.015V93H258.949ZM266.78 93V91.7256H270.639V82.752C270.422 83.209 269.906 83.6074 269.092 83.9473C268.283 84.2871 267.486 84.457 266.701 84.457V83.1562C267.568 83.1562 268.386 82.9658 269.153 82.585C269.927 82.2041 270.466 81.7236 270.771 81.1436H272.229V91.7256H275.332V93H266.78ZM280.57 93V90.3721H282.636V93H280.57ZM288.287 93V91.9717C288.574 91.333 289.02 90.6914 289.623 90.0469C290.232 89.3965 291.059 88.6553 292.102 87.8232C293.033 87.0791 293.704 86.4316 294.114 85.8809C294.524 85.3301 294.729 84.7998 294.729 84.29C294.729 83.6396 294.527 83.1387 294.123 82.7871C293.719 82.4355 293.142 82.2598 292.392 82.2598C291.724 82.2598 291.182 82.4443 290.766 82.8135C290.355 83.1768 290.112 83.6895 290.036 84.3516L288.419 84.2021C288.536 83.2061 288.943 82.418 289.641 81.8379C290.338 81.252 291.255 80.959 292.392 80.959C293.64 80.959 294.612 81.2402 295.31 81.8027C296.007 82.3652 296.355 83.1621 296.355 84.1934C296.355 84.8672 296.133 85.541 295.688 86.2148C295.242 86.8828 294.577 87.5684 293.692 88.2715C292.485 89.2324 291.647 89.9414 291.179 90.3984C290.716 90.8496 290.388 91.2891 290.194 91.7168H296.549V93H288.287Z"
          fill="#00A3FF"/>
</svg>
