<svg width="21" height="17" viewBox="0 0 21 17" fill="none" xmlns="http://www.w3.org/2000/svg">
    <path d="M17.7682 2.08591C16.4382 1.46591 14.9982 1.01591 13.4982 0.755905C13.485 0.755485 13.4719 0.757953 13.4598 0.763136C13.4477 0.768319 13.4369 0.776092 13.4282 0.785906C13.2482 1.11591 13.0382 1.54591 12.8982 1.87591C11.3072 1.63591 9.68916 1.63591 8.09816 1.87591C7.95816 1.53591 7.74816 1.11591 7.55816 0.785906C7.54816 0.765906 7.51816 0.755905 7.48816 0.755905C5.98816 1.01591 4.55816 1.46591 3.21816 2.08591C3.20816 2.08591 3.19816 2.09591 3.18816 2.10591C0.468164 6.17591 -0.281836 10.1359 0.0881641 14.0559C0.0881641 14.0759 0.0981641 14.0959 0.118164 14.1059C1.91816 15.4259 3.64816 16.2259 5.35816 16.7559C5.38816 16.7659 5.41816 16.7559 5.42816 16.7359C5.82816 16.1859 6.18816 15.6059 6.49816 14.9959C6.51816 14.9559 6.49816 14.9159 6.45816 14.9059C5.88816 14.6859 5.34816 14.4259 4.81816 14.1259C4.77816 14.1059 4.77816 14.0459 4.80816 14.0159C4.91816 13.9359 5.02816 13.8459 5.13816 13.7659C5.15816 13.7459 5.18816 13.7459 5.20816 13.7559C8.64816 15.3259 12.3582 15.3259 15.7582 13.7559C15.7782 13.7459 15.8082 13.7459 15.8282 13.7659C15.9382 13.8559 16.0482 13.9359 16.1582 14.0259C16.1982 14.0559 16.1982 14.1159 16.1482 14.1359C15.6282 14.4459 15.0782 14.6959 14.5082 14.9159C14.4682 14.9259 14.4582 14.9759 14.4682 15.0059C14.7882 15.6159 15.1482 16.1959 15.5382 16.7459C15.5682 16.7559 15.5982 16.7659 15.6282 16.7559C17.3482 16.2259 19.0782 15.4259 20.8782 14.1059C20.8982 14.0959 20.9082 14.0759 20.9082 14.0559C21.3482 9.5259 20.1782 5.59591 17.8082 2.10591C17.7982 2.09591 17.7882 2.08591 17.7682 2.08591ZM7.01816 11.6659C5.98816 11.6659 5.12816 10.7159 5.12816 9.54591C5.12816 8.37591 5.96816 7.42591 7.01816 7.42591C8.07817 7.42591 8.91816 8.38591 8.90816 9.54591C8.90816 10.7159 8.06816 11.6659 7.01816 11.6659ZM13.9882 11.6659C12.9582 11.6659 12.0982 10.7159 12.0982 9.54591C12.0982 8.37591 12.9382 7.42591 13.9882 7.42591C15.0482 7.42591 15.8882 8.38591 15.8782 9.54591C15.8782 10.7159 15.0482 11.6659 13.9882 11.6659Z"
          fill="white"/>
</svg>
