<svg width="12" height="10" viewBox="0 0 12 10" fill="none" xmlns="http://www.w3.org/2000/svg">
    <path d="M1.5 8.66667H4.66667C5.40305 8.66667 6 9.26362 6 10V4.5C6 3.10218 6 2.40326 5.77164 1.85195C5.46716 1.11687 4.88313 0.532843 4.14805 0.228361C3.59674 0 2.89782 0 1.5 0C1.03406 0 0.801087 0 0.617316 0.0761205C0.372288 0.177614 0.177614 0.372288 0.0761204 0.617317C0 0.801088 0 1.03406 0 1.5V7.16667C0 7.63261 0 7.86558 0.0761204 8.04935C0.177614 8.29438 0.372288 8.48905 0.617316 8.59055C0.801087 8.66667 1.03406 8.66667 1.5 8.66667Z"
          fill="#4D38FF"/>
    <path d="M10.5 8.66667H7.33333C6.59695 8.66667 6 9.26362 6 10V4.5C6 3.10218 6 2.40326 6.22836 1.85195C6.53284 1.11687 7.11687 0.532843 7.85195 0.228361C8.40326 0 9.10218 0 10.5 0C10.9659 0 11.1989 0 11.3827 0.0761205C11.6277 0.177614 11.8224 0.372288 11.9239 0.617317C12 0.801088 12 1.03406 12 1.5V7.16667C12 7.63261 12 7.86558 11.9239 8.04935C11.8224 8.29438 11.6277 8.48905 11.3827 8.59055C11.1989 8.66667 10.9659 8.66667 10.5 8.66667Z"
          fill="#4D38FF"/>
</svg>
