<svg width="21" height="18" viewBox="0 0 21 18" fill="none" xmlns="http://www.w3.org/2000/svg">
    <path d="M2.8843 15.3003H8.48243C9.68138 15.3003 10.6533 16.2722 10.6533 17.4712V7.18945C10.6533 4.36103 10.6533 2.94681 9.77464 2.06813C8.89596 1.18945 7.48175 1.18945 4.65332 1.18945H2.8843C1.94149 1.18945 1.47009 1.18945 1.17719 1.48235C0.884298 1.77524 0.884298 2.24664 0.884298 3.18945V13.3003C0.884298 14.2431 0.884298 14.7145 1.17719 15.0074C1.47009 15.3003 1.94149 15.3003 2.8843 15.3003Z"
          stroke="#01EE8A"/>
    <path d="M18.4223 15.3003H12.8242C11.6253 15.3003 10.6533 16.2722 10.6533 17.4712V7.18945C10.6533 4.36103 10.6533 2.94681 11.532 2.06813C12.4107 1.18945 13.8249 1.18945 16.6533 1.18945H18.4223C19.3652 1.18945 19.8366 1.18945 20.1294 1.48235C20.4223 1.77524 20.4223 2.24664 20.4223 3.18945V13.3003C20.4223 14.2431 20.4223 14.7145 20.1294 15.0074C19.8366 15.3003 19.3652 15.3003 18.4223 15.3003Z"
          stroke="#01EE8A"/>
</svg>
