<svg width="51" height="51" viewBox="0 0 51 51" fill="none" xmlns="http://www.w3.org/2000/svg">
    <g filter="url(#filter0_f_38_124)">
        <path d="M20.3326 15.1672C20.3326 15.8458 20.4662 16.5177 20.7259 17.1446C20.9856 17.7715 21.3662 18.3412 21.846 18.821C22.3258 19.3008 22.8955 19.6814 23.5224 19.9411C24.1493 20.2008 24.8212 20.3344 25.4998 20.3344C26.1783 20.3344 26.8503 20.2008 27.4772 19.9411C28.1041 19.6814 28.6737 19.3008 29.1536 18.821C29.6334 18.3412 30.014 17.7715 30.2737 17.1446C30.5333 16.5177 30.667 15.8458 30.667 15.1672C30.667 14.4886 30.5333 13.8167 30.2737 13.1898C30.014 12.5629 29.6334 11.9933 29.1535 11.5134C28.6737 11.0336 28.1041 10.653 27.4772 10.3933C26.8503 10.1337 26.1783 10 25.4998 10C24.8212 10 24.1493 10.1337 23.5224 10.3933C22.8955 10.653 22.3258 11.0336 21.846 11.5134C21.3662 11.9933 20.9856 12.5629 20.7259 13.1898C20.4662 13.8167 20.3326 14.4886 20.3326 15.1672L20.3326 15.1672Z"
              stroke="#01EE8A"/>
        <path d="M12.475 28.7763C11.8874 29.1156 11.3723 29.5673 10.9592 30.1056C10.5461 30.644 10.2431 31.2584 10.0675 31.9139C9.89187 32.5693 9.84706 33.2529 9.93564 33.9257C10.0242 34.5985 10.2444 35.2472 10.5837 35.8349C10.923 36.4225 11.3747 36.9376 11.913 37.3507C12.4514 37.7638 13.0658 38.0668 13.7213 38.2424C14.3767 38.418 15.0603 38.4628 15.7331 38.3743C16.4059 38.2857 17.0546 38.0655 17.6423 37.7262C18.2299 37.3869 18.745 36.9352 19.1581 36.3968C19.5712 35.8585 19.8742 35.2441 20.0498 34.5886C20.2254 33.9332 20.2702 33.2496 20.1816 32.5768C20.0931 31.904 19.8729 31.2553 19.5336 30.6676C19.1943 30.08 18.7426 29.5649 18.2042 29.1518C17.6659 28.7387 17.0515 28.4357 16.396 28.2601C15.7406 28.0845 15.0569 28.0397 14.3842 28.1282C13.7114 28.2168 13.0627 28.437 12.475 28.7763L12.475 28.7763Z"
              stroke="#01EE8A"/>
        <path d="M38.525 28.7763C39.1126 29.1156 39.6277 29.5673 40.0408 30.1056C40.4539 30.644 40.7569 31.2584 40.9325 31.9139C41.1081 32.5693 41.1529 33.2529 41.0644 33.9257C40.9758 34.5985 40.7556 35.2472 40.4163 35.8349C40.077 36.4225 39.6253 36.9376 39.087 37.3507C38.5486 37.7638 37.9342 38.0668 37.2787 38.2424C36.6233 38.418 35.9397 38.4628 35.2669 38.3743C34.5941 38.2857 33.9454 38.0655 33.3577 37.7262C32.7701 37.3869 32.255 36.9352 31.8419 36.3968C31.4288 35.8585 31.1258 35.2441 30.9502 34.5886C30.7746 33.9332 30.7298 33.2496 30.8184 32.5768C30.9069 31.904 31.1271 31.2553 31.4664 30.6676C31.8057 30.08 32.2574 29.5649 32.7958 29.1518C33.3341 28.7387 33.9485 28.4357 34.604 28.2601C35.2594 28.0845 35.9431 28.0397 36.6158 28.1282C37.2886 28.2168 37.9373 28.437 38.525 28.7763L38.525 28.7763Z"
              stroke="#01EE8A"/>
        <path fill-rule="evenodd" clip-rule="evenodd"
              d="M20.3352 14.989C18.7568 15.6554 17.322 16.621 16.1101 17.8329C14.877 19.066 13.8989 20.5299 13.2315 22.141C12.5642 23.7521 12.2207 25.4789 12.2207 27.2227C12.2207 27.7734 12.2549 28.3223 12.3228 28.8664C11.9946 29.0711 11.6909 29.3118 11.4172 29.5836C11.2867 28.8052 11.2207 28.0156 11.2207 27.2227C11.2207 25.3476 11.59 23.4907 12.3076 21.7583C13.0252 20.0259 14.077 18.4517 15.403 17.1258C16.7289 15.7998 18.3031 14.748 20.0355 14.0304C20.1906 13.9662 20.3466 13.9048 20.5036 13.8462C20.405 14.2191 20.3485 14.6024 20.3352 14.989ZM30.6636 14.9886C32.2424 15.6549 33.6776 16.6207 34.8898 17.8329C36.1229 19.066 37.101 20.5299 37.7684 22.141C38.4357 23.7521 38.7792 25.4789 38.7792 27.2227C38.7792 27.7736 38.7449 28.3227 38.677 28.867C39.0051 29.0719 39.3088 29.3126 39.5825 29.5845C39.7131 28.8059 39.7792 28.0159 39.7792 27.2227C39.7792 25.3475 39.4098 23.4907 38.6922 21.7583C37.9746 20.0259 36.9228 18.4517 35.5969 17.1258C34.2709 15.7998 32.6968 14.748 30.9644 14.0304C30.8089 13.966 30.6525 13.9045 30.4951 13.8457C30.5937 14.2186 30.6503 14.602 30.6636 14.9886ZM34.5872 38.2372C34.2149 38.1361 33.8546 37.9935 33.5131 37.8117C32.6134 38.4926 31.6286 39.0575 30.5817 39.4911C28.9706 40.1585 27.2438 40.502 25.4999 40.502C23.7561 40.502 22.0293 40.1585 20.4182 39.4911C19.3711 39.0574 18.3861 38.4924 17.4863 37.8114C17.1449 37.9932 16.7846 38.1358 16.4124 38.2369C17.5034 39.1371 18.7241 39.8718 20.0355 40.415C21.768 41.1326 23.6248 41.502 25.4999 41.502C27.3751 41.502 29.2319 41.1326 30.9644 40.415C32.2757 39.8719 33.4963 39.1372 34.5872 38.2372Z"
              fill="#01EE8A"/>
    </g>
    <path d="M20.3326 15.1672C20.3326 15.8458 20.4662 16.5177 20.7259 17.1446C20.9856 17.7715 21.3662 18.3412 21.846 18.821C22.3258 19.3008 22.8955 19.6814 23.5224 19.9411C24.1493 20.2008 24.8212 20.3344 25.4998 20.3344C26.1783 20.3344 26.8503 20.2008 27.4772 19.9411C28.1041 19.6814 28.6737 19.3008 29.1536 18.821C29.6334 18.3412 30.014 17.7715 30.2737 17.1446C30.5333 16.5177 30.667 15.8458 30.667 15.1672C30.667 14.4886 30.5333 13.8167 30.2737 13.1898C30.014 12.5629 29.6334 11.9933 29.1535 11.5134C28.6737 11.0336 28.1041 10.653 27.4772 10.3933C26.8503 10.1337 26.1783 10 25.4998 10C24.8212 10 24.1493 10.1337 23.5224 10.3933C22.8955 10.653 22.3258 11.0336 21.846 11.5134C21.3662 11.9933 20.9856 12.5629 20.7259 13.1898C20.4662 13.8167 20.3326 14.4886 20.3326 15.1672L20.3326 15.1672Z"
          stroke="#01EE8A"/>
    <path d="M12.475 28.7763C11.8874 29.1156 11.3723 29.5673 10.9592 30.1056C10.5461 30.644 10.2431 31.2584 10.0675 31.9139C9.89187 32.5693 9.84706 33.2529 9.93564 33.9257C10.0242 34.5985 10.2444 35.2472 10.5837 35.8349C10.923 36.4225 11.3747 36.9376 11.913 37.3507C12.4514 37.7638 13.0658 38.0668 13.7213 38.2424C14.3767 38.418 15.0603 38.4628 15.7331 38.3743C16.4059 38.2857 17.0546 38.0655 17.6423 37.7262C18.2299 37.3869 18.745 36.9352 19.1581 36.3968C19.5712 35.8585 19.8742 35.2441 20.0498 34.5886C20.2254 33.9332 20.2702 33.2496 20.1816 32.5768C20.0931 31.904 19.8729 31.2553 19.5336 30.6676C19.1943 30.08 18.7426 29.5649 18.2042 29.1518C17.6659 28.7387 17.0515 28.4357 16.396 28.2601C15.7406 28.0845 15.0569 28.0397 14.3842 28.1282C13.7114 28.2168 13.0627 28.437 12.475 28.7763L12.475 28.7763Z"
          stroke="#01EE8A"/>
    <path d="M38.525 28.7763C39.1126 29.1156 39.6277 29.5673 40.0408 30.1056C40.4539 30.644 40.7569 31.2584 40.9325 31.9139C41.1081 32.5693 41.1529 33.2529 41.0644 33.9257C40.9758 34.5985 40.7556 35.2472 40.4163 35.8349C40.077 36.4225 39.6253 36.9376 39.087 37.3507C38.5486 37.7638 37.9342 38.0668 37.2787 38.2424C36.6233 38.418 35.9397 38.4628 35.2669 38.3743C34.5941 38.2857 33.9454 38.0655 33.3577 37.7262C32.7701 37.3869 32.255 36.9352 31.8419 36.3968C31.4288 35.8585 31.1258 35.2441 30.9502 34.5886C30.7746 33.9332 30.7298 33.2496 30.8184 32.5768C30.9069 31.904 31.1271 31.2553 31.4664 30.6676C31.8057 30.08 32.2574 29.5649 32.7958 29.1518C33.3341 28.7387 33.9485 28.4357 34.604 28.2601C35.2594 28.0845 35.9431 28.0397 36.6158 28.1282C37.2886 28.2168 37.9373 28.437 38.525 28.7763L38.525 28.7763Z"
          stroke="#01EE8A"/>
    <path fill-rule="evenodd" clip-rule="evenodd"
          d="M20.3352 14.989C18.7568 15.6554 17.322 16.621 16.1101 17.8329C14.877 19.066 13.8989 20.5299 13.2315 22.141C12.5642 23.7521 12.2207 25.4789 12.2207 27.2227C12.2207 27.7734 12.2549 28.3223 12.3228 28.8664C11.9946 29.0711 11.6909 29.3118 11.4172 29.5836C11.2867 28.8052 11.2207 28.0156 11.2207 27.2227C11.2207 25.3476 11.59 23.4907 12.3076 21.7583C13.0252 20.0259 14.077 18.4517 15.403 17.1258C16.7289 15.7998 18.3031 14.748 20.0355 14.0304C20.1906 13.9662 20.3466 13.9048 20.5036 13.8461C20.405 14.2191 20.3485 14.6024 20.3352 14.989ZM30.6636 14.9886C32.2424 15.6549 33.6776 16.6207 34.8898 17.8329C36.1229 19.066 37.101 20.5299 37.7684 22.141C38.4357 23.7521 38.7792 25.4789 38.7792 27.2227C38.7792 27.7736 38.7449 28.3227 38.677 28.867C39.0051 29.0719 39.3088 29.3126 39.5825 29.5845C39.7131 28.8059 39.7792 28.0159 39.7792 27.2227C39.7792 25.3475 39.4098 23.4907 38.6922 21.7583C37.9746 20.0259 36.9228 18.4517 35.5969 17.1258C34.2709 15.7998 32.6968 14.748 30.9644 14.0304C30.8089 13.966 30.6525 13.9045 30.4951 13.8457C30.5937 14.2186 30.6503 14.602 30.6636 14.9886ZM34.5872 38.2372C34.2149 38.1361 33.8546 37.9935 33.5131 37.8117C32.6134 38.4926 31.6286 39.0575 30.5817 39.4911C28.9706 40.1585 27.2438 40.502 25.4999 40.502C23.7561 40.502 22.0293 40.1585 20.4182 39.4911C19.3711 39.0574 18.3861 38.4924 17.4863 37.8114C17.1449 37.9932 16.7846 38.1358 16.4124 38.2369C17.5034 39.1371 18.7241 39.8718 20.0355 40.415C21.768 41.1326 23.6248 41.502 25.4999 41.502C27.3751 41.502 29.2319 41.1326 30.9644 40.415C32.2757 39.8719 33.4963 39.1372 34.5872 38.2372Z"
          fill="#01EE8A"/>
    <defs>
        <filter id="filter0_f_38_124" x="0.391602" y="0.5" width="50.2168" height="50.002" filterUnits="userSpaceOnUse"
                color-interpolation-filters="sRGB">
            <feFlood flood-opacity="0" result="BackgroundImageFix"/>
            <feBlend mode="normal" in="SourceGraphic" in2="BackgroundImageFix" result="shape"/>
            <feGaussianBlur stdDeviation="4.5" result="effect1_foregroundBlur_38_124"/>
        </filter>
    </defs>
</svg>
