<svg width="1438" height="180" viewBox="0 0 1438 180" fill="none" xmlns="http://www.w3.org/2000/svg">
    <mask id="mask0_259_12" style="mask-type:alpha" maskUnits="userSpaceOnUse" x="0" y="0" width="1438" height="180">
        <rect x="1438" y="180" width="1438" height="180" transform="rotate(180 1438 180)" fill="#0A0A0A"/>
    </mask>
    <g mask="url(#mask0_259_12)">
        <path d="M-612.366 -338.256C-958.999 -174.921 -958.753 89.7815 -611.817 252.974C-264.881 416.166 297.368 416.05 644 252.715C990.633 89.3798 990.388 -175.323 643.452 -338.515C296.516 -501.707 -265.733 -501.591 -612.366 -338.256Z"
              fill="black"/>
        <path d="M778.634 -96.2558C432.001 67.0791 432.247 331.782 779.183 494.974C1126.12 658.166 1688.37 658.05 2035 494.715C2381.63 331.38 2381.39 66.6774 2034.45 -96.5146C1687.52 -259.707 1125.27 -259.591 778.634 -96.2558Z"
              fill="black"/>
        <g filter="url(#filter0_b_259_12)">
            <path d="M1186.87 111.687C1184.92 111.497 1183.36 110.749 1182.21 109.443C1181.05 108.137 1180.61 106.344 1180.89 104.063C1183.45 80.1668 1191.29 58.2289 1204.42 38.2497C1217.56 18.2705 1234.6 2.22984 1255.56 -9.87236C1276.53 -21.9791 1298.92 -28.8981 1322.71 -30.6293C1346.5 -32.3604 1369.54 -28.3212 1391.82 -18.5116C1394.24 -17.5307 1395.6 -16.2062 1395.91 -14.5382C1396.21 -12.8701 1396.06 -11.1966 1395.43 -9.51765C1394.82 -7.84323 1393.69 -6.59664 1392.05 -5.77787C1390.42 -4.95911 1388.54 -5.00235 1386.44 -5.90758C1366.65 -15.0562 1345.83 -18.7948 1323.99 -17.1233C1302.14 -15.4518 1281.62 -9.0783 1262.42 1.99719C1243.23 13.076 1227.6 27.5764 1215.52 45.4984C1203.45 63.4204 1196.33 83.2907 1194.15 105.109C1193.99 107.575 1193.18 109.364 1191.71 110.475C1190.24 111.587 1188.63 111.991 1186.87 111.687ZM1409.02 178.485C1385.48 185.22 1362.75 184.689 1340.84 176.892C1318.93 169.094 1301.58 154.122 1288.79 131.973C1283.08 122.082 1281.85 111.717 1285.08 100.879C1288.32 90.0415 1294.99 81.7101 1305.08 75.8851C1315.17 70.0602 1325.71 68.4549 1336.72 71.0692C1347.72 73.6836 1356.08 79.9364 1361.79 89.8277C1365.56 96.3559 1371.2 100.42 1378.72 102.02C1386.24 103.619 1393.36 102.473 1400.08 98.5823C1406.81 94.699 1411.26 89.1632 1413.44 81.9749C1415.62 74.7866 1414.82 67.9244 1411.05 61.3882C1397.8 38.4404 1378.26 24.0065 1352.42 18.0865C1326.58 12.1665 1301.99 15.9452 1278.65 29.4226C1255.3 42.8999 1239.74 62.3068 1231.94 87.6433C1224.15 112.98 1226.82 137.023 1239.96 159.773C1242.7 164.521 1246.57 170.198 1251.58 176.803C1256.58 183.409 1263.5 190.491 1272.34 198.049C1273.96 199.487 1274.83 201.097 1274.94 202.879C1275.05 204.661 1274.48 206.308 1273.24 207.82C1272 209.327 1270.44 210.164 1268.56 210.33C1266.68 210.496 1264.98 209.957 1263.46 208.714C1256.04 202.712 1249.49 196.275 1243.82 189.402C1238.14 182.53 1232.95 175.037 1228.26 166.923C1213.07 140.612 1209.88 113.042 1218.69 84.2139C1227.51 55.3856 1245.17 33.3213 1271.67 18.0211C1298.37 2.60209 1326.46 -1.74467 1355.93 4.98082C1385.4 11.7063 1407.73 28.2245 1422.92 54.5353C1428.63 64.4266 1429.89 74.71 1426.69 85.3856C1423.5 96.0611 1416.85 104.318 1406.76 110.155C1396.67 115.98 1386.11 117.664 1375.07 115.208C1364.03 112.751 1355.64 106.575 1349.92 96.6806C1346.15 90.1523 1340.56 86.0587 1333.15 84.3996C1325.73 82.7406 1318.66 83.8589 1311.93 87.7547C1305.2 91.638 1300.7 97.2074 1298.42 104.463C1296.14 111.719 1296.89 118.604 1300.66 125.12C1311.74 144.309 1326.68 157.048 1345.49 163.337C1364.29 169.626 1384.17 170.148 1405.14 164.903C1407.26 164.468 1409.02 164.772 1410.41 165.814C1411.8 166.856 1412.76 168.283 1413.28 170.094C1413.68 171.707 1413.57 173.351 1412.96 175.025C1412.34 176.7 1411.03 177.853 1409.02 178.485ZM1189.64 27.3964C1188.63 29.2992 1187.19 30.4622 1185.33 30.8853C1183.46 31.3084 1181.67 30.9531 1179.96 29.8195C1178.26 28.6937 1177.23 27.3757 1176.89 25.8653C1176.54 24.355 1176.88 22.6445 1177.88 20.7337C1185.53 8.40289 1194.48 -2.82867 1204.72 -12.961C1214.96 -23.0933 1226.31 -31.7572 1238.77 -38.9528C1251.44 -46.2625 1264.69 -51.8658 1278.53 -55.7626C1292.37 -59.6595 1306.58 -61.9985 1321.16 -62.7797C1323.51 -62.8185 1325.24 -62.2324 1326.34 -61.0212C1327.44 -59.81 1328.09 -58.3384 1328.29 -56.6064C1328.49 -54.879 1328.13 -53.2199 1327.2 -51.6291C1326.28 -50.0383 1324.54 -49.1663 1321.99 -49.0133C1308.42 -48.3012 1295.22 -46.1498 1282.38 -42.5588C1269.55 -38.9679 1257.3 -33.8094 1245.63 -27.0832C1234.15 -20.4587 1223.65 -12.6112 1214.12 -3.54057C1204.58 5.53006 1196.42 15.8424 1189.64 27.3964ZM1342.53 211.337C1323.77 205.81 1307.6 198.467 1294.01 189.306C1280.42 180.146 1268.59 166.86 1258.53 149.448C1248.13 131.446 1245.89 112.491 1251.81 92.5852C1257.72 72.679 1269.88 57.4188 1288.29 46.8048C1306.68 36.1828 1326.08 33.2296 1346.48 37.9453C1366.87 42.661 1382.26 54.0159 1392.65 72.0102C1393.68 73.7906 1393.97 75.5398 1393.51 77.2577C1393.06 78.9756 1391.94 80.3468 1390.14 81.3714C1388.56 82.2851 1386.86 82.5426 1385.05 82.1438C1383.24 81.745 1381.81 80.6514 1380.78 78.8631C1372.22 64.0261 1359.56 54.7851 1342.81 51.1401C1326.06 47.495 1310.17 50.0065 1295.14 58.6743C1280.1 67.3546 1270.08 79.8031 1265.08 96.0197C1260.07 112.236 1261.84 127.761 1270.4 142.595C1279.65 158.619 1290.27 170.622 1302.26 178.605C1314.26 186.589 1328.85 193.13 1346.04 198.231C1347.91 198.733 1349.3 199.775 1350.22 201.357C1351.13 202.94 1351.34 204.667 1350.84 206.54C1350.33 208.412 1349.29 209.805 1347.71 210.719C1346.13 211.632 1344.4 211.838 1342.53 211.337ZM1420.49 139.419C1402.89 149.584 1384.17 152.474 1364.36 148.087C1344.55 143.701 1329.45 132.505 1319.06 114.498C1318.15 112.915 1317.89 111.215 1318.3 109.398C1318.71 107.581 1319.8 106.16 1321.57 105.137C1323.35 104.109 1325.13 103.873 1326.91 104.43C1328.68 104.986 1330.02 106.058 1330.93 107.645C1339.5 122.482 1351.86 131.565 1368.03 134.893C1384.19 138.221 1399.4 135.773 1413.64 127.55C1414.83 126.864 1416.45 125.795 1418.51 124.34C1420.57 122.886 1422.68 121.276 1424.82 119.51C1426.38 118.086 1428.05 117.449 1429.86 117.599C1431.67 117.748 1433.28 118.597 1434.69 120.146C1436 121.5 1436.5 123.056 1436.19 124.814C1435.89 126.572 1435.06 128.106 1433.71 129.415C1430.72 132.46 1427.92 134.804 1425.31 136.446C1422.7 138.089 1421.1 139.08 1420.49 139.419Z"
                  fill="black"/>
        </g>
    </g>
    <mask id="mask1_259_12" style="mask-type:alpha" maskUnits="userSpaceOnUse" x="0" y="0" width="1438" height="180">
        <rect x="1438" y="180" width="1438" height="180" transform="rotate(180 1438 180)" fill="#0A0A0A"/>
    </mask>
    <g mask="url(#mask1_259_12)">
        <path d="M-612.366 -338.256C-958.999 -174.921 -958.753 89.7815 -611.817 252.974C-264.881 416.166 297.368 416.05 644 252.715C990.633 89.3798 990.388 -175.323 643.452 -338.515C296.516 -501.707 -265.733 -501.591 -612.366 -338.256Z"
              fill="url(#paint0_radial_259_12)" fill-opacity="0.4"/>
        <path d="M778.634 -96.2558C432.001 67.0791 432.247 331.782 779.183 494.974C1126.12 658.166 1688.37 658.05 2035 494.715C2381.63 331.38 2381.39 66.6774 2034.45 -96.5146C1687.52 -259.707 1125.27 -259.591 778.634 -96.2558Z"
              fill="url(#paint1_radial_259_12)" fill-opacity="0.4"/>
        <g filter="url(#filter1_b_259_12)">
            <path d="M1186.87 111.687C1184.92 111.497 1183.36 110.749 1182.21 109.443C1181.05 108.137 1180.61 106.344 1180.89 104.063C1183.45 80.1668 1191.29 58.2289 1204.42 38.2497C1217.56 18.2705 1234.6 2.22984 1255.56 -9.87236C1276.53 -21.9791 1298.92 -28.8981 1322.71 -30.6293C1346.5 -32.3604 1369.54 -28.3212 1391.82 -18.5116C1394.24 -17.5307 1395.6 -16.2062 1395.91 -14.5382C1396.21 -12.8701 1396.06 -11.1966 1395.43 -9.51765C1394.82 -7.84323 1393.69 -6.59664 1392.05 -5.77787C1390.42 -4.95911 1388.54 -5.00235 1386.44 -5.90758C1366.65 -15.0562 1345.83 -18.7948 1323.99 -17.1233C1302.14 -15.4518 1281.62 -9.0783 1262.42 1.99719C1243.23 13.076 1227.6 27.5764 1215.52 45.4984C1203.45 63.4204 1196.33 83.2907 1194.15 105.109C1193.99 107.575 1193.18 109.364 1191.71 110.475C1190.24 111.587 1188.63 111.991 1186.87 111.687ZM1409.02 178.485C1385.48 185.22 1362.75 184.689 1340.84 176.892C1318.93 169.094 1301.58 154.122 1288.79 131.973C1283.08 122.082 1281.85 111.717 1285.08 100.879C1288.32 90.0415 1294.99 81.7101 1305.08 75.8851C1315.17 70.0602 1325.71 68.4549 1336.72 71.0692C1347.72 73.6836 1356.08 79.9364 1361.79 89.8277C1365.56 96.3559 1371.2 100.42 1378.72 102.02C1386.24 103.619 1393.36 102.473 1400.08 98.5823C1406.81 94.699 1411.26 89.1632 1413.44 81.9749C1415.62 74.7866 1414.82 67.9244 1411.05 61.3882C1397.8 38.4404 1378.26 24.0065 1352.42 18.0865C1326.58 12.1665 1301.99 15.9452 1278.65 29.4226C1255.3 42.8999 1239.74 62.3068 1231.94 87.6433C1224.15 112.98 1226.82 137.023 1239.96 159.773C1242.7 164.521 1246.57 170.198 1251.58 176.803C1256.58 183.409 1263.5 190.491 1272.34 198.049C1273.96 199.487 1274.83 201.097 1274.94 202.879C1275.05 204.661 1274.48 206.308 1273.24 207.82C1272 209.327 1270.44 210.164 1268.56 210.33C1266.68 210.496 1264.98 209.957 1263.46 208.714C1256.04 202.712 1249.49 196.275 1243.82 189.402C1238.14 182.53 1232.95 175.037 1228.26 166.923C1213.07 140.612 1209.88 113.042 1218.69 84.2139C1227.51 55.3856 1245.17 33.3213 1271.67 18.0211C1298.37 2.60209 1326.46 -1.74467 1355.93 4.98082C1385.4 11.7063 1407.73 28.2245 1422.92 54.5353C1428.63 64.4266 1429.89 74.71 1426.69 85.3856C1423.5 96.0611 1416.85 104.318 1406.76 110.155C1396.67 115.98 1386.11 117.664 1375.07 115.208C1364.03 112.751 1355.64 106.575 1349.92 96.6806C1346.15 90.1523 1340.56 86.0587 1333.15 84.3996C1325.73 82.7406 1318.66 83.8589 1311.93 87.7547C1305.2 91.638 1300.7 97.2074 1298.42 104.463C1296.14 111.719 1296.89 118.604 1300.66 125.12C1311.74 144.309 1326.68 157.048 1345.49 163.337C1364.29 169.626 1384.17 170.148 1405.14 164.903C1407.26 164.468 1409.02 164.772 1410.41 165.814C1411.8 166.856 1412.76 168.283 1413.28 170.094C1413.68 171.707 1413.57 173.351 1412.96 175.025C1412.34 176.7 1411.03 177.853 1409.02 178.485ZM1189.64 27.3964C1188.63 29.2992 1187.19 30.4622 1185.33 30.8853C1183.46 31.3084 1181.67 30.9531 1179.96 29.8195C1178.26 28.6937 1177.23 27.3757 1176.89 25.8653C1176.54 24.355 1176.88 22.6445 1177.88 20.7337C1185.53 8.40289 1194.48 -2.82867 1204.72 -12.961C1214.96 -23.0933 1226.31 -31.7572 1238.77 -38.9528C1251.44 -46.2625 1264.69 -51.8658 1278.53 -55.7626C1292.37 -59.6595 1306.58 -61.9985 1321.16 -62.7797C1323.51 -62.8185 1325.24 -62.2324 1326.34 -61.0212C1327.44 -59.81 1328.09 -58.3384 1328.29 -56.6064C1328.49 -54.879 1328.13 -53.2199 1327.2 -51.6291C1326.28 -50.0383 1324.54 -49.1663 1321.99 -49.0133C1308.42 -48.3012 1295.22 -46.1498 1282.38 -42.5588C1269.55 -38.9679 1257.3 -33.8094 1245.63 -27.0832C1234.15 -20.4587 1223.65 -12.6112 1214.12 -3.54057C1204.58 5.53006 1196.42 15.8424 1189.64 27.3964ZM1342.53 211.337C1323.77 205.81 1307.6 198.467 1294.01 189.306C1280.42 180.146 1268.59 166.86 1258.53 149.448C1248.13 131.446 1245.89 112.491 1251.81 92.5852C1257.72 72.679 1269.88 57.4188 1288.29 46.8048C1306.68 36.1828 1326.08 33.2296 1346.48 37.9453C1366.87 42.661 1382.26 54.0159 1392.65 72.0102C1393.68 73.7906 1393.97 75.5398 1393.51 77.2577C1393.06 78.9756 1391.94 80.3468 1390.14 81.3714C1388.56 82.2851 1386.86 82.5426 1385.05 82.1438C1383.24 81.745 1381.81 80.6514 1380.78 78.8631C1372.22 64.0261 1359.56 54.7851 1342.81 51.1401C1326.06 47.495 1310.17 50.0065 1295.14 58.6743C1280.1 67.3546 1270.08 79.8031 1265.08 96.0197C1260.07 112.236 1261.84 127.761 1270.4 142.595C1279.65 158.619 1290.27 170.622 1302.26 178.605C1314.26 186.589 1328.85 193.13 1346.04 198.231C1347.91 198.733 1349.3 199.775 1350.22 201.357C1351.13 202.94 1351.34 204.667 1350.84 206.54C1350.33 208.412 1349.29 209.805 1347.71 210.719C1346.13 211.632 1344.4 211.838 1342.53 211.337ZM1420.49 139.419C1402.89 149.584 1384.17 152.474 1364.36 148.087C1344.55 143.701 1329.45 132.505 1319.06 114.498C1318.15 112.915 1317.89 111.215 1318.3 109.398C1318.71 107.581 1319.8 106.16 1321.57 105.137C1323.35 104.109 1325.13 103.873 1326.91 104.43C1328.68 104.986 1330.02 106.058 1330.93 107.645C1339.5 122.482 1351.86 131.565 1368.03 134.893C1384.19 138.221 1399.4 135.773 1413.64 127.55C1414.83 126.864 1416.45 125.795 1418.51 124.34C1420.57 122.886 1422.68 121.276 1424.82 119.51C1426.38 118.086 1428.05 117.449 1429.86 117.599C1431.67 117.748 1433.28 118.597 1434.69 120.146C1436 121.5 1436.5 123.056 1436.19 124.814C1435.89 126.572 1435.06 128.106 1433.71 129.415C1430.72 132.46 1427.92 134.804 1425.31 136.446C1422.7 138.089 1421.1 139.08 1420.49 139.419Z"
                  fill="#01EE8A"/>
        </g>
    </g>
    <defs>
        <filter id="filter0_b_259_12" x="1126.76" y="-112.781" width="359.523" height="374.385"
                filterUnits="userSpaceOnUse" color-interpolation-filters="sRGB">
            <feFlood flood-opacity="0" result="BackgroundImageFix"/>
            <feGaussianBlur in="BackgroundImageFix" stdDeviation="25"/>
            <feComposite in2="SourceAlpha" operator="in" result="effect1_backgroundBlur_259_12"/>
            <feBlend mode="normal" in="SourceGraphic" in2="effect1_backgroundBlur_259_12" result="shape"/>
        </filter>
        <filter id="filter1_b_259_12" x="1126.76" y="-112.781" width="359.523" height="374.385"
                filterUnits="userSpaceOnUse" color-interpolation-filters="sRGB">
            <feFlood flood-opacity="0" result="BackgroundImageFix"/>
            <feGaussianBlur in="BackgroundImageFix" stdDeviation="25"/>
            <feComposite in2="SourceAlpha" operator="in" result="effect1_backgroundBlur_259_12"/>
            <feBlend mode="normal" in="SourceGraphic" in2="effect1_backgroundBlur_259_12" result="shape"/>
        </filter>
        <radialGradient id="paint0_radial_259_12" cx="0" cy="0" r="1" gradientUnits="userSpaceOnUse"
                        gradientTransform="translate(15.7972 -42.7727) rotate(179.988) scale(887.997 418.062)">
            <stop stop-color="#48E4F3"/>
            <stop offset="0.12" stop-color="#3BBCF5" stop-opacity="0.83"/>
            <stop offset="0.33" stop-color="#267AF8" stop-opacity="0.54"/>
            <stop offset="0.52" stop-color="#1645FB" stop-opacity="0.31"/>
            <stop offset="0.69" stop-color="#0A1FFD" stop-opacity="0.14"/>
            <stop offset="0.82" stop-color="#0208FE" stop-opacity="0.04"/>
            <stop offset="0.9" stop-color="#0000FF" stop-opacity="0"/>
        </radialGradient>
        <radialGradient id="paint1_radial_259_12" cx="0" cy="0" r="1" gradientUnits="userSpaceOnUse"
                        gradientTransform="translate(1406.8 199.227) rotate(179.988) scale(887.997 418.062)">
            <stop stop-color="#48E4F3"/>
            <stop offset="0.12" stop-color="#3BBCF5" stop-opacity="0.83"/>
            <stop offset="0.33" stop-color="#267AF8" stop-opacity="0.54"/>
            <stop offset="0.52" stop-color="#1645FB" stop-opacity="0.31"/>
            <stop offset="0.69" stop-color="#0A1FFD" stop-opacity="0.14"/>
            <stop offset="0.82" stop-color="#0208FE" stop-opacity="0.04"/>
            <stop offset="0.9" stop-color="#0000FF" stop-opacity="0"/>
        </radialGradient>
    </defs>
</svg>
