<svg width="1440" height="180" viewBox="0 0 1440 180" fill="none" xmlns="http://www.w3.org/2000/svg">
    <rect width="1440" height="180" fill="#0A0A0A"/>
    <mask id="mask0_328_130" style="mask-type:alpha" maskUnits="userSpaceOnUse" x="0" y="0" width="1440" height="180">
        <rect x="1440" y="180" width="1440" height="180" transform="rotate(180 1440 180)" fill="#0A0A0A"/>
    </mask>
    <g mask="url(#mask0_328_130)">
        <path d="M-613.217 -338.256C-960.332 -174.921 -960.086 89.7815 -612.668 252.974C-265.249 416.166 297.781 416.05 644.896 252.715C992.011 89.3798 991.765 -175.323 644.347 -338.515C296.928 -501.707 -266.102 -501.591 -613.217 -338.256Z"
              fill="url(#paint0_radial_328_130)" fill-opacity="0.4"/>
        <path d="M779.717 -96.2558C432.602 67.0791 432.848 331.782 780.267 494.974C1127.69 658.166 1690.72 658.05 2037.83 494.715C2384.95 331.38 2384.7 66.6774 2037.28 -96.5146C1689.86 -259.707 1126.83 -259.591 779.717 -96.2558Z"
              fill="url(#paint1_radial_328_130)" fill-opacity="0.4"/>
        <g filter="url(#filter0_b_328_130)">
            <mask id="path-5-inside-1_328_130" fill="white">
                <path d="M1188.52 111.687C1186.56 111.497 1185.01 110.749 1183.85 109.443C1182.69 108.137 1182.25 106.344 1182.53 104.063C1185.09 80.1668 1192.95 58.2289 1206.1 38.2497C1219.25 18.2705 1236.32 2.22984 1257.31 -9.87236C1278.31 -21.9791 1300.72 -28.8981 1324.55 -30.6293C1348.38 -32.3604 1371.45 -28.3212 1393.76 -18.5116C1396.18 -17.5307 1397.54 -16.2062 1397.85 -14.5382C1398.16 -12.8701 1398 -11.1966 1397.37 -9.51765C1396.76 -7.84323 1395.63 -6.59664 1393.99 -5.77788C1392.35 -4.95911 1390.48 -5.00235 1388.37 -5.90758C1368.55 -15.0562 1347.7 -18.7948 1325.83 -17.1233C1303.95 -15.4518 1283.4 -9.0783 1264.17 1.99719C1244.96 13.076 1229.3 27.5764 1217.21 45.4984C1205.12 63.4204 1197.99 83.2907 1195.81 105.109C1195.65 107.575 1194.84 109.364 1193.37 110.475C1191.9 111.587 1190.28 111.991 1188.52 111.687ZM1410.98 178.485C1387.4 185.22 1364.65 184.689 1342.7 176.892C1320.76 169.094 1303.39 154.122 1290.59 131.973C1284.87 122.082 1283.63 111.717 1286.87 100.879C1290.11 90.0415 1296.79 81.7101 1306.89 75.8851C1316.99 70.0602 1327.56 68.4549 1338.58 71.0692C1349.6 73.6836 1357.97 79.9364 1363.68 89.8277C1367.46 96.3559 1373.11 100.42 1380.64 102.02C1388.17 103.619 1395.3 102.473 1402.03 98.5823C1408.76 94.699 1413.22 89.1632 1415.41 81.9749C1417.59 74.7866 1416.79 67.9244 1413.01 61.3882C1399.74 38.4404 1380.17 24.0065 1354.3 18.0865C1328.43 12.1665 1303.8 15.9452 1280.42 29.4226C1257.05 42.8999 1241.46 62.3068 1233.66 87.6433C1225.85 112.98 1228.53 137.023 1241.68 159.773C1244.43 164.521 1248.3 170.198 1253.32 176.803C1258.33 183.409 1265.26 190.491 1274.11 198.049C1275.74 199.487 1276.6 201.097 1276.71 202.879C1276.83 204.661 1276.26 206.308 1275.01 207.82C1273.76 209.327 1272.2 210.164 1270.32 210.33C1268.44 210.496 1266.74 209.957 1265.22 208.714C1257.79 202.712 1251.23 196.275 1245.55 189.402C1239.86 182.53 1234.67 175.037 1229.97 166.923C1214.75 140.612 1211.56 113.042 1220.39 84.2139C1229.22 55.3856 1246.9 33.3213 1273.44 18.0211C1300.18 2.60208 1328.31 -1.74468 1357.82 4.98081C1387.33 11.7063 1409.69 28.2245 1424.9 54.5353C1430.62 64.4266 1431.88 74.71 1428.68 85.3856C1425.48 96.0611 1418.82 104.318 1408.72 110.155C1398.61 115.98 1388.04 117.664 1376.98 115.208C1365.92 112.751 1357.53 106.575 1351.8 96.6806C1348.02 90.1523 1342.42 86.0587 1335 84.3996C1327.57 82.7405 1320.49 83.8589 1313.75 87.7547C1307.02 91.638 1302.51 97.2074 1300.23 104.463C1297.95 111.719 1298.69 118.604 1302.47 125.12C1313.57 144.309 1328.53 157.048 1347.36 163.337C1366.19 169.626 1386.1 170.148 1407.09 164.903C1409.22 164.468 1410.98 164.772 1412.37 165.814C1413.77 166.856 1414.72 168.283 1415.24 170.094C1415.65 171.707 1415.54 173.351 1414.92 175.025C1414.31 176.7 1412.99 177.853 1410.98 178.485ZM1191.3 27.3964C1190.28 29.2992 1188.84 30.4622 1186.97 30.8853C1185.11 31.3084 1183.32 30.9531 1181.6 29.8195C1179.9 28.6937 1178.87 27.3757 1178.53 25.8653C1178.18 24.355 1178.51 22.6445 1179.52 20.7337C1187.18 8.40289 1196.14 -2.82867 1206.4 -12.961C1216.65 -23.0933 1228.02 -31.7572 1240.5 -38.9528C1253.18 -46.2625 1266.44 -51.8658 1280.3 -55.7627C1294.16 -59.6595 1308.39 -61.9985 1323 -62.7797C1325.35 -62.8185 1327.08 -62.2324 1328.18 -61.0212C1329.28 -59.81 1329.93 -58.3384 1330.13 -56.6064C1330.34 -54.879 1329.98 -53.2199 1329.05 -51.6291C1328.12 -50.0383 1326.38 -49.1664 1323.83 -49.0133C1310.24 -48.3012 1297.02 -46.1498 1284.17 -42.5589C1271.31 -38.9679 1259.04 -33.8094 1247.36 -27.0832C1235.87 -20.4587 1225.35 -12.6112 1215.8 -3.54057C1206.26 5.53006 1198.09 15.8424 1191.3 27.3964ZM1344.39 211.337C1325.61 205.81 1309.42 198.467 1295.81 189.306C1282.2 180.146 1270.35 166.86 1260.28 149.448C1249.87 131.446 1247.63 112.491 1253.55 92.5852C1259.47 72.679 1271.65 57.4188 1290.08 46.8048C1308.5 36.1828 1327.92 33.2296 1348.35 37.9453C1368.77 42.661 1384.18 54.0159 1394.59 72.0102C1395.62 73.7906 1395.91 75.5398 1395.45 77.2577C1395 78.9756 1393.87 80.3468 1392.08 81.3714C1390.49 82.2851 1388.79 82.5426 1386.98 82.1438C1385.16 81.745 1383.74 80.6514 1382.7 78.8631C1374.12 64.0261 1361.45 54.7851 1344.68 51.1401C1327.9 47.495 1311.99 50.0065 1296.94 58.6743C1281.88 67.3546 1271.85 79.8031 1266.84 96.0197C1261.82 112.236 1263.6 127.761 1272.16 142.595C1281.43 158.619 1292.06 170.622 1304.08 178.605C1316.09 186.589 1330.7 193.13 1347.91 198.231C1349.79 198.733 1351.18 199.775 1352.1 201.357C1353.01 202.94 1353.22 204.667 1352.71 206.54C1352.21 208.412 1351.17 209.805 1349.58 210.719C1348 211.632 1346.27 211.838 1344.39 211.337ZM1422.47 139.419C1404.84 149.584 1386.1 152.474 1366.26 148.087C1346.42 143.701 1331.29 132.505 1320.89 114.498C1319.98 112.915 1319.73 111.215 1320.13 109.398C1320.54 107.581 1321.63 106.16 1323.41 105.137C1325.19 104.109 1326.97 103.873 1328.75 104.43C1330.53 104.986 1331.87 106.058 1332.78 107.645C1341.36 122.482 1353.74 131.565 1369.93 134.893C1386.12 138.221 1401.34 135.773 1415.6 127.55C1416.79 126.864 1418.42 125.795 1420.48 124.34C1422.55 122.886 1424.66 121.276 1426.8 119.51C1428.36 118.086 1430.04 117.449 1431.85 117.599C1433.66 117.748 1435.27 118.597 1436.68 120.146C1437.99 121.5 1438.5 123.056 1438.19 124.814C1437.89 126.572 1437.06 128.106 1435.7 129.415C1432.71 132.46 1429.9 134.804 1427.29 136.446C1424.68 138.089 1423.07 139.08 1422.47 139.419Z"/>
            </mask>
            <path d="M1188.52 111.687C1186.56 111.497 1185.01 110.749 1183.85 109.443C1182.69 108.137 1182.25 106.344 1182.53 104.063C1185.09 80.1668 1192.95 58.2289 1206.1 38.2497C1219.25 18.2705 1236.32 2.22984 1257.31 -9.87236C1278.31 -21.9791 1300.72 -28.8981 1324.55 -30.6293C1348.38 -32.3604 1371.45 -28.3212 1393.76 -18.5116C1396.18 -17.5307 1397.54 -16.2062 1397.85 -14.5382C1398.16 -12.8701 1398 -11.1966 1397.37 -9.51765C1396.76 -7.84323 1395.63 -6.59664 1393.99 -5.77788C1392.35 -4.95911 1390.48 -5.00235 1388.37 -5.90758C1368.55 -15.0562 1347.7 -18.7948 1325.83 -17.1233C1303.95 -15.4518 1283.4 -9.0783 1264.17 1.99719C1244.96 13.076 1229.3 27.5764 1217.21 45.4984C1205.12 63.4204 1197.99 83.2907 1195.81 105.109C1195.65 107.575 1194.84 109.364 1193.37 110.475C1191.9 111.587 1190.28 111.991 1188.52 111.687ZM1410.98 178.485C1387.4 185.22 1364.65 184.689 1342.7 176.892C1320.76 169.094 1303.39 154.122 1290.59 131.973C1284.87 122.082 1283.63 111.717 1286.87 100.879C1290.11 90.0415 1296.79 81.7101 1306.89 75.8851C1316.99 70.0602 1327.56 68.4549 1338.58 71.0692C1349.6 73.6836 1357.97 79.9364 1363.68 89.8277C1367.46 96.3559 1373.11 100.42 1380.64 102.02C1388.17 103.619 1395.3 102.473 1402.03 98.5823C1408.76 94.699 1413.22 89.1632 1415.41 81.9749C1417.59 74.7866 1416.79 67.9244 1413.01 61.3882C1399.74 38.4404 1380.17 24.0065 1354.3 18.0865C1328.43 12.1665 1303.8 15.9452 1280.42 29.4226C1257.05 42.8999 1241.46 62.3068 1233.66 87.6433C1225.85 112.98 1228.53 137.023 1241.68 159.773C1244.43 164.521 1248.3 170.198 1253.32 176.803C1258.33 183.409 1265.26 190.491 1274.11 198.049C1275.74 199.487 1276.6 201.097 1276.71 202.879C1276.83 204.661 1276.26 206.308 1275.01 207.82C1273.76 209.327 1272.2 210.164 1270.32 210.33C1268.44 210.496 1266.74 209.957 1265.22 208.714C1257.79 202.712 1251.23 196.275 1245.55 189.402C1239.86 182.53 1234.67 175.037 1229.97 166.923C1214.75 140.612 1211.56 113.042 1220.39 84.2139C1229.22 55.3856 1246.9 33.3213 1273.44 18.0211C1300.18 2.60208 1328.31 -1.74468 1357.82 4.98081C1387.33 11.7063 1409.69 28.2245 1424.9 54.5353C1430.62 64.4266 1431.88 74.71 1428.68 85.3856C1425.48 96.0611 1418.82 104.318 1408.72 110.155C1398.61 115.98 1388.04 117.664 1376.98 115.208C1365.92 112.751 1357.53 106.575 1351.8 96.6806C1348.02 90.1523 1342.42 86.0587 1335 84.3996C1327.57 82.7405 1320.49 83.8589 1313.75 87.7547C1307.02 91.638 1302.51 97.2074 1300.23 104.463C1297.95 111.719 1298.69 118.604 1302.47 125.12C1313.57 144.309 1328.53 157.048 1347.36 163.337C1366.19 169.626 1386.1 170.148 1407.09 164.903C1409.22 164.468 1410.98 164.772 1412.37 165.814C1413.77 166.856 1414.72 168.283 1415.24 170.094C1415.65 171.707 1415.54 173.351 1414.92 175.025C1414.31 176.7 1412.99 177.853 1410.98 178.485ZM1191.3 27.3964C1190.28 29.2992 1188.84 30.4622 1186.97 30.8853C1185.11 31.3084 1183.32 30.9531 1181.6 29.8195C1179.9 28.6937 1178.87 27.3757 1178.53 25.8653C1178.18 24.355 1178.51 22.6445 1179.52 20.7337C1187.18 8.40289 1196.14 -2.82867 1206.4 -12.961C1216.65 -23.0933 1228.02 -31.7572 1240.5 -38.9528C1253.18 -46.2625 1266.44 -51.8658 1280.3 -55.7627C1294.16 -59.6595 1308.39 -61.9985 1323 -62.7797C1325.35 -62.8185 1327.08 -62.2324 1328.18 -61.0212C1329.28 -59.81 1329.93 -58.3384 1330.13 -56.6064C1330.34 -54.879 1329.98 -53.2199 1329.05 -51.6291C1328.12 -50.0383 1326.38 -49.1664 1323.83 -49.0133C1310.24 -48.3012 1297.02 -46.1498 1284.17 -42.5589C1271.31 -38.9679 1259.04 -33.8094 1247.36 -27.0832C1235.87 -20.4587 1225.35 -12.6112 1215.8 -3.54057C1206.26 5.53006 1198.09 15.8424 1191.3 27.3964ZM1344.39 211.337C1325.61 205.81 1309.42 198.467 1295.81 189.306C1282.2 180.146 1270.35 166.86 1260.28 149.448C1249.87 131.446 1247.63 112.491 1253.55 92.5852C1259.47 72.679 1271.65 57.4188 1290.08 46.8048C1308.5 36.1828 1327.92 33.2296 1348.35 37.9453C1368.77 42.661 1384.18 54.0159 1394.59 72.0102C1395.62 73.7906 1395.91 75.5398 1395.45 77.2577C1395 78.9756 1393.87 80.3468 1392.08 81.3714C1390.49 82.2851 1388.79 82.5426 1386.98 82.1438C1385.16 81.745 1383.74 80.6514 1382.7 78.8631C1374.12 64.0261 1361.45 54.7851 1344.68 51.1401C1327.9 47.495 1311.99 50.0065 1296.94 58.6743C1281.88 67.3546 1271.85 79.8031 1266.84 96.0197C1261.82 112.236 1263.6 127.761 1272.16 142.595C1281.43 158.619 1292.06 170.622 1304.08 178.605C1316.09 186.589 1330.7 193.13 1347.91 198.231C1349.79 198.733 1351.18 199.775 1352.1 201.357C1353.01 202.94 1353.22 204.667 1352.71 206.54C1352.21 208.412 1351.17 209.805 1349.58 210.719C1348 211.632 1346.27 211.838 1344.39 211.337ZM1422.47 139.419C1404.84 149.584 1386.1 152.474 1366.26 148.087C1346.42 143.701 1331.29 132.505 1320.89 114.498C1319.98 112.915 1319.73 111.215 1320.13 109.398C1320.54 107.581 1321.63 106.16 1323.41 105.137C1325.19 104.109 1326.97 103.873 1328.75 104.43C1330.53 104.986 1331.87 106.058 1332.78 107.645C1341.36 122.482 1353.74 131.565 1369.93 134.893C1386.12 138.221 1401.34 135.773 1415.6 127.55C1416.79 126.864 1418.42 125.795 1420.48 124.34C1422.55 122.886 1424.66 121.276 1426.8 119.51C1428.36 118.086 1430.04 117.449 1431.85 117.599C1433.66 117.748 1435.27 118.597 1436.68 120.146C1437.99 121.5 1438.5 123.056 1438.19 124.814C1437.89 126.572 1437.06 128.106 1435.7 129.415C1432.71 132.46 1429.9 134.804 1427.29 136.446C1424.68 138.089 1423.07 139.08 1422.47 139.419Z"
                  stroke="#01EE8A" stroke-width="4" mask="url(#path-5-inside-1_328_130)"/>
        </g>
    </g>
    <path d="M111.155 120C104.546 118.032 99.0545 114.017 94.6806 107.956C90.3089 101.893 88.123 95.0629 88.123 87.4667V69.6265L111.155 61L134.187 69.6265V87.4667C134.187 95.0629 132.001 101.891 127.629 107.953C123.256 114.016 117.764 118.032 111.155 120ZM111.155 116.497C116.858 114.682 121.574 111.054 125.303 105.61C129.032 100.167 130.897 94.1194 130.897 87.4667V71.8796L111.155 64.5232L91.4133 71.8796V87.4667C91.4133 94.1194 93.2778 100.167 97.0068 105.61C100.736 111.054 105.452 114.682 111.155 116.497ZM104.699 102.49H117.611C118.363 102.49 118.994 102.235 119.502 101.724C120.011 101.212 120.266 100.579 120.266 99.8242V90.1817C120.266 89.4273 120.011 88.795 119.502 88.2848C118.994 87.7724 118.363 87.5162 117.611 87.5162H117.038V84.2173C117.038 82.5723 116.479 81.189 115.36 80.0674C114.241 78.9458 112.86 78.385 111.218 78.385C109.575 78.385 108.195 78.9458 107.078 80.0674C105.957 81.189 105.397 82.5723 105.397 84.2173V87.5162H104.699C103.947 87.5162 103.316 87.7724 102.808 88.2848C102.299 88.795 102.044 89.4273 102.044 90.1817V99.8242C102.044 100.579 102.299 101.212 102.808 101.724C103.316 102.235 103.947 102.49 104.699 102.49ZM107.927 87.5162V84.2173C107.927 83.2827 108.243 82.4997 108.875 81.8685C109.507 81.2374 110.287 80.9207 111.218 80.9185C112.15 80.9185 112.932 81.2352 113.564 81.8685C114.195 82.5019 114.51 83.2849 114.508 84.2173V87.5162H107.927Z"
          fill="#01EE8A"/>
    <g filter="url(#filter1_f_328_130)">
        <path d="M111.155 120C104.546 118.032 99.0545 114.017 94.6806 107.956C90.3089 101.893 88.123 95.0629 88.123 87.4667V69.6265L111.155 61L134.187 69.6265V87.4667C134.187 95.0629 132.001 101.891 127.629 107.953C123.256 114.016 117.764 118.032 111.155 120ZM111.155 116.497C116.858 114.682 121.574 111.054 125.303 105.61C129.032 100.167 130.897 94.1194 130.897 87.4667V71.8796L111.155 64.5232L91.4133 71.8796V87.4667C91.4133 94.1194 93.2778 100.167 97.0068 105.61C100.736 111.054 105.452 114.682 111.155 116.497ZM104.699 102.49H117.611C118.363 102.49 118.994 102.235 119.502 101.724C120.011 101.212 120.266 100.579 120.266 99.8242V90.1817C120.266 89.4273 120.011 88.795 119.502 88.2848C118.994 87.7724 118.363 87.5162 117.611 87.5162H117.038V84.2173C117.038 82.5723 116.479 81.189 115.36 80.0674C114.241 78.9458 112.861 78.385 111.218 78.385C109.575 78.385 108.195 78.9458 107.078 80.0674C105.957 81.189 105.397 82.5723 105.397 84.2173V87.5162H104.699C103.947 87.5162 103.316 87.7724 102.808 88.2848C102.299 88.795 102.044 89.4273 102.044 90.1817V99.8242C102.044 100.579 102.299 101.212 102.808 101.724C103.316 102.235 103.947 102.49 104.699 102.49ZM107.927 87.5162V84.2173C107.927 83.2827 108.243 82.4997 108.875 81.8686C109.507 81.2374 110.287 80.9207 111.218 80.9185C112.15 80.9185 112.932 81.2352 113.564 81.8686C114.195 82.5019 114.51 83.2849 114.508 84.2173V87.5162H107.927Z"
              fill="#01EE8A"/>
    </g>
    <path d="M175.568 102.384C172.39 102.384 169.904 101.499 168.112 99.728C166.32 97.9573 165.424 95.4293 165.424 92.144V79.6H170.608V91.952C170.608 94.0853 171.046 95.6213 171.92 96.56C172.795 97.4987 174.022 97.968 175.6 97.968C177.179 97.968 178.406 97.4987 179.28 96.56C180.155 95.6213 180.592 94.0853 180.592 91.952V79.6H185.712V92.144C185.712 95.4293 184.816 97.9573 183.024 99.728C181.232 101.499 178.747 102.384 175.568 102.384ZM200.659 102.256C199.208 102.256 197.939 101.936 196.851 101.296C195.763 100.656 194.91 99.6853 194.291 98.384C193.694 97.0613 193.395 95.3973 193.395 93.392C193.395 91.3653 193.683 89.7013 194.259 88.4C194.835 87.0987 195.667 86.128 196.755 85.488C197.843 84.848 199.144 84.528 200.659 84.528C202.28 84.528 203.731 84.9013 205.011 85.648C206.312 86.3733 207.336 87.3973 208.083 88.72C208.851 90.0427 209.235 91.6 209.235 93.392C209.235 95.2053 208.851 96.7733 208.083 98.096C207.336 99.4187 206.312 100.443 205.011 101.168C203.731 101.893 202.28 102.256 200.659 102.256ZM190.483 108.208V84.784H195.251V88.304L195.155 93.424L195.475 98.512V108.208H190.483ZM199.795 98.16C200.627 98.16 201.363 97.968 202.003 97.584C202.664 97.2 203.187 96.656 203.571 95.952C203.976 95.2267 204.179 94.3733 204.179 93.392C204.179 92.3893 203.976 91.536 203.571 90.832C203.187 90.128 202.664 89.584 202.003 89.2C201.363 88.816 200.627 88.624 199.795 88.624C198.963 88.624 198.216 88.816 197.555 89.2C196.894 89.584 196.371 90.128 195.987 90.832C195.603 91.536 195.411 92.3893 195.411 93.392C195.411 94.3733 195.603 95.2267 195.987 95.952C196.371 96.656 196.894 97.2 197.555 97.584C198.216 97.968 198.963 98.16 199.795 98.16ZM218.369 102.256C216.897 102.256 215.478 102.085 214.113 101.744C212.769 101.381 211.702 100.933 210.913 100.4L212.577 96.816C213.366 97.3067 214.294 97.712 215.361 98.032C216.449 98.3307 217.516 98.48 218.561 98.48C219.713 98.48 220.524 98.3413 220.993 98.064C221.484 97.7867 221.729 97.4027 221.729 96.912C221.729 96.5067 221.537 96.208 221.153 96.016C220.79 95.8027 220.3 95.6427 219.681 95.536C219.062 95.4293 218.38 95.3227 217.633 95.216C216.908 95.1093 216.172 94.9707 215.425 94.8C214.678 94.608 213.996 94.3307 213.377 93.968C212.758 93.6053 212.257 93.1147 211.873 92.496C211.51 91.8773 211.329 91.0773 211.329 90.096C211.329 89.008 211.638 88.048 212.257 87.216C212.897 86.384 213.814 85.7333 215.009 85.264C216.204 84.7733 217.633 84.528 219.297 84.528C220.47 84.528 221.665 84.656 222.881 84.912C224.097 85.168 225.11 85.5413 225.921 86.032L224.257 89.584C223.425 89.0933 222.582 88.7627 221.729 88.592C220.897 88.4 220.086 88.304 219.297 88.304C218.188 88.304 217.377 88.4533 216.865 88.752C216.353 89.0507 216.097 89.4347 216.097 89.904C216.097 90.3307 216.278 90.6507 216.641 90.864C217.025 91.0773 217.526 91.248 218.145 91.376C218.764 91.504 219.436 91.6213 220.161 91.728C220.908 91.8133 221.654 91.952 222.401 92.144C223.148 92.336 223.82 92.6133 224.417 92.976C225.036 93.3173 225.537 93.7973 225.921 94.416C226.305 95.0133 226.497 95.8027 226.497 96.784C226.497 97.8507 226.177 98.8 225.537 99.632C224.897 100.443 223.969 101.083 222.753 101.552C221.558 102.021 220.097 102.256 218.369 102.256ZM237.769 102.256C235.934 102.256 234.302 101.872 232.873 101.104C231.465 100.336 230.345 99.2907 229.513 97.968C228.702 96.624 228.297 95.0987 228.297 93.392C228.297 91.664 228.702 90.1387 229.513 88.816C230.345 87.472 231.465 86.4267 232.873 85.68C234.302 84.912 235.934 84.528 237.769 84.528C239.582 84.528 241.204 84.912 242.633 85.68C244.062 86.4267 245.182 87.4613 245.993 88.784C246.804 90.1067 247.209 91.6427 247.209 93.392C247.209 95.0987 246.804 96.624 245.993 97.968C245.182 99.2907 244.062 100.336 242.633 101.104C241.204 101.872 239.582 102.256 237.769 102.256ZM237.769 98.16C238.601 98.16 239.348 97.968 240.009 97.584C240.67 97.2 241.193 96.656 241.577 95.952C241.961 95.2267 242.153 94.3733 242.153 93.392C242.153 92.3893 241.961 91.536 241.577 90.832C241.193 90.128 240.67 89.584 240.009 89.2C239.348 88.816 238.601 88.624 237.769 88.624C236.937 88.624 236.19 88.816 235.529 89.2C234.868 89.584 234.334 90.128 233.929 90.832C233.545 91.536 233.353 92.3893 233.353 93.392C233.353 94.3733 233.545 95.2267 233.929 95.952C234.334 96.656 234.868 97.2 235.529 97.584C236.19 97.968 236.937 98.16 237.769 98.16ZM261.01 84.528C262.375 84.528 263.591 84.8053 264.658 85.36C265.746 85.8933 266.599 86.7253 267.218 87.856C267.836 88.9653 268.146 90.3947 268.146 92.144V102H263.154V92.912C263.154 91.5253 262.844 90.5013 262.226 89.84C261.628 89.1787 260.775 88.848 259.666 88.848C258.876 88.848 258.162 89.0187 257.522 89.36C256.903 89.68 256.412 90.1813 256.05 90.864C255.708 91.5467 255.538 92.4213 255.538 93.488V102H250.546V84.784H255.314V89.552L254.418 88.112C255.036 86.96 255.922 86.0747 257.074 85.456C258.226 84.8373 259.538 84.528 261.01 84.528ZM272.671 102V84.784H277.663V102H272.671ZM275.167 82.384C274.249 82.384 273.503 82.1173 272.927 81.584C272.351 81.0507 272.063 80.3893 272.063 79.6C272.063 78.8107 272.351 78.1493 272.927 77.616C273.503 77.0827 274.249 76.816 275.167 76.816C276.084 76.816 276.831 77.072 277.407 77.584C277.983 78.0747 278.271 78.7147 278.271 79.504C278.271 80.336 277.983 81.0293 277.407 81.584C276.852 82.1173 276.105 82.384 275.167 82.384ZM290.616 102.256C288.76 102.256 287.106 101.883 285.656 101.136C284.205 100.368 283.064 99.312 282.232 97.968C281.421 96.624 281.016 95.0987 281.016 93.392C281.016 91.664 281.421 90.1387 282.232 88.816C283.064 87.472 284.205 86.4267 285.656 85.68C287.106 84.912 288.76 84.528 290.616 84.528C292.429 84.528 294.008 84.912 295.352 85.68C296.696 86.4267 297.688 87.504 298.328 88.912L294.456 90.992C294.008 90.1813 293.442 89.584 292.76 89.2C292.098 88.816 291.373 88.624 290.584 88.624C289.73 88.624 288.962 88.816 288.28 89.2C287.597 89.584 287.053 90.128 286.648 90.832C286.264 91.536 286.072 92.3893 286.072 93.392C286.072 94.3947 286.264 95.248 286.648 95.952C287.053 96.656 287.597 97.2 288.28 97.584C288.962 97.968 289.73 98.16 290.584 98.16C291.373 98.16 292.098 97.9787 292.76 97.616C293.442 97.232 294.008 96.624 294.456 95.792L298.328 97.904C297.688 99.2907 296.696 100.368 295.352 101.136C294.008 101.883 292.429 102.256 290.616 102.256ZM320.44 102.256C318.926 102.256 317.624 101.936 316.536 101.296C315.448 100.656 314.616 99.6853 314.04 98.384C313.464 97.0613 313.176 95.3973 313.176 93.392C313.176 91.3653 313.475 89.7013 314.072 88.4C314.691 87.0987 315.544 86.128 316.632 85.488C317.72 84.848 318.99 84.528 320.44 84.528C322.062 84.528 323.512 84.8907 324.792 85.616C326.094 86.3413 327.118 87.3653 327.864 88.688C328.632 90.0107 329.016 91.5787 329.016 93.392C329.016 95.184 328.632 96.7413 327.864 98.064C327.118 99.3867 326.094 100.421 324.792 101.168C323.512 101.893 322.062 102.256 320.44 102.256ZM310.264 102V78.256H315.256V88.272L314.936 93.36L315.032 98.48V102H310.264ZM319.576 98.16C320.408 98.16 321.144 97.968 321.784 97.584C322.446 97.2 322.968 96.656 323.352 95.952C323.758 95.2267 323.96 94.3733 323.96 93.392C323.96 92.3893 323.758 91.536 323.352 90.832C322.968 90.128 322.446 89.584 321.784 89.2C321.144 88.816 320.408 88.624 319.576 88.624C318.744 88.624 317.998 88.816 317.336 89.2C316.675 89.584 316.152 90.128 315.768 90.832C315.384 91.536 315.192 92.3893 315.192 93.392C315.192 94.3733 315.384 95.2267 315.768 95.952C316.152 96.656 316.675 97.2 317.336 97.584C317.998 97.968 318.744 98.16 319.576 98.16ZM342.637 102V98.64L342.317 97.904V91.888C342.317 90.8213 341.986 89.9893 341.325 89.392C340.685 88.7947 339.693 88.496 338.349 88.496C337.432 88.496 336.525 88.6453 335.629 88.944C334.754 89.2213 334.008 89.6053 333.389 90.096L331.597 86.608C332.536 85.9467 333.666 85.4347 334.989 85.072C336.312 84.7093 337.656 84.528 339.021 84.528C341.645 84.528 343.682 85.1467 345.133 86.384C346.584 87.6213 347.309 89.552 347.309 92.176V102H342.637ZM337.389 102.256C336.045 102.256 334.893 102.032 333.933 101.584C332.973 101.115 332.237 100.485 331.725 99.696C331.213 98.9067 330.957 98.0213 330.957 97.04C330.957 96.016 331.202 95.12 331.693 94.352C332.205 93.584 333.005 92.9867 334.093 92.56C335.181 92.112 336.6 91.888 338.349 91.888H342.925V94.8H338.893C337.72 94.8 336.909 94.992 336.461 95.376C336.034 95.76 335.821 96.24 335.821 96.816C335.821 97.456 336.066 97.968 336.557 98.352C337.069 98.7147 337.762 98.896 338.637 98.896C339.469 98.896 340.216 98.704 340.877 98.32C341.538 97.9147 342.018 97.328 342.317 96.56L343.085 98.864C342.722 99.9733 342.061 100.816 341.101 101.392C340.141 101.968 338.904 102.256 337.389 102.256ZM357.619 102.256C356.147 102.256 354.728 102.085 353.363 101.744C352.019 101.381 350.952 100.933 350.163 100.4L351.827 96.816C352.616 97.3067 353.544 97.712 354.611 98.032C355.699 98.3307 356.766 98.48 357.811 98.48C358.963 98.48 359.774 98.3413 360.243 98.064C360.734 97.7867 360.979 97.4027 360.979 96.912C360.979 96.5067 360.787 96.208 360.403 96.016C360.04 95.8027 359.55 95.6427 358.931 95.536C358.312 95.4293 357.63 95.3227 356.883 95.216C356.158 95.1093 355.422 94.9707 354.675 94.8C353.928 94.608 353.246 94.3307 352.627 93.968C352.008 93.6053 351.507 93.1147 351.123 92.496C350.76 91.8773 350.579 91.0773 350.579 90.096C350.579 89.008 350.888 88.048 351.507 87.216C352.147 86.384 353.064 85.7333 354.259 85.264C355.454 84.7733 356.883 84.528 358.547 84.528C359.72 84.528 360.915 84.656 362.131 84.912C363.347 85.168 364.36 85.5413 365.171 86.032L363.507 89.584C362.675 89.0933 361.832 88.7627 360.979 88.592C360.147 88.4 359.336 88.304 358.547 88.304C357.438 88.304 356.627 88.4533 356.115 88.752C355.603 89.0507 355.347 89.4347 355.347 89.904C355.347 90.3307 355.528 90.6507 355.891 90.864C356.275 91.0773 356.776 91.248 357.395 91.376C358.014 91.504 358.686 91.6213 359.411 91.728C360.158 91.8133 360.904 91.952 361.651 92.144C362.398 92.336 363.07 92.6133 363.667 92.976C364.286 93.3173 364.787 93.7973 365.171 94.416C365.555 95.0133 365.747 95.8027 365.747 96.784C365.747 97.8507 365.427 98.8 364.787 99.632C364.147 100.443 363.219 101.083 362.003 101.552C360.808 102.021 359.347 102.256 357.619 102.256ZM377.371 102.256C375.408 102.256 373.68 101.872 372.187 101.104C370.715 100.336 369.574 99.2907 368.763 97.968C367.952 96.624 367.547 95.0987 367.547 93.392C367.547 91.664 367.942 90.1387 368.731 88.816C369.542 87.472 370.64 86.4267 372.027 85.68C373.414 84.912 374.982 84.528 376.731 84.528C378.416 84.528 379.931 84.8907 381.275 85.616C382.64 86.32 383.718 87.344 384.507 88.688C385.296 90.0107 385.691 91.6 385.691 93.456C385.691 93.648 385.68 93.872 385.659 94.128C385.638 94.3627 385.616 94.5867 385.595 94.8H371.611V91.888H382.971L381.051 92.752C381.051 91.856 380.87 91.0773 380.507 90.416C380.144 89.7547 379.643 89.2427 379.003 88.88C378.363 88.496 377.616 88.304 376.763 88.304C375.91 88.304 375.152 88.496 374.491 88.88C373.851 89.2427 373.35 89.7653 372.987 90.448C372.624 91.1093 372.443 91.8987 372.443 92.816V93.584C372.443 94.5227 372.646 95.3547 373.051 96.08C373.478 96.784 374.064 97.328 374.811 97.712C375.579 98.0747 376.475 98.256 377.499 98.256C378.416 98.256 379.216 98.1173 379.899 97.84C380.603 97.5627 381.243 97.1467 381.819 96.592L384.475 99.472C383.686 100.368 382.694 101.061 381.499 101.552C380.304 102.021 378.928 102.256 377.371 102.256ZM396.406 102.256C394.785 102.256 393.324 101.893 392.022 101.168C390.721 100.421 389.686 99.3867 388.918 98.064C388.172 96.7413 387.798 95.184 387.798 93.392C387.798 91.5787 388.172 90.0107 388.918 88.688C389.686 87.3653 390.721 86.3413 392.022 85.616C393.324 84.8907 394.785 84.528 396.406 84.528C397.857 84.528 399.126 84.848 400.214 85.488C401.302 86.128 402.145 87.0987 402.742 88.4C403.34 89.7013 403.638 91.3653 403.638 93.392C403.638 95.3973 403.35 97.0613 402.774 98.384C402.198 99.6853 401.366 100.656 400.278 101.296C399.212 101.936 397.921 102.256 396.406 102.256ZM397.27 98.16C398.081 98.16 398.817 97.968 399.478 97.584C400.14 97.2 400.662 96.656 401.046 95.952C401.452 95.2267 401.654 94.3733 401.654 93.392C401.654 92.3893 401.452 91.536 401.046 90.832C400.662 90.128 400.14 89.584 399.478 89.2C398.817 88.816 398.081 88.624 397.27 88.624C396.438 88.624 395.692 88.816 395.03 89.2C394.369 89.584 393.836 90.128 393.43 90.832C393.046 91.536 392.854 92.3893 392.854 93.392C392.854 94.3733 393.046 95.2267 393.43 95.952C393.836 96.656 394.369 97.2 395.03 97.584C395.692 97.968 396.438 98.16 397.27 98.16ZM401.782 102V98.48L401.878 93.36L401.558 88.272V78.256H406.55V102H401.782ZM428.425 102.256C426.59 102.256 424.958 101.872 423.529 101.104C422.121 100.336 421.001 99.2907 420.169 97.968C419.358 96.624 418.953 95.0987 418.953 93.392C418.953 91.664 419.358 90.1387 420.169 88.816C421.001 87.472 422.121 86.4267 423.529 85.68C424.958 84.912 426.59 84.528 428.425 84.528C430.238 84.528 431.86 84.912 433.289 85.68C434.718 86.4267 435.838 87.4613 436.649 88.784C437.46 90.1067 437.865 91.6427 437.865 93.392C437.865 95.0987 437.46 96.624 436.649 97.968C435.838 99.2907 434.718 100.336 433.289 101.104C431.86 101.872 430.238 102.256 428.425 102.256ZM428.425 98.16C429.257 98.16 430.004 97.968 430.665 97.584C431.326 97.2 431.849 96.656 432.233 95.952C432.617 95.2267 432.809 94.3733 432.809 93.392C432.809 92.3893 432.617 91.536 432.233 90.832C431.849 90.128 431.326 89.584 430.665 89.2C430.004 88.816 429.257 88.624 428.425 88.624C427.593 88.624 426.846 88.816 426.185 89.2C425.524 89.584 424.99 90.128 424.585 90.832C424.201 91.536 424.009 92.3893 424.009 93.392C424.009 94.3733 424.201 95.2267 424.585 95.952C424.99 96.656 425.524 97.2 426.185 97.584C426.846 97.968 427.593 98.16 428.425 98.16ZM451.666 84.528C453.031 84.528 454.247 84.8053 455.314 85.36C456.402 85.8933 457.255 86.7253 457.874 87.856C458.493 88.9653 458.802 90.3947 458.802 92.144V102H453.81V92.912C453.81 91.5253 453.501 90.5013 452.882 89.84C452.285 89.1787 451.431 88.848 450.322 88.848C449.533 88.848 448.818 89.0187 448.178 89.36C447.559 89.68 447.069 90.1813 446.706 90.864C446.365 91.5467 446.194 92.4213 446.194 93.488V102H441.202V84.784H445.97V89.552L445.074 88.112C445.693 86.96 446.578 86.0747 447.73 85.456C448.882 84.8373 450.194 84.528 451.666 84.528ZM863.812 84.528C865.178 84.528 866.383 84.8053 867.428 85.36C868.495 85.8933 869.327 86.7253 869.924 87.856C870.543 88.9653 870.852 90.3947 870.852 92.144V102H865.86V92.912C865.86 91.5253 865.572 90.5013 864.996 89.84C864.42 89.1787 863.61 88.848 862.564 88.848C861.839 88.848 861.188 89.0187 860.612 89.36C860.036 89.68 859.588 90.1707 859.268 90.832C858.948 91.4933 858.788 92.336 858.788 93.36V102H853.796V92.912C853.796 91.5253 853.508 90.5013 852.932 89.84C852.378 89.1787 851.578 88.848 850.532 88.848C849.807 88.848 849.156 89.0187 848.58 89.36C848.004 89.68 847.556 90.1707 847.236 90.832C846.916 91.4933 846.756 92.336 846.756 93.36V102H841.764V84.784H846.532V89.488L845.636 88.112C846.234 86.9387 847.076 86.0533 848.164 85.456C849.274 84.8373 850.532 84.528 851.94 84.528C853.519 84.528 854.895 84.9333 856.068 85.744C857.263 86.5333 858.052 87.7493 858.436 89.392L856.676 88.912C857.252 87.568 858.17 86.5013 859.428 85.712C860.708 84.9227 862.17 84.528 863.812 84.528ZM883.996 102.256C882.033 102.256 880.305 101.872 878.812 101.104C877.34 100.336 876.199 99.2907 875.388 97.968C874.577 96.624 874.172 95.0987 874.172 93.392C874.172 91.664 874.567 90.1387 875.356 88.816C876.167 87.472 877.265 86.4267 878.652 85.68C880.039 84.912 881.607 84.528 883.356 84.528C885.041 84.528 886.556 84.8907 887.9 85.616C889.265 86.32 890.343 87.344 891.132 88.688C891.921 90.0107 892.316 91.6 892.316 93.456C892.316 93.648 892.305 93.872 892.284 94.128C892.263 94.3627 892.241 94.5867 892.22 94.8H878.236V91.888H889.596L887.676 92.752C887.676 91.856 887.495 91.0773 887.132 90.416C886.769 89.7547 886.268 89.2427 885.628 88.88C884.988 88.496 884.241 88.304 883.388 88.304C882.535 88.304 881.777 88.496 881.116 88.88C880.476 89.2427 879.975 89.7653 879.612 90.448C879.249 91.1093 879.068 91.8987 879.068 92.816V93.584C879.068 94.5227 879.271 95.3547 879.676 96.08C880.103 96.784 880.689 97.328 881.436 97.712C882.204 98.0747 883.1 98.256 884.124 98.256C885.041 98.256 885.841 98.1173 886.524 97.84C887.228 97.5627 887.868 97.1467 888.444 96.592L891.1 99.472C890.311 100.368 889.319 101.061 888.124 101.552C886.929 102.021 885.553 102.256 883.996 102.256ZM902.679 102.256C900.653 102.256 899.074 101.744 897.943 100.72C896.813 99.6747 896.247 98.128 896.247 96.08V80.976H901.239V96.016C901.239 96.7413 901.431 97.3067 901.815 97.712C902.199 98.096 902.722 98.288 903.383 98.288C904.173 98.288 904.845 98.0747 905.399 97.648L906.743 101.168C906.231 101.531 905.613 101.808 904.887 102C904.183 102.171 903.447 102.256 902.679 102.256ZM893.591 89.008V85.168H905.527V89.008H893.591ZM920.01 84.528C921.375 84.528 922.591 84.8053 923.658 85.36C924.746 85.8933 925.599 86.7253 926.218 87.856C926.836 88.9653 927.146 90.3947 927.146 92.144V102H922.154V92.912C922.154 91.5253 921.844 90.5013 921.226 89.84C920.628 89.1787 919.775 88.848 918.666 88.848C917.876 88.848 917.162 89.0187 916.522 89.36C915.903 89.68 915.412 90.1813 915.05 90.864C914.708 91.5467 914.538 92.4213 914.538 93.488V102H909.546V78.256H914.538V89.552L913.418 88.112C914.036 86.96 914.922 86.0747 916.074 85.456C917.226 84.8373 918.538 84.528 920.01 84.528ZM939.988 102.256C938.153 102.256 936.521 101.872 935.092 101.104C933.684 100.336 932.564 99.2907 931.732 97.968C930.921 96.624 930.516 95.0987 930.516 93.392C930.516 91.664 930.921 90.1387 931.732 88.816C932.564 87.472 933.684 86.4267 935.092 85.68C936.521 84.912 938.153 84.528 939.988 84.528C941.801 84.528 943.422 84.912 944.852 85.68C946.281 86.4267 947.401 87.4613 948.212 88.784C949.022 90.1067 949.428 91.6427 949.428 93.392C949.428 95.0987 949.022 96.624 948.212 97.968C947.401 99.2907 946.281 100.336 944.852 101.104C943.422 101.872 941.801 102.256 939.988 102.256ZM939.988 98.16C940.82 98.16 941.566 97.968 942.228 97.584C942.889 97.2 943.412 96.656 943.796 95.952C944.18 95.2267 944.372 94.3733 944.372 93.392C944.372 92.3893 944.18 91.536 943.796 90.832C943.412 90.128 942.889 89.584 942.228 89.2C941.566 88.816 940.82 88.624 939.988 88.624C939.156 88.624 938.409 88.816 937.748 89.2C937.086 89.584 936.553 90.128 936.148 90.832C935.764 91.536 935.572 92.3893 935.572 93.392C935.572 94.3733 935.764 95.2267 936.148 95.952C936.553 96.656 937.086 97.2 937.748 97.584C938.409 97.968 939.156 98.16 939.988 98.16ZM960.156 102.256C958.535 102.256 957.074 101.893 955.772 101.168C954.471 100.421 953.436 99.3867 952.668 98.064C951.922 96.7413 951.548 95.184 951.548 93.392C951.548 91.5787 951.922 90.0107 952.668 88.688C953.436 87.3653 954.471 86.3413 955.772 85.616C957.074 84.8907 958.535 84.528 960.156 84.528C961.607 84.528 962.876 84.848 963.964 85.488C965.052 86.128 965.895 87.0987 966.492 88.4C967.09 89.7013 967.388 91.3653 967.388 93.392C967.388 95.3973 967.1 97.0613 966.524 98.384C965.948 99.6853 965.116 100.656 964.028 101.296C962.962 101.936 961.671 102.256 960.156 102.256ZM961.02 98.16C961.831 98.16 962.567 97.968 963.228 97.584C963.89 97.2 964.412 96.656 964.796 95.952C965.202 95.2267 965.404 94.3733 965.404 93.392C965.404 92.3893 965.202 91.536 964.796 90.832C964.412 90.128 963.89 89.584 963.228 89.2C962.567 88.816 961.831 88.624 961.02 88.624C960.188 88.624 959.442 88.816 958.78 89.2C958.119 89.584 957.586 90.128 957.18 90.832C956.796 91.536 956.604 92.3893 956.604 93.392C956.604 94.3733 956.796 95.2267 957.18 95.952C957.586 96.656 958.119 97.2 958.78 97.584C959.442 97.968 960.188 98.16 961.02 98.16ZM965.532 102V98.48L965.628 93.36L965.308 88.272V78.256H970.3V102H965.532Z"
          fill="white"/>
    <path d="M477.541 89.68H488.293V93.84H477.541V89.68ZM477.925 102H472.741V79.6H489.669V83.76H477.925V102ZM500.965 102.256C499.002 102.256 497.274 101.872 495.781 101.104C494.309 100.336 493.167 99.2907 492.357 97.968C491.546 96.624 491.141 95.0987 491.141 93.392C491.141 91.664 491.535 90.1387 492.325 88.816C493.135 87.472 494.234 86.4267 495.621 85.68C497.007 84.912 498.575 84.528 500.325 84.528C502.01 84.528 503.525 84.8907 504.869 85.616C506.234 86.32 507.311 87.344 508.101 88.688C508.89 90.0107 509.285 91.6 509.285 93.456C509.285 93.648 509.274 93.872 509.253 94.128C509.231 94.3627 509.21 94.5867 509.189 94.8H495.205V91.888H506.565L504.645 92.752C504.645 91.856 504.463 91.0773 504.101 90.416C503.738 89.7547 503.237 89.2427 502.597 88.88C501.957 88.496 501.21 88.304 500.357 88.304C499.503 88.304 498.746 88.496 498.085 88.88C497.445 89.2427 496.943 89.7653 496.581 90.448C496.218 91.1093 496.037 91.8987 496.037 92.816V93.584C496.037 94.5227 496.239 95.3547 496.645 96.08C497.071 96.784 497.658 97.328 498.405 97.712C499.173 98.0747 500.069 98.256 501.093 98.256C502.01 98.256 502.81 98.1173 503.493 97.84C504.197 97.5627 504.837 97.1467 505.413 96.592L508.069 99.472C507.279 100.368 506.287 101.061 505.093 101.552C503.898 102.021 502.522 102.256 500.965 102.256ZM512.608 102V84.784H517.376V89.648L516.704 88.24C517.216 87.024 518.037 86.1067 519.168 85.488C520.299 84.848 521.675 84.528 523.296 84.528V89.136C523.083 89.1147 522.891 89.104 522.72 89.104C522.549 89.0827 522.368 89.072 522.176 89.072C520.811 89.072 519.701 89.4667 518.848 90.256C518.016 91.024 517.6 92.2293 517.6 93.872V102H512.608ZM536.76 84.528C538.125 84.528 539.341 84.8053 540.408 85.36C541.496 85.8933 542.349 86.7253 542.968 87.856C543.586 88.9653 543.896 90.3947 543.896 92.144V102H538.904V92.912C538.904 91.5253 538.594 90.5013 537.976 89.84C537.378 89.1787 536.525 88.848 535.416 88.848C534.626 88.848 533.912 89.0187 533.272 89.36C532.653 89.68 532.162 90.1813 531.8 90.864C531.458 91.5467 531.288 92.4213 531.288 93.488V102H526.296V84.784H531.064V89.552L530.168 88.112C530.786 86.96 531.672 86.0747 532.824 85.456C533.976 84.8373 535.288 84.528 536.76 84.528ZM557.09 102.256C555.127 102.256 553.399 101.872 551.906 101.104C550.434 100.336 549.292 99.2907 548.482 97.968C547.671 96.624 547.266 95.0987 547.266 93.392C547.266 91.664 547.66 90.1387 548.45 88.816C549.26 87.472 550.359 86.4267 551.746 85.68C553.132 84.912 554.7 84.528 556.45 84.528C558.135 84.528 559.65 84.8907 560.994 85.616C562.359 86.32 563.436 87.344 564.226 88.688C565.015 90.0107 565.41 91.6 565.41 93.456C565.41 93.648 565.399 93.872 565.378 94.128C565.356 94.3627 565.335 94.5867 565.314 94.8H551.33V91.888H562.69L560.77 92.752C560.77 91.856 560.588 91.0773 560.226 90.416C559.863 89.7547 559.362 89.2427 558.722 88.88C558.082 88.496 557.335 88.304 556.482 88.304C555.628 88.304 554.871 88.496 554.21 88.88C553.57 89.2427 553.068 89.7653 552.706 90.448C552.343 91.1093 552.162 91.8987 552.162 92.816V93.584C552.162 94.5227 552.364 95.3547 552.77 96.08C553.196 96.784 553.783 97.328 554.53 97.712C555.298 98.0747 556.194 98.256 557.218 98.256C558.135 98.256 558.935 98.1173 559.618 97.84C560.322 97.5627 560.962 97.1467 561.538 96.592L564.194 99.472C563.404 100.368 562.412 101.061 561.218 101.552C560.023 102.021 558.647 102.256 557.09 102.256ZM575.773 102.256C573.746 102.256 572.168 101.744 571.037 100.72C569.906 99.6747 569.341 98.128 569.341 96.08V80.976H574.333V96.016C574.333 96.7413 574.525 97.3067 574.909 97.712C575.293 98.096 575.816 98.288 576.477 98.288C577.266 98.288 577.938 98.0747 578.493 97.648L579.837 101.168C579.325 101.531 578.706 101.808 577.981 102C577.277 102.171 576.541 102.256 575.773 102.256ZM566.685 89.008V85.168H578.621V89.008H566.685ZM595.83 98.48L595.958 92.4L603.99 84.784H609.942L602.23 92.624L599.638 94.736L595.83 98.48ZM591.702 102V78.256H596.694V102H591.702ZM604.534 102L598.71 94.768L601.846 90.896L610.582 102H604.534ZM620.652 102.256C618.689 102.256 616.961 101.872 615.468 101.104C613.996 100.336 612.855 99.2907 612.044 97.968C611.233 96.624 610.828 95.0987 610.828 93.392C610.828 91.664 611.223 90.1387 612.012 88.816C612.823 87.472 613.921 86.4267 615.308 85.68C616.695 84.912 618.263 84.528 620.012 84.528C621.697 84.528 623.212 84.8907 624.556 85.616C625.921 86.32 626.999 87.344 627.788 88.688C628.577 90.0107 628.972 91.6 628.972 93.456C628.972 93.648 628.961 93.872 628.94 94.128C628.919 94.3627 628.897 94.5867 628.876 94.8H614.892V91.888H626.252L624.332 92.752C624.332 91.856 624.151 91.0773 623.788 90.416C623.425 89.7547 622.924 89.2427 622.284 88.88C621.644 88.496 620.897 88.304 620.044 88.304C619.191 88.304 618.433 88.496 617.772 88.88C617.132 89.2427 616.631 89.7653 616.268 90.448C615.905 91.1093 615.724 91.8987 615.724 92.816V93.584C615.724 94.5227 615.927 95.3547 616.332 96.08C616.759 96.784 617.345 97.328 618.092 97.712C618.86 98.0747 619.756 98.256 620.78 98.256C621.697 98.256 622.497 98.1173 623.18 97.84C623.884 97.5627 624.524 97.1467 625.1 96.592L627.756 99.472C626.967 100.368 625.975 101.061 624.78 101.552C623.585 102.021 622.209 102.256 620.652 102.256ZM634.159 108.464C633.263 108.464 632.378 108.325 631.503 108.048C630.628 107.771 629.914 107.387 629.359 106.896L631.183 103.344C631.567 103.685 632.004 103.952 632.495 104.144C633.007 104.336 633.508 104.432 633.999 104.432C634.703 104.432 635.258 104.261 635.663 103.92C636.09 103.6 636.474 103.056 636.815 102.288L637.711 100.176L638.095 99.632L644.271 84.784H649.071L641.295 103.056C640.74 104.443 640.1 105.531 639.375 106.32C638.671 107.109 637.882 107.664 637.007 107.984C636.154 108.304 635.204 108.464 634.159 108.464ZM637.103 102.672L629.423 84.784H634.575L640.527 99.184L637.103 102.672ZM668.715 102.256C666.752 102.256 665.024 101.872 663.531 101.104C662.059 100.336 660.917 99.2907 660.107 97.968C659.296 96.624 658.891 95.0987 658.891 93.392C658.891 91.664 659.285 90.1387 660.075 88.816C660.885 87.472 661.984 86.4267 663.371 85.68C664.757 84.912 666.325 84.528 668.075 84.528C669.76 84.528 671.275 84.8907 672.619 85.616C673.984 86.32 675.061 87.344 675.851 88.688C676.64 90.0107 677.035 91.6 677.035 93.456C677.035 93.648 677.024 93.872 677.003 94.128C676.981 94.3627 676.96 94.5867 676.939 94.8H662.955V91.888H674.315L672.395 92.752C672.395 91.856 672.213 91.0773 671.851 90.416C671.488 89.7547 670.987 89.2427 670.347 88.88C669.707 88.496 668.96 88.304 668.107 88.304C667.253 88.304 666.496 88.496 665.835 88.88C665.195 89.2427 664.693 89.7653 664.331 90.448C663.968 91.1093 663.787 91.8987 663.787 92.816V93.584C663.787 94.5227 663.989 95.3547 664.395 96.08C664.821 96.784 665.408 97.328 666.155 97.712C666.923 98.0747 667.819 98.256 668.843 98.256C669.76 98.256 670.56 98.1173 671.243 97.84C671.947 97.5627 672.587 97.1467 673.163 96.592L675.819 99.472C675.029 100.368 674.037 101.061 672.843 101.552C671.648 102.021 670.272 102.256 668.715 102.256ZM690.822 84.528C692.187 84.528 693.403 84.8053 694.47 85.36C695.558 85.8933 696.411 86.7253 697.03 87.856C697.649 88.9653 697.958 90.3947 697.958 92.144V102H692.966V92.912C692.966 91.5253 692.657 90.5013 692.038 89.84C691.441 89.1787 690.587 88.848 689.478 88.848C688.689 88.848 687.974 89.0187 687.334 89.36C686.715 89.68 686.225 90.1813 685.862 90.864C685.521 91.5467 685.35 92.4213 685.35 93.488V102H680.358V84.784H685.126V89.552L684.23 88.112C684.849 86.96 685.734 86.0747 686.886 85.456C688.038 84.8373 689.35 84.528 690.822 84.528ZM710.928 102.256C709.072 102.256 707.419 101.883 705.968 101.136C704.517 100.368 703.376 99.312 702.544 97.968C701.733 96.624 701.328 95.0987 701.328 93.392C701.328 91.664 701.733 90.1387 702.544 88.816C703.376 87.472 704.517 86.4267 705.968 85.68C707.419 84.912 709.072 84.528 710.928 84.528C712.741 84.528 714.32 84.912 715.664 85.68C717.008 86.4267 718 87.504 718.64 88.912L714.768 90.992C714.32 90.1813 713.755 89.584 713.072 89.2C712.411 88.816 711.685 88.624 710.896 88.624C710.043 88.624 709.275 88.816 708.592 89.2C707.909 89.584 707.365 90.128 706.96 90.832C706.576 91.536 706.384 92.3893 706.384 93.392C706.384 94.3947 706.576 95.248 706.96 95.952C707.365 96.656 707.909 97.2 708.592 97.584C709.275 97.968 710.043 98.16 710.896 98.16C711.685 98.16 712.411 97.9787 713.072 97.616C713.755 97.232 714.32 96.624 714.768 95.792L718.64 97.904C718 99.2907 717.008 100.368 715.664 101.136C714.32 101.883 712.741 102.256 710.928 102.256ZM721.514 102V84.784H726.282V89.648L725.61 88.24C726.122 87.024 726.944 86.1067 728.074 85.488C729.205 84.848 730.581 84.528 732.202 84.528V89.136C731.989 89.1147 731.797 89.104 731.626 89.104C731.456 89.0827 731.274 89.072 731.082 89.072C729.717 89.072 728.608 89.4667 727.754 90.256C726.922 91.024 726.506 92.2293 726.506 93.872V102H721.514ZM737.94 108.464C737.044 108.464 736.159 108.325 735.284 108.048C734.41 107.771 733.695 107.387 733.14 106.896L734.964 103.344C735.348 103.685 735.786 103.952 736.276 104.144C736.788 104.336 737.29 104.432 737.78 104.432C738.484 104.432 739.039 104.261 739.444 103.92C739.871 103.6 740.255 103.056 740.596 102.288L741.492 100.176L741.876 99.632L748.052 84.784H752.852L745.076 103.056C744.522 104.443 743.882 105.531 743.156 106.32C742.452 107.109 741.663 107.664 740.788 107.984C739.935 108.304 738.986 108.464 737.94 108.464ZM740.884 102.672L733.204 84.784H738.356L744.308 99.184L740.884 102.672ZM765.065 102.256C763.615 102.256 762.345 101.936 761.257 101.296C760.169 100.656 759.316 99.6853 758.697 98.384C758.1 97.0613 757.801 95.3973 757.801 93.392C757.801 91.3653 758.089 89.7013 758.665 88.4C759.241 87.0987 760.073 86.128 761.161 85.488C762.249 84.848 763.551 84.528 765.065 84.528C766.687 84.528 768.137 84.9013 769.417 85.648C770.719 86.3733 771.743 87.3973 772.489 88.72C773.257 90.0427 773.641 91.6 773.641 93.392C773.641 95.2053 773.257 96.7733 772.489 98.096C771.743 99.4187 770.719 100.443 769.417 101.168C768.137 101.893 766.687 102.256 765.065 102.256ZM754.889 108.208V84.784H759.657V88.304L759.561 93.424L759.881 98.512V108.208H754.889ZM764.201 98.16C765.033 98.16 765.769 97.968 766.409 97.584C767.071 97.2 767.593 96.656 767.977 95.952C768.383 95.2267 768.585 94.3733 768.585 93.392C768.585 92.3893 768.383 91.536 767.977 90.832C767.593 90.128 767.071 89.584 766.409 89.2C765.769 88.816 765.033 88.624 764.201 88.624C763.369 88.624 762.623 88.816 761.961 89.2C761.3 89.584 760.777 90.128 760.393 90.832C760.009 91.536 759.817 92.3893 759.817 93.392C759.817 94.3733 760.009 95.2267 760.393 95.952C760.777 96.656 761.3 97.2 761.961 97.584C762.623 97.968 763.369 98.16 764.201 98.16ZM784.023 102.256C781.996 102.256 780.418 101.744 779.287 100.72C778.156 99.6747 777.591 98.128 777.591 96.08V80.976H782.583V96.016C782.583 96.7413 782.775 97.3067 783.159 97.712C783.543 98.096 784.066 98.288 784.727 98.288C785.516 98.288 786.188 98.0747 786.743 97.648L788.087 101.168C787.575 101.531 786.956 101.808 786.231 102C785.527 102.171 784.791 102.256 784.023 102.256ZM774.935 89.008V85.168H786.871V89.008H774.935ZM798.902 102.256C796.939 102.256 795.211 101.872 793.718 101.104C792.246 100.336 791.105 99.2907 790.294 97.968C789.483 96.624 789.078 95.0987 789.078 93.392C789.078 91.664 789.473 90.1387 790.262 88.816C791.073 87.472 792.171 86.4267 793.558 85.68C794.945 84.912 796.513 84.528 798.262 84.528C799.947 84.528 801.462 84.8907 802.806 85.616C804.171 86.32 805.249 87.344 806.038 88.688C806.827 90.0107 807.222 91.6 807.222 93.456C807.222 93.648 807.211 93.872 807.19 94.128C807.169 94.3627 807.147 94.5867 807.126 94.8H793.142V91.888H804.502L802.582 92.752C802.582 91.856 802.401 91.0773 802.038 90.416C801.675 89.7547 801.174 89.2427 800.534 88.88C799.894 88.496 799.147 88.304 798.294 88.304C797.441 88.304 796.683 88.496 796.022 88.88C795.382 89.2427 794.881 89.7653 794.518 90.448C794.155 91.1093 793.974 91.8987 793.974 92.816V93.584C793.974 94.5227 794.177 95.3547 794.582 96.08C795.009 96.784 795.595 97.328 796.342 97.712C797.11 98.0747 798.006 98.256 799.03 98.256C799.947 98.256 800.747 98.1173 801.43 97.84C802.134 97.5627 802.774 97.1467 803.35 96.592L806.006 99.472C805.217 100.368 804.225 101.061 803.03 101.552C801.835 102.021 800.459 102.256 798.902 102.256ZM817.938 102.256C816.316 102.256 814.855 101.893 813.554 101.168C812.252 100.421 811.218 99.3867 810.45 98.064C809.703 96.7413 809.33 95.184 809.33 93.392C809.33 91.5787 809.703 90.0107 810.45 88.688C811.218 87.3653 812.252 86.3413 813.554 85.616C814.855 84.8907 816.316 84.528 817.938 84.528C819.388 84.528 820.658 84.848 821.746 85.488C822.834 86.128 823.676 87.0987 824.274 88.4C824.871 89.7013 825.17 91.3653 825.17 93.392C825.17 95.3973 824.882 97.0613 824.306 98.384C823.73 99.6853 822.898 100.656 821.81 101.296C820.743 101.936 819.452 102.256 817.938 102.256ZM818.802 98.16C819.612 98.16 820.348 97.968 821.01 97.584C821.671 97.2 822.194 96.656 822.578 95.952C822.983 95.2267 823.186 94.3733 823.186 93.392C823.186 92.3893 822.983 91.536 822.578 90.832C822.194 90.128 821.671 89.584 821.01 89.2C820.348 88.816 819.612 88.624 818.802 88.624C817.97 88.624 817.223 88.816 816.562 89.2C815.9 89.584 815.367 90.128 814.962 90.832C814.578 91.536 814.386 92.3893 814.386 93.392C814.386 94.3733 814.578 95.2267 814.962 95.952C815.367 96.656 815.9 97.2 816.562 97.584C817.223 97.968 817.97 98.16 818.802 98.16ZM823.314 102V98.48L823.41 93.36L823.09 88.272V78.256H828.082V102H823.314Z"
          fill="#01EE8A"/>
    <defs>
        <filter id="filter0_b_328_130" x="1128.39" y="-112.781" width="359.884" height="374.385"
                filterUnits="userSpaceOnUse" color-interpolation-filters="sRGB">
            <feFlood flood-opacity="0" result="BackgroundImageFix"/>
            <feGaussianBlur in="BackgroundImageFix" stdDeviation="25"/>
            <feComposite in2="SourceAlpha" operator="in" result="effect1_backgroundBlur_328_130"/>
            <feBlend mode="normal" in="SourceGraphic" in2="effect1_backgroundBlur_328_130" result="shape"/>
        </filter>
        <filter id="filter1_f_328_130" x="68.123" y="41" width="86.0645" height="99" filterUnits="userSpaceOnUse"
                color-interpolation-filters="sRGB">
            <feFlood flood-opacity="0" result="BackgroundImageFix"/>
            <feBlend mode="normal" in="SourceGraphic" in2="BackgroundImageFix" result="shape"/>
            <feGaussianBlur stdDeviation="10" result="effect1_foregroundBlur_328_130"/>
        </filter>
        <radialGradient id="paint0_radial_328_130" cx="0" cy="0" r="1" gradientUnits="userSpaceOnUse"
                        gradientTransform="translate(15.8192 -42.7727) rotate(179.988) scale(889.232 418.062)">
            <stop stop-color="#48E4F3"/>
            <stop offset="0.12" stop-color="#3BBCF5" stop-opacity="0.83"/>
            <stop offset="0.33" stop-color="#267AF8" stop-opacity="0.54"/>
            <stop offset="0.52" stop-color="#1645FB" stop-opacity="0.31"/>
            <stop offset="0.69" stop-color="#0A1FFD" stop-opacity="0.14"/>
            <stop offset="0.82" stop-color="#0208FE" stop-opacity="0.04"/>
            <stop offset="0.9" stop-color="#0000FF" stop-opacity="0"/>
        </radialGradient>
        <radialGradient id="paint1_radial_328_130" cx="0" cy="0" r="1" gradientUnits="userSpaceOnUse"
                        gradientTransform="translate(1408.75 199.227) rotate(179.988) scale(889.232 418.062)">
            <stop stop-color="#48E4F3"/>
            <stop offset="0.12" stop-color="#3BBCF5" stop-opacity="0.83"/>
            <stop offset="0.33" stop-color="#267AF8" stop-opacity="0.54"/>
            <stop offset="0.52" stop-color="#1645FB" stop-opacity="0.31"/>
            <stop offset="0.69" stop-color="#0A1FFD" stop-opacity="0.14"/>
            <stop offset="0.82" stop-color="#0208FE" stop-opacity="0.04"/>
            <stop offset="0.9" stop-color="#0000FF" stop-opacity="0"/>
        </radialGradient>
    </defs>
</svg>
