<svg width="570" height="342" viewBox="0 0 570 342" fill="none" xmlns="http://www.w3.org/2000/svg">
    <rect x="0.5" y="0.5" width="569" height="340.9" rx="19.5" fill="#12161D" stroke="#12161D"/>
    <circle cx="22.0341" cy="19.0273" r="5.99215" fill="#ED6A5E"/>
    <circle cx="42.5215" cy="19.0273" r="5.99215" fill="#F6BD4F"/>
    <circle cx="63.0088" cy="19.0273" r="5.99215" fill="#61C354"/>
    <path d="M105.888 166.953C105.888 168.893 105.437 170.387 104.534 171.436C103.638 172.479 102.352 173 100.676 173H97.4238V161.144H100.157C102.085 161.144 103.521 161.627 104.464 162.594C105.413 163.555 105.888 165.008 105.888 166.953ZM104.2 166.953C104.2 165.406 103.878 164.281 103.233 163.578C102.589 162.869 101.566 162.515 100.166 162.515H99.1025V171.629H100.526C101.769 171.629 102.691 171.239 103.295 170.46C103.898 169.681 104.2 168.512 104.2 166.953ZM109.641 168.579C109.641 169.646 109.875 170.48 110.344 171.084C110.818 171.688 111.466 171.989 112.286 171.989C112.89 171.989 113.417 171.86 113.868 171.603C114.325 171.339 114.63 170.981 114.782 170.53L116.171 170.926C115.913 171.652 115.438 172.209 114.747 172.596C114.062 172.982 113.241 173.176 112.286 173.176C110.903 173.176 109.84 172.745 109.096 171.884C108.352 171.022 107.979 169.789 107.979 168.184C107.979 166.619 108.343 165.418 109.069 164.58C109.802 163.736 110.856 163.314 112.233 163.314C113.61 163.314 114.653 163.733 115.362 164.571C116.071 165.409 116.426 166.675 116.426 168.368V168.579H109.641ZM112.251 164.483C111.466 164.483 110.845 164.741 110.388 165.257C109.931 165.767 109.688 166.47 109.658 167.366H114.791C114.627 165.444 113.78 164.483 112.251 164.483ZM127.201 168.201C127.201 171.518 126.053 173.176 123.756 173.176C122.314 173.176 121.345 172.637 120.847 171.559H120.803C120.826 171.605 120.838 172.092 120.838 173.018V176.735H119.247V165.459C119.247 164.463 119.229 163.807 119.194 163.49H120.732C120.738 163.514 120.747 163.602 120.759 163.754C120.771 163.9 120.782 164.12 120.794 164.413C120.812 164.7 120.82 164.914 120.82 165.055H120.855C121.148 164.439 121.521 163.994 121.972 163.719C122.429 163.438 123.023 163.297 123.756 163.297C124.916 163.297 125.78 163.698 126.349 164.501C126.917 165.298 127.201 166.531 127.201 168.201ZM125.566 168.201C125.566 166.877 125.388 165.934 125.03 165.371C124.673 164.803 124.11 164.519 123.343 164.519C122.458 164.519 121.819 164.841 121.427 165.485C121.034 166.124 120.838 167.094 120.838 168.395C120.838 169.643 121.034 170.557 121.427 171.137C121.819 171.717 122.452 172.007 123.325 172.007C124.104 172.007 124.673 171.711 125.03 171.119C125.388 170.527 125.566 169.555 125.566 168.201ZM134.9 171.752H138.24V173H129.609V171.752H133.318V161.205H130.778V159.957H134.9V171.752ZM148.884 168.236C148.884 169.836 148.515 171.061 147.776 171.91C147.044 172.754 145.983 173.176 144.595 173.176C143.235 173.176 142.192 172.748 141.466 171.893C140.745 171.037 140.385 169.818 140.385 168.236C140.385 166.602 140.754 165.374 141.492 164.554C142.236 163.728 143.288 163.314 144.647 163.314C146.077 163.314 147.141 163.722 147.838 164.536C148.535 165.351 148.884 166.584 148.884 168.236ZM147.223 168.236C147.223 166.977 147.021 166.036 146.616 165.415C146.218 164.794 145.57 164.483 144.674 164.483C143.766 164.483 143.101 164.8 142.679 165.433C142.257 166.065 142.046 167 142.046 168.236C142.046 169.467 142.257 170.404 142.679 171.049C143.101 171.688 143.733 172.007 144.577 172.007C145.509 172.007 146.183 171.693 146.599 171.066C147.015 170.439 147.223 169.496 147.223 168.236ZM152.619 176.735C152.186 176.735 151.822 176.703 151.529 176.639V175.452C151.752 175.487 151.998 175.505 152.268 175.505C152.73 175.505 153.164 175.332 153.568 174.986C153.979 174.641 154.324 174.09 154.605 173.334L154.764 172.903L150.633 163.49H152.32L154.641 169.133C155.174 170.445 155.461 171.189 155.502 171.365L155.862 170.398L158.587 163.49H160.257L156.249 173C155.728 174.377 155.186 175.344 154.623 175.9C154.066 176.457 153.398 176.735 152.619 176.735ZM163.693 168.579C163.693 169.646 163.928 170.48 164.396 171.084C164.871 171.688 165.519 171.989 166.339 171.989C166.942 171.989 167.47 171.86 167.921 171.603C168.378 171.339 168.683 170.981 168.835 170.53L170.224 170.926C169.966 171.652 169.491 172.209 168.8 172.596C168.114 172.982 167.294 173.176 166.339 173.176C164.956 173.176 163.893 172.745 163.148 171.884C162.404 171.022 162.032 169.789 162.032 168.184C162.032 166.619 162.396 165.418 163.122 164.58C163.854 163.736 164.909 163.314 166.286 163.314C167.663 163.314 168.706 163.733 169.415 164.571C170.124 165.409 170.479 166.675 170.479 168.368V168.579H163.693ZM166.304 164.483C165.519 164.483 164.897 164.741 164.44 165.257C163.983 165.767 163.74 166.47 163.711 167.366H168.844C168.68 165.444 167.833 164.483 166.304 164.483ZM179.25 171.471C178.963 172.086 178.582 172.534 178.107 172.815C177.633 173.091 177.041 173.229 176.332 173.229C175.148 173.229 174.278 172.821 173.722 172.007C173.165 171.192 172.887 169.965 172.887 168.324C172.887 165.008 174.035 163.35 176.332 163.35C177.041 163.35 177.633 163.476 178.107 163.728C178.588 163.979 178.972 164.393 179.259 164.967H179.276L179.259 163.64V159.957H180.841V171.04C180.841 172.03 180.858 172.684 180.894 173H179.382C179.358 172.912 179.338 172.698 179.32 172.358C179.303 172.019 179.294 171.723 179.294 171.471H179.25ZM174.521 168.271C174.521 169.572 174.694 170.521 175.04 171.119C175.392 171.711 175.96 172.007 176.745 172.007C177.601 172.007 178.233 171.699 178.644 171.084C179.054 170.463 179.259 169.479 179.259 168.131C179.259 166.871 179.06 165.954 178.661 165.38C178.269 164.806 177.636 164.519 176.763 164.519C175.972 164.519 175.4 164.82 175.049 165.424C174.697 166.027 174.521 166.977 174.521 168.271Z"
          fill="#595D75"/>
    <path d="M107.536 264.693C107.536 266.258 107.202 267.397 106.534 268.112C105.866 268.821 104.794 269.176 103.317 269.176C101.888 269.176 100.851 268.833 100.206 268.147C99.5674 267.456 99.248 266.357 99.248 264.852V257.144H100.927V264.623C100.927 265.818 101.097 266.65 101.437 267.119C101.782 267.582 102.406 267.813 103.309 267.813C104.252 267.813 104.914 267.573 105.295 267.093C105.676 266.612 105.866 265.751 105.866 264.509V257.144H107.536V264.693ZM118.127 266.284C118.127 267.187 117.784 267.896 117.099 268.411C116.419 268.921 115.476 269.176 114.269 269.176C113.062 269.176 112.142 268.988 111.509 268.613C110.882 268.232 110.472 267.635 110.278 266.82L111.676 266.548C111.787 267.052 112.024 267.421 112.388 267.655C112.757 267.884 113.384 267.998 114.269 267.998C115.851 267.998 116.642 267.497 116.642 266.495C116.642 266.12 116.498 265.818 116.211 265.59C115.924 265.355 115.484 265.165 114.893 265.019C113.346 264.638 112.364 264.339 111.948 264.122C111.532 263.905 111.213 263.636 110.99 263.313C110.768 262.985 110.656 262.578 110.656 262.092C110.656 261.23 110.967 260.557 111.588 260.07C112.209 259.584 113.108 259.341 114.286 259.341C115.317 259.341 116.141 259.537 116.756 259.93C117.371 260.316 117.755 260.882 117.907 261.626L116.483 261.802C116.419 261.38 116.211 261.061 115.859 260.844C115.508 260.627 114.983 260.519 114.286 260.519C112.851 260.519 112.133 260.961 112.133 261.846C112.133 262.197 112.253 262.479 112.493 262.689C112.739 262.9 113.132 263.07 113.671 263.199L114.717 263.472C115.672 263.706 116.357 263.938 116.773 264.166C117.195 264.395 117.526 264.682 117.767 265.027C118.007 265.367 118.127 265.786 118.127 266.284ZM122.451 264.579C122.451 265.646 122.686 266.48 123.154 267.084C123.629 267.688 124.276 267.989 125.097 267.989C125.7 267.989 126.228 267.86 126.679 267.603C127.136 267.339 127.44 266.981 127.593 266.53L128.981 266.926C128.724 267.652 128.249 268.209 127.558 268.596C126.872 268.982 126.052 269.176 125.097 269.176C123.714 269.176 122.65 268.745 121.906 267.884C121.162 267.022 120.79 265.789 120.79 264.184C120.79 262.619 121.153 261.418 121.88 260.58C122.612 259.736 123.667 259.314 125.044 259.314C126.421 259.314 127.464 259.733 128.173 260.571C128.882 261.409 129.236 262.675 129.236 264.368V264.579H122.451ZM125.062 260.483C124.276 260.483 123.655 260.741 123.198 261.257C122.741 261.767 122.498 262.47 122.469 263.366H127.602C127.438 261.444 126.591 260.483 125.062 260.483ZM138.008 267.471C137.721 268.086 137.34 268.534 136.865 268.815C136.391 269.091 135.799 269.229 135.09 269.229C133.906 269.229 133.036 268.821 132.479 268.007C131.923 267.192 131.645 265.965 131.645 264.324C131.645 261.008 132.793 259.35 135.09 259.35C135.799 259.35 136.391 259.476 136.865 259.728C137.346 259.979 137.729 260.393 138.017 260.967H138.034L138.017 259.64V255.957H139.599V267.04C139.599 268.03 139.616 268.684 139.651 269H138.14C138.116 268.912 138.096 268.698 138.078 268.358C138.061 268.019 138.052 267.723 138.052 267.471H138.008ZM133.279 264.271C133.279 265.572 133.452 266.521 133.798 267.119C134.149 267.711 134.718 268.007 135.503 268.007C136.358 268.007 136.991 267.699 137.401 267.084C137.812 266.463 138.017 265.479 138.017 264.131C138.017 262.871 137.817 261.954 137.419 261.38C137.026 260.806 136.394 260.519 135.521 260.519C134.729 260.519 134.158 260.82 133.807 261.424C133.455 262.027 133.279 262.977 133.279 264.271Z"
          fill="#595D75"/>
    <path d="M106.45 98.3643C106.45 100.11 106.207 101.502 105.721 102.539C105.24 103.57 104.59 104.086 103.77 104.086C102.932 104.086 102.513 103.626 102.513 102.706V102.636L102.53 102.372H102.478C102.278 102.888 101.997 103.304 101.634 103.62C101.276 103.931 100.869 104.086 100.412 104.086C99.791 104.086 99.3047 103.793 98.9531 103.207C98.6074 102.621 98.4346 101.786 98.4346 100.702C98.4346 99.7588 98.5752 98.8682 98.8564 98.0303C99.1436 97.1924 99.5303 96.5332 100.017 96.0527C100.509 95.5664 101.057 95.3232 101.66 95.3232C102.076 95.3232 102.416 95.4463 102.68 95.6924C102.949 95.9326 103.148 96.3164 103.277 96.8438H103.321L103.603 95.5166H104.622L103.752 99.9727C103.518 101.203 103.4 102.018 103.4 102.416C103.4 102.932 103.544 103.189 103.831 103.189C104.288 103.189 104.66 102.753 104.947 101.88C105.24 101.007 105.387 99.8408 105.387 98.3818C105.387 96.7764 105.067 95.4756 104.429 94.4795C103.79 93.4775 102.943 92.9766 101.889 92.9766C101.021 92.9766 100.254 93.293 99.5859 93.9258C98.918 94.5527 98.4023 95.4375 98.0391 96.5801C97.6758 97.7227 97.4941 99.0234 97.4941 100.482C97.4941 102.293 97.834 103.74 98.5137 104.824C99.1934 105.908 100.125 106.45 101.309 106.45C101.859 106.45 102.39 106.348 102.899 106.143C103.409 105.938 103.96 105.577 104.552 105.062L105.176 105.826C104.502 106.406 103.849 106.828 103.216 107.092C102.583 107.355 101.918 107.487 101.221 107.487C100.254 107.487 99.4014 107.203 98.6631 106.635C97.9307 106.066 97.3682 105.249 96.9756 104.183C96.583 103.11 96.3867 101.877 96.3867 100.482C96.3867 98.8066 96.6123 97.3213 97.0635 96.0264C97.5146 94.7256 98.1592 93.7236 98.9971 93.0205C99.835 92.3115 100.805 91.957 101.906 91.957C102.832 91.957 103.635 92.2236 104.314 92.7568C105 93.2842 105.527 94.0342 105.896 95.0068C106.266 95.9736 106.45 97.0928 106.45 98.3643ZM102.812 98.1094C102.812 97.4883 102.709 97.0195 102.504 96.7031C102.299 96.3809 102.023 96.2197 101.678 96.2197C101.309 96.2197 100.969 96.416 100.658 96.8086C100.348 97.1953 100.096 97.7461 99.9023 98.4609C99.7148 99.1699 99.6211 99.9111 99.6211 100.685C99.6211 102.331 99.9551 103.154 100.623 103.154C101.057 103.154 101.446 102.876 101.792 102.319C102.138 101.763 102.393 101.024 102.557 100.104C102.727 99.1846 102.812 98.5195 102.812 98.1094ZM107.953 100.236C107.953 98.6543 108.331 97.4385 109.087 96.5889C109.843 95.7393 110.936 95.3145 112.365 95.3145C113.432 95.3145 114.311 95.5723 115.002 96.0879C115.693 96.5977 116.121 97.2861 116.285 98.1533L114.598 98.2764C114.504 97.7432 114.27 97.3242 113.895 97.0195C113.52 96.709 112.986 96.5537 112.295 96.5537C111.369 96.5537 110.689 96.8408 110.256 97.415C109.828 97.9893 109.614 98.918 109.614 100.201C109.614 101.502 109.828 102.454 110.256 103.058C110.689 103.655 111.366 103.954 112.286 103.954C112.919 103.954 113.443 103.799 113.859 103.488C114.275 103.178 114.533 102.703 114.633 102.064L116.303 102.17C116.227 102.732 116.013 103.245 115.661 103.708C115.315 104.165 114.855 104.525 114.281 104.789C113.707 105.047 113.065 105.176 112.356 105.176C110.921 105.176 109.828 104.754 109.078 103.91C108.328 103.066 107.953 101.842 107.953 100.236ZM124.09 103.752H127.43V105H118.799V103.752H122.508V93.2051H119.968V91.957H124.09V103.752ZM138.073 100.236C138.073 101.836 137.704 103.061 136.966 103.91C136.233 104.754 135.173 105.176 133.784 105.176C132.425 105.176 131.382 104.748 130.655 103.893C129.935 103.037 129.574 101.818 129.574 100.236C129.574 98.6016 129.943 97.374 130.682 96.5537C131.426 95.7275 132.478 95.3145 133.837 95.3145C135.267 95.3145 136.33 95.7217 137.027 96.5361C137.725 97.3506 138.073 98.584 138.073 100.236ZM136.412 100.236C136.412 98.9766 136.21 98.0361 135.806 97.415C135.407 96.7939 134.76 96.4834 133.863 96.4834C132.955 96.4834 132.29 96.7998 131.868 97.4326C131.446 98.0654 131.235 99 131.235 100.236C131.235 101.467 131.446 102.404 131.868 103.049C132.29 103.688 132.923 104.007 133.767 104.007C134.698 104.007 135.372 103.693 135.788 103.066C136.204 102.439 136.412 101.496 136.412 100.236ZM142.45 95.4902V101.52C142.45 102.434 142.594 103.069 142.881 103.427C143.168 103.778 143.681 103.954 144.419 103.954C145.175 103.954 145.772 103.696 146.212 103.181C146.651 102.665 146.871 101.938 146.871 101.001V95.4902H148.462V102.97C148.462 104.077 148.479 104.754 148.515 105H147.021C147.015 104.971 147.009 104.892 147.003 104.763C146.997 104.634 146.988 104.487 146.977 104.323C146.971 104.153 146.962 103.837 146.95 103.374H146.924C146.561 104.03 146.139 104.496 145.658 104.771C145.184 105.041 144.592 105.176 143.883 105.176C142.84 105.176 142.075 104.918 141.589 104.402C141.108 103.881 140.868 103.022 140.868 101.827V95.4902H142.45ZM157.629 103.471C157.342 104.086 156.961 104.534 156.486 104.815C156.012 105.091 155.42 105.229 154.711 105.229C153.527 105.229 152.657 104.821 152.101 104.007C151.544 103.192 151.266 101.965 151.266 100.324C151.266 97.0078 152.414 95.3496 154.711 95.3496C155.42 95.3496 156.012 95.4756 156.486 95.7275C156.967 95.9795 157.351 96.3926 157.638 96.9668H157.655L157.638 95.6396V91.957H159.22V103.04C159.22 104.03 159.237 104.684 159.272 105H157.761C157.737 104.912 157.717 104.698 157.699 104.358C157.682 104.019 157.673 103.723 157.673 103.471H157.629ZM152.9 100.271C152.9 101.572 153.073 102.521 153.419 103.119C153.771 103.711 154.339 104.007 155.124 104.007C155.979 104.007 156.612 103.699 157.022 103.084C157.433 102.463 157.638 101.479 157.638 100.131C157.638 98.8711 157.438 97.9541 157.04 97.3799C156.647 96.8057 156.015 96.5186 155.142 96.5186C154.351 96.5186 153.779 96.8203 153.428 97.4238C153.076 98.0273 152.9 98.9766 152.9 100.271ZM165.223 105V102.372H167.288V105H165.223ZM97.1426 240.236C97.1426 238.654 97.5205 237.438 98.2764 236.589C99.0322 235.739 100.125 235.314 101.555 235.314C102.621 235.314 103.5 235.572 104.191 236.088C104.883 236.598 105.311 237.286 105.475 238.153L103.787 238.276C103.693 237.743 103.459 237.324 103.084 237.02C102.709 236.709 102.176 236.554 101.484 236.554C100.559 236.554 99.8789 236.841 99.4453 237.415C99.0176 237.989 98.8037 238.918 98.8037 240.201C98.8037 241.502 99.0176 242.454 99.4453 243.058C99.8789 243.655 100.556 243.954 101.476 243.954C102.108 243.954 102.633 243.799 103.049 243.488C103.465 243.178 103.723 242.703 103.822 242.064L105.492 242.17C105.416 242.732 105.202 243.245 104.851 243.708C104.505 244.165 104.045 244.525 103.471 244.789C102.896 245.047 102.255 245.176 101.546 245.176C100.11 245.176 99.0176 244.754 98.2676 243.91C97.5176 243.066 97.1426 241.842 97.1426 240.236ZM113.279 243.752H116.619V245H107.988V243.752H111.697V233.205H109.157V231.957H113.279V243.752ZM127.263 240.236C127.263 241.836 126.894 243.061 126.155 243.91C125.423 244.754 124.362 245.176 122.974 245.176C121.614 245.176 120.571 244.748 119.845 243.893C119.124 243.037 118.764 241.818 118.764 240.236C118.764 238.602 119.133 237.374 119.871 236.554C120.615 235.728 121.667 235.314 123.026 235.314C124.456 235.314 125.52 235.722 126.217 236.536C126.914 237.351 127.263 238.584 127.263 240.236ZM125.602 240.236C125.602 238.977 125.399 238.036 124.995 237.415C124.597 236.794 123.949 236.483 123.053 236.483C122.145 236.483 121.479 236.8 121.058 237.433C120.636 238.065 120.425 239 120.425 240.236C120.425 241.467 120.636 242.404 121.058 243.049C121.479 243.688 122.112 244.007 122.956 244.007C123.888 244.007 124.562 243.693 124.978 243.066C125.394 242.439 125.602 241.496 125.602 240.236ZM131.64 235.49V241.52C131.64 242.434 131.783 243.069 132.07 243.427C132.357 243.778 132.87 243.954 133.608 243.954C134.364 243.954 134.962 243.696 135.401 243.181C135.841 242.665 136.061 241.938 136.061 241.001V235.49H137.651V242.97C137.651 244.077 137.669 244.754 137.704 245H136.21C136.204 244.971 136.198 244.892 136.192 244.763C136.187 244.634 136.178 244.487 136.166 244.323C136.16 244.153 136.151 243.837 136.14 243.374H136.113C135.75 244.03 135.328 244.496 134.848 244.771C134.373 245.041 133.781 245.176 133.072 245.176C132.029 245.176 131.265 244.918 130.778 244.402C130.298 243.881 130.058 243.022 130.058 241.827V235.49H131.64ZM146.818 243.471C146.531 244.086 146.15 244.534 145.676 244.815C145.201 245.091 144.609 245.229 143.9 245.229C142.717 245.229 141.847 244.821 141.29 244.007C140.733 243.192 140.455 241.965 140.455 240.324C140.455 237.008 141.604 235.35 143.9 235.35C144.609 235.35 145.201 235.476 145.676 235.728C146.156 235.979 146.54 236.393 146.827 236.967H146.845L146.827 235.64V231.957H148.409V243.04C148.409 244.03 148.427 244.684 148.462 245H146.95C146.927 244.912 146.906 244.698 146.889 244.358C146.871 244.019 146.862 243.723 146.862 243.471H146.818ZM142.09 240.271C142.09 241.572 142.263 242.521 142.608 243.119C142.96 243.711 143.528 244.007 144.313 244.007C145.169 244.007 145.802 243.699 146.212 243.084C146.622 242.463 146.827 241.479 146.827 240.131C146.827 238.871 146.628 237.954 146.229 237.38C145.837 236.806 145.204 236.519 144.331 236.519C143.54 236.519 142.969 236.82 142.617 237.424C142.266 238.027 142.09 238.977 142.09 240.271ZM154.412 245V242.372H156.478V245H154.412Z"
          fill="#A7A9AB"/>
    <path d="M181.351 104.024C181.503 104.024 181.676 104.004 181.869 103.963V104.947C181.471 105.041 181.063 105.088 180.647 105.088C180.062 105.088 179.634 104.936 179.364 104.631C179.101 104.32 178.951 103.837 178.916 103.181H178.863C178.482 103.89 178.031 104.399 177.51 104.71C176.994 105.021 176.355 105.176 175.594 105.176C174.668 105.176 173.971 104.924 173.502 104.42C173.033 103.916 172.799 103.225 172.799 102.346C172.799 100.301 174.129 99.2637 176.789 99.2344L178.863 99.1992V98.6807C178.863 97.9131 178.708 97.3623 178.397 97.0283C178.087 96.6885 177.592 96.5186 176.912 96.5186C176.221 96.5186 175.723 96.6416 175.418 96.8877C175.113 97.1338 174.932 97.5146 174.873 98.0303L173.221 97.8809C173.49 96.1699 174.729 95.3145 176.938 95.3145C178.11 95.3145 178.989 95.5898 179.575 96.1406C180.167 96.6855 180.463 97.4766 180.463 98.5137V102.609C180.463 103.078 180.524 103.433 180.647 103.673C180.771 103.907 181.005 104.024 181.351 104.024ZM175.998 103.972C176.561 103.972 177.059 103.837 177.492 103.567C177.926 103.298 178.263 102.938 178.503 102.486C178.743 102.035 178.863 101.569 178.863 101.089V100.307L177.193 100.342C176.502 100.354 175.975 100.43 175.611 100.57C175.248 100.711 174.964 100.928 174.759 101.221C174.56 101.508 174.46 101.892 174.46 102.372C174.46 102.853 174.589 103.239 174.847 103.532C175.11 103.825 175.494 103.972 175.998 103.972ZM183.627 100.236C183.627 98.6543 184.005 97.4385 184.761 96.5889C185.517 95.7393 186.609 95.3145 188.039 95.3145C189.105 95.3145 189.984 95.5723 190.676 96.0879C191.367 96.5977 191.795 97.2861 191.959 98.1533L190.271 98.2764C190.178 97.7432 189.943 97.3242 189.568 97.0195C189.193 96.709 188.66 96.5537 187.969 96.5537C187.043 96.5537 186.363 96.8408 185.93 97.415C185.502 97.9893 185.288 98.918 185.288 100.201C185.288 101.502 185.502 102.454 185.93 103.058C186.363 103.655 187.04 103.954 187.96 103.954C188.593 103.954 189.117 103.799 189.533 103.488C189.949 103.178 190.207 102.703 190.307 102.064L191.977 102.17C191.9 102.732 191.687 103.245 191.335 103.708C190.989 104.165 190.529 104.525 189.955 104.789C189.381 105.047 188.739 105.176 188.03 105.176C186.595 105.176 185.502 104.754 184.752 103.91C184.002 103.066 183.627 101.842 183.627 100.236ZM194.965 96.7383V95.4902H196.459L196.969 93.0117H198.023V95.4902H201.82V96.7383H198.023V102.469C198.023 102.932 198.146 103.274 198.393 103.497C198.645 103.72 199.055 103.831 199.623 103.831C200.408 103.831 201.278 103.731 202.233 103.532V104.736C201.243 105.006 200.262 105.141 199.289 105.141C198.34 105.141 197.628 104.941 197.153 104.543C196.679 104.139 196.441 103.503 196.441 102.636V96.7383H194.965ZM210.653 103.752H213.993V105H205.362V103.752H209.071V96.7383H206.268V95.4902H210.653V103.752ZM208.896 93.6445V91.957H210.653V93.6445H208.896ZM221.2 105H219.328L215.522 95.4902H217.298L219.653 101.678L219.803 102.144L220.26 103.761L220.567 102.732L220.91 101.695L223.336 95.4902H225.103L221.2 105ZM228.557 100.579C228.557 101.646 228.791 102.48 229.26 103.084C229.734 103.688 230.382 103.989 231.202 103.989C231.806 103.989 232.333 103.86 232.784 103.603C233.241 103.339 233.546 102.981 233.698 102.53L235.087 102.926C234.829 103.652 234.354 104.209 233.663 104.596C232.978 104.982 232.157 105.176 231.202 105.176C229.819 105.176 228.756 104.745 228.012 103.884C227.268 103.022 226.896 101.789 226.896 100.184C226.896 98.6191 227.259 97.418 227.985 96.5801C228.718 95.7363 229.772 95.3145 231.149 95.3145C232.526 95.3145 233.569 95.7334 234.278 96.5713C234.987 97.4092 235.342 98.6748 235.342 100.368V100.579H228.557ZM231.167 96.4834C230.382 96.4834 229.761 96.7412 229.304 97.2568C228.847 97.7666 228.604 98.4697 228.574 99.3662H233.707C233.543 97.4443 232.696 96.4834 231.167 96.4834ZM222.896 137.573H221.648L221.297 131.957H223.266L222.896 137.573ZM218.95 137.573H217.711L217.351 131.957H219.319L218.95 137.573ZM233.417 145V139.524H228.829V145H227.15V133.144H228.829V138.118H233.417V133.144H235.096V145H233.417ZM243.085 143.752H246.425V145H237.794V143.752H241.503V136.738H238.699V135.49H243.085V143.752ZM241.327 133.645V131.957H243.085V133.645H241.327ZM255.328 137.573H254.08L253.729 131.957H255.697L255.328 137.573ZM251.382 137.573H250.143L249.782 131.957H251.751L251.382 137.573ZM166.269 248.727C165.284 248.727 164.493 248.524 163.896 248.12C163.298 247.716 162.917 247.136 162.753 246.38L164.37 246.16C164.47 246.6 164.684 246.937 165.012 247.171C165.346 247.411 165.782 247.531 166.321 247.531C167.774 247.531 168.501 246.608 168.501 244.763V243.058H168.483C168.196 243.661 167.798 244.118 167.288 244.429C166.778 244.739 166.172 244.895 165.469 244.895C164.309 244.895 163.459 244.517 162.92 243.761C162.387 242.999 162.12 241.804 162.12 240.175C162.12 238.517 162.407 237.298 162.981 236.519C163.556 235.733 164.44 235.341 165.636 235.341C166.298 235.341 166.872 235.496 167.358 235.807C167.851 236.111 168.229 236.548 168.492 237.116H168.519C168.519 236.94 168.53 236.645 168.554 236.229C168.577 235.807 168.601 235.561 168.624 235.49H170.127C170.092 235.807 170.074 236.463 170.074 237.459V244.719C170.074 246.049 169.764 247.048 169.143 247.716C168.521 248.39 167.563 248.727 166.269 248.727ZM168.501 240.157C168.501 239.026 168.281 238.139 167.842 237.494C167.402 236.844 166.799 236.519 166.031 236.519C165.229 236.519 164.648 236.8 164.291 237.362C163.934 237.919 163.755 238.851 163.755 240.157C163.755 241.042 163.828 241.742 163.975 242.258C164.127 242.768 164.361 243.14 164.678 243.374C164.994 243.608 165.437 243.726 166.005 243.726C166.503 243.726 166.939 243.588 167.314 243.312C167.695 243.031 167.988 242.624 168.193 242.091C168.398 241.552 168.501 240.907 168.501 240.157ZM174.504 240.579C174.504 241.646 174.738 242.48 175.207 243.084C175.682 243.688 176.329 243.989 177.149 243.989C177.753 243.989 178.28 243.86 178.731 243.603C179.188 243.339 179.493 242.981 179.646 242.53L181.034 242.926C180.776 243.652 180.302 244.209 179.61 244.596C178.925 244.982 178.104 245.176 177.149 245.176C175.767 245.176 174.703 244.745 173.959 243.884C173.215 243.022 172.843 241.789 172.843 240.184C172.843 238.619 173.206 237.418 173.933 236.58C174.665 235.736 175.72 235.314 177.097 235.314C178.474 235.314 179.517 235.733 180.226 236.571C180.935 237.409 181.289 238.675 181.289 240.368V240.579H174.504ZM177.114 236.483C176.329 236.483 175.708 236.741 175.251 237.257C174.794 237.767 174.551 238.47 174.521 239.366H179.654C179.49 237.444 178.644 236.483 177.114 236.483ZM184.154 236.738V235.49H185.648L186.158 233.012H187.213V235.49H191.01V236.738H187.213V242.469C187.213 242.932 187.336 243.274 187.582 243.497C187.834 243.72 188.244 243.831 188.812 243.831C189.598 243.831 190.468 243.731 191.423 243.532V244.736C190.433 245.006 189.451 245.141 188.479 245.141C187.529 245.141 186.817 244.941 186.343 244.543C185.868 244.139 185.631 243.503 185.631 242.636V236.738H184.154Z"
          fill="#01EE8A"/>
    <path d="M103.576 123.471C103.289 124.086 102.908 124.534 102.434 124.815C101.959 125.091 101.367 125.229 100.658 125.229C99.4746 125.229 98.6045 124.821 98.0479 124.007C97.4912 123.192 97.2129 121.965 97.2129 120.324C97.2129 117.008 98.3613 115.35 100.658 115.35C101.367 115.35 101.959 115.476 102.434 115.728C102.914 115.979 103.298 116.393 103.585 116.967H103.603L103.585 115.64V111.957H105.167V123.04C105.167 124.03 105.185 124.684 105.22 125H103.708C103.685 124.912 103.664 124.698 103.646 124.358C103.629 124.019 103.62 123.723 103.62 123.471H103.576ZM98.8477 120.271C98.8477 121.572 99.0205 122.521 99.3662 123.119C99.7178 123.711 100.286 124.007 101.071 124.007C101.927 124.007 102.56 123.699 102.97 123.084C103.38 122.463 103.585 121.479 103.585 120.131C103.585 118.871 103.386 117.954 102.987 117.38C102.595 116.806 101.962 116.519 101.089 116.519C100.298 116.519 99.7266 116.82 99.375 117.424C99.0234 118.027 98.8477 118.977 98.8477 120.271ZM109.641 120.579C109.641 121.646 109.875 122.48 110.344 123.084C110.818 123.688 111.466 123.989 112.286 123.989C112.89 123.989 113.417 123.86 113.868 123.603C114.325 123.339 114.63 122.981 114.782 122.53L116.171 122.926C115.913 123.652 115.438 124.209 114.747 124.596C114.062 124.982 113.241 125.176 112.286 125.176C110.903 125.176 109.84 124.745 109.096 123.884C108.352 123.022 107.979 121.789 107.979 120.184C107.979 118.619 108.343 117.418 109.069 116.58C109.802 115.736 110.856 115.314 112.233 115.314C113.61 115.314 114.653 115.733 115.362 116.571C116.071 117.409 116.426 118.675 116.426 120.368V120.579H109.641ZM112.251 116.483C111.466 116.483 110.845 116.741 110.388 117.257C109.931 117.767 109.688 118.47 109.658 119.366H114.791C114.627 117.444 113.78 116.483 112.251 116.483ZM122.719 116.738V125H121.137V116.738H118.834V115.49H121.137V115.271C121.137 114.069 121.418 113.217 121.98 112.713C122.549 112.209 123.492 111.957 124.811 111.957C125.232 111.957 125.687 111.978 126.173 112.019C126.665 112.054 127.034 112.095 127.28 112.142V113.416C127.104 113.387 126.747 113.354 126.208 113.319C125.675 113.284 125.271 113.267 124.995 113.267C124.386 113.267 123.926 113.334 123.615 113.469C123.305 113.604 123.076 113.823 122.93 114.128C122.789 114.433 122.719 114.857 122.719 115.402V115.49H127.034V116.738H122.719ZM148.427 136.932C147.771 136.82 147.149 136.765 146.563 136.765C145.62 136.765 144.858 137.119 144.278 137.828C143.698 138.537 143.408 139.439 143.408 140.535V145H141.826V138.839C141.826 138.394 141.785 137.869 141.703 137.266C141.627 136.662 141.516 136.07 141.369 135.49H142.872C143.106 136.299 143.247 137.031 143.294 137.688H143.338C143.631 137.031 143.918 136.551 144.199 136.246C144.48 135.936 144.814 135.704 145.201 135.552C145.588 135.394 146.06 135.314 146.616 135.314C147.226 135.314 147.829 135.364 148.427 135.464V136.932ZM152.883 140.579C152.883 141.646 153.117 142.48 153.586 143.084C154.061 143.688 154.708 143.989 155.528 143.989C156.132 143.989 156.659 143.86 157.11 143.603C157.567 143.339 157.872 142.981 158.024 142.53L159.413 142.926C159.155 143.652 158.681 144.209 157.989 144.596C157.304 144.982 156.483 145.176 155.528 145.176C154.146 145.176 153.082 144.745 152.338 143.884C151.594 143.022 151.222 141.789 151.222 140.184C151.222 138.619 151.585 137.418 152.312 136.58C153.044 135.736 154.099 135.314 155.476 135.314C156.853 135.314 157.896 135.733 158.604 136.571C159.313 137.409 159.668 138.675 159.668 140.368V140.579H152.883ZM155.493 136.483C154.708 136.483 154.087 136.741 153.63 137.257C153.173 137.767 152.93 138.47 152.9 139.366H158.033C157.869 137.444 157.022 136.483 155.493 136.483ZM162.533 136.738V135.49H164.027L164.537 133.012H165.592V135.49H169.389V136.738H165.592V142.469C165.592 142.932 165.715 143.274 165.961 143.497C166.213 143.72 166.623 143.831 167.191 143.831C167.977 143.831 168.847 143.731 169.802 143.532V144.736C168.812 145.006 167.83 145.141 166.857 145.141C165.908 145.141 165.196 144.941 164.722 144.543C164.247 144.139 164.01 143.503 164.01 142.636V136.738H162.533ZM174.882 135.49V141.52C174.882 142.434 175.025 143.069 175.312 143.427C175.6 143.778 176.112 143.954 176.851 143.954C177.606 143.954 178.204 143.696 178.644 143.181C179.083 142.665 179.303 141.938 179.303 141.001V135.49H180.894V142.97C180.894 144.077 180.911 144.754 180.946 145H179.452C179.446 144.971 179.44 144.892 179.435 144.763C179.429 144.634 179.42 144.487 179.408 144.323C179.402 144.153 179.394 143.837 179.382 143.374H179.355C178.992 144.03 178.57 144.496 178.09 144.771C177.615 145.041 177.023 145.176 176.314 145.176C175.271 145.176 174.507 144.918 174.021 144.402C173.54 143.881 173.3 143.022 173.3 141.827V135.49H174.882ZM191.669 136.932C191.013 136.82 190.392 136.765 189.806 136.765C188.862 136.765 188.101 137.119 187.521 137.828C186.94 138.537 186.65 139.439 186.65 140.535V145H185.068V138.839C185.068 138.394 185.027 137.869 184.945 137.266C184.869 136.662 184.758 136.07 184.611 135.49H186.114C186.349 136.299 186.489 137.031 186.536 137.688H186.58C186.873 137.031 187.16 136.551 187.441 136.246C187.723 135.936 188.057 135.704 188.443 135.552C188.83 135.394 189.302 135.314 189.858 135.314C190.468 135.314 191.071 135.364 191.669 135.464V136.932ZM200.924 145V138.892C200.924 138.095 200.769 137.503 200.458 137.116C200.153 136.729 199.664 136.536 198.99 136.536C198.264 136.536 197.666 136.803 197.197 137.336C196.734 137.863 196.503 138.581 196.503 139.489V145H194.921V137.521C194.921 136.413 194.903 135.736 194.868 135.49H196.362C196.368 135.52 196.374 135.599 196.38 135.728C196.386 135.856 196.392 136.006 196.397 136.176C196.409 136.34 196.421 136.653 196.433 137.116H196.459C197.074 135.915 198.088 135.314 199.5 135.314C200.514 135.314 201.27 135.59 201.768 136.141C202.266 136.686 202.515 137.526 202.515 138.663V145H200.924Z"
          fill="#C587C0"/>
    <path d="M143.909 125V118.971C143.909 118.068 143.836 117.438 143.689 117.081C143.549 116.718 143.288 116.536 142.907 116.536C142.532 116.536 142.228 116.817 141.993 117.38C141.765 117.942 141.65 118.704 141.65 119.665V125H140.165V117.521C140.165 116.413 140.147 115.736 140.112 115.49H141.422L141.475 116.606V117.028H141.492C141.691 116.431 141.943 115.997 142.248 115.728C142.553 115.452 142.934 115.314 143.391 115.314C143.906 115.314 144.29 115.455 144.542 115.736C144.8 116.018 144.984 116.451 145.096 117.037H145.113C145.348 116.416 145.626 115.974 145.948 115.71C146.276 115.446 146.689 115.314 147.188 115.314C147.879 115.314 148.374 115.566 148.673 116.07C148.972 116.574 149.121 117.438 149.121 118.663V125H147.645V118.971C147.645 118.068 147.571 117.438 147.425 117.081C147.284 116.718 147.023 116.536 146.643 116.536C146.256 116.536 145.948 116.782 145.72 117.274C145.497 117.767 145.386 118.505 145.386 119.489V125H143.909ZM152.619 128.735C152.186 128.735 151.822 128.703 151.529 128.639V127.452C151.752 127.487 151.998 127.505 152.268 127.505C152.73 127.505 153.164 127.332 153.568 126.986C153.979 126.641 154.324 126.09 154.605 125.334L154.764 124.903L150.633 115.49H152.32L154.641 121.133C155.174 122.445 155.461 123.189 155.502 123.365L155.862 122.398L158.587 115.49H160.257L156.249 125C155.728 126.377 155.186 127.344 154.623 127.9C154.066 128.457 153.398 128.735 152.619 128.735ZM160.819 126.934V126.09H171.7V126.934H160.819ZM176.771 116.738V125H175.189V116.738H172.887V115.49H175.189V115.271C175.189 114.069 175.471 113.217 176.033 112.713C176.602 112.209 177.545 111.957 178.863 111.957C179.285 111.957 179.739 111.978 180.226 112.019C180.718 112.054 181.087 112.095 181.333 112.142V113.416C181.157 113.387 180.8 113.354 180.261 113.319C179.728 113.284 179.323 113.267 179.048 113.267C178.438 113.267 177.979 113.334 177.668 113.469C177.357 113.604 177.129 113.823 176.982 114.128C176.842 114.433 176.771 114.857 176.771 115.402V115.49H181.087V116.738H176.771ZM185.692 115.49V121.52C185.692 122.434 185.836 123.069 186.123 123.427C186.41 123.778 186.923 123.954 187.661 123.954C188.417 123.954 189.015 123.696 189.454 123.181C189.894 122.665 190.113 121.938 190.113 121.001V115.49H191.704V122.97C191.704 124.077 191.722 124.754 191.757 125H190.263C190.257 124.971 190.251 124.892 190.245 124.763C190.239 124.634 190.23 124.487 190.219 124.323C190.213 124.153 190.204 123.837 190.192 123.374H190.166C189.803 124.03 189.381 124.496 188.9 124.771C188.426 125.041 187.834 125.176 187.125 125.176C186.082 125.176 185.317 124.918 184.831 124.402C184.351 123.881 184.11 123.022 184.11 121.827V115.49H185.692ZM200.924 125V118.892C200.924 118.095 200.769 117.503 200.458 117.116C200.153 116.729 199.664 116.536 198.99 116.536C198.264 116.536 197.666 116.803 197.197 117.336C196.734 117.863 196.503 118.581 196.503 119.489V125H194.921V117.521C194.921 116.413 194.903 115.736 194.868 115.49H196.362C196.368 115.52 196.374 115.599 196.38 115.728C196.386 115.856 196.392 116.006 196.397 116.176C196.409 116.34 196.421 116.653 196.433 117.116H196.459C197.074 115.915 198.088 115.314 199.5 115.314C200.514 115.314 201.27 115.59 201.768 116.141C202.266 116.686 202.515 117.526 202.515 118.663V125H200.924ZM205.248 120.236C205.248 118.654 205.626 117.438 206.382 116.589C207.138 115.739 208.23 115.314 209.66 115.314C210.727 115.314 211.605 115.572 212.297 116.088C212.988 116.598 213.416 117.286 213.58 118.153L211.893 118.276C211.799 117.743 211.564 117.324 211.189 117.02C210.814 116.709 210.281 116.554 209.59 116.554C208.664 116.554 207.984 116.841 207.551 117.415C207.123 117.989 206.909 118.918 206.909 120.201C206.909 121.502 207.123 122.454 207.551 123.058C207.984 123.655 208.661 123.954 209.581 123.954C210.214 123.954 210.738 123.799 211.154 123.488C211.57 123.178 211.828 122.703 211.928 122.064L213.598 122.17C213.521 122.732 213.308 123.245 212.956 123.708C212.61 124.165 212.15 124.525 211.576 124.789C211.002 125.047 210.36 125.176 209.651 125.176C208.216 125.176 207.123 124.754 206.373 123.91C205.623 123.066 205.248 121.842 205.248 120.236ZM216.586 116.738V115.49H218.08L218.59 113.012H219.645V115.49H223.441V116.738H219.645V122.469C219.645 122.932 219.768 123.274 220.014 123.497C220.266 123.72 220.676 123.831 221.244 123.831C222.029 123.831 222.899 123.731 223.854 123.532V124.736C222.864 125.006 221.883 125.141 220.91 125.141C219.961 125.141 219.249 124.941 218.774 124.543C218.3 124.139 218.062 123.503 218.062 122.636V116.738H216.586ZM232.274 123.752H235.614V125H226.983V123.752H230.692V116.738H227.889V115.49H232.274V123.752ZM230.517 113.645V111.957H232.274V113.645H230.517ZM246.179 120.236C246.179 121.836 245.81 123.061 245.071 123.91C244.339 124.754 243.278 125.176 241.89 125.176C240.53 125.176 239.487 124.748 238.761 123.893C238.04 123.037 237.68 121.818 237.68 120.236C237.68 118.602 238.049 117.374 238.787 116.554C239.531 115.728 240.583 115.314 241.942 115.314C243.372 115.314 244.436 115.722 245.133 116.536C245.83 117.351 246.179 118.584 246.179 120.236ZM244.518 120.236C244.518 118.977 244.315 118.036 243.911 117.415C243.513 116.794 242.865 116.483 241.969 116.483C241.061 116.483 240.396 116.8 239.974 117.433C239.552 118.065 239.341 119 239.341 120.236C239.341 121.467 239.552 122.404 239.974 123.049C240.396 123.688 241.028 124.007 241.872 124.007C242.804 124.007 243.478 123.693 243.894 123.066C244.31 122.439 244.518 121.496 244.518 120.236ZM254.977 125V118.892C254.977 118.095 254.821 117.503 254.511 117.116C254.206 116.729 253.717 116.536 253.043 116.536C252.316 116.536 251.719 116.803 251.25 117.336C250.787 117.863 250.556 118.581 250.556 119.489V125H248.974V117.521C248.974 116.413 248.956 115.736 248.921 115.49H250.415C250.421 115.52 250.427 115.599 250.433 115.728C250.438 115.856 250.444 116.006 250.45 116.176C250.462 116.34 250.474 116.653 250.485 117.116H250.512C251.127 115.915 252.141 115.314 253.553 115.314C254.566 115.314 255.322 115.59 255.82 116.141C256.318 116.686 256.567 117.526 256.567 118.663V125H254.977ZM262.808 120.342C262.808 121.953 263.057 123.409 263.555 124.71C264.053 126.011 264.864 127.353 265.989 128.735H264.319C263.194 127.353 262.386 126.014 261.894 124.719C261.407 123.418 261.164 121.953 261.164 120.324C261.164 118.725 261.404 117.283 261.885 116C262.365 114.711 263.177 113.363 264.319 111.957H265.989C264.864 113.34 264.053 114.685 263.555 115.991C263.057 117.292 262.808 118.742 262.808 120.342ZM276.747 120.324C276.747 121.965 276.504 123.433 276.018 124.728C275.537 126.017 274.734 127.353 273.609 128.735H271.922C273.07 127.323 273.891 125.967 274.383 124.666C274.875 123.359 275.121 121.918 275.121 120.342C275.121 118.771 274.875 117.336 274.383 116.035C273.891 114.729 273.07 113.369 271.922 111.957H273.609C274.752 113.363 275.561 114.705 276.035 115.982C276.51 117.26 276.747 118.707 276.747 120.324ZM284.139 125V122.372H286.204V125H284.139ZM284.139 118.118V115.49H286.204V118.118H284.139ZM212.086 237.573H210.838L210.486 231.957H212.455L212.086 237.573ZM208.14 237.573H206.9L206.54 231.957H208.509L208.14 237.573ZM219.583 245V238.971C219.583 238.068 219.51 237.438 219.363 237.081C219.223 236.718 218.962 236.536 218.581 236.536C218.206 236.536 217.901 236.817 217.667 237.38C217.438 237.942 217.324 238.704 217.324 239.665V245H215.839V237.521C215.839 236.413 215.821 235.736 215.786 235.49H217.096L217.148 236.606V237.028H217.166C217.365 236.431 217.617 235.997 217.922 235.728C218.227 235.452 218.607 235.314 219.064 235.314C219.58 235.314 219.964 235.455 220.216 235.736C220.474 236.018 220.658 236.451 220.77 237.037H220.787C221.021 236.416 221.3 235.974 221.622 235.71C221.95 235.446 222.363 235.314 222.861 235.314C223.553 235.314 224.048 235.566 224.347 236.07C224.646 236.574 224.795 237.438 224.795 238.663V245H223.318V238.971C223.318 238.068 223.245 237.438 223.099 237.081C222.958 236.718 222.697 236.536 222.316 236.536C221.93 236.536 221.622 236.782 221.394 237.274C221.171 237.767 221.06 238.505 221.06 239.489V245H219.583ZM228.293 248.735C227.859 248.735 227.496 248.703 227.203 248.639V247.452C227.426 247.487 227.672 247.505 227.941 247.505C228.404 247.505 228.838 247.332 229.242 246.986C229.652 246.641 229.998 246.09 230.279 245.334L230.438 244.903L226.307 235.49H227.994L230.314 241.133C230.848 242.445 231.135 243.189 231.176 243.365L231.536 242.398L234.261 235.49H235.931L231.923 245C231.401 246.377 230.859 247.344 230.297 247.9C229.74 248.457 229.072 248.735 228.293 248.735ZM236.493 246.934V246.09H247.374V246.934H236.493ZM252.445 236.738V245H250.863V236.738H248.561V235.49H250.863V235.271C250.863 234.069 251.145 233.217 251.707 232.713C252.275 232.209 253.219 231.957 254.537 231.957C254.959 231.957 255.413 231.978 255.899 232.019C256.392 232.054 256.761 232.095 257.007 232.142V233.416C256.831 233.387 256.474 233.354 255.935 233.319C255.401 233.284 254.997 233.267 254.722 233.267C254.112 233.267 253.652 233.334 253.342 233.469C253.031 233.604 252.803 233.823 252.656 234.128C252.516 234.433 252.445 234.857 252.445 235.402V235.49H256.761V236.738H252.445ZM261.366 235.49V241.52C261.366 242.434 261.51 243.069 261.797 243.427C262.084 243.778 262.597 243.954 263.335 243.954C264.091 243.954 264.688 243.696 265.128 243.181C265.567 242.665 265.787 241.938 265.787 241.001V235.49H267.378V242.97C267.378 244.077 267.396 244.754 267.431 245H265.937C265.931 244.971 265.925 244.892 265.919 244.763C265.913 244.634 265.904 244.487 265.893 244.323C265.887 244.153 265.878 243.837 265.866 243.374H265.84C265.477 244.03 265.055 244.496 264.574 244.771C264.1 245.041 263.508 245.176 262.799 245.176C261.756 245.176 260.991 244.918 260.505 244.402C260.024 243.881 259.784 243.022 259.784 241.827V235.49H261.366ZM276.598 245V238.892C276.598 238.095 276.442 237.503 276.132 237.116C275.827 236.729 275.338 236.536 274.664 236.536C273.938 236.536 273.34 236.803 272.871 237.336C272.408 237.863 272.177 238.581 272.177 239.489V245H270.595V237.521C270.595 236.413 270.577 235.736 270.542 235.49H272.036C272.042 235.52 272.048 235.599 272.054 235.728C272.06 235.856 272.065 236.006 272.071 236.176C272.083 236.34 272.095 236.653 272.106 237.116H272.133C272.748 235.915 273.762 235.314 275.174 235.314C276.188 235.314 276.943 235.59 277.441 236.141C277.939 236.686 278.188 237.526 278.188 238.663V245H276.598ZM280.922 240.236C280.922 238.654 281.3 237.438 282.056 236.589C282.812 235.739 283.904 235.314 285.334 235.314C286.4 235.314 287.279 235.572 287.971 236.088C288.662 236.598 289.09 237.286 289.254 238.153L287.566 238.276C287.473 237.743 287.238 237.324 286.863 237.02C286.488 236.709 285.955 236.554 285.264 236.554C284.338 236.554 283.658 236.841 283.225 237.415C282.797 237.989 282.583 238.918 282.583 240.201C282.583 241.502 282.797 242.454 283.225 243.058C283.658 243.655 284.335 243.954 285.255 243.954C285.888 243.954 286.412 243.799 286.828 243.488C287.244 243.178 287.502 242.703 287.602 242.064L289.271 242.17C289.195 242.732 288.981 243.245 288.63 243.708C288.284 244.165 287.824 244.525 287.25 244.789C286.676 245.047 286.034 245.176 285.325 245.176C283.89 245.176 282.797 244.754 282.047 243.91C281.297 243.066 280.922 241.842 280.922 240.236ZM292.26 236.738V235.49H293.754L294.264 233.012H295.318V235.49H299.115V236.738H295.318V242.469C295.318 242.932 295.441 243.274 295.688 243.497C295.939 243.72 296.35 243.831 296.918 243.831C297.703 243.831 298.573 243.731 299.528 243.532V244.736C298.538 245.006 297.557 245.141 296.584 245.141C295.635 245.141 294.923 244.941 294.448 244.543C293.974 244.139 293.736 243.503 293.736 242.636V236.738H292.26ZM307.948 243.752H311.288V245H302.657V243.752H306.366V236.738H303.562V235.49H307.948V243.752ZM306.19 233.645V231.957H307.948V233.645H306.19ZM321.853 240.236C321.853 241.836 321.483 243.061 320.745 243.91C320.013 244.754 318.952 245.176 317.563 245.176C316.204 245.176 315.161 244.748 314.435 243.893C313.714 243.037 313.354 241.818 313.354 240.236C313.354 238.602 313.723 237.374 314.461 236.554C315.205 235.728 316.257 235.314 317.616 235.314C319.046 235.314 320.109 235.722 320.807 236.536C321.504 237.351 321.853 238.584 321.853 240.236ZM320.191 240.236C320.191 238.977 319.989 238.036 319.585 237.415C319.187 236.794 318.539 236.483 317.643 236.483C316.734 236.483 316.069 236.8 315.647 237.433C315.226 238.065 315.015 239 315.015 240.236C315.015 241.467 315.226 242.404 315.647 243.049C316.069 243.688 316.702 244.007 317.546 244.007C318.478 244.007 319.151 243.693 319.567 243.066C319.983 242.439 320.191 241.496 320.191 240.236ZM330.65 245V238.892C330.65 238.095 330.495 237.503 330.185 237.116C329.88 236.729 329.391 236.536 328.717 236.536C327.99 236.536 327.393 236.803 326.924 237.336C326.461 237.863 326.229 238.581 326.229 239.489V245H324.647V237.521C324.647 236.413 324.63 235.736 324.595 235.49H326.089C326.095 235.52 326.101 235.599 326.106 235.728C326.112 235.856 326.118 236.006 326.124 236.176C326.136 236.34 326.147 236.653 326.159 237.116H326.186C326.801 235.915 327.814 235.314 329.227 235.314C330.24 235.314 330.996 235.59 331.494 236.141C331.992 236.686 332.241 237.526 332.241 238.663V245H330.65ZM341.812 237.573H340.564L340.213 231.957H342.182L341.812 237.573ZM337.866 237.573H336.627L336.267 231.957H338.235L337.866 237.573Z"
          fill="#539DD6"/>
    <path d="M197.944 240.342C197.944 241.953 198.193 243.409 198.691 244.71C199.189 246.011 200.001 247.353 201.126 248.735H199.456C198.331 247.353 197.522 246.014 197.03 244.719C196.544 243.418 196.301 241.953 196.301 240.324C196.301 238.725 196.541 237.283 197.021 236C197.502 234.711 198.313 233.363 199.456 231.957H201.126C200.001 233.34 199.189 234.685 198.691 235.991C198.193 237.292 197.944 238.742 197.944 240.342ZM352.421 240.324C352.421 241.965 352.178 243.433 351.691 244.728C351.211 246.017 350.408 247.353 349.283 248.735H347.596C348.744 247.323 349.564 245.967 350.057 244.666C350.549 243.359 350.795 241.918 350.795 240.342C350.795 238.771 350.549 237.336 350.057 236.035C349.564 234.729 348.744 233.369 347.596 231.957H349.283C350.426 233.363 351.234 234.705 351.709 235.982C352.184 237.26 352.421 238.707 352.421 240.324ZM360.103 240.342C360.103 241.953 360.352 243.409 360.85 244.71C361.348 246.011 362.159 247.353 363.284 248.735H361.614C360.489 247.353 359.681 246.014 359.188 244.719C358.702 243.418 358.459 241.953 358.459 240.324C358.459 238.725 358.699 237.283 359.18 236C359.66 234.711 360.472 233.363 361.614 231.957H363.284C362.159 233.34 361.348 234.685 360.85 235.991C360.352 237.292 360.103 238.742 360.103 240.342ZM374.042 240.324C374.042 241.965 373.799 243.433 373.312 244.728C372.832 246.017 372.029 247.353 370.904 248.735H369.217C370.365 247.323 371.186 245.967 371.678 244.666C372.17 243.359 372.416 241.918 372.416 240.342C372.416 238.771 372.17 237.336 371.678 236.035C371.186 234.729 370.365 233.369 369.217 231.957H370.904C372.047 233.363 372.855 234.705 373.33 235.982C373.805 237.26 374.042 238.707 374.042 240.324Z"
          fill="#DCDBAA"/>
</svg>
