<svg width="13" height="15" viewBox="0 0 13 15" fill="none" xmlns="http://www.w3.org/2000/svg">
    <path d="M2.87682 3.15154C2.71015 2.70919 2.71682 2.20375 2.79082 1.7413C3.30028 1.90006 3.77875 2.15121 4.20415 2.48317C4.39082 2.63154 4.63549 2.67938 4.86349 2.60797C5.44854 2.42592 6.05615 2.33435 6.66682 2.33618C7.30749 2.33618 7.91615 2.43325 8.46882 2.60727C8.69682 2.67938 8.94149 2.63085 9.12749 2.48247C9.55269 2.15059 10.0309 1.89944 10.5402 1.74061C10.6142 2.20306 10.6202 2.7085 10.4548 3.15015C10.3548 3.41639 10.4048 3.72285 10.5935 3.94055C11.0762 4.4973 11.3335 5.13725 11.3335 5.80285C11.3335 7.26855 10.0202 8.70583 7.91082 9.14333C7.38282 9.25287 7.17682 9.94413 7.58082 10.34C7.84015 10.5938 8.00015 10.9515 8.00015 11.3495V13.4295C8.00015 13.6134 8.07039 13.7898 8.19542 13.9198C8.32044 14.0498 8.49001 14.1228 8.66682 14.1228C8.84363 14.1228 9.0132 14.0498 9.13822 13.9198C9.26325 13.7898 9.33349 13.6134 9.33349 13.4295V11.3495C9.33349 10.9543 9.25349 10.5785 9.11082 10.2381C11.1222 9.51218 12.6668 7.878 12.6668 5.80285C12.6668 4.86893 12.3442 4.01058 11.8088 3.29159C11.9488 2.72306 11.9362 2.15037 11.8828 1.71079C11.8355 1.31698 11.7695 0.801141 11.5028 0.493301C11.1062 0.0363947 10.4495 0.305408 9.98282 0.471115C9.48221 0.647283 9.00594 0.890864 8.56615 1.19565C7.9455 1.03092 7.30736 0.948225 6.66682 0.949515C6.00415 0.949515 5.36482 1.03618 4.76615 1.19634C4.32637 0.891551 3.8501 0.647969 3.34949 0.471808C2.88282 0.305408 2.22549 0.0363947 1.82882 0.493301C1.55682 0.806688 1.50015 1.28162 1.45149 1.68514L1.44815 1.71149C1.39482 2.15175 1.38282 2.72514 1.52282 3.29437C0.989486 4.01266 0.66682 4.86962 0.66682 5.80285C0.66682 7.8773 2.21149 9.51218 4.22282 10.2381C4.07724 10.5843 4.00145 10.9578 4.00015 11.3356L3.88815 11.3592C3.41015 11.4279 3.10415 11.3662 2.89615 11.2746C2.38949 11.0514 2.12815 10.4891 1.80949 10.0592C1.61082 9.79229 1.32149 9.45879 0.877486 9.30487C0.794403 9.2761 0.706685 9.26463 0.619339 9.27112C0.531993 9.2776 0.446731 9.30191 0.36842 9.34267C0.210265 9.42497 0.0900252 9.56925 0.0341529 9.74375C-0.0217194 9.91826 -0.00864751 10.1087 0.0704928 10.2732C0.149633 10.4377 0.288359 10.5627 0.456153 10.6208C0.828153 10.7498 1.08549 11.4126 1.32149 11.7066C1.57015 12.0172 1.90082 12.3417 2.37482 12.5511C2.82949 12.7521 3.36349 12.8235 4.00015 12.7424V13.4295C4.00015 13.6134 4.07039 13.7898 4.19542 13.9198C4.32044 14.0498 4.49001 14.1228 4.66682 14.1228C4.84363 14.1228 5.0132 14.0498 5.13822 13.9198C5.26325 13.7898 5.33349 13.6134 5.33349 13.4295V11.3495C5.33349 10.9515 5.49349 10.5938 5.75282 10.34C6.15749 9.94344 5.95082 9.25287 5.42282 9.14333C3.31282 8.70583 2.00015 7.26855 2.00015 5.80285C2.00015 5.13863 2.25682 4.49869 2.73882 3.94194C2.92749 3.72423 2.97682 3.41778 2.87682 3.15154Z"
          fill="white"/>
</svg>
