<svg width="1440" height="1184" viewBox="0 0 1440 1184" fill="none" xmlns="http://www.w3.org/2000/svg">
    <g clip-path="url(#clip0_363_74)">
        <path d="M1440 832L0.000207901 832L0.000135165 2.52761e-05L737 1.72692e-05L1440 -0.000100613L1440 832Z"
              fill="black"/>
        <path d="M1440 832L0.000207901 832L0.000135165 2.52761e-05L737 1.72692e-05L1440 -0.000100613L1440 832Z"
              fill="url(#paint0_linear_363_74)" fill-opacity="0.3"/>
        <rect y="832" width="1440" height="352" fill="black"/>
        <path d="M676.5 707H144C116.938 707 95 728.938 95 756V1184" stroke="#01EE8A" stroke-width="4"/>
        <path d="M720.393 726.786C717.71 726.786 715.189 726.277 712.83 725.259C710.47 724.24 708.418 722.859 706.672 721.113C704.927 719.368 703.545 717.316 702.527 714.956C701.509 712.597 701 710.076 701 707.393C701 704.71 701.509 702.189 702.527 699.83C703.545 697.47 704.927 695.418 706.672 693.672C708.418 691.927 710.47 690.545 712.83 689.527C715.189 688.509 717.71 688 720.393 688C723.076 688 725.597 688.509 727.956 689.527C730.316 690.545 732.368 691.927 734.113 693.672C735.859 695.418 737.24 697.47 738.259 699.83C739.277 702.189 739.786 704.71 739.786 707.393V710.205C739.786 712.112 739.131 713.736 737.822 715.077C736.513 716.419 734.905 717.089 732.998 717.089C731.867 717.089 730.8 716.847 729.798 716.362C728.796 715.877 727.956 715.182 727.277 714.277C726.34 715.215 725.282 715.918 724.102 716.386C722.922 716.855 721.686 717.089 720.393 717.089C717.71 717.089 715.423 716.144 713.533 714.253C711.642 712.362 710.696 710.076 710.696 707.393C710.696 704.71 711.642 702.423 713.533 700.533C715.423 698.642 717.71 697.696 720.393 697.696C723.076 697.696 725.362 698.642 727.253 700.533C729.144 702.423 730.089 704.71 730.089 707.393V710.205C730.089 711.045 730.364 711.756 730.914 712.338C731.463 712.92 732.158 713.211 732.998 713.211C733.839 713.211 734.534 712.92 735.083 712.338C735.632 711.756 735.907 711.045 735.907 710.205V707.393C735.907 703.062 734.404 699.393 731.398 696.387C728.392 693.382 724.724 691.879 720.393 691.879C716.062 691.879 712.393 693.382 709.387 696.387C706.382 699.393 704.879 703.062 704.879 707.393C704.879 711.724 706.382 715.392 709.387 718.398C712.393 721.404 716.062 722.907 720.393 722.907H730.089V726.786H720.393ZM720.393 713.211C722.009 713.211 723.383 712.645 724.514 711.514C725.645 710.383 726.211 709.009 726.211 707.393C726.211 705.777 725.645 704.403 724.514 703.272C723.383 702.141 722.009 701.575 720.393 701.575C718.777 701.575 717.403 702.141 716.272 703.272C715.141 704.403 714.575 705.777 714.575 707.393C714.575 709.009 715.141 710.383 716.272 711.514C717.403 712.645 718.777 713.211 720.393 713.211Z"
              fill="#01EE8A"/>
        <g filter="url(#filter0_f_363_74)">
            <path d="M720.393 726.786C717.71 726.786 715.189 726.277 712.83 725.259C710.47 724.24 708.418 722.859 706.672 721.113C704.927 719.368 703.545 717.316 702.527 714.956C701.509 712.597 701 710.076 701 707.393C701 704.71 701.509 702.189 702.527 699.83C703.545 697.47 704.927 695.418 706.672 693.672C708.418 691.927 710.47 690.545 712.83 689.527C715.189 688.509 717.71 688 720.393 688C723.076 688 725.597 688.509 727.956 689.527C730.316 690.545 732.368 691.927 734.113 693.672C735.859 695.418 737.24 697.47 738.259 699.83C739.277 702.189 739.786 704.71 739.786 707.393V710.205C739.786 712.112 739.131 713.736 737.822 715.077C736.513 716.419 734.905 717.089 732.998 717.089C731.867 717.089 730.8 716.847 729.798 716.362C728.796 715.877 727.956 715.182 727.277 714.277C726.34 715.215 725.282 715.918 724.102 716.386C722.922 716.855 721.686 717.089 720.393 717.089C717.71 717.089 715.423 716.144 713.533 714.253C711.642 712.362 710.696 710.076 710.696 707.393C710.696 704.71 711.642 702.423 713.533 700.533C715.423 698.642 717.71 697.696 720.393 697.696C723.076 697.696 725.362 698.642 727.253 700.533C729.144 702.423 730.089 704.71 730.089 707.393V710.205C730.089 711.045 730.364 711.756 730.914 712.338C731.463 712.92 732.158 713.211 732.998 713.211C733.839 713.211 734.534 712.92 735.083 712.338C735.632 711.756 735.907 711.045 735.907 710.205V707.393C735.907 703.062 734.404 699.393 731.398 696.387C728.392 693.382 724.724 691.879 720.393 691.879C716.062 691.879 712.393 693.382 709.387 696.387C706.382 699.393 704.879 703.062 704.879 707.393C704.879 711.724 706.382 715.392 709.387 718.398C712.393 721.404 716.062 722.907 720.393 722.907H730.089V726.786H720.393ZM720.393 713.211C722.009 713.211 723.383 712.645 724.514 711.514C725.645 710.383 726.211 709.009 726.211 707.393C726.211 705.777 725.645 704.403 724.514 703.272C723.383 702.141 722.009 701.575 720.393 701.575C718.777 701.575 717.403 702.141 716.272 703.272C715.141 704.403 714.575 705.777 714.575 707.393C714.575 709.009 715.141 710.383 716.272 711.514C717.403 712.645 718.777 713.211 720.393 713.211Z"
                  fill="#01EE8A"/>
        </g>
        <path d="M720 71V130.086C720 157.148 741.938 179.086 769 179.086H1306C1333.06 179.086 1355 201.024 1355 228.086V658C1355 685.062 1333.06 707 1306 707H760.952"
              stroke="#01EE8A" stroke-width="4"/>
        <g filter="url(#filter1_f_363_74)">
            <path d="M720 72V130.086C720 157.148 741.938 179.086 769 179.086H1306C1333.06 179.086 1355 201.024 1355 228.086V658C1355 685.062 1333.06 707 1306 707H760.952"
                  stroke="#01EE8A" stroke-width="4"/>
        </g>
        <path d="M1625.22 1418.48C1780.64 1263.2 1780.64 1011.44 1625.22 856.161C1469.8 700.88 1217.82 700.88 1062.41 856.161C906.99 1011.44 906.99 1263.2 1062.41 1418.48C1217.82 1573.76 1469.8 1573.76 1625.22 1418.48Z"
              fill="url(#paint1_radial_363_74)" fill-opacity="0.4"/>
    </g>
    <defs>
        <filter id="filter0_f_363_74" x="691.1" y="678.1" width="58.5861" height="58.5852" filterUnits="userSpaceOnUse"
                color-interpolation-filters="sRGB">
            <feFlood flood-opacity="0" result="BackgroundImageFix"/>
            <feBlend mode="normal" in="SourceGraphic" in2="BackgroundImageFix" result="shape"/>
            <feGaussianBlur stdDeviation="4.95" result="effect1_foregroundBlur_363_74"/>
        </filter>
        <filter id="filter1_f_363_74" x="708" y="62" width="659" height="657" filterUnits="userSpaceOnUse"
                color-interpolation-filters="sRGB">
            <feFlood flood-opacity="0" result="BackgroundImageFix"/>
            <feBlend mode="normal" in="SourceGraphic" in2="BackgroundImageFix" result="shape"/>
            <feGaussianBlur stdDeviation="5" result="effect1_foregroundBlur_363_74"/>
        </filter>
        <linearGradient id="paint0_linear_363_74" x1="2230.5" y1="775.147" x2="2230.5" y2="-56.8534"
                        gradientUnits="userSpaceOnUse">
            <stop stop-color="#0A0A0A" stop-opacity="0.63"/>
            <stop offset="0.348958" stop-color="#9D32FF" stop-opacity="0.55"/>
            <stop offset="0.760417" stop-color="#9931F8" stop-opacity="0.534615"/>
            <stop offset="1" stop-opacity="0"/>
        </linearGradient>
        <radialGradient id="paint1_radial_363_74" cx="0" cy="0" r="1" gradientUnits="userSpaceOnUse"
                        gradientTransform="translate(1343.82 1137.32) scale(397.97 397.622)">
            <stop stop-color="#48E4F3"/>
            <stop offset="0.12" stop-color="#3BBCF5" stop-opacity="0.83"/>
            <stop offset="0.33" stop-color="#267AF8" stop-opacity="0.54"/>
            <stop offset="0.52" stop-color="#1645FB" stop-opacity="0.31"/>
            <stop offset="0.69" stop-color="#0A1FFD" stop-opacity="0.14"/>
            <stop offset="0.82" stop-color="#0208FE" stop-opacity="0.04"/>
            <stop offset="0.9" stop-color="#0000FF" stop-opacity="0"/>
        </radialGradient>
        <clipPath id="clip0_363_74">
            <rect width="1440" height="1184" fill="white"/>
        </clipPath>
    </defs>
</svg>
