<svg width="18" height="21" viewBox="0 0 18 21" fill="none" xmlns="http://www.w3.org/2000/svg">
    <path fill-rule="evenodd" clip-rule="evenodd"
          d="M0.352879 6.65357C0 7.42081 0 8.29365 0 10.0393V15.4913C0 17.9156 0 19.1278 0.753154 19.881C1.46838 20.5962 2.59757 20.6322 4.78571 20.634V14.2056C4.78571 12.9433 5.80906 11.9199 7.07143 11.9199H10.9286C12.1909 11.9199 13.2143 12.9433 13.2143 14.2056V20.634C15.4024 20.6322 16.5316 20.5962 17.2468 19.881C18 19.1278 18 17.9156 18 15.4913V10.0393C18 8.29365 18 7.42081 17.6471 6.65357C17.2942 5.88634 16.6315 5.3183 15.3061 4.18222L14.0204 3.08018C11.6247 1.02673 10.4268 0 9 0C7.57315 0 6.3753 1.02673 3.97961 3.08018L2.6939 4.18222C1.36847 5.3183 0.705758 5.88634 0.352879 6.65357ZM11.2143 20.6341V14.2056C11.2143 14.0478 11.0864 13.9199 10.9286 13.9199H7.07143C6.91363 13.9199 6.78571 14.0478 6.78571 14.2056V20.6341H11.2143Z"
          fill="white"/>
</svg>
