<svg width="531" height="348" viewBox="0 0 531 348" fill="none" xmlns="http://www.w3.org/2000/svg">
    <g clip-path="url(#clip0_567_3)">
        <path d="M495.501 145.418V259.611C495.501 265.133 491.024 269.611 485.501 269.611H449.754" stroke="#38383B"
              stroke-width="1.4" stroke-linecap="square" stroke-linejoin="round"/>
        <path d="M357.848 33.1055H483.001C488.524 33.1055 493.001 37.5826 493.001 43.1055V70.6055" stroke="#38383B"
              stroke-width="1.4" stroke-linecap="square" stroke-linejoin="round"/>
        <path d="M37 260.605V214.104C37 208.581 41.4772 204.104 47 204.104H67.5C73.0228 204.104 77.5 199.627 77.5 194.104V145.605"
              stroke="#38383B" stroke-width="1.4" stroke-linecap="square" stroke-linejoin="round"/>
        <path d="M115 105.105H222.5V136.105V43.6055C222.5 38.0826 226.977 33.6055 232.5 33.6055H282" stroke="#38383B"
              stroke-width="1.4" stroke-linecap="square" stroke-linejoin="round"/>
        <path d="M321.5 75.4141V84.1063C321.5 89.6292 325.977 94.1064 331.5 94.1064H352C357.523 94.1064 362 98.5835 362 104.106V114.885"
              stroke="#38383B" stroke-width="1.4" stroke-linecap="square" stroke-linejoin="round"/>
        <path d="M362.5 189.605V200.105C362.5 205.628 366.977 210.105 372.5 210.105H403.5C409.023 210.105 413.5 214.583 413.5 220.105V230.605"
              stroke="#38383B" stroke-width="1.4" stroke-linecap="square" stroke-linejoin="round"/>
        <path d="M456.5 108.105H437.5C431.977 108.105 427.5 112.583 427.5 118.105V143.605C427.5 149.128 423.023 153.605 417.5 153.605H399"
              stroke="#38383B" stroke-width="1.4" stroke-linecap="square" stroke-linejoin="round"/>
        <path d="M375.5 268.605H326.5C320.977 268.605 316.5 273.083 316.5 278.605V299.105C316.5 304.628 312.023 309.105 306.5 309.105H259"
              stroke="#38383B" stroke-width="1.4" stroke-linecap="square" stroke-linejoin="round"/>
        <path d="M324.098 151.605H300.001C294.478 151.605 290.001 156.083 290.001 161.605V163.605C290.001 169.128 285.524 173.605 280.001 173.605H259.096M221.001 210.605V272.605M184.001 173.605H138.001C132.478 173.605 128.001 178.083 128.001 183.605V292.105C128.001 297.628 123.524 302.105 118.001 302.105H74.7733H184.001"
              stroke="#38383B" stroke-width="1.4" stroke-linecap="square" stroke-linejoin="round"/>
        <rect x="0.5" y="261.105" width="74" height="74" rx="9.5" fill="#171717" fill-opacity="0.6" stroke="#2C2C2C"/>
        <rect x="40.5" y="71.1055" width="74" height="74" rx="9.5" fill="#171717" fill-opacity="0.6" stroke="#2C2C2C"/>
        <rect x="184.5" y="273.105" width="74" height="74" rx="9.5" fill="#171717" fill-opacity="0.6" stroke="#2C2C2C"/>
        <rect x="184.5" y="136.105" width="74" height="74" rx="9.5" fill="#171717" fill-opacity="0.6" stroke="#2C2C2C"/>
        <rect x="324.5" y="115.105" width="74" height="74" rx="9.5" fill="#171717" fill-opacity="0.6" stroke="#2C2C2C"/>
        <rect x="283.5" y="1.10547" width="74" height="74" rx="9.5" fill="#171717" fill-opacity="0.6" stroke="#2C2C2C"/>
        <rect x="456.5" y="71.1055" width="74" height="74" rx="9.5" fill="#171717" fill-opacity="0.6" stroke="#2C2C2C"/>
        <rect x="127.5" y="1.5" width="74" height="74" rx="9.5" fill="#171717" fill-opacity="0.6" stroke="#2C2C2C"/>
        <path d="M164 18C161.374 18 158.773 18.5302 156.346 19.5602C153.92 20.5903 151.715 22.1 149.858 24.0033C146.107 27.8471 144 33.0605 144 38.4965C144 47.556 149.74 55.2422 157.68 57.9683C158.68 58.1322 159 57.4968 159 56.9434V53.4795C153.46 54.7093 152.28 50.733 152.28 50.733C151.36 48.3554 150.06 47.72 150.06 47.72C148.24 46.4492 150.2 46.4902 150.2 46.4902C152.2 46.6337 153.26 48.6013 153.26 48.6013C155 51.7168 157.94 50.7945 159.08 50.3025C159.26 48.9703 159.78 48.0684 160.34 47.556C155.9 47.0436 151.24 45.2809 151.24 37.4717C151.24 35.1966 152 33.3724 153.3 31.9172C153.1 31.4047 152.4 29.2731 153.5 26.5061C153.5 26.5061 155.18 25.9527 159 28.5967C160.58 28.1458 162.3 27.9203 164 27.9203C165.7 27.9203 167.42 28.1458 169 28.5967C172.82 25.9527 174.5 26.5061 174.5 26.5061C175.6 29.2731 174.9 31.4047 174.7 31.9172C176 33.3724 176.76 35.1966 176.76 37.4717C176.76 45.3014 172.08 47.0231 167.62 47.5355C168.34 48.1709 169 49.4212 169 51.3274V56.9434C169 57.4968 169.32 58.1527 170.34 57.9683C178.28 55.2217 184 47.556 184 38.4965C184 35.8049 183.483 33.1396 182.478 30.6529C181.472 28.1661 179.999 25.9066 178.142 24.0033C176.285 22.1 174.08 20.5903 171.654 19.5602C169.227 18.5302 166.626 18 164 18Z"
              fill="white"/>
        <rect x="375.5" y="231.105" width="74" height="74" rx="9.5" fill="#171717" fill-opacity="0.6" stroke="#2C2C2C"/>
        <g clip-path="url(#clip1_567_3)">
            <path d="M73.4678 105.882C73.533 105.607 73.5982 105.332 73.6634 105.057C74.3283 102.237 74.9867 99.4096 75.6517 96.5889C75.7951 95.9933 75.932 95.3912 76.0754 94.7957C76.095 94.7172 76.121 94.6452 76.1471 94.5666C76.2449 94.2329 76.4861 94.0823 76.812 94.0562C76.9424 94.0431 77.0728 94.0365 77.2032 94.0365C77.666 94.0365 78.1289 94.0365 78.5982 94.0496C78.9242 94.0562 79.1588 94.2263 79.2501 94.547C79.3414 94.848 79.4131 95.1556 79.4848 95.4632C80.1497 98.2839 80.8081 101.105 81.4731 103.925C81.6295 104.586 81.786 105.247 81.9359 105.908C81.9424 105.941 81.9555 105.974 81.9815 106.013C82.0076 105.921 82.0337 105.83 82.0532 105.738C82.9854 102.119 83.9111 98.5064 84.8433 94.8873C84.8824 94.7499 84.9411 94.6124 84.9933 94.4816C85.0976 94.2067 85.3127 94.0823 85.593 94.0496C85.6973 94.0365 85.7951 94.03 85.8994 94.03C86.3687 94.03 86.8381 94.03 87.314 94.03C87.3466 94.03 87.3792 94.03 87.4118 94.03C87.666 94.0496 87.8029 94.174 87.7833 94.4292C87.7703 94.6124 87.7377 94.8022 87.6856 94.9789C86.7729 97.937 85.8538 100.889 84.9346 103.84C84.4913 105.26 84.0545 106.674 83.6113 108.094C83.5917 108.166 83.5591 108.232 83.5395 108.297C83.4157 108.67 83.1354 108.84 82.7573 108.847C82.1967 108.853 81.636 108.86 81.0754 108.847C80.6321 108.84 80.4105 108.663 80.2931 108.232C80.1432 107.662 80.0128 107.093 79.8759 106.517C79.198 103.696 78.5265 100.869 77.8485 98.0483C77.7964 97.8192 77.7377 97.5836 77.679 97.3546C77.679 97.3284 77.666 97.3088 77.6465 97.2499C77.5878 97.5051 77.5291 97.7276 77.477 97.9567C76.6817 101.301 75.8798 104.652 75.0845 107.996C75.0584 108.101 75.0259 108.199 74.9933 108.297C74.889 108.65 74.6412 108.821 74.2827 108.827C73.6895 108.834 73.0963 108.834 72.503 108.827C72.1901 108.827 71.9489 108.677 71.8316 108.376C71.7077 108.048 71.6034 107.715 71.4991 107.381C70.2605 103.297 69.0219 99.2132 67.7899 95.1229C67.7377 94.9397 67.6921 94.7564 67.6465 94.5666C67.6334 94.4946 67.6269 94.4227 67.6334 94.3507C67.653 94.1412 67.7834 94.0234 68.018 94.0234C68.2527 94.0234 68.4874 94.0234 68.7221 94.0234C69.1132 94.0234 69.4978 94.0234 69.889 94.0365C70.1823 94.0431 70.3974 94.1871 70.4952 94.4619C70.606 94.7891 70.7103 95.1229 70.7951 95.4567C71.6686 98.8991 72.5356 102.348 73.4092 105.79C73.4092 105.817 73.4222 105.843 73.4352 105.862C73.4352 105.862 73.4483 105.862 73.4548 105.862L73.4678 105.882Z"
                  fill="white"/>
            <path d="M76.9224 123.599C76.414 123.599 75.899 123.612 75.3905 123.599C74.9016 123.586 74.4192 123.547 73.9368 123.507C73.4413 123.468 72.9394 123.429 72.4439 123.363C71.7986 123.285 71.1532 123.187 70.5143 123.082C69.4778 122.912 68.4479 122.683 67.4309 122.414C65.5991 121.93 63.8194 121.315 62.0854 120.556C60.0254 119.653 58.0632 118.573 56.2054 117.303C54.8429 116.374 53.5456 115.359 52.3201 114.253C52.2353 114.175 52.1441 114.09 52.0789 113.992C51.9811 113.841 51.9615 113.678 52.0658 113.514C52.1636 113.37 52.3396 113.304 52.5287 113.363C52.6525 113.403 52.7764 113.468 52.8937 113.534C54.5821 114.509 56.3227 115.373 58.1219 116.125C59.4322 116.675 60.7621 117.172 62.118 117.611C63.9237 118.193 65.7555 118.678 67.6134 119.051C68.4739 119.221 69.3475 119.371 70.2145 119.509C70.7947 119.6 71.3814 119.666 71.9615 119.731C72.4309 119.784 72.9003 119.829 73.3761 119.869C73.8455 119.908 74.3214 119.941 74.7907 119.967C75.2797 119.993 75.7686 120.013 76.2575 120.026C76.8507 120.039 77.4505 120.045 78.0437 120.045C78.5717 120.045 79.1063 120.026 79.6343 120.006C80.0645 119.986 80.4948 119.96 80.925 119.928C81.5509 119.875 82.1767 119.829 82.796 119.744C83.7347 119.62 84.6734 119.489 85.6121 119.332C87.307 119.057 88.9759 118.664 90.6317 118.2C92.5482 117.663 94.4257 117.009 96.2575 116.243C96.4596 116.158 96.6552 116.073 96.8833 116.079C97.2419 116.092 97.5352 116.328 97.5939 116.675C97.6265 116.884 97.5548 117.074 97.4114 117.218C97.2353 117.388 97.0398 117.539 96.8442 117.676C95.0385 118.959 93.0958 119.986 91.0489 120.824C89.1323 121.609 87.1636 122.225 85.1428 122.676C84.3279 122.859 83.5 123.01 82.6786 123.154C82.131 123.252 81.5834 123.318 81.0293 123.376C80.4426 123.442 79.8625 123.494 79.2758 123.534C78.8781 123.566 78.4804 123.586 78.0828 123.592C77.6982 123.606 77.3136 123.592 76.929 123.592L76.9224 123.599Z"
                  fill="#FF9900"/>
            <path d="M63.5128 106.942C63.3173 107.145 63.1347 107.348 62.9392 107.531C62.0135 108.414 60.9314 108.971 59.6667 109.154C58.7149 109.298 57.7632 109.278 56.8375 108.964C55.4685 108.493 54.5819 107.55 54.2234 106.137C53.9431 105.037 53.9887 103.938 54.445 102.884C54.8492 101.948 55.5533 101.281 56.4333 100.797C57.1178 100.423 57.8544 100.234 58.6237 100.142C59.5363 100.037 60.4555 100.077 61.3616 100.214C61.9939 100.312 62.6132 100.443 63.2456 100.561C63.2716 100.561 63.2977 100.567 63.3303 100.574C63.3303 100.548 63.3368 100.522 63.3368 100.502C63.3368 99.9457 63.3368 99.3829 63.3173 98.8266C63.3042 98.3816 63.2195 97.9496 63.0696 97.5308C62.8218 96.8174 62.3264 96.3724 61.6158 96.1499C60.9509 95.9405 60.2664 95.9012 59.5754 95.9208C58.3694 95.9601 57.2351 96.3135 56.1204 96.752C55.9248 96.8305 55.7227 96.896 55.5207 96.9483C55.2599 97.0138 55.0774 96.9025 55.0643 96.6407C55.0448 96.2088 55.0578 95.7703 55.0643 95.3318C55.0643 95.1028 55.2143 94.9392 55.4033 94.8279C55.6184 94.7036 55.8401 94.5858 56.0748 94.4876C57.0787 94.0688 58.1152 93.7939 59.1973 93.6826C60.1556 93.5845 61.1139 93.6041 62.0591 93.7677C62.8414 93.9051 63.5845 94.1538 64.2364 94.6185C65.0187 95.1748 65.4816 95.947 65.7553 96.8502C65.9835 97.6028 66.0487 98.3685 66.0487 99.1538C66.0487 100.895 66.0357 102.636 66.0552 104.383C66.0617 104.906 66.0683 105.443 66.2508 105.947C66.4072 106.372 66.5963 106.791 66.7984 107.197C66.9809 107.57 66.9418 107.838 66.5963 108.081C66.2377 108.329 65.8792 108.571 65.5141 108.807C65.1817 109.016 64.8688 108.964 64.595 108.663C64.1843 108.218 63.8909 107.701 63.6302 107.164C63.5976 107.092 63.5585 107.02 63.5194 106.942H63.5128ZM60.2469 102.066C59.7384 102.066 59.1256 102.105 58.5389 102.321C57.8349 102.577 57.3264 103.035 57.0917 103.768C56.9418 104.245 56.9418 104.73 57.007 105.221C57.1308 106.17 57.7958 106.863 58.741 107.007C59.2038 107.079 59.6667 107.066 60.1295 106.988C60.7097 106.889 61.2703 106.732 61.7788 106.412C62.6393 105.868 63.1934 105.129 63.3108 104.088C63.3694 103.578 63.3694 103.067 63.3759 102.557C63.3759 102.478 63.3499 102.452 63.2782 102.433C62.3199 102.21 61.3486 102.079 60.2599 102.073L60.2469 102.066Z"
                  fill="white"/>
            <path d="M94.1581 109.305C92.6457 109.285 91.3028 109.043 90.0186 108.533C89.81 108.447 89.6144 108.33 89.4189 108.212C89.1516 108.048 89.0082 107.806 89.0017 107.492C88.9951 107.139 88.9886 106.779 89.0017 106.425C89.0147 106.124 89.1972 105.98 89.4906 106.052C89.7318 106.111 89.973 106.209 90.2011 106.307C91.0225 106.654 91.8765 106.87 92.7631 106.975C93.3824 107.047 93.9952 107.067 94.6144 107.008C95.2533 106.949 95.8661 106.805 96.4071 106.432C97.235 105.856 97.3263 104.868 97.0656 104.226C96.9156 103.86 96.6483 103.598 96.3159 103.395C95.8661 103.127 95.3837 102.957 94.8882 102.8C94.0082 102.525 93.1281 102.256 92.2546 101.962C91.5506 101.72 90.8922 101.366 90.3641 100.83C89.6862 100.149 89.2689 99.331 89.1777 98.3624C89.0343 96.8441 89.6275 95.653 90.8139 94.7433C91.5832 94.1543 92.4567 93.8336 93.4019 93.6896C94.458 93.526 95.5075 93.5915 96.5506 93.8009C97.1438 93.9187 97.7305 94.0692 98.2846 94.3244C98.4606 94.403 98.6236 94.5142 98.78 94.632C99.0082 94.8087 99.1125 95.0509 99.1125 95.3388C99.1125 95.6268 99.1125 95.9148 99.1125 96.2027C99.1125 96.2224 99.1125 96.2354 99.1125 96.2551C99.0929 96.6216 98.8908 96.7721 98.5453 96.6674C98.3107 96.5954 98.089 96.4907 97.8674 96.3991C97.1047 96.0849 96.3028 95.9213 95.4815 95.8689C94.8556 95.8297 94.2298 95.8362 93.6171 95.9737C93.3628 96.0326 93.1086 96.1176 92.8739 96.2289C92.3328 96.4776 92.0134 96.9095 91.9352 97.5051C91.8504 98.1857 92.0525 98.7551 92.6197 99.1608C92.7957 99.2852 92.9782 99.3899 93.1738 99.4881C93.7214 99.7695 94.3146 99.9331 94.8948 100.123C95.6249 100.358 96.3615 100.588 97.0851 100.843C97.6588 101.046 98.1933 101.327 98.6627 101.726C99.3732 102.328 99.7839 103.107 99.9143 104.03C100.032 104.92 99.9143 105.777 99.5036 106.582C99.0147 107.518 98.2715 108.186 97.3198 108.631C96.5375 108.991 95.7161 109.2 94.8556 109.272C94.5819 109.292 94.3081 109.305 94.1581 109.311V109.305Z"
                  fill="white"/>
            <path d="M97.1441 114.258C96.6096 114.278 96.1728 114.285 95.7295 114.317C95.1298 114.363 94.5235 114.429 93.9238 114.488C93.6369 114.514 93.3566 114.553 93.0698 114.586C92.9199 114.599 92.7699 114.586 92.6852 114.442C92.6004 114.291 92.6852 114.154 92.783 114.036C92.972 113.813 93.2262 113.683 93.4674 113.545C94.341 113.035 95.2927 112.734 96.2836 112.55C96.8116 112.452 97.3397 112.38 97.8807 112.367C98.2328 112.361 98.5913 112.341 98.9433 112.354C99.7191 112.387 100.482 112.459 101.225 112.707C101.316 112.74 101.401 112.779 101.492 112.812C101.805 112.93 101.936 113.172 101.968 113.493C102.027 114.088 101.981 114.677 101.877 115.266C101.694 116.359 101.362 117.4 100.899 118.401C100.41 119.448 99.7908 120.397 98.9433 121.189C98.8129 121.313 98.663 121.425 98.5131 121.523C98.4479 121.562 98.3566 121.575 98.2784 121.582C98.0959 121.588 97.9785 121.444 98.0176 121.261C98.0372 121.176 98.0633 121.097 98.0959 121.019C98.5 120.005 98.8977 118.977 99.2236 117.93C99.3996 117.354 99.5626 116.772 99.6474 116.169C99.6995 115.836 99.7256 115.495 99.6604 115.155C99.6017 114.861 99.4322 114.671 99.165 114.56C98.8912 114.435 98.5978 114.37 98.2979 114.344C97.8807 114.304 97.4635 114.285 97.1376 114.265L97.1441 114.258Z"
                  fill="#FF9900"/>
        </g>
        <g clip-path="url(#clip2_567_3)">
            <path d="M6 304.545C6.64022 303.44 7.28044 302.339 7.91286 301.235C9.1972 298.997 10.4776 296.756 11.7737 294.523C11.8713 294.354 12.0353 294.22 12.1875 294.09C14.0379 292.526 15.8922 290.965 17.7426 289.404C18.051 289.144 18.3516 288.873 18.6522 288.605C18.6717 288.605 18.6912 288.605 18.7146 288.605C18.5897 288.916 18.4843 289.231 18.3438 289.529C17.3093 291.763 16.267 293.992 15.2325 296.225C13.9676 298.954 12.7067 301.683 11.4497 304.415C11.3482 304.636 11.2038 304.675 10.9929 304.675C9.32993 304.671 7.66301 304.671 6 304.667C6 304.628 6 304.584 6 304.545Z"
                  fill="#0089D6"/>
            <path d="M29.1451 306.605H11.4687C11.4687 306.605 11.4648 306.577 11.4609 306.562C14.99 305.932 18.5151 305.303 22.1339 304.659C21.8411 304.301 21.6069 304.006 21.3649 303.715C19.8346 301.871 18.3043 300.031 16.7623 298.195C16.61 298.014 16.5866 297.856 16.6647 297.644C17.4494 295.482 18.2301 293.319 19.0109 291.157C19.1592 290.748 19.3076 290.343 19.4559 289.938C19.491 289.926 19.5223 289.914 19.5574 289.906C22.739 295.45 25.9206 300.99 29.1451 306.605Z"
                  fill="#0089D6"/>
            <path d="M31.2539 304.679C31.3983 304.289 31.5116 303.967 31.6326 303.652C32.7725 300.633 33.9202 297.613 35.0523 294.586C35.1733 294.263 35.3217 294.122 35.6847 294.133C36.5201 294.161 36.524 294.141 36.8285 294.932C38.0114 298.014 39.1942 301.097 40.3732 304.179C40.4278 304.321 40.4708 304.462 40.541 304.667C40.0765 304.667 39.6588 304.687 39.2489 304.651C39.163 304.643 39.0654 304.455 39.0185 304.333C38.7375 303.605 38.4603 302.878 38.2066 302.139C38.109 301.856 37.9684 301.746 37.66 301.749C36.4616 301.765 35.2592 301.765 34.0607 301.749C33.7758 301.749 33.643 301.848 33.5571 302.107C33.3034 302.866 33.0262 303.617 32.7686 304.376C32.6983 304.588 32.5929 304.694 32.3587 304.683C32.0112 304.667 31.6638 304.679 31.2539 304.679ZM35.8682 295.742C35.3295 297.232 34.7868 298.726 34.2481 300.22C34.1271 300.554 34.1505 300.586 34.5058 300.586C35.4232 300.586 36.3405 300.586 37.2579 300.586C37.5937 300.586 37.621 300.55 37.5078 300.236C36.9612 298.734 36.4147 297.232 35.8682 295.742Z"
                  fill="white"/>
            <path d="M67.6608 303C67.6608 303.405 67.6725 303.735 67.653 304.058C67.6491 304.133 67.5359 304.219 67.4539 304.266C66.8371 304.64 66.1696 304.844 65.4474 304.856C64.8306 304.868 64.2216 304.876 63.636 304.616C62.5937 304.148 62.0081 303.319 61.77 302.23C61.5006 301.003 61.6099 299.819 62.2072 298.691C63.0504 297.095 65.1038 296.446 66.6575 297.346C67.4969 297.834 68.02 298.565 68.0004 299.599C67.9926 300.004 68.0004 300.409 68.0004 300.814C68.0004 301.262 68.0004 301.262 67.5398 301.266C66.1383 301.266 64.7369 301.266 63.3354 301.266C62.9021 301.266 62.8865 301.286 62.9567 301.718C63.2222 303.33 64.3933 304.101 66.0642 303.708C66.517 303.602 66.9347 303.354 67.368 303.169C67.4383 303.138 67.5047 303.091 67.6608 303ZM64.9282 300.165C65.3927 300.165 65.8534 300.165 66.3179 300.165C66.9386 300.165 66.9581 300.142 66.8254 299.536C66.5912 298.463 65.7831 297.908 64.7095 298.093C63.7765 298.254 63.3237 298.919 63.0387 299.745C62.9177 300.098 62.9646 300.161 63.3276 300.165C63.8624 300.165 64.3933 300.165 64.9282 300.165Z"
                  fill="white"/>
            <path d="M53.325 303.709C52.9776 304.259 52.5013 304.644 51.8767 304.782C50.7759 305.026 49.5813 304.813 48.9684 303.882C48.6015 303.323 48.4531 302.686 48.4414 302.034C48.418 300.532 48.4336 299.034 48.4258 297.532C48.4258 297.276 48.5 297.15 48.7693 297.17C48.9489 297.186 49.1324 297.186 49.3119 297.17C49.5813 297.15 49.6555 297.276 49.6594 297.532C49.6672 298.971 49.6867 300.41 49.7101 301.849C49.7179 302.364 49.8233 302.859 50.1669 303.264C50.8422 304.059 52.2671 303.972 52.8995 303.095C53.2196 302.651 53.3992 302.159 53.3953 301.593C53.3836 300.256 53.3953 298.916 53.3953 297.579C53.3953 297.201 53.4148 297.182 53.7857 297.178C53.9575 297.178 54.1292 297.19 54.301 297.178C54.5977 297.15 54.6836 297.284 54.6797 297.567C54.6718 299.647 54.6797 301.723 54.6718 303.803C54.6718 304.829 54.8241 304.664 53.7857 304.676C53.4148 304.68 53.3953 304.656 53.3914 304.279C53.3914 304.098 53.3914 303.917 53.3914 303.736L53.3172 303.705L53.325 303.709Z"
                  fill="white"/>
            <path d="M42.7576 303.626C42.9489 303.626 43.0543 303.626 43.1597 303.626C44.3308 303.626 45.4981 303.634 46.6692 303.626C46.9542 303.626 47.0635 303.716 47.0557 304.011C47.0362 304.762 47.1103 304.68 46.3881 304.684C44.7134 304.684 43.0387 304.684 41.364 304.684C41.2234 304.684 40.9736 304.629 40.9697 304.581C40.9541 304.416 40.9736 304.212 41.0673 304.082C42.3868 302.238 43.718 300.406 45.0452 298.566C45.1077 298.479 45.1663 298.389 45.2678 298.235C45.0921 298.235 44.9828 298.235 44.8774 298.235C43.8273 298.235 42.781 298.224 41.7309 298.239C41.4264 298.243 41.321 298.129 41.2976 297.842C41.2469 297.217 41.2664 297.182 41.8832 297.182C43.4759 297.182 45.0726 297.182 46.6653 297.186C46.8058 297.186 46.9425 297.248 47.083 297.284C47.0401 297.453 47.0401 297.65 46.9464 297.783C45.7167 299.513 44.4714 301.235 43.23 302.961C43.0894 303.158 42.9528 303.359 42.7615 303.634L42.7576 303.626Z"
                  fill="white"/>
            <path d="M58.2523 298.47C58.4943 298.144 58.6934 297.81 58.9549 297.543C59.4351 297.051 60.0402 296.906 60.7077 297.067C60.8014 297.09 60.942 297.2 60.9498 297.283C60.9771 297.633 60.9615 297.983 60.9615 298.364C60.8483 298.345 60.7819 298.337 60.7195 298.317C59.7591 297.991 58.994 298.349 58.5724 299.273C58.2952 299.886 58.2757 300.531 58.2601 301.176C58.2366 302.217 58.2484 303.263 58.2601 304.305C58.2601 304.573 58.182 304.691 57.897 304.683C56.8742 304.655 57.0343 304.813 57.0304 303.814C57.0226 301.746 57.0304 299.678 57.0304 297.609C57.0304 297.177 57.0343 297.169 57.4754 297.173C58.3772 297.181 58.2484 297.059 58.2601 297.967C58.2601 298.128 58.2601 298.29 58.2601 298.466L58.2523 298.47Z"
                  fill="white"/>
        </g>
        <g clip-path="url(#clip3_567_3)">
            <path d="M191.612 181.423C190.336 180.491 189.57 179.24 189.199 177.734C189.147 177.521 189.065 177.318 189 177.109C189 176.615 189 176.122 189 175.632C189.036 175.548 189.088 175.467 189.104 175.38C189.264 174.451 189.534 173.548 190.124 172.807C190.661 172.133 191.316 171.552 191.922 170.93C192.101 170.843 192.283 170.765 192.456 170.669C193.85 169.904 195.339 169.75 196.889 169.998C198.446 170.353 199.746 171.111 200.678 172.304C199.691 173.274 198.736 174.216 197.788 175.151C197.752 175.093 197.684 174.98 197.606 174.877C196.987 174.042 196.137 173.706 195.117 173.871C194.134 174.029 193.472 174.622 193.156 175.557C192.765 176.718 193.241 177.773 194.485 178.579C193.528 179.527 192.57 180.475 191.612 181.423Z"
                  fill="#FABC06"/>
            <path d="M196.889 169.998C195.339 169.75 193.85 169.904 192.456 170.669C192.283 170.762 192.101 170.843 191.922 170.93C191.941 170.804 191.938 170.672 191.981 170.553C192.951 167.77 194.84 165.877 197.652 164.89C198.222 164.69 198.814 164.558 199.397 164.396C200.13 164.396 200.863 164.396 201.596 164.396C202.023 164.496 202.456 164.58 202.876 164.696C204.251 165.07 205.511 165.661 206.544 166.663C205.629 167.589 204.71 168.515 203.795 169.44C203.668 169.363 203.538 169.292 203.417 169.211C201.329 167.821 198.58 168.15 196.889 169.998Z"
                  fill="#E94436"/>
            <path d="M203.795 169.443C204.71 168.517 205.629 167.592 206.544 166.666C207 167.134 207.548 167.546 207.893 168.082C208.414 168.891 208.785 169.794 209.235 170.649C209.336 170.842 209.46 171.048 209.626 171.184C211.782 172.932 212.662 175.16 212.01 177.84C211.352 180.542 209.525 182.255 206.753 182.654C204.857 182.929 202.899 182.767 200.968 182.796C200.841 182.796 200.71 182.761 200.58 182.741C200.587 181.432 200.59 180.123 200.596 178.817C202.297 178.81 203.994 178.817 205.694 178.794C206.769 178.778 207.521 178.224 207.945 177.272C208.352 176.36 208.15 175.241 207.385 174.602C206.909 174.209 206.287 173.989 205.626 173.635C205.717 172.077 205.166 170.591 203.798 169.443H203.795Z"
                  fill="#4485F3"/>
            <path d="M200.597 178.814C200.59 180.123 200.587 181.432 200.581 182.738C198.766 182.738 196.949 182.767 195.138 182.722C193.828 182.69 192.633 182.264 191.613 181.422C192.571 180.474 193.529 179.526 194.486 178.578C194.994 178.646 195.499 178.762 196.007 178.775C197.538 178.81 199.069 178.804 200.6 178.814H200.597Z"
                  fill="#35A853"/>
            <path d="M224.55 168.956H221.602V167.737H225.752C226.211 170.297 224.576 172.254 222.305 172.57C219.563 172.954 217.713 171.197 217.156 169.484C216.156 166.398 218.836 163.238 222.104 163.638C223.094 163.76 223.947 164.147 224.683 164.841C224.367 165.121 224.071 165.386 223.755 165.666C223.253 165.224 222.605 164.931 221.846 164.87C220.178 164.728 218.586 165.947 218.345 167.562C218.081 169.346 219.185 170.961 220.902 171.297C221.944 171.5 222.885 171.277 223.709 170.61C224.221 170.197 224.455 169.636 224.55 168.956Z"
                  fill="white"/>
            <path d="M243.521 167.44C243.528 167.292 243.534 167.179 243.541 167.043H244.762C244.762 167.169 244.762 167.292 244.762 167.414C244.762 169.075 244.765 170.739 244.769 172.4C244.769 173.725 243.961 174.818 242.752 175.128C241.42 175.467 240.107 174.902 239.472 173.715C239.44 173.657 239.417 173.593 239.374 173.493C239.746 173.341 240.104 173.193 240.453 173.048C241.156 174.012 241.798 174.28 242.602 173.964C243.3 173.69 243.625 172.974 243.495 172.01C243.472 172.01 243.443 172 243.433 172.01C242.541 172.971 240.759 172.709 239.821 171.61C239.088 170.749 238.876 169.488 239.407 168.456C239.948 167.401 240.808 166.798 242.052 166.821C242.498 166.831 242.716 166.924 243.521 167.437V167.44ZM243.609 169.743C243.609 168.93 243.192 168.279 242.531 168.066C241.661 167.782 240.726 168.308 240.472 169.217C240.199 170.2 240.772 171.245 241.694 171.436C242.759 171.658 243.612 170.903 243.612 169.743H243.609Z"
                  fill="white"/>
            <path d="M243.872 178.743V175.561H244.843V183.39H243.908V182.678C243.66 182.887 243.475 183.084 243.246 183.226C242.097 183.948 240.589 183.555 239.849 182.32C239.269 181.352 239.24 180.333 239.732 179.327C240.562 177.637 242.686 177.354 243.872 178.743ZM243.885 180.736C243.885 180.646 243.888 180.552 243.885 180.462C243.839 179.575 243.175 178.863 242.305 178.769C241.517 178.682 240.758 179.214 240.523 180.053C240.377 180.582 240.383 181.12 240.611 181.633C241.048 182.62 242.247 182.978 243.113 182.374C243.68 181.978 243.898 181.407 243.888 180.74L243.885 180.736Z"
                  fill="white"/>
            <path d="M238.583 169.718C238.583 171.365 237.323 172.61 235.652 172.61C233.981 172.61 232.71 171.365 232.707 169.727C232.707 168.092 233.984 166.828 235.639 166.828C237.3 166.828 238.58 168.083 238.58 169.718H238.583ZM233.974 169.708C233.974 170.678 234.707 171.462 235.629 171.478C236.547 171.491 237.303 170.708 237.31 169.737C237.316 168.753 236.596 167.989 235.655 167.983C234.71 167.976 233.977 168.731 233.974 169.711V169.708Z"
                  fill="white"/>
            <path d="M226.285 169.724C226.285 168.086 227.559 166.828 229.22 166.828C230.881 166.828 232.161 168.086 232.161 169.718C232.161 171.356 230.891 172.61 229.227 172.61C227.552 172.61 226.288 171.369 226.288 169.724H226.285ZM227.552 169.724C227.552 170.691 228.305 171.478 229.227 171.475C230.145 171.475 230.891 170.682 230.888 169.711C230.888 168.731 230.155 167.973 229.21 167.976C228.266 167.976 227.549 168.734 227.552 169.724Z"
                  fill="white"/>
            <path d="M252.999 168.984C251.663 169.525 250.373 170.051 249.08 170.577C249.487 171.689 250.872 171.738 251.933 170.686C252.243 170.889 252.559 171.096 252.872 171.305C252.207 172.354 250.904 172.84 249.663 172.524C248.49 172.225 247.614 171.138 247.552 169.948C247.513 169.151 247.679 168.423 248.207 167.8C249.425 166.365 251.598 166.526 252.578 168.132C252.738 168.393 252.849 168.684 252.995 168.987L252.999 168.984ZM251.432 168.558C251.06 167.971 250.419 167.797 249.784 168.068C249.148 168.339 248.728 169.032 248.878 169.603C249.722 169.258 250.562 168.913 251.429 168.558H251.432Z"
                  fill="white"/>
            <path d="M224.188 176.649C223.973 176.872 223.755 177.091 223.517 177.339C222.843 176.565 221.986 176.265 220.989 176.356C220.195 176.43 219.517 176.756 218.983 177.349C217.888 178.568 217.953 180.583 219.1 181.741C220.149 182.799 222.292 183.083 223.778 181.502C223.82 181.538 223.866 181.57 223.908 181.609C224.094 181.78 224.279 181.954 224.458 182.118C223.823 183.202 221.888 183.831 220.344 183.486C218.598 183.096 217.279 181.593 217.168 179.874C217.045 177.933 218.048 176.294 219.748 175.656C221.4 175.037 223.234 175.453 224.188 176.652V176.649Z"
                  fill="white"/>
            <path d="M232.87 180.717C232.87 182.377 231.687 183.58 230.058 183.574C228.449 183.57 227.277 182.368 227.273 180.723C227.273 179.069 228.466 177.853 230.085 177.859C231.687 177.866 232.866 179.075 232.87 180.717ZM231.847 180.717C231.837 180.591 231.837 180.465 231.821 180.339C231.729 179.594 231.127 178.946 230.41 178.82C229.602 178.675 228.86 179.03 228.508 179.765C228.172 180.475 228.189 181.194 228.622 181.865C229.247 182.832 230.567 182.942 231.342 182.103C231.703 181.71 231.863 181.245 231.847 180.717Z"
                  fill="white"/>
            <path d="M237.517 178.046H238.51V183.38H237.559V182.677C237.475 182.754 237.436 182.78 237.403 182.816C236.804 183.522 236.025 183.741 235.146 183.525C234.256 183.306 233.787 182.638 233.738 181.797C233.664 180.555 233.719 179.307 233.719 178.046H234.732C234.732 178.646 234.732 179.226 234.732 179.807C234.732 180.278 234.729 180.745 234.732 181.216C234.745 182.138 235.146 182.603 235.966 182.658C236.709 182.709 237.361 182.177 237.458 181.364C237.523 180.81 237.504 180.245 237.51 179.684C237.517 179.146 237.51 178.611 237.51 178.043L237.517 178.046Z"
                  fill="white"/>
            <path d="M245.658 163.951H246.916V172.423H245.658V163.951Z" fill="white"/>
            <path d="M225.396 175.557H226.357V183.396H225.396V175.557Z" fill="white"/>
        </g>
        <g clip-path="url(#clip4_567_3)">
            <path d="M361.864 136.615C353.76 136.615 354.266 140.143 354.266 140.143L354.275 143.799H362.008V144.896H351.203C351.203 144.896 346.018 144.306 346.018 152.515C346.018 160.724 350.544 160.433 350.544 160.433H353.245V156.623C353.245 156.623 353.099 152.079 357.699 152.079H365.369C365.369 152.079 369.679 152.149 369.679 147.898V140.869C369.679 140.869 370.333 136.615 361.864 136.615ZM357.6 139.073C357.782 139.073 357.963 139.109 358.132 139.179C358.301 139.249 358.455 139.352 358.584 139.482C358.713 139.612 358.816 139.766 358.885 139.935C358.955 140.105 358.991 140.287 358.991 140.47C358.991 140.654 358.955 140.835 358.885 141.005C358.816 141.174 358.713 141.328 358.584 141.458C358.455 141.588 358.301 141.691 358.132 141.761C357.963 141.831 357.782 141.867 357.6 141.867C357.417 141.867 357.236 141.831 357.067 141.761C356.898 141.691 356.745 141.588 356.616 141.458C356.486 141.328 356.384 141.174 356.314 141.005C356.244 140.835 356.208 140.654 356.208 140.47C356.208 140.287 356.244 140.105 356.314 139.935C356.384 139.766 356.486 139.612 356.616 139.482C356.745 139.352 356.898 139.249 357.067 139.179C357.236 139.109 357.417 139.073 357.6 139.073Z"
                  fill="url(#paint0_linear_567_3)"/>
            <path d="M362.094 168.496C370.198 168.496 369.692 164.968 369.692 164.968L369.683 161.313H361.95V160.216H372.755C372.755 160.216 377.94 160.806 377.94 152.597C377.94 144.388 373.414 144.679 373.414 144.679H370.713V148.488C370.713 148.488 370.859 153.032 366.259 153.032H358.589C358.589 153.032 354.279 152.962 354.279 157.214V164.243C354.279 164.243 353.625 168.496 362.094 168.496H362.094ZM366.358 166.039C366.176 166.039 365.995 166.003 365.826 165.933C365.657 165.862 365.504 165.76 365.374 165.63C365.245 165.5 365.143 165.346 365.073 165.177C365.003 165.007 364.967 164.825 364.967 164.642C364.967 164.458 365.003 164.277 365.073 164.107C365.143 163.938 365.245 163.784 365.374 163.654C365.503 163.524 365.657 163.421 365.826 163.351C365.995 163.281 366.176 163.245 366.358 163.245C366.541 163.245 366.722 163.281 366.891 163.351C367.06 163.421 367.213 163.524 367.343 163.654C367.472 163.783 367.574 163.938 367.644 164.107C367.714 164.277 367.75 164.458 367.75 164.642C367.75 164.825 367.714 165.007 367.644 165.176C367.574 165.346 367.472 165.5 367.343 165.63C367.213 165.759 367.06 165.862 366.891 165.932C366.722 166.003 366.541 166.039 366.358 166.039Z"
                  fill="url(#paint1_linear_567_3)"/>
        </g>
        <g clip-path="url(#clip5_567_3)">
            <path d="M237.28 307.155C237.704 305.875 237.851 304.52 237.71 303.179C237.569 301.839 237.144 300.544 236.463 299.38C235.452 297.622 233.91 296.23 232.057 295.404C230.205 294.579 228.138 294.364 226.155 294.789C225.029 293.536 223.593 292.601 221.991 292.079C220.389 291.556 218.678 291.465 217.03 291.813C215.382 292.161 213.854 292.936 212.6 294.061C211.346 295.186 210.41 296.622 209.886 298.223C208.565 298.494 207.317 299.044 206.226 299.835C205.134 300.627 204.224 301.643 203.556 302.815C202.535 304.57 202.098 306.605 202.31 308.625C202.521 310.645 203.37 312.546 204.733 314.052C204.306 315.33 204.157 316.686 204.296 318.027C204.436 319.368 204.86 320.663 205.54 321.827C206.552 323.586 208.096 324.979 209.95 325.804C211.803 326.629 213.871 326.845 215.856 326.419C216.75 327.427 217.85 328.233 219.081 328.782C220.312 329.332 221.647 329.612 222.995 329.605C225.027 329.606 227.008 328.962 228.65 327.765C230.293 326.568 231.513 324.88 232.134 322.945C233.454 322.674 234.702 322.124 235.793 321.332C236.885 320.54 237.794 319.525 238.462 318.353C239.472 316.601 239.901 314.574 239.688 312.562C239.476 310.551 238.633 308.658 237.28 307.155ZM222.995 327.119C221.331 327.122 219.719 326.539 218.441 325.472L218.664 325.344L226.231 320.977C226.419 320.866 226.575 320.709 226.684 320.52C226.793 320.331 226.851 320.117 226.852 319.899V309.232L230.05 311.081C230.066 311.089 230.08 311.101 230.09 311.115C230.101 311.129 230.107 311.146 230.11 311.164V320.003C230.106 321.889 229.355 323.697 228.022 325.03C226.688 326.364 224.881 327.115 222.995 327.119ZM207.7 320.586C206.865 319.145 206.565 317.455 206.853 315.814L207.078 315.948L214.651 320.317C214.838 320.427 215.051 320.484 215.268 320.484C215.485 320.484 215.698 320.427 215.886 320.317L225.137 314.983V318.675C225.136 318.694 225.131 318.713 225.122 318.73C225.113 318.747 225.1 318.762 225.085 318.773L217.421 323.192C215.786 324.134 213.844 324.388 212.022 323.899C210.199 323.411 208.645 322.219 207.7 320.586ZM205.705 304.107C206.545 302.656 207.873 301.549 209.451 300.983V309.971C209.448 310.188 209.504 310.402 209.612 310.59C209.72 310.779 209.876 310.935 210.065 311.042L219.272 316.354L216.074 318.203C216.057 318.212 216.037 318.217 216.018 318.217C215.998 318.217 215.979 318.212 215.962 318.203L208.314 313.792C206.681 312.846 205.49 311.292 205.001 309.469C204.512 307.647 204.765 305.705 205.705 304.069V304.107ZM231.983 310.21L222.748 304.848L225.938 303.005C225.956 302.995 225.975 302.991 225.994 302.991C226.014 302.991 226.033 302.995 226.051 303.005L233.698 307.424C234.868 308.098 235.822 309.091 236.448 310.288C237.075 311.484 237.348 312.834 237.236 314.18C237.123 315.526 236.63 316.812 235.815 317.888C234.999 318.964 233.893 319.785 232.628 320.257V311.266C232.621 311.05 232.558 310.838 232.445 310.653C232.332 310.468 232.173 310.315 231.983 310.21ZM235.166 305.424L234.943 305.289L227.384 300.885C227.195 300.774 226.981 300.716 226.762 300.716C226.544 300.716 226.329 300.774 226.141 300.885L216.897 306.219V302.525C216.895 302.506 216.899 302.488 216.906 302.471C216.914 302.454 216.926 302.439 216.942 302.428L224.589 298.016C225.761 297.341 227.101 297.014 228.453 297.073C229.804 297.131 231.11 297.573 232.22 298.347C233.329 299.121 234.195 300.195 234.717 301.442C235.238 302.69 235.394 304.061 235.166 305.394V305.424ZM215.153 311.971L211.954 310.128C211.938 310.118 211.924 310.105 211.914 310.09C211.904 310.074 211.897 310.056 211.894 310.038V301.223C211.897 299.871 212.284 298.548 213.011 297.408C213.737 296.268 214.773 295.358 215.998 294.785C217.222 294.211 218.585 293.998 219.926 294.17C221.267 294.342 222.531 294.892 223.571 295.756L223.346 295.883L215.781 300.25C215.593 300.36 215.436 300.517 215.327 300.706C215.218 300.895 215.16 301.11 215.159 301.328L215.153 311.971ZM216.889 308.226L221.009 305.851L225.137 308.226V312.975L221.025 315.35L216.897 312.975L216.889 308.226Z"
                  fill="white"/>
        </g>
        <path d="M479.631 114.372C479.631 114.482 479.768 114.372 479.631 114.372V114.372ZM476.56 111.897C476.276 111.347 476.918 112.053 476.56 111.897V111.897ZM471.949 112.154C471.949 112.044 472.087 112.392 471.949 112.154V112.154ZM477.083 112.511C476.835 112.126 476.899 112.566 477.083 112.804C477.523 113.235 477.248 112.566 477.083 112.511Z"
              fill="white"/>
        <path d="M485.554 115.077C485.068 115.654 484.637 115.013 484.059 115.196C483.051 115.196 484.142 114.738 484.114 114.279C483.583 113.867 482.978 114.839 482.629 115.104C481.784 114.958 480.961 114.703 480.182 114.344C479.274 113.92 478.463 113.315 477.799 112.565C477.055 111.824 476.471 110.938 476.084 109.962C475.59 108.251 475.331 106.481 475.314 104.7C475.379 103.509 476.634 104.829 477.148 104.398C476.955 103.784 475.965 103.591 475.415 103.334C474.884 103.334 474.691 102.83 474.132 102.794C474.132 102.124 473.096 102.491 472.702 102.024C473.087 101.034 471.446 102.024 471.574 101.189C472.106 100.089 469.943 100.273 470.841 101.244C471.712 101.739 469.989 102.097 470.493 102.427C470.535 102.51 470.556 102.602 470.552 102.695C470.549 102.788 470.521 102.879 470.472 102.958C470.424 103.038 470.355 103.103 470.273 103.148C470.192 103.193 470.1 103.216 470.007 103.215C469.329 103.279 469.393 104.214 470.062 103.719C470.804 103.49 470.19 103.82 469.833 103.884C469.644 103.913 469.465 103.987 469.311 104.099C469.157 104.211 469.031 104.359 468.946 104.53C468.861 104.7 468.818 104.889 468.82 105.08C468.823 105.271 468.872 105.458 468.962 105.626C469.32 106.655 469.626 107.701 469.879 108.761C470.444 110.368 471.282 111.865 472.354 113.189C472.917 113.896 473.585 114.514 474.334 115.022C475.021 115.495 475.771 115.872 476.561 116.14C477.97 116.555 479.428 116.78 480.897 116.809C481.788 116.814 482.677 116.741 483.555 116.589C484.353 116.672 484.921 115.994 485.627 116.351C486.067 115.966 486.69 116.14 487.121 115.856C487.414 114.738 486.003 115.609 485.554 115.077ZM483.959 114.399C483.757 114.399 484.004 114.087 483.959 114.399V114.399ZM476.964 104.315C476.873 104.315 476.891 104.205 476.818 104.178C476.084 103.839 477.175 103.967 476.964 104.352V104.315ZM483.161 114.756C482.84 114.683 483.418 114.527 483.161 114.756V114.756ZM480.585 114.857C480.374 114.857 480.75 114.729 480.585 114.857V114.857ZM478.862 113.775C478.743 113.775 478.862 113.656 478.862 113.775V113.775ZM478.66 113.619C478.33 113.619 478.578 113.409 478.66 113.619V113.619ZM478.275 113.289C477.973 113.363 478.275 112.978 478.275 113.289V113.289ZM472.775 102.601C472.289 102.344 472.876 102.904 472.464 102.894C472.244 102.894 471.831 102.418 471.969 102.179C472.244 102.326 472.729 102.372 472.812 102.638L472.775 102.601ZM471.932 101.859H471.831C471.804 101.611 472.629 101.804 471.969 101.895L471.932 101.859ZM470.997 101.134C470.612 100.96 470.997 100.282 471.4 100.603C471.868 101.272 470.529 100.529 470.997 101.134ZM471.446 101.767C471.199 101.868 471.593 101.574 471.446 101.767V101.767ZM471.886 102.61C472.436 103.032 471.574 102.61 471.226 102.876C470.667 102.931 471.831 102.564 471.886 102.61ZM472.042 103.16C472.363 103.16 473.765 102.528 473.298 103.096C473.729 103.6 473.389 103.435 473.105 103.096C473.362 103.27 473.16 104.013 472.766 103.509C472.372 103.004 472.308 103.344 472.61 103.701C472.317 103.105 471.474 103.362 470.859 103.564C470.465 103.527 471.895 103.224 472.042 103.16ZM470.282 104.489C470.135 104.856 470.502 104.975 470.85 105.039C471.419 104.884 470.474 104.783 470.905 104.636C471.144 104.636 470.154 104.398 470.979 104.288C471.804 104.178 472.583 103.811 473.417 103.637C474.124 103.482 474.849 103.423 475.571 103.463C475.846 103.784 475.36 104.324 474.865 104.379C474.271 104.571 473.655 104.691 473.032 104.737C472.299 104.645 471.776 105.296 471.024 105.379C471.226 105.012 470.859 105.25 470.484 105.232C470.676 105.984 469.136 105.039 470.044 104.856C469.365 104.618 469.356 105.333 469.429 105.773C468.834 104.939 469.494 104.59 470.282 104.489ZM472.005 105.479C471.804 105.434 472.161 105.296 472.005 105.479V105.479ZM471.345 106.286C471.345 106.286 471.034 106.213 471.162 106.13C472.079 106.249 470.337 105.828 471.281 105.929C471.886 105.91 471.684 106.259 471.345 106.286ZM471.648 106.442C471.538 106.552 471.648 106.222 471.648 106.442V106.442ZM470.997 106.442C470.594 106.359 471.189 106.24 470.997 106.442V106.442ZM470.942 107.753C470.85 107.679 470.878 107.844 470.942 107.753V107.753ZM470.667 107.597C470.163 107.423 470.667 107.404 470.667 107.597V107.597ZM470.557 108.77C470.319 108.688 470.328 108.312 470.218 108.11C469.869 107.166 470.594 108.477 470.52 108.77H470.557ZM470.768 107.404C470.135 107.331 470.722 106.955 470.768 107.404V107.404ZM470.768 107.093H470.685C469.989 106.772 471.098 106.937 470.667 107.093H470.768ZM470.667 106.369C470.108 106.084 471.199 106.039 470.667 106.369V106.369ZM470.859 106.607C470.548 106.662 470.905 106.314 470.859 106.607V106.607ZM469.668 106.671C469.558 106.744 469.668 106.46 469.668 106.671V106.671ZM469.75 106.543C469.604 106.543 469.75 106.295 469.75 106.543V106.543ZM469.824 105.626C469.457 105.534 470.126 105.397 469.824 105.626V105.626ZM470.062 107.459C469.659 107.368 469.952 106.864 470.062 107.459V107.459ZM470.337 108.605C470.722 109.073 470.575 109.329 470.969 109.898C470.456 109.577 470.355 108.798 470.053 108.294C469.677 107.469 470.264 108.284 470.337 108.605ZM474.086 114.454C473.774 114.389 473.564 114.059 473.344 113.849C472.718 113.391 472.222 112.778 471.904 112.07C471.377 111.396 470.928 110.664 470.566 109.889C470.19 109.045 470.795 109.953 470.887 110.274C471.079 110.897 471.694 111.254 471.749 111.667C472.427 112.052 472.079 112.694 472.665 112.868C472.913 112.739 472.94 113.638 473.481 113.454C473.179 113.592 473.6 113.757 473.756 114.014C474.077 113.968 474.829 114.765 474.086 114.49V114.454ZM471.235 108.605C470.951 108.541 471.538 108.504 471.235 108.605V108.605ZM471.419 109.036C470.914 108.908 471.895 108.853 471.419 109.036V109.036ZM472.693 109.467C473.059 109.311 472.839 110.182 473.197 110.292C473.894 111.209 472.711 110.292 472.28 110.228C472.335 110.228 471.932 110.118 472.106 110.081C471.978 109.944 471.694 109.476 472.344 109.788C472.894 110.008 472.94 109.843 472.693 109.43V109.467ZM473.894 111.08C473.894 111.218 473.234 111.199 473.839 111.465C473.49 111.465 473.38 111.465 473.839 111.74C473.637 111.896 474.233 112.024 474.031 112.263C474.636 112.739 473.921 112.382 473.664 112.189C473.408 111.997 472.885 111.869 472.977 111.731C473.719 112.116 473.169 111.731 472.839 111.456C473.435 111.603 472.372 111.016 472.931 111.172C473.105 111.218 472.684 110.824 473.234 111.108C472.739 110.631 473.664 110.998 473.894 111.044V111.08ZM474.334 110.924C473.774 110.796 474.334 110.613 474.334 110.924V110.924ZM474.178 112.758C473.619 112.519 474.535 112.758 474.178 112.758V112.758ZM473.765 112.602C473.114 112.391 474.242 112.602 473.765 112.602V112.602ZM473.683 112.703C473.481 112.703 473.683 112.547 473.683 112.703V112.703ZM472.693 111.282C472.033 111.007 472.509 110.979 472.693 111.282V111.282ZM472.198 110.961C471.666 110.659 472.124 110.659 472.198 110.961V110.961ZM472.198 111.557C471.675 111.154 472.134 111.328 472.198 111.557V111.557ZM472.06 110.329C471.739 110.329 472.179 110.145 472.06 110.329V110.329ZM474.334 113.537C473.866 113.399 474.334 113.409 474.334 113.537V113.537ZM473.994 113.189H473.848C473.224 112.694 474.132 112.84 474.535 113.06C475.424 113.189 474.334 113.418 473.994 113.189ZM476.469 114.701C475.846 114.554 476.616 114.454 476.469 114.701V114.701ZM476.314 114.224C476.222 114.124 476.268 114.224 476.314 114.224V114.224ZM475.525 112.996C474.984 112.868 475.718 112.822 475.855 112.996C476.79 113.189 475.8 113.234 475.525 112.996ZM475.718 114.105H475.617L475.498 114.05C474.984 113.509 476.589 114.307 475.718 114.105ZM475.461 114.738C475.324 114.793 475.461 114.609 475.461 114.738V114.738ZM475.727 113.647L475.58 113.601C474.975 113.189 476.35 113.684 475.727 113.601V113.647ZM475.874 115.224C475.507 115.077 476.112 114.994 475.874 115.224V115.224ZM475.965 114.545C475.434 114.417 476.295 114.426 475.965 114.545V114.545ZM476.084 113.986C475.681 113.931 476.13 113.794 476.084 113.986V113.986ZM475.424 113.179C475.846 113.234 475.855 113.427 475.424 113.308C475.342 113.308 475.204 113.308 475.168 113.152C474.471 112.694 475.195 112.923 475.424 113.134V113.179ZM475.369 115.013C475.186 115.123 475.369 114.811 475.369 115.013V115.013ZM475.085 114.545C474.599 114.545 475.452 114.307 475.085 114.545V114.545ZM474.975 114.866C474.737 114.774 475.131 114.793 474.975 114.866V114.866ZM475.25 114.05C474.774 113.922 475.479 113.885 475.25 114.05V114.05ZM475.104 113.528C474.847 113.528 475.049 113.381 475.104 113.528V113.528ZM474.609 112.657C474.086 112.235 475.69 113.005 474.609 112.657V112.657ZM474.554 112.831C474.453 112.749 474.554 112.886 474.554 112.831V112.831ZM477.899 116.296C477.084 116.151 476.294 115.888 475.553 115.517L475.25 115.334C474.728 115.049 474.792 114.985 475.305 115.269C475.479 115.416 476.763 115.939 476.158 115.59C475.892 115.526 474.416 114.719 475.388 115.068C476.197 115.497 477.037 115.868 477.899 116.177C478.629 116.35 479.382 116.396 480.127 116.314C480.723 116.617 481.346 116.241 481.96 116.507C480.599 116.671 479.219 116.6 477.881 116.296H477.899ZM476.754 115.654C476.286 115.572 476.9 115.444 476.754 115.654V115.654ZM477.423 114.738C476.891 114.637 477.973 114.527 477.423 114.738V114.738ZM478.193 115.939C479.109 116.278 477.643 116.049 477.34 115.856C476.497 115.508 478 115.939 478.193 115.939ZM477.221 114.93C476.479 114.82 478.046 114.93 477.221 114.93V114.93ZM478.614 115.709C478.349 115.92 478.614 115.434 478.614 115.709V115.709ZM478.88 115.755C478.743 115.81 478.88 115.599 478.88 115.755V115.755ZM479.128 115.407C478.981 115.59 479.128 115.196 479.128 115.407V115.407ZM479.412 115.407C478.999 115.563 479.843 115.049 479.412 115.407V115.407ZM479.54 115.407C479.989 115.022 480.008 115.205 479.999 115.526C479.604 115.966 479.843 115.343 479.595 115.581C479.348 115.819 479.421 115.489 479.54 115.425V115.407ZM480.301 115.819C479.843 115.819 480.769 115.324 480.301 115.819V115.819ZM480.301 115.984C480.118 116.03 480.301 115.865 480.301 115.984V115.984ZM480.154 115.664C479.797 115.425 481.016 115.104 480.154 115.664V115.664ZM480.677 115.746H480.604C480.576 115.535 481.099 115.499 480.677 115.764V115.746ZM480.814 115.92C480.539 115.847 481.245 115.554 480.814 115.92V115.92ZM481.144 115.829C480.677 115.994 481.584 115.462 481.144 115.829V115.829ZM481.346 115.929L481.236 116.003C481.025 115.874 481.887 115.563 481.346 115.939V115.929ZM480.952 115.444C480.457 115.279 479.669 114.747 479.119 115.104C478.385 115.572 479.494 114.591 478.899 115.031C478.294 115.755 478.486 114.573 477.899 114.93C477.899 114.82 477.377 114.784 477.744 114.591C477.414 114.591 477.624 114.545 477.744 114.279C477.597 114.279 476.827 114.279 476.497 114.014C476.13 113.537 476.561 113.739 476.937 113.803C476.323 113.913 477.157 114.261 477.56 114.069C477.377 113.986 477.166 113.592 476.644 113.244C476.013 112.898 475.36 112.591 474.691 112.327C473.921 111.869 474.856 112.162 475.122 112.4C475.892 112.739 475.589 111.933 475.122 111.722C474.627 111.722 474.508 111.181 474.114 111.209C474.728 111.309 475.159 111.053 474.471 110.429C473.784 109.806 474.746 111.007 474.37 110.833C474.196 110.604 474.324 110.283 473.774 110.164C473.774 110.374 473.701 110.695 473.582 110.255C473.426 110.255 473.252 110.448 473.124 109.999C473.243 109.476 472.61 109.357 472.509 109.027C473.059 109.375 473.307 109.1 472.922 108.724C472.537 108.349 472.619 108.624 472.473 108.724C471.932 109.274 472.418 107.808 472.179 108.211C471.941 108.211 472.079 108.477 472.088 108.807C471.299 108.614 472.271 109.219 472.5 109.549C472.143 109.183 472.207 109.834 471.904 109.549C471.804 109.274 471.794 108.844 471.29 108.77C471.859 108.569 470.96 108.174 471.034 108.156C471.354 107.863 471.4 107.459 471.785 108.092C471.299 108.092 471.785 108.899 471.895 108.642C471.895 108.211 472.097 107.725 471.354 107.551C471.134 107.844 470.759 106.974 471.189 107.157C471.134 106.579 471.868 106.919 471.822 106.671C472.207 106.506 471.364 105.965 471.822 105.754C472.17 105.974 473.069 105.424 472.464 105.351C472.849 105.351 473.151 105.516 473.188 105.131C473.49 105.195 474.324 105.461 473.573 105.049C473.903 104.914 474.253 104.837 474.609 104.819C475.333 104.26 475.186 105.736 475.021 106.149C475.296 105.956 475.241 107.01 475.149 107.404C475.296 107.203 475.36 107.734 475.149 108.11C475.149 108.046 475.516 107.991 475.259 108.431C475.058 108 474.975 109.348 475.104 108.724C475.443 108.165 475.36 108.724 475.461 108.944C475.534 109.449 475.754 109.916 475.828 110.374C476.149 110.695 475.69 110.475 475.69 110.915C475.791 110.787 476.222 111.089 476.213 111.539C476.213 110.824 476.295 111.374 476.644 111.539C476.878 112.018 477.188 112.458 477.56 112.84C477.899 113.234 477.56 112.959 477.689 113.198C477.915 113.51 478.201 113.774 478.529 113.976C478.858 114.177 479.224 114.311 479.604 114.371C479.746 114.617 479.961 114.811 480.22 114.926C480.478 115.041 480.767 115.072 481.044 115.013C480.494 115.352 482.584 115.444 481.878 115.627C481.667 115.774 481.309 115.444 480.952 115.462V115.444ZM474.975 112.171C474.755 112.171 474.975 111.988 474.975 112.171V112.171ZM475.324 112.373C475.159 112.373 475.214 112.153 475.324 112.373V112.373ZM472.931 109.027C472.711 108.963 473.023 108.944 472.931 109.027V109.027ZM472.39 109.027C472.152 109.027 472.39 108.715 472.39 109.027V109.027ZM472.115 108.954C472.024 108.999 472.115 108.853 472.115 108.954V108.954ZM482.199 116.516C481.841 116.452 482.492 116.314 482.199 116.516V116.516ZM482.868 115.554H482.593C482.648 115.141 483.812 115.462 484.289 115.471C484.142 115.783 483.253 115.508 482.868 115.59V115.554ZM484.701 115.554C484.454 115.554 484.811 115.26 484.701 115.554V115.554ZM485.618 115.471C485.389 115.59 485.618 115.196 485.618 115.471V115.471ZM486.058 115.572C485.581 115.462 486.278 115.462 486.424 115.444C487.286 115.462 486.424 115.59 485.994 115.59L486.058 115.572Z"
              fill="white"/>
        <path d="M472.968 104.123C473.885 103.94 472.62 103.821 472.336 104.123C472.501 104.242 472.711 103.931 472.968 104.123ZM472.216 104.242C472.216 104.417 472.381 104.041 472.216 104.242V104.242ZM474.618 103.802C475.232 103.702 474.719 103.427 474.536 103.894C474.6 104.022 474.636 103.848 474.618 103.802ZM474.05 103.894C474.004 102.977 474.902 104.224 474.05 103.894V103.894ZM471.373 104.747C471.481 104.741 471.588 104.773 471.676 104.838C472.363 105.315 471.584 104.068 471.373 104.747Z"
              fill="white"/>
        <path d="M471.408 104.416C471.555 104.535 471.674 104.223 471.408 104.416V104.416ZM471.747 104.425L471.876 104.535C472.499 104.59 471.775 104.113 471.747 104.425ZM476.798 112.272C476.798 111.914 476.881 112.547 476.798 112.272V112.272ZM472.417 107.688C472.508 107.853 472.582 107.523 472.417 107.688V107.688ZM472.499 108.247C472.499 107.78 472.673 108.559 472.499 108.247V108.247ZM472.692 107.798C472.435 107.322 472.994 107.991 472.692 107.798V107.798ZM472.316 107.047C472.38 107.184 472.536 107.193 472.655 107.23C473.865 107.789 471.784 106.313 472.316 107.047ZM472.811 108.357C472.976 108.018 473.095 108.843 472.811 108.357V108.357ZM473.251 108.211C473.59 109.054 473.04 108.101 472.976 107.817C472.984 108.139 473.072 108.454 473.232 108.733C473.544 109.201 473.407 108.477 473.737 108.944C473.553 108.532 473.828 108.761 473.792 108.577C473.755 108.394 472.875 107.505 473.251 108.211ZM473.581 109.842C473.663 110.127 473.746 109.842 473.581 109.842V109.842ZM472.362 105.855C472.417 105.983 472.462 105.855 472.362 105.855V105.855ZM472.976 106.24C473.132 105.91 473.269 106.616 472.976 106.24V106.24ZM472.16 107.285L472.288 107.422C473.196 107.688 471.326 106.552 472.16 107.285ZM472.802 106.946C473.718 107.322 472.719 106.698 472.398 106.762C472.499 106.882 472.692 106.827 472.802 106.946ZM472.637 106.542C472.802 106.707 473.388 107.01 472.921 106.597C473.214 106.542 472.921 106.451 472.701 106.304C472.297 105.69 472.765 106.359 472.637 106.542Z"
              fill="white"/>
        <path d="M472.051 107.359C471.565 106.956 472.197 107.552 471.996 107.543C471.491 107.176 471.702 107.442 471.996 107.726C472.298 108.184 472.546 107.451 472.051 107.359ZM474.012 107.946C473.957 107.323 474.122 108.047 474.012 107.946V107.946ZM474.947 104.738C474.947 104.848 475.011 104.646 474.947 104.738V104.738ZM475.25 109.037C475.25 108.872 475.25 109.229 475.25 109.037V109.037ZM474.984 107.918C475.057 108.34 475.076 107.203 474.984 107.918V107.918ZM475.112 108.12V108.212C475.305 107.744 475.149 107.488 475.112 108.12ZM475.021 105.645C474.892 106.287 474.773 106.021 474.947 105.544C474.901 104.93 474.535 105.92 474.7 106.204C474.966 106.635 475.25 105.141 475.021 105.645ZM475.946 111.127C476.047 110.742 476.066 111.448 475.946 111.127V111.127ZM474.709 107.203C474.709 107.075 474.709 107.387 474.709 107.203V107.203ZM475.296 108.762C475.296 109 475.396 108.413 475.296 108.762V108.762ZM475.708 110.439L475.772 110.54C475.901 110.091 475.442 109.816 475.708 110.439ZM474.278 109.963C474.159 109.752 474.526 110.164 474.278 109.963V109.963ZM475.406 109.183C475.406 108.798 475.479 109.449 475.406 109.183V109.183ZM474.461 106.598C474.416 106.351 474.599 106.901 474.461 106.598V106.598Z"
              fill="white"/>
        <path d="M474.609 106.983C474.371 106.396 474.829 107.295 474.609 106.983V106.983ZM474.554 108.037C474.435 107.121 474.169 108.45 474.554 108.67C474.673 108.981 474.783 108.853 474.829 108.496C474.536 108.496 474.903 107.927 474.554 108.037Z"
              fill="white"/>
        <path d="M495.309 105.229V106.585H491.817V108.733H494.493V110.065H491.817V113.605H490.137V105.229H495.309ZM498.18 104.725V113.605H496.5V104.725H498.18ZM499.408 110.257C499.408 109.585 499.54 108.989 499.804 108.469C500.076 107.949 500.44 107.549 500.896 107.269C501.36 106.989 501.876 106.849 502.444 106.849C502.94 106.849 503.372 106.949 503.74 107.149C504.116 107.349 504.416 107.601 504.64 107.905V106.957H506.332V113.605H504.64V112.633C504.424 112.945 504.124 113.205 503.74 113.413C503.364 113.613 502.928 113.713 502.432 113.713C501.872 113.713 501.36 113.569 500.896 113.281C500.44 112.993 500.076 112.589 499.804 112.069C499.54 111.541 499.408 110.937 499.408 110.257ZM504.64 110.281C504.64 109.873 504.56 109.525 504.4 109.237C504.24 108.941 504.024 108.717 503.752 108.565C503.48 108.405 503.188 108.325 502.876 108.325C502.564 108.325 502.276 108.401 502.012 108.553C501.748 108.705 501.532 108.929 501.364 109.225C501.204 109.513 501.124 109.857 501.124 110.257C501.124 110.657 501.204 111.009 501.364 111.313C501.532 111.609 501.748 111.837 502.012 111.997C502.284 112.157 502.572 112.237 502.876 112.237C503.188 112.237 503.48 112.161 503.752 112.009C504.024 111.849 504.24 111.625 504.4 111.337C504.56 111.041 504.64 110.689 504.64 110.281ZM510.517 113.713C509.973 113.713 509.485 113.617 509.053 113.425C508.621 113.225 508.277 112.957 508.021 112.621C507.773 112.285 507.637 111.913 507.613 111.505H509.305C509.337 111.761 509.461 111.973 509.677 112.141C509.901 112.309 510.177 112.393 510.505 112.393C510.825 112.393 511.073 112.329 511.249 112.201C511.433 112.073 511.525 111.909 511.525 111.709C511.525 111.493 511.413 111.333 511.189 111.229C510.973 111.117 510.625 110.997 510.145 110.869C509.649 110.749 509.241 110.625 508.921 110.497C508.609 110.369 508.337 110.173 508.105 109.909C507.881 109.645 507.769 109.289 507.769 108.841C507.769 108.473 507.873 108.137 508.081 107.833C508.297 107.529 508.601 107.289 508.993 107.113C509.393 106.937 509.861 106.849 510.397 106.849C511.189 106.849 511.821 107.049 512.293 107.449C512.765 107.841 513.025 108.373 513.073 109.045H511.465C511.441 108.781 511.329 108.573 511.129 108.421C510.937 108.261 510.677 108.181 510.349 108.181C510.045 108.181 509.809 108.237 509.641 108.349C509.481 108.461 509.401 108.617 509.401 108.817C509.401 109.041 509.513 109.213 509.737 109.333C509.961 109.445 510.309 109.561 510.781 109.681C511.261 109.801 511.657 109.925 511.969 110.053C512.281 110.181 512.549 110.381 512.773 110.653C513.005 110.917 513.125 111.269 513.133 111.709C513.133 112.093 513.025 112.437 512.809 112.741C512.601 113.045 512.297 113.285 511.897 113.461C511.505 113.629 511.045 113.713 510.517 113.713ZM518.448 113.605L516.192 110.773V113.605H514.512V104.725H516.192V109.777L518.424 106.957H520.608L517.68 110.293L520.632 113.605H518.448Z"
              fill="white"/>
        <path d="M400.082 263.273H402.842V264.605H398.402V256.229H400.082V263.273ZM406.862 264.713C406.222 264.713 405.646 264.573 405.134 264.293C404.622 264.005 404.218 263.601 403.922 263.081C403.634 262.561 403.49 261.961 403.49 261.281C403.49 260.601 403.638 260.001 403.934 259.481C404.238 258.961 404.65 258.561 405.17 258.281C405.69 257.993 406.27 257.849 406.91 257.849C407.55 257.849 408.13 257.993 408.65 258.281C409.17 258.561 409.578 258.961 409.874 259.481C410.178 260.001 410.33 260.601 410.33 261.281C410.33 261.961 410.174 262.561 409.862 263.081C409.558 263.601 409.142 264.005 408.614 264.293C408.094 264.573 407.51 264.713 406.862 264.713ZM406.862 263.249C407.166 263.249 407.45 263.177 407.714 263.033C407.986 262.881 408.202 262.657 408.362 262.361C408.522 262.065 408.602 261.705 408.602 261.281C408.602 260.649 408.434 260.165 408.098 259.829C407.77 259.485 407.366 259.313 406.886 259.313C406.406 259.313 406.002 259.485 405.674 259.829C405.354 260.165 405.194 260.649 405.194 261.281C405.194 261.913 405.35 262.401 405.662 262.745C405.982 263.081 406.382 263.249 406.862 263.249ZM411.13 261.281C411.13 260.593 411.27 259.993 411.55 259.481C411.83 258.961 412.218 258.561 412.714 258.281C413.21 257.993 413.778 257.849 414.418 257.849C415.242 257.849 415.922 258.057 416.458 258.473C417.002 258.881 417.366 259.457 417.55 260.201H415.738C415.642 259.913 415.478 259.689 415.246 259.529C415.022 259.361 414.742 259.277 414.406 259.277C413.926 259.277 413.546 259.453 413.266 259.805C412.986 260.149 412.846 260.641 412.846 261.281C412.846 261.913 412.986 262.405 413.266 262.757C413.546 263.101 413.926 263.273 414.406 263.273C415.086 263.273 415.53 262.969 415.738 262.361H417.55C417.366 263.081 417.002 263.653 416.458 264.077C415.914 264.501 415.234 264.713 414.418 264.713C413.778 264.713 413.21 264.573 412.714 264.293C412.218 264.005 411.83 263.605 411.55 263.093C411.27 262.573 411.13 261.969 411.13 261.281ZM418.349 261.257C418.349 260.585 418.481 259.989 418.745 259.469C419.017 258.949 419.381 258.549 419.837 258.269C420.301 257.989 420.817 257.849 421.385 257.849C421.881 257.849 422.313 257.949 422.681 258.149C423.057 258.349 423.357 258.601 423.581 258.905V257.957H425.273V264.605H423.581V263.633C423.365 263.945 423.065 264.205 422.681 264.413C422.305 264.613 421.869 264.713 421.373 264.713C420.813 264.713 420.301 264.569 419.837 264.281C419.381 263.993 419.017 263.589 418.745 263.069C418.481 262.541 418.349 261.937 418.349 261.257ZM423.581 261.281C423.581 260.873 423.501 260.525 423.341 260.237C423.181 259.941 422.965 259.717 422.693 259.565C422.421 259.405 422.129 259.325 421.817 259.325C421.505 259.325 421.217 259.401 420.953 259.553C420.689 259.705 420.473 259.929 420.305 260.225C420.145 260.513 420.065 260.857 420.065 261.257C420.065 261.657 420.145 262.009 420.305 262.313C420.473 262.609 420.689 262.837 420.953 262.997C421.225 263.157 421.513 263.237 421.817 263.237C422.129 263.237 422.421 263.161 422.693 263.009C422.965 262.849 423.181 262.625 423.341 262.337C423.501 262.041 423.581 261.689 423.581 261.281ZM428.594 255.725V264.605H426.914V255.725H428.594ZM397.714 280.689C397.13 280.689 396.602 280.589 396.13 280.389C395.666 280.189 395.298 279.901 395.026 279.525C394.754 279.149 394.614 278.705 394.606 278.193H396.406C396.43 278.537 396.55 278.809 396.766 279.009C396.99 279.209 397.294 279.309 397.678 279.309C398.07 279.309 398.378 279.217 398.602 279.033C398.826 278.841 398.938 278.593 398.938 278.289C398.938 278.041 398.862 277.837 398.71 277.677C398.558 277.517 398.366 277.393 398.134 277.305C397.91 277.209 397.598 277.105 397.198 276.993C396.654 276.833 396.21 276.677 395.866 276.525C395.53 276.365 395.238 276.129 394.99 275.817C394.75 275.497 394.63 275.073 394.63 274.545C394.63 274.049 394.754 273.617 395.002 273.249C395.25 272.881 395.598 272.601 396.046 272.409C396.494 272.209 397.006 272.109 397.582 272.109C398.446 272.109 399.146 272.321 399.682 272.745C400.226 273.161 400.526 273.745 400.582 274.497H398.734C398.718 274.209 398.594 273.973 398.362 273.789C398.138 273.597 397.838 273.501 397.462 273.501C397.134 273.501 396.87 273.585 396.67 273.753C396.478 273.921 396.382 274.165 396.382 274.485C396.382 274.709 396.454 274.897 396.598 275.049C396.75 275.193 396.934 275.313 397.15 275.409C397.374 275.497 397.686 275.601 398.086 275.721C398.63 275.881 399.074 276.041 399.418 276.201C399.762 276.361 400.058 276.601 400.306 276.921C400.554 277.241 400.678 277.661 400.678 278.181C400.678 278.629 400.562 279.045 400.33 279.429C400.098 279.813 399.758 280.121 399.31 280.353C398.862 280.577 398.33 280.689 397.714 280.689ZM408.315 277.137C408.315 277.377 408.299 277.593 408.267 277.785H403.407C403.447 278.265 403.615 278.641 403.911 278.913C404.207 279.185 404.571 279.321 405.003 279.321C405.627 279.321 406.071 279.053 406.335 278.517H408.147C407.955 279.157 407.587 279.685 407.043 280.101C406.499 280.509 405.831 280.713 405.039 280.713C404.399 280.713 403.823 280.573 403.311 280.293C402.807 280.005 402.411 279.601 402.123 279.081C401.843 278.561 401.703 277.961 401.703 277.281C401.703 276.593 401.843 275.989 402.123 275.469C402.403 274.949 402.795 274.549 403.299 274.269C403.803 273.989 404.383 273.849 405.039 273.849C405.671 273.849 406.235 273.985 406.731 274.257C407.235 274.529 407.623 274.917 407.895 275.421C408.175 275.917 408.315 276.489 408.315 277.137ZM406.575 276.657C406.567 276.225 406.411 275.881 406.107 275.625C405.803 275.361 405.431 275.229 404.991 275.229C404.575 275.229 404.223 275.357 403.935 275.613C403.655 275.861 403.483 276.209 403.419 276.657H406.575ZM411.221 274.989C411.437 274.637 411.717 274.361 412.061 274.161C412.413 273.961 412.813 273.861 413.261 273.861V275.625H412.817C412.289 275.625 411.889 275.749 411.617 275.997C411.353 276.245 411.221 276.677 411.221 277.293V280.605H409.541V273.957H411.221V274.989ZM417.164 279.057L418.844 273.957H420.632L418.172 280.605H416.132L413.684 273.957H415.484L417.164 279.057ZM427.756 277.137C427.756 277.377 427.74 277.593 427.708 277.785H422.848C422.888 278.265 423.056 278.641 423.352 278.913C423.648 279.185 424.012 279.321 424.444 279.321C425.068 279.321 425.512 279.053 425.776 278.517H427.588C427.396 279.157 427.028 279.685 426.484 280.101C425.94 280.509 425.272 280.713 424.48 280.713C423.84 280.713 423.264 280.573 422.752 280.293C422.248 280.005 421.852 279.601 421.564 279.081C421.284 278.561 421.144 277.961 421.144 277.281C421.144 276.593 421.284 275.989 421.564 275.469C421.844 274.949 422.236 274.549 422.74 274.269C423.244 273.989 423.824 273.849 424.48 273.849C425.112 273.849 425.676 273.985 426.172 274.257C426.676 274.529 427.064 274.917 427.336 275.421C427.616 275.917 427.756 276.489 427.756 277.137ZM426.016 276.657C426.008 276.225 425.852 275.881 425.548 275.625C425.244 275.361 424.872 275.229 424.432 275.229C424.016 275.229 423.664 275.357 423.376 275.613C423.096 275.861 422.924 276.209 422.86 276.657H426.016ZM430.662 274.989C430.878 274.637 431.158 274.361 431.502 274.161C431.854 273.961 432.254 273.861 432.702 273.861V275.625H432.258C431.73 275.625 431.33 275.749 431.058 275.997C430.794 276.245 430.662 276.677 430.662 277.293V280.605H428.982V273.957H430.662V274.989Z"
              fill="#F98A4C"/>
        <g clip-path="url(#clip6_567_3)">
            <path d="M334.844 19.6055H305.156C302.861 19.6055 301 21.4663 301 23.7617V53.4492C301 55.7447 302.861 57.6055 305.156 57.6055H334.844C337.139 57.6055 339 55.7447 339 53.4492V23.7617C339 21.4663 337.139 19.6055 334.844 19.6055Z"
                  fill="#092E20"/>
            <path d="M328.664 33.5881V43.4185C328.664 46.8059 328.417 48.4304 327.673 49.8348C326.985 51.1844 326.076 52.0379 324.203 52.9742L320.265 51.1017C322.138 50.2205 323.047 49.4496 323.625 48.265C324.231 47.0536 324.424 45.6491 324.424 41.9593V33.5881H328.664ZM321.918 27.0391V46.6683C319.743 47.0812 318.146 47.2465 316.411 47.2465C311.234 47.2465 308.535 44.906 308.535 40.4173C308.535 36.0939 311.399 33.2853 315.832 33.2853C316.521 33.2853 317.044 33.3402 317.677 33.5054V27.0394H321.918L321.918 27.0391ZM316.246 36.6997C314.098 36.6997 312.858 38.0215 312.858 40.3345C312.858 42.5928 314.043 43.8318 316.218 43.8318C316.686 43.8318 317.072 43.8043 317.677 43.722V36.9198C317.182 36.7547 316.769 36.6997 316.246 36.6997ZM328.664 27.0616V31.4126H324.424V27.0618L328.664 27.0616Z"
                  fill="#FFFFFD"/>
        </g>
        <path d="M123.677 40.219C215.247 -49.4063 363.71 -49.4063 455.279 40.219C546.849 129.844 546.849 275.156 455.279 364.781C363.71 454.406 215.247 454.406 123.677 364.781C32.1076 275.156 32.1076 129.844 123.677 40.219Z"
              fill="url(#paint2_radial_567_3)" fill-opacity="0.4"/>
    </g>
    <defs>
        <linearGradient id="paint0_linear_567_3" x1="652.794" y1="423.368" x2="2240.92" y2="1989.51"
                        gradientUnits="userSpaceOnUse">
            <stop stop-color="#387EB8"/>
            <stop offset="1" stop-color="#366994"/>
        </linearGradient>
        <linearGradient id="paint1_linear_567_3" x1="807.082" y1="634.843" x2="2512.24" y2="2240.48"
                        gradientUnits="userSpaceOnUse">
            <stop stop-color="#FFE052"/>
            <stop offset="1" stop-color="#FFC331"/>
        </linearGradient>
        <radialGradient id="paint2_radial_567_3" cx="0" cy="0" r="1" gradientUnits="userSpaceOnUse"
                        gradientTransform="translate(289.477 202.494) rotate(-90) scale(229.5 234.478)">
            <stop stop-color="#48E4F3"/>
            <stop offset="0.12" stop-color="#3BBCF5" stop-opacity="0.83"/>
            <stop offset="0.33" stop-color="#267AF8" stop-opacity="0.54"/>
            <stop offset="0.52" stop-color="#1645FB" stop-opacity="0.31"/>
            <stop offset="0.69" stop-color="#0A1FFD" stop-opacity="0.14"/>
            <stop offset="0.82" stop-color="#0208FE" stop-opacity="0.04"/>
            <stop offset="0.9" stop-color="#0000FF" stop-opacity="0"/>
        </radialGradient>
        <clipPath id="clip0_567_3">
            <rect width="531" height="348" fill="white"/>
        </clipPath>
        <clipPath id="clip1_567_3">
            <rect width="50" height="30" fill="white" transform="translate(52 93.6055)"/>
        </clipPath>
        <clipPath id="clip2_567_3">
            <rect width="62" height="18" fill="white" transform="translate(6 288.605)"/>
        </clipPath>
        <clipPath id="clip3_567_3">
            <rect width="64" height="20" fill="white" transform="translate(189 163.605)"/>
        </clipPath>
        <clipPath id="clip4_567_3">
            <rect width="32" height="32" fill="white" transform="translate(346 136.605)"/>
        </clipPath>
        <clipPath id="clip5_567_3">
            <rect width="38" height="38" fill="white" transform="translate(202 291.605)"/>
        </clipPath>
        <clipPath id="clip6_567_3">
            <rect width="38" height="38" fill="white" transform="translate(301 19.6055)"/>
        </clipPath>
    </defs>
</svg>
