<svg width="86" height="99" viewBox="0 0 86 99" fill="none" xmlns="http://www.w3.org/2000/svg">
    <path d="M43 79C36.4001 77.0317 30.9162 73.017 26.5484 66.9559C22.1828 60.8926 20 54.0629 20 46.4667V28.6265L43 20L66 28.6265V46.4667C66 54.0629 63.8172 60.8915 59.4516 66.9526C55.0838 73.0159 49.5999 77.0317 43 79ZM43 75.4966C48.6952 73.6822 53.4048 70.0535 57.1286 64.6104C60.8524 59.1673 62.7143 53.1194 62.7143 46.4667V30.8796L43 23.5232L23.2857 30.8796V46.4667C23.2857 53.1194 25.1476 59.1673 28.8714 64.6104C32.5952 70.0535 37.3048 73.6822 43 75.4966ZM36.5534 61.4897H49.4466C50.1979 61.4897 50.8277 61.2346 51.3359 60.7243C51.844 60.2119 52.0981 59.5785 52.0981 58.8242V49.1817C52.0981 48.4273 51.844 47.795 51.3359 47.2848C50.8277 46.7724 50.1979 46.5162 49.4466 46.5162H48.8749V43.2173C48.8749 41.5723 48.3163 40.189 47.1991 39.0674C46.082 37.9458 44.7031 37.385 43.0624 37.385C41.4218 37.385 40.044 37.9458 38.929 39.0674C37.8097 40.189 37.25 41.5723 37.25 43.2173V46.5162H36.5534C35.8021 46.5162 35.1723 46.7724 34.6641 47.2848C34.156 47.795 33.9019 48.4273 33.9019 49.1817V58.8242C33.9019 59.5785 34.156 60.2119 34.6641 60.7243C35.1723 61.2346 35.8021 61.4897 36.5534 61.4897ZM39.7767 46.5162V43.2173C39.7767 42.2827 40.0921 41.4997 40.723 40.8685C41.3539 40.2374 42.1337 39.9207 43.0624 39.9185C43.9934 39.9185 44.7743 40.2352 45.4051 40.8685C46.036 41.5019 46.3503 42.2849 46.3481 43.2173V46.5162H39.7767Z"
          fill="#01EE8A"/>
    <g filter="url(#filter0_f_220_62)">
        <path d="M43 79C36.4001 77.0317 30.9162 73.017 26.5484 66.9559C22.1828 60.8926 20 54.0629 20 46.4667V28.6265L43 20L66 28.6265V46.4667C66 54.0629 63.8172 60.8915 59.4516 66.9526C55.0838 73.0159 49.5999 77.0317 43 79ZM43 75.4966C48.6952 73.6823 53.4048 70.0535 57.1286 64.6104C60.8524 59.1673 62.7143 53.1194 62.7143 46.4667V30.8796L43 23.5232L23.2857 30.8796V46.4667C23.2857 53.1194 25.1476 59.1673 28.8714 64.6104C32.5952 70.0535 37.3048 73.6823 43 75.4966ZM36.5534 61.4897H49.4466C50.1979 61.4897 50.8277 61.2346 51.3359 60.7244C51.844 60.2119 52.0981 59.5785 52.0981 58.8242V49.1817C52.0981 48.4273 51.844 47.795 51.3359 47.2848C50.8277 46.7724 50.1979 46.5162 49.4466 46.5162H48.8749V43.2173C48.8749 41.5723 48.3163 40.189 47.1991 39.0674C46.082 37.9458 44.7031 37.385 43.0624 37.385C41.4218 37.385 40.044 37.9458 38.929 39.0674C37.8097 40.189 37.25 41.5723 37.25 43.2173V46.5162H36.5534C35.8021 46.5162 35.1723 46.7724 34.6641 47.2848C34.156 47.795 33.9019 48.4273 33.9019 49.1817V58.8242C33.9019 59.5785 34.156 60.2119 34.6641 60.7244C35.1723 61.2346 35.8021 61.4897 36.5534 61.4897ZM39.7767 46.5162V43.2173C39.7767 42.2827 40.0921 41.4997 40.723 40.8686C41.3539 40.2374 42.1337 39.9207 43.0624 39.9185C43.9934 39.9185 44.7743 40.2352 45.4051 40.8686C46.036 41.5019 46.3503 42.2849 46.3481 43.2173V46.5162H39.7767Z"
              fill="#01EE8A"/>
    </g>
    <defs>
        <filter id="filter0_f_220_62" x="0" y="0" width="86" height="99" filterUnits="userSpaceOnUse"
                color-interpolation-filters="sRGB">
            <feFlood flood-opacity="0" result="BackgroundImageFix"/>
            <feBlend mode="normal" in="SourceGraphic" in2="BackgroundImageFix" result="shape"/>
            <feGaussianBlur stdDeviation="10" result="effect1_foregroundBlur_220_62"/>
        </filter>
    </defs>
</svg>
