<svg width="184" height="35" viewBox="0 0 184 35" fill="none" xmlns="http://www.w3.org/2000/svg">
    <path d="M27.7381 32.4988C31.4344 32.4988 35.1306 32.5075 38.8298 32.4988C45.6951 32.4786 51.0755 27.3076 51.0872 20.727C51.0989 14.0715 45.7274 8.87739 38.8093 8.8601C36.7679 8.85433 34.7264 8.8111 32.6879 8.88027C31.6921 8.91486 31.1122 8.61221 30.5733 7.74748C26.9502 1.95094 20.3778 -0.902652 13.5183 0.253197C7.10992 1.33122 1.76763 6.47922 0.361758 12.9272C-1.79684 22.8369 5.9823 32.4008 16.3008 32.493C20.1142 32.5276 23.9247 32.4988 27.7381 32.4988ZM28.6519 26.5293C23.9423 26.5293 19.4962 26.8204 15.1087 26.4544C10.0007 26.0249 6.19025 21.6782 6.00573 16.8069C5.78313 10.9008 10.3229 6.0065 16.1456 5.87968C22.2787 5.7442 27.0322 10.3244 27.0674 16.389C27.0879 19.7816 26.6837 23.2318 28.6519 26.5293ZM35.362 14.4981C36.2085 14.5298 38.4959 14.7316 39.3424 14.7575C42.5407 14.8613 45.1094 17.5275 45.1006 20.7155C45.0947 23.8804 42.4734 26.5264 39.2692 26.6071C36.0298 26.6878 33.2181 24.2234 33.0775 21.0931C32.9955 19.2772 32.7114 16.0978 32.685 14.279"
          fill="#01EE8A"/>
    <path d="M77.612 18.742C77.612 20.5311 77.1945 21.9147 76.3596 22.9046C75.5247 23.8946 74.2962 24.3836 72.6681 24.3836C71.0401 24.3836 69.8473 23.8886 69.0124 22.9046C68.1775 21.9206 67.7601 20.5311 67.7601 18.742V4.67383H63.1621V18.8434C63.1621 21.0261 63.5438 22.851 64.3131 24.33C65.0764 25.803 66.1678 26.9182 67.5871 27.6696C69.0005 28.421 70.7001 28.8027 72.6681 28.8027C74.6361 28.8027 76.3716 28.427 77.7849 27.6696C79.1983 26.9182 80.2837 25.803 81.0411 24.33C81.7925 22.8569 82.1742 21.0261 82.1742 18.8434V4.67383H77.612V18.742Z"
          fill="white"/>
    <path d="M99.3917 12.1116C98.2169 11.3602 96.8572 10.9785 95.3007 10.9785C93.7441 10.9785 92.5097 11.3423 91.3826 12.0758C90.8995 12.3919 90.4701 12.7736 90.0765 13.197L89.5577 11.3602H86.1465V35H90.7087V27.2712C90.9114 27.4381 91.1142 27.5992 91.3348 27.7363C92.45 28.446 93.762 28.7978 95.2708 28.7978C96.7796 28.7978 98.193 28.4221 99.3798 27.6648C100.567 26.9133 101.485 25.8578 102.147 24.516C102.809 23.1682 103.137 21.6236 103.137 19.8822C103.137 18.1408 102.809 16.5664 102.147 15.2366C101.485 13.9067 100.567 12.8571 99.3977 12.0997L99.3917 12.1116ZM97.37 23.2874C96.6127 24.1581 95.6585 24.5935 94.4956 24.5935C93.3327 24.5935 92.3725 24.1581 91.6032 23.2874C90.8399 22.4168 90.4522 21.2837 90.4522 19.8941C90.4522 18.5046 90.8339 17.3357 91.6032 16.4651C92.3665 15.5944 93.3327 15.159 94.4956 15.159C95.6585 15.159 96.6127 15.6003 97.37 16.4829C98.1215 17.3656 98.5031 18.5046 98.5031 19.8941C98.5031 21.2837 98.1274 22.4168 97.37 23.2874Z"
          fill="white"/>
    <path d="M109.923 15.0887C110.317 14.8561 110.77 14.7428 111.283 14.7428C112.213 14.7428 113.024 14.9158 113.722 15.2676C114.42 15.6195 114.986 16.025 115.427 16.4842L118.385 14.0093C117.711 13.1505 116.823 12.417 115.72 11.8147C114.616 11.2123 113.286 10.9082 111.73 10.9082C110.406 10.9082 109.261 11.1527 108.301 11.6417C107.335 12.1307 106.601 12.7867 106.088 13.6097C105.576 14.4327 105.325 15.3451 105.325 16.3411C105.325 17.8022 105.766 18.9352 106.649 19.7344C107.532 20.5335 108.856 21.1656 110.621 21.6308C111.575 21.8634 112.297 22.084 112.797 22.2928C113.298 22.5015 113.638 22.7162 113.823 22.9368C114.008 23.1575 114.103 23.408 114.103 23.6883C114.103 24.1057 113.931 24.4516 113.579 24.7319C113.233 25.0122 112.768 25.1494 112.183 25.1494C111.324 25.1494 110.549 24.9704 109.869 24.6067C109.184 24.2488 108.468 23.6525 107.728 22.8116L104.943 25.2507C105.85 26.5747 106.888 27.505 108.062 28.0358C109.237 28.5725 110.472 28.8349 111.772 28.8349C113 28.8349 114.109 28.6083 115.099 28.155C116.083 27.7018 116.871 27.0637 117.449 26.2407C118.028 25.4177 118.32 24.4456 118.32 23.3304C118.32 21.935 117.867 20.8257 116.96 19.9908C116.054 19.1559 114.557 18.4939 112.469 18.0049C111.241 17.7008 110.406 17.4145 109.977 17.1342C109.547 16.8539 109.333 16.5081 109.333 16.0906C109.333 15.6493 109.529 15.3153 109.923 15.0827V15.0887Z"
          fill="white"/>
    <path d="M133.724 12.1116C132.388 11.3602 130.837 10.9785 129.078 10.9785C127.319 10.9785 125.762 11.3542 124.432 12.1116C123.097 12.869 122.059 13.9126 121.313 15.2485C120.568 16.5843 120.198 18.1349 120.198 19.8941C120.198 21.6534 120.568 23.2099 121.313 24.5398C122.059 25.8757 123.097 26.9193 124.432 27.6767C125.768 28.4281 127.319 28.8098 129.078 28.8098C130.837 28.8098 132.394 28.4341 133.724 27.6767C135.06 26.9253 136.097 25.8757 136.843 24.5398C137.588 23.204 137.958 21.6534 137.958 19.8941C137.958 18.1349 137.588 16.5784 136.843 15.2485C136.097 13.9126 135.06 12.869 133.724 12.1116ZM132.137 23.1503C131.35 23.9733 130.324 24.3848 129.072 24.3848C127.82 24.3848 126.8 23.9673 126.025 23.1324C125.249 22.2975 124.856 21.2061 124.856 19.8584C124.856 18.5106 125.243 17.4252 126.025 16.6022C126.8 15.7792 127.82 15.3677 129.072 15.3677C130.324 15.3677 131.344 15.7852 132.137 16.6201C132.925 17.455 133.324 18.5464 133.324 19.8941C133.324 21.2419 132.931 22.3273 132.137 23.1503Z"
          fill="white"/>
    <path d="M155.312 13.1731C154.954 12.4992 154.417 11.9685 153.707 11.5689C152.998 11.1753 152.067 10.9785 150.904 10.9785C149.932 10.9785 149.002 11.1336 148.119 11.4496C147.237 11.7598 146.408 12.1891 145.633 12.7199C145.299 12.9465 144.989 13.203 144.684 13.4594L144.082 11.3602H140.671V28.3864H145.233V17.4192C145.472 17.1688 145.734 16.9243 146.014 16.7036C146.539 16.2981 147.1 15.982 147.702 15.7613C148.304 15.5407 148.895 15.4333 149.479 15.4333C150.105 15.4333 150.624 15.6063 151.03 15.9582C151.435 16.304 151.638 17.0018 151.638 18.0454V28.3864H156.2V18.0812C156.2 17.1747 156.141 16.2981 156.027 15.4512C155.908 14.6044 155.675 13.8411 155.312 13.1731Z"
          fill="white"/>
    <path d="M162.26 3.25C161.425 3.25 160.757 3.5124 160.256 4.03124C159.755 4.55604 159.511 5.22993 159.511 6.0708C159.511 6.858 159.761 7.50803 160.256 8.0209C160.757 8.53378 161.425 8.78425 162.26 8.78425C163.095 8.78425 163.763 8.52781 164.264 8.0209C164.765 7.50803 165.015 6.858 165.015 6.0708C165.015 5.23589 164.765 4.55604 164.264 4.03124C163.763 3.50644 163.095 3.25 162.26 3.25Z"
          fill="white"/>
    <path d="M164.555 11.3652H159.993V28.3914H164.555V11.3652Z" fill="white"/>
    <path d="M178.326 23.7051C177.735 24.1345 176.996 24.3492 176.113 24.3492C174.974 24.3492 174.026 23.9556 173.257 23.1624C172.493 22.3752 172.106 21.272 172.106 19.8526C172.106 18.4333 172.487 17.3598 173.257 16.5607C174.02 15.7616 174.974 15.362 176.113 15.362C176.996 15.362 177.735 15.5826 178.326 16.024C178.916 16.4653 179.387 17.0795 179.733 17.8667L183.914 16.0538C183.311 14.4973 182.315 13.2628 180.938 12.3444C179.554 11.426 177.962 10.9668 176.149 10.9668C174.336 10.9668 172.887 11.3425 171.587 12.0999C170.287 12.8573 169.285 13.9069 168.575 15.2487C167.866 16.5965 167.514 18.1291 167.514 19.8466C167.514 21.5642 167.866 23.1326 168.575 24.4804C169.285 25.8282 170.287 26.8837 171.587 27.6471C172.887 28.4104 174.408 28.7981 176.149 28.7981C177.89 28.7981 179.524 28.3269 180.92 27.3847C182.315 26.4424 183.311 25.2079 183.914 23.6753L179.733 21.8623C179.387 22.6495 178.916 23.2638 178.326 23.6932V23.7051Z"
          fill="white"/>
</svg>
