<svg width="139" height="27" viewBox="0 0 139 27" fill="none" xmlns="http://www.w3.org/2000/svg">
    <path d="M20.9641 25.1091C23.7577 25.1091 26.5513 25.1156 29.3471 25.1091C34.5358 25.0938 38.6022 21.1856 38.6111 16.2121C38.62 11.1819 34.5602 7.2563 29.3316 7.24323C27.7887 7.23887 26.2458 7.20619 24.7051 7.25848C23.9525 7.28462 23.5142 7.05588 23.1069 6.40233C20.3687 2.02137 15.4013 -0.135338 10.217 0.738238C5.37359 1.553 1.33595 5.44379 0.273412 10.3171C-1.35803 17.8068 4.52135 25.035 12.3199 25.1047C15.2021 25.1309 18.082 25.1091 20.9641 25.1091ZM21.6548 20.5974C18.0953 20.5974 14.735 20.8174 11.419 20.5408C7.55844 20.2162 4.67852 16.931 4.53906 13.2493C4.37082 8.7856 7.80193 5.08652 12.2026 4.99066C16.8379 4.88827 20.4306 8.3499 20.4572 12.9335C20.4727 15.4975 20.1672 18.1052 21.6548 20.5974ZM26.7262 11.5044C27.3659 11.5283 29.0947 11.6808 29.7345 11.7004C32.1518 11.7789 34.0931 13.794 34.0865 16.2034C34.082 18.5954 32.1008 20.5952 29.6791 20.6562C27.2309 20.7172 25.1058 18.8546 24.9995 16.4888C24.9376 15.1163 24.7228 12.7134 24.7029 11.3388"
          fill="#3D50FC"/>
    <path d="M58.6583 14.7127C58.6583 16.0648 58.3428 17.1105 57.7118 17.8587C57.0808 18.6069 56.1523 18.9765 54.9218 18.9765C53.6914 18.9765 52.7899 18.6024 52.1589 17.8587C51.5279 17.115 51.2124 16.0648 51.2124 14.7127V4.08008H47.7373V14.7893C47.7373 16.4389 48.0258 17.8181 48.6072 18.9359C49.1841 20.0492 50.009 20.8921 51.0817 21.46C52.1499 22.0279 53.4345 22.3164 54.9218 22.3164C56.4092 22.3164 57.7208 22.0324 58.7891 21.46C59.8573 20.8921 60.6776 20.0492 61.25 18.9359C61.8179 17.8226 62.1064 16.4389 62.1064 14.7893V4.08008H58.6583V14.7127Z"
          fill="#3D50FC"/>
    <path d="M75.119 9.70208C74.231 9.13417 73.2034 8.8457 72.027 8.8457C70.8506 8.8457 69.9176 9.12065 69.0658 9.67504C68.7007 9.91392 68.3761 10.2024 68.0787 10.5224L67.6865 9.13417H65.1084V27.0009H68.5564V21.1595C68.7097 21.2857 68.8629 21.4074 69.0297 21.511C69.8726 22.0474 70.8641 22.3133 72.0045 22.3133C73.1448 22.3133 74.213 22.0294 75.11 21.457C76.0069 20.8891 76.701 20.0913 77.2013 19.0771C77.7016 18.0585 77.9495 16.8911 77.9495 15.575C77.9495 14.2589 77.7016 13.069 77.2013 12.0639C76.701 11.0588 76.0069 10.2655 75.1235 9.69307L75.119 9.70208ZM73.591 18.1486C73.0186 18.8067 72.2974 19.1357 71.4185 19.1357C70.5396 19.1357 69.814 18.8067 69.2325 18.1486C68.6556 17.4906 68.3626 16.6342 68.3626 15.584C68.3626 14.5338 68.6511 13.6504 69.2325 12.9924C69.8094 12.3343 70.5396 12.0053 71.4185 12.0053C72.2974 12.0053 73.0186 12.3388 73.591 13.0059C74.1589 13.673 74.4474 14.5338 74.4474 15.584C74.4474 16.6342 74.1634 17.4906 73.591 18.1486Z"
          fill="#3D50FC"/>
    <path d="M83.078 11.9506C83.3755 11.7748 83.718 11.6892 84.1057 11.6892C84.8088 11.6892 85.4218 11.8199 85.9491 12.0858C86.4765 12.3517 86.9046 12.6582 87.2382 13.0053L89.4738 11.1348C88.9645 10.4857 88.2929 9.93135 87.459 9.47611C86.6252 9.02088 85.6201 8.79102 84.4437 8.79102C83.4431 8.79102 82.5777 8.97581 81.852 9.3454C81.1219 9.715 80.5675 10.2108 80.1798 10.8328C79.7922 11.4548 79.6029 12.1444 79.6029 12.8971C79.6029 14.0014 79.9365 14.8578 80.6035 15.4617C81.2706 16.0657 82.2712 16.5435 83.6053 16.895C84.3265 17.0708 84.8719 17.2376 85.2505 17.3953C85.6291 17.5531 85.886 17.7153 86.0257 17.8821C86.1655 18.0489 86.2376 18.2382 86.2376 18.45C86.2376 18.7655 86.1069 19.027 85.8409 19.2388C85.5795 19.4506 85.228 19.5543 84.7862 19.5543C84.1372 19.5543 83.5513 19.4191 83.0374 19.1441C82.5191 18.8737 81.9782 18.423 81.4193 17.7875L79.3145 19.6309C79.9996 20.6315 80.7838 21.3347 81.6717 21.7358C82.5597 22.1415 83.4927 22.3398 84.4752 22.3398C85.4037 22.3398 86.2421 22.1685 86.9903 21.8259C87.734 21.4834 88.3289 21.0011 88.7661 20.3791C89.2033 19.7571 89.4242 19.0224 89.4242 18.1796C89.4242 17.1249 89.0816 16.2866 88.3965 15.6555C87.7114 15.0245 86.5801 14.5242 85.0026 14.1546C84.0741 13.9248 83.4431 13.7084 83.1186 13.4966C82.794 13.2847 82.6318 13.0233 82.6318 12.7078C82.6318 12.3743 82.7805 12.1219 83.078 11.9461V11.9506Z"
          fill="#3D50FC"/>
    <path d="M101.067 9.70208C100.058 9.13417 98.8856 8.8457 97.556 8.8457C96.2264 8.8457 95.05 9.12966 94.0449 9.70208C93.0352 10.2745 92.251 11.0633 91.6876 12.0729C91.1242 13.0825 90.8447 14.2544 90.8447 15.584C90.8447 16.9137 91.1242 18.0901 91.6876 19.0952C92.251 20.1048 93.0352 20.8936 94.0449 21.466C95.0545 22.0339 96.2264 22.3224 97.556 22.3224C98.8856 22.3224 100.062 22.0384 101.067 21.466C102.077 20.8981 102.861 20.1048 103.424 19.0952C103.988 18.0855 104.267 16.9137 104.267 15.584C104.267 14.2544 103.988 13.078 103.424 12.0729C102.861 11.0633 102.077 10.2745 101.067 9.70208ZM99.8682 18.045C99.2733 18.667 98.498 18.978 97.5515 18.978C96.605 18.978 95.8342 18.6625 95.2483 18.0315C94.6624 17.4004 94.3649 16.5756 94.3649 15.557C94.3649 14.5383 94.6579 13.718 95.2483 13.096C95.8342 12.474 96.605 12.163 97.5515 12.163C98.498 12.163 99.2688 12.4785 99.8682 13.1096C100.463 13.7406 100.765 14.5654 100.765 15.584C100.765 16.6027 100.468 17.423 99.8682 18.045Z"
          fill="#3D50FC"/>
    <path d="M117.383 10.5044C117.112 9.99505 116.707 9.59391 116.17 9.29192C115.634 8.99444 114.931 8.8457 114.052 8.8457C113.317 8.8457 112.614 8.96289 111.947 9.20178C111.28 9.43615 110.653 9.76068 110.067 10.1618C109.815 10.3331 109.581 10.5269 109.351 10.7207L108.896 9.13417H106.317V22.0023H109.765V13.7135C109.946 13.5242 110.144 13.3394 110.356 13.1727C110.753 12.8662 111.176 12.6273 111.631 12.4605C112.087 12.2937 112.533 12.2126 112.975 12.2126C113.448 12.2126 113.84 12.3433 114.146 12.6092C114.453 12.8707 114.606 13.398 114.606 14.1868V22.0023H118.054V14.2138C118.054 13.5287 118.009 12.8662 117.924 12.2261C117.833 11.5861 117.658 11.0092 117.383 10.5044Z"
          fill="#3D50FC"/>
    <path d="M122.634 3.00391C122.003 3.00391 121.499 3.20223 121.12 3.59436C120.741 3.99099 120.557 4.50031 120.557 5.13583C120.557 5.73079 120.746 6.22207 121.12 6.6097C121.499 6.99732 122.003 7.18663 122.634 7.18663C123.265 7.18663 123.77 6.99281 124.149 6.6097C124.528 6.22207 124.717 5.73079 124.717 5.13583C124.717 4.50482 124.528 3.99099 124.149 3.59436C123.77 3.19772 123.265 3.00391 122.634 3.00391Z"
          fill="#3D50FC"/>
    <path d="M124.369 9.13672H120.921V22.0049H124.369V9.13672Z" fill="#3D50FC"/>
    <path d="M134.776 18.4634C134.33 18.7879 133.771 18.9502 133.104 18.9502C132.243 18.9502 131.526 18.6527 130.945 18.0532C130.368 17.4583 130.075 16.6244 130.075 15.5517C130.075 14.479 130.364 13.6677 130.945 13.0637C131.522 12.4598 132.243 12.1578 133.104 12.1578C133.771 12.1578 134.33 12.3245 134.776 12.6581C135.222 12.9916 135.578 13.4559 135.84 14.0508L138.999 12.6806C138.544 11.5042 137.791 10.5712 136.75 9.87711C135.705 9.18299 134.501 8.83594 133.131 8.83594C131.761 8.83594 130.666 9.11989 129.683 9.69231C128.7 10.2647 127.943 11.058 127.407 12.0721C126.87 13.0908 126.604 14.2491 126.604 15.5472C126.604 16.8453 126.87 18.0307 127.407 19.0493C127.943 20.068 128.7 20.8658 129.683 21.4427C130.666 22.0196 131.815 22.3126 133.131 22.3126C134.447 22.3126 135.682 21.9565 136.737 21.2444C137.791 20.5322 138.544 19.5992 138.999 18.4409L135.84 17.0707C135.578 17.6656 135.222 18.1299 134.776 18.4544V18.4634Z"
          fill="#3D50FC"/>
</svg>
