<svg width="16" height="16" viewBox="0 0 16 16" fill="none" xmlns="http://www.w3.org/2000/svg">
<path d="M1.5 0C0.67 0 0 0.67 0 1.498V14.479C0 15.307 0.671 15.977 1.5 15.977H2.5C3.327 15.977 3.999 15.307 3.999 14.479V1.498C3.999 0.67 3.327 0 2.499 0H1.5ZM6.498 0C5.67 0 4.998 0.67 4.998 1.498V14.479C4.998 15.307 5.67 15.977 6.498 15.977H7.498C8.326 15.977 8.997 15.307 8.997 14.479V1.498C8.997 0.671 8.326 0 7.497 0H6.498ZM13.718 4.157C13.6723 3.95904 13.5869 3.77243 13.4669 3.60848C13.3469 3.44453 13.1949 3.30666 13.02 3.20324C12.8452 3.09982 12.6511 3.03299 12.4496 3.00682C12.2482 2.98065 12.0435 2.99568 11.848 3.051L11.103 3.261C10.739 3.3639 10.4275 3.60068 10.2308 3.9238C10.0342 4.24692 9.96712 4.63245 10.043 5.003L12.046 14.802C12.0869 15.0006 12.1677 15.1889 12.2834 15.3554C12.3992 15.5219 12.5474 15.6632 12.7193 15.7708C12.8912 15.8784 13.0832 15.95 13.2835 15.9813C13.4839 16.0126 13.6885 16.003 13.885 15.953L14.87 15.703C15.66 15.503 16.144 14.709 15.962 13.916L13.718 4.157Z" fill="#33363F"/>
</svg>
