<svg width="102" height="75" viewBox="0 0 102 75" fill="none" xmlns="http://www.w3.org/2000/svg">
    <path d="M52.7838 34.6975C56.6687 34.6975 60.5536 34.7075 64.4384 34.6975C71.6518 34.6775 77.3062 29.1534 77.3212 22.1305C77.3363 15.0275 71.6919 9.47835 64.4234 9.4583C62.2779 9.45329 60.1325 9.40316 57.992 9.47835C56.9444 9.51344 56.3378 9.19263 55.7714 8.27028C51.9567 2.08454 45.0541 -0.96321 37.8458 0.269927C31.1137 1.42286 25.4994 6.91684 24.0206 13.8044C21.7549 24.3863 29.9256 34.5973 40.7682 34.6925C44.7734 34.7276 48.7786 34.6975 52.7838 34.6975ZM53.7462 28.3263C48.7987 28.3263 44.1268 28.6371 39.515 28.2461C34.1464 27.7899 30.1412 23.1481 29.9507 17.9449C29.7151 11.6388 34.4872 6.41556 40.6078 6.2752C47.0542 6.12983 52.0469 11.0223 52.087 17.4988C52.1071 21.123 51.686 24.8074 53.7513 28.3263H53.7462ZM62.308 15.7543C63.2003 15.7543 64.0875 15.7293 64.9798 15.7543C68.3384 15.8646 71.0402 18.7118 71.0302 22.1155C71.0252 25.4941 68.2682 28.3213 64.9046 28.4065C61.501 28.4917 58.5485 25.865 58.3981 22.5215C58.3129 20.5816 58.388 18.6367 58.363 16.6967C58.353 16.03 58.5986 15.7343 59.2803 15.7493C60.2929 15.7744 61.3055 15.7543 62.313 15.7543H62.308Z"
          fill="#01EE8A"/>
    <path d="M12.6366 61.3358C12.6366 62.8397 12.2857 64.0026 11.5839 64.8347C10.8822 65.6668 9.84953 66.0779 8.48105 66.0779C7.11257 66.0779 6.11002 65.6618 5.40823 64.8347C4.70645 64.0076 4.35555 62.8397 4.35555 61.3358V49.5107H0.490723V61.421C0.490723 63.2557 0.811539 64.7896 1.45818 66.0328C2.09982 67.2709 3.01715 68.2083 4.21019 68.8399C5.39821 69.4715 6.82684 69.7923 8.48105 69.7923C10.1353 69.7923 11.594 69.4765 12.782 68.8399C13.97 68.2083 14.8823 67.2709 15.519 66.0328C16.1506 64.7946 16.4714 63.2557 16.4714 61.421V49.5107H12.6366V61.3358Z"
          fill="#01EE8A"/>
    <path d="M30.9434 55.762C29.9559 55.1304 28.813 54.8096 27.5046 54.8096C26.1963 54.8096 25.1587 55.1154 24.2113 55.7319C23.8052 55.9976 23.4443 56.3184 23.1135 56.6743L22.6774 55.1304H19.8101V75.0009H23.6448V68.5044C23.8152 68.6448 23.9857 68.7801 24.1712 68.8954C25.1085 69.4919 26.2113 69.7877 27.4796 69.7877C28.7478 69.7877 29.9358 69.4719 30.9334 68.8353C31.9309 68.2036 32.7029 67.3164 33.2593 66.1885C33.8157 65.0556 34.0914 63.7573 34.0914 62.2936C34.0914 60.8299 33.8157 59.5065 33.2593 58.3887C32.7029 57.2708 31.9309 56.3886 30.9484 55.752L30.9434 55.762ZM29.2441 65.1559C28.6074 65.8878 27.8054 66.2537 26.8279 66.2537C25.8504 66.2537 25.0434 65.8878 24.3967 65.1559C23.7551 64.424 23.4293 63.4716 23.4293 62.3036C23.4293 61.1357 23.7501 60.1532 24.3967 59.4213C25.0384 58.6894 25.8504 58.3235 26.8279 58.3235C27.8054 58.3235 28.6074 58.6945 29.2441 59.4363C29.8757 60.1782 30.1965 61.1357 30.1965 62.3036C30.1965 63.4716 29.8807 64.424 29.2441 65.1559Z"
          fill="#01EE8A"/>
    <path d="M39.796 58.263C40.1268 58.0675 40.5078 57.9722 40.9389 57.9722C41.7209 57.9722 42.4026 58.1176 42.9891 58.4133C43.5756 58.7091 44.0518 59.05 44.4228 59.4359L46.9091 57.3557C46.3427 56.6338 45.5958 56.0172 44.6684 55.511C43.741 55.0047 42.6232 54.749 41.3149 54.749C40.202 54.749 39.2396 54.9545 38.4325 55.3656C37.6205 55.7766 37.0039 56.328 36.5728 57.0198C36.1417 57.7116 35.9312 58.4785 35.9312 59.3156C35.9312 60.5438 36.3021 61.4962 37.044 62.1679C37.7859 62.8396 38.8987 63.371 40.3825 63.762C41.1845 63.9574 41.7911 64.1429 42.2121 64.3184C42.6332 64.4938 42.9189 64.6743 43.0743 64.8597C43.2297 65.0452 43.3099 65.2557 43.3099 65.4913C43.3099 65.8422 43.1646 66.133 42.8688 66.3686C42.5781 66.6042 42.1871 66.7195 41.6958 66.7195C40.974 66.7195 40.3223 66.5691 39.7509 66.2633C39.1744 65.9626 38.5729 65.4613 37.9513 64.7545L35.6104 66.8047C36.3723 67.9175 37.2445 68.6995 38.232 69.1456C39.2195 69.5968 40.2572 69.8174 41.35 69.8174C42.3826 69.8174 43.315 69.6269 44.1471 69.2459C44.9742 68.8649 45.6359 68.3286 46.1221 67.6368C46.6083 66.945 46.854 66.128 46.854 65.1906C46.854 64.0176 46.473 63.0852 45.711 62.3834C44.9491 61.6817 43.6909 61.1252 41.9364 60.7142C40.9038 60.4585 40.202 60.2179 39.8411 59.9823C39.4802 59.7467 39.2997 59.456 39.2997 59.1051C39.2997 58.7342 39.4652 58.4534 39.796 58.258V58.263Z"
          fill="#01EE8A"/>
    <path d="M59.802 55.762C58.6792 55.1304 57.3759 54.8096 55.8971 54.8096C54.4183 54.8096 53.11 55.1254 51.9922 55.762C50.8693 56.3986 49.9971 57.2758 49.3705 58.3987C48.7439 59.5216 48.4331 60.8249 48.4331 62.3036C48.4331 63.7824 48.7439 65.0907 49.3705 66.2086C49.9971 67.3314 50.8693 68.2087 51.9922 68.8453C53.115 69.4769 54.4183 69.7977 55.8971 69.7977C57.3759 69.7977 58.6842 69.4819 59.802 68.8453C60.9249 68.2137 61.7971 67.3314 62.4237 66.2086C63.0503 65.0857 63.3611 63.7824 63.3611 62.3036C63.3611 60.8249 63.0503 59.5165 62.4237 58.3987C61.7971 57.2758 60.9249 56.3986 59.802 55.762ZM58.4686 65.0406C57.807 65.7324 56.9448 66.0782 55.8921 66.0782C54.8394 66.0782 53.9822 65.7273 53.3306 65.0256C52.6789 64.3238 52.3481 63.4064 52.3481 62.2736C52.3481 61.1407 52.6739 60.2284 53.3306 59.5366C53.9822 58.8448 54.8394 58.499 55.8921 58.499C56.9448 58.499 57.8019 58.8499 58.4686 59.5516C59.1303 60.2534 59.4662 61.1708 59.4662 62.3036C59.4662 63.4365 59.1353 64.3488 58.4686 65.0406Z"
          fill="#01EE8A"/>
    <path d="M77.9479 56.6543C77.6471 56.0878 77.196 55.6417 76.5995 55.3058C76.003 54.975 75.221 54.8096 74.2435 54.8096C73.4264 54.8096 72.6444 54.9399 71.9025 55.2056C71.1606 55.4662 70.4639 55.8272 69.8122 56.2733C69.5315 56.4638 69.2708 56.6793 69.0152 56.8949L68.5089 55.1304H65.6416V69.4418H69.4764V60.2233C69.6769 60.0128 69.8974 59.8073 70.133 59.6218C70.5741 59.2809 71.0453 59.0153 71.5516 58.8298C72.0579 58.6443 72.5542 58.5541 73.0454 58.5541C73.5718 58.5541 74.0079 58.6995 74.3488 58.9952C74.6896 59.286 74.8601 59.8725 74.8601 60.7497V69.4418H78.6948V60.7798C78.6948 60.0178 78.6447 59.2809 78.5494 58.5691C78.4492 57.8573 78.2537 57.2157 77.9479 56.6543Z"
          fill="#01EE8A"/>
    <path d="M83.7879 48.3125C83.0861 48.3125 82.5247 48.5331 82.1036 48.9692C81.6826 49.4103 81.4771 49.9767 81.4771 50.6835C81.4771 51.3452 81.6876 51.8916 82.1036 52.3227C82.5247 52.7538 83.0861 52.9643 83.7879 52.9643C84.4897 52.9643 85.0511 52.7488 85.4722 52.3227C85.8933 51.8916 86.1038 51.3452 86.1038 50.6835C86.1038 49.9817 85.8933 49.4103 85.4722 48.9692C85.0511 48.5281 84.4897 48.3125 83.7879 48.3125Z"
          fill="#01EE8A"/>
    <path d="M85.7176 55.1348H81.8828V69.4462H85.7176V55.1348Z" fill="#01EE8A"/>
    <path d="M97.2922 65.5061C96.796 65.867 96.1744 66.0474 95.4325 66.0474C94.4751 66.0474 93.678 65.7166 93.0314 65.0499C92.3898 64.3882 92.0639 63.4609 92.0639 62.2678C92.0639 61.0748 92.3847 60.1725 93.0314 59.5008C93.673 58.8291 94.4751 58.4932 95.4325 58.4932C96.1744 58.4932 96.796 58.6787 97.2922 59.0496C97.7885 59.4206 98.1845 59.9369 98.4752 60.5986L101.989 59.0747C101.483 57.7664 100.646 56.7287 99.4878 55.9568C98.3249 55.1848 96.9864 54.7988 95.4626 54.7988C93.9387 54.7988 92.7206 55.1146 91.6278 55.7513C90.535 56.3879 89.6929 57.2701 89.0964 58.398C88.4999 59.5309 88.2041 60.8191 88.2041 62.2628C88.2041 63.7065 88.4999 65.0248 89.0964 66.1577C89.6929 67.2906 90.535 68.1779 91.6278 68.8195C92.7206 69.4611 93.9988 69.787 95.4626 69.787C96.9263 69.787 98.2998 69.391 99.4728 68.5989C100.646 67.8069 101.483 66.7693 101.989 65.481L98.4752 63.9571C98.1845 64.6188 97.7885 65.1351 97.2922 65.496V65.5061Z"
          fill="#01EE8A"/>
</svg>
