<svg width="1671" height="501" viewBox="0 0 1671 501" fill="none" xmlns="http://www.w3.org/2000/svg">
<path d="M252.023 295.278C285.606 295.278 319.19 295.356 352.8 295.278C415.177 295.094 464.062 248.111 464.168 188.322C464.275 127.851 415.47 80.6582 352.614 80.5011C334.066 80.4487 315.518 80.0559 296.996 80.6844C287.948 80.9987 282.679 78.2488 277.783 70.3921C244.864 17.7259 185.149 -8.20132 122.825 2.3005C64.5994 12.0952 16.0603 58.8689 3.28686 117.454C-16.3257 207.492 54.354 294.387 148.106 295.225C182.754 295.54 217.375 295.278 252.023 295.278ZM260.326 241.04C217.535 241.04 177.139 243.685 137.275 240.359C90.8647 236.457 56.2434 196.964 54.5669 152.704C52.5444 99.043 93.792 54.5739 146.695 53.4216C202.419 52.1907 245.61 93.8051 245.929 148.907C246.115 179.732 242.443 211.08 260.326 241.04ZM321.292 131.727C328.983 132.015 349.766 133.848 357.457 134.084C386.517 135.027 409.855 159.252 409.775 188.217C409.722 216.972 385.905 241.014 356.792 241.747C327.36 242.481 301.813 220.089 300.535 191.648C299.79 175.148 297.209 146.262 296.969 129.737" fill="#01EE8A"/>
<path d="M705.171 170.289C705.171 186.544 701.378 199.115 693.792 208.11C686.207 217.104 675.045 221.547 660.252 221.547C645.46 221.547 634.623 217.05 627.037 208.11C619.451 199.169 615.658 186.544 615.658 170.289V42.4679H573.882V171.21C573.882 191.041 577.35 207.622 584.34 221.06C591.276 234.443 601.191 244.576 614.087 251.403C626.929 258.23 642.371 261.698 660.252 261.698C678.133 261.698 693.901 258.284 706.742 251.403C719.584 244.576 729.446 234.443 736.327 221.06C743.154 207.676 746.622 191.041 746.622 171.21V42.4679H705.171V170.289Z" fill="black"/>
<path d="M903.052 110.04C892.378 103.213 880.024 99.7452 865.882 99.7452C851.74 99.7452 840.524 103.051 830.283 109.715C825.894 112.587 821.993 116.055 818.416 119.902L813.702 103.213H782.709V318H824.16V247.777C826.002 249.294 827.845 250.757 829.849 252.003C839.982 258.451 851.902 261.648 865.611 261.648C879.32 261.648 892.161 258.235 902.944 251.353C913.727 244.526 922.071 234.935 928.086 222.744C934.1 210.498 937.08 196.464 937.08 180.642C937.08 164.821 934.1 150.516 928.086 138.433C922.071 126.35 913.727 116.813 903.107 109.932L903.052 110.04ZM884.684 211.582C877.803 219.493 869.133 223.448 858.567 223.448C848.001 223.448 839.277 219.493 832.288 211.582C825.352 203.671 821.83 193.376 821.83 180.751C821.83 168.126 825.298 157.506 832.288 149.595C839.223 141.684 848.001 137.728 858.567 137.728C869.133 137.728 877.803 141.738 884.684 149.757C891.511 157.777 894.979 168.126 894.979 180.751C894.979 193.376 891.565 203.671 884.684 211.582Z" fill="black"/>
<path d="M998.74 137.074C1002.32 134.961 1006.43 133.932 1011.09 133.932C1019.55 133.932 1026.92 135.503 1033.26 138.7C1039.59 141.897 1044.74 145.581 1048.75 149.753L1075.63 127.267C1069.5 119.464 1061.43 112.8 1051.41 107.327C1041.38 101.854 1029.3 99.0911 1015.16 99.0911C1003.13 99.0911 992.725 101.313 984.001 105.756C975.224 110.199 968.559 116.159 963.899 123.637C959.239 131.114 956.963 139.404 956.963 148.453C956.963 161.728 960.973 172.023 968.992 179.284C977.012 186.545 989.041 192.288 1005.08 196.515C1013.75 198.628 1020.3 200.633 1024.86 202.529C1029.41 204.425 1032.5 206.376 1034.18 208.381C1035.86 210.386 1036.72 212.661 1036.72 215.208C1036.72 219.001 1035.15 222.144 1031.95 224.69C1028.81 227.237 1024.59 228.483 1019.28 228.483C1011.47 228.483 1004.43 226.858 998.252 223.553C992.021 220.302 985.519 214.883 978.8 207.243L953.496 229.404C961.732 241.433 971.16 249.886 981.834 254.709C992.508 259.585 1003.72 261.969 1015.54 261.969C1026.7 261.969 1036.78 259.91 1045.77 255.792C1054.71 251.674 1061.86 245.876 1067.12 238.399C1072.38 230.922 1075.03 222.09 1075.03 211.957C1075.03 199.278 1070.91 189.2 1062.68 181.614C1054.44 174.028 1040.84 168.014 1021.88 163.57C1010.71 160.807 1003.13 158.206 999.227 155.66C995.326 153.113 993.375 149.97 993.375 146.177C993.375 142.168 995.163 139.133 998.74 137.02V137.074Z" fill="black"/>
<path d="M1214.99 110.04C1202.86 103.213 1188.77 99.7454 1172.78 99.7454C1156.8 99.7454 1142.66 103.159 1130.57 110.04C1118.44 116.922 1109.01 126.404 1102.24 138.541C1095.46 150.679 1092.1 164.767 1092.1 180.751C1092.1 196.735 1095.46 210.878 1102.24 222.961C1109.01 235.098 1118.44 244.58 1130.57 251.462C1142.71 258.289 1156.8 261.757 1172.78 261.757C1188.77 261.757 1202.91 258.343 1214.99 251.462C1227.13 244.634 1236.56 235.098 1243.33 222.961C1250.1 210.823 1253.46 196.735 1253.46 180.751C1253.46 164.767 1250.1 150.625 1243.33 138.541C1236.56 126.404 1227.13 116.922 1214.99 110.04ZM1200.58 210.336C1193.43 217.813 1184.11 221.552 1172.73 221.552C1161.35 221.552 1152.08 217.759 1145.04 210.173C1138 202.587 1134.42 192.672 1134.42 180.426C1134.42 168.18 1137.94 158.319 1145.04 150.841C1152.08 143.364 1161.35 139.625 1172.73 139.625C1184.11 139.625 1193.37 143.418 1200.58 151.004C1207.73 158.59 1211.36 168.505 1211.36 180.751C1211.36 192.997 1207.79 202.858 1200.58 210.336Z" fill="black"/>
<path d="M1411.13 119.685C1407.88 113.562 1403.01 108.74 1396.56 105.11C1390.11 101.533 1381.66 99.7454 1371.09 99.7454C1362.26 99.7454 1353.81 101.154 1345.79 104.026C1337.77 106.844 1330.24 110.745 1323.19 115.567C1320.16 117.626 1317.34 119.956 1314.58 122.286L1309.11 103.213H1278.11V257.91H1319.56V158.264C1321.73 155.989 1324.11 153.767 1326.66 151.762C1331.43 148.078 1336.52 145.206 1342 143.201C1347.47 141.196 1352.83 140.221 1358.14 140.221C1363.83 140.221 1368.55 141.792 1372.23 144.989C1375.92 148.132 1377.76 154.472 1377.76 163.954V257.91H1419.21V164.279C1419.21 156.043 1418.67 148.078 1417.64 140.384C1416.55 132.689 1414.44 125.754 1411.13 119.685Z" fill="black"/>
<path d="M1474.27 29.5215C1466.68 29.5215 1460.61 31.9056 1456.06 36.6197C1451.51 41.3879 1449.29 47.5107 1449.29 55.1507C1449.29 62.303 1451.56 68.2091 1456.06 72.869C1460.61 77.5288 1466.68 79.8046 1474.27 79.8046C1481.85 79.8046 1487.92 77.4747 1492.47 72.869C1497.02 68.2091 1499.3 62.303 1499.3 55.1507C1499.3 47.5649 1497.02 41.3879 1492.47 36.6197C1487.92 31.8514 1481.85 29.5215 1474.27 29.5215Z" fill="black"/>
<path d="M1495.12 103.265H1453.67V257.962H1495.12V103.265Z" fill="black"/>
<path d="M1620.23 215.372C1614.87 219.273 1608.15 221.224 1600.13 221.224C1589.78 221.224 1581.17 217.648 1574.18 210.441C1567.24 203.289 1563.72 193.265 1563.72 180.369C1563.72 167.473 1567.19 157.72 1574.18 150.459C1581.11 143.198 1589.78 139.568 1600.13 139.568C1608.15 139.568 1614.87 141.573 1620.23 145.582C1625.6 149.592 1629.88 155.173 1633.02 162.325L1671.01 145.853C1665.53 131.711 1656.48 120.495 1643.97 112.151C1631.4 103.806 1616.93 99.634 1600.46 99.634C1583.99 99.634 1570.82 103.048 1559.01 109.929C1547.19 116.81 1538.09 126.347 1531.64 138.538C1525.2 150.784 1522 164.709 1522 180.315C1522 195.92 1525.2 210.17 1531.64 222.416C1538.09 234.661 1547.19 244.252 1559.01 251.188C1570.82 258.123 1584.64 261.645 1600.46 261.645C1616.28 261.645 1631.13 257.365 1643.81 248.804C1656.48 240.243 1665.53 229.026 1671.01 215.101L1633.02 198.629C1629.88 205.781 1625.6 211.362 1620.23 215.264V215.372Z" fill="black"/>
<path d="M1206.4 377.371H1190.07C1189.77 375.258 1189.16 373.381 1188.24 371.741C1187.32 370.075 1186.14 368.658 1184.7 367.49C1183.26 366.322 1181.59 365.427 1179.7 364.805C1177.84 364.184 1175.81 363.873 1173.62 363.873C1169.67 363.873 1166.23 364.855 1163.3 366.819C1160.36 368.758 1158.09 371.592 1156.47 375.32C1154.86 379.024 1154.05 383.523 1154.05 388.818C1154.05 394.262 1154.86 398.836 1156.47 402.54C1158.11 406.244 1160.4 409.04 1163.33 410.929C1166.27 412.819 1169.66 413.763 1173.51 413.763C1175.67 413.763 1177.68 413.477 1179.51 412.906C1181.38 412.334 1183.03 411.501 1184.47 410.407C1185.92 409.289 1187.11 407.934 1188.05 406.343C1189.02 404.752 1189.69 402.937 1190.07 400.899L1206.4 400.974C1205.98 404.479 1204.92 407.859 1203.23 411.116C1201.56 414.347 1199.31 417.243 1196.48 419.804C1193.67 422.339 1190.32 424.353 1186.41 425.844C1182.54 427.311 1178.15 428.044 1173.25 428.044C1166.44 428.044 1160.35 426.503 1154.98 423.42C1149.64 420.338 1145.41 415.876 1142.3 410.034C1139.22 404.193 1137.68 397.121 1137.68 388.818C1137.68 380.491 1139.25 373.406 1142.38 367.565C1145.51 361.723 1149.76 357.273 1155.13 354.216C1160.5 351.134 1166.54 349.592 1173.25 349.592C1177.68 349.592 1181.78 350.214 1185.56 351.457C1189.36 352.7 1192.73 354.514 1195.66 356.901C1198.59 359.262 1200.98 362.158 1202.82 365.588C1204.68 369.019 1205.88 372.946 1206.4 377.371ZM1243.56 428.119C1237.76 428.119 1232.75 426.888 1228.53 424.427C1224.33 421.941 1221.08 418.486 1218.8 414.061C1216.51 409.612 1215.37 404.454 1215.37 398.587C1215.37 392.671 1216.51 387.501 1218.8 383.076C1221.08 378.626 1224.33 375.171 1228.53 372.71C1232.75 370.224 1237.76 368.982 1243.56 368.982C1249.35 368.982 1254.34 370.224 1258.54 372.71C1262.77 375.171 1266.03 378.626 1268.31 383.076C1270.6 387.501 1271.74 392.671 1271.74 398.587C1271.74 404.454 1270.6 409.612 1268.31 414.061C1266.03 418.486 1262.77 421.941 1258.54 424.427C1254.34 426.888 1249.35 428.119 1243.56 428.119ZM1243.63 415.814C1246.26 415.814 1248.46 415.068 1250.23 413.577C1251.99 412.06 1253.32 409.997 1254.22 407.387C1255.14 404.777 1255.6 401.806 1255.6 398.475C1255.6 395.145 1255.14 392.174 1254.22 389.564C1253.32 386.954 1251.99 384.891 1250.23 383.374C1248.46 381.858 1246.26 381.1 1243.63 381.1C1240.97 381.1 1238.73 381.858 1236.92 383.374C1235.13 384.891 1233.77 386.954 1232.85 389.564C1231.96 392.174 1231.51 395.145 1231.51 398.475C1231.51 401.806 1231.96 404.777 1232.85 407.387C1233.77 409.997 1235.13 412.06 1236.92 413.577C1238.73 415.068 1240.97 415.814 1243.63 415.814ZM1303.18 427.932C1298.83 427.932 1294.89 426.814 1291.36 424.576C1287.85 422.314 1285.07 418.996 1283 414.621C1280.97 410.221 1279.95 404.827 1279.95 398.438C1279.95 391.876 1281 386.419 1283.12 382.069C1285.23 377.694 1288.04 374.425 1291.54 372.263C1295.07 370.075 1298.94 368.982 1303.14 368.982C1306.35 368.982 1309.02 369.528 1311.16 370.622C1313.32 371.691 1315.06 373.033 1316.38 374.649C1317.72 376.24 1318.74 377.806 1319.43 379.347H1319.92V350.636H1335.77V427H1320.11V417.827H1319.43C1318.69 419.418 1317.63 420.997 1316.26 422.563C1314.92 424.104 1313.17 425.384 1311.01 426.403C1308.87 427.423 1306.26 427.932 1303.18 427.932ZM1308.21 415.292C1310.77 415.292 1312.93 414.596 1314.7 413.204C1316.49 411.787 1317.86 409.811 1318.8 407.275C1319.77 404.74 1320.25 401.769 1320.25 398.364C1320.25 394.958 1319.78 392 1318.84 389.489C1317.89 386.979 1316.53 385.04 1314.74 383.673C1312.95 382.305 1310.77 381.622 1308.21 381.622C1305.6 381.622 1303.4 382.33 1301.61 383.747C1299.82 385.164 1298.47 387.128 1297.55 389.638C1296.63 392.149 1296.17 395.058 1296.17 398.364C1296.17 401.695 1296.63 404.64 1297.55 407.201C1298.49 409.736 1299.85 411.725 1301.61 413.167C1303.4 414.583 1305.6 415.292 1308.21 415.292ZM1374.93 428.119C1369.04 428.119 1363.96 426.925 1359.71 424.539C1355.49 422.128 1352.23 418.722 1349.94 414.322C1347.66 409.898 1346.51 404.665 1346.51 398.625C1346.51 392.733 1347.66 387.563 1349.94 383.113C1352.23 378.664 1355.45 375.196 1359.6 372.71C1363.78 370.224 1368.67 368.982 1374.29 368.982C1378.07 368.982 1381.59 369.591 1384.84 370.809C1388.13 372.002 1390.98 373.804 1393.42 376.215C1395.88 378.626 1397.8 381.659 1399.16 385.313C1400.53 388.942 1401.21 393.193 1401.21 398.065V402.428H1352.85V392.584H1386.26C1386.26 390.297 1385.76 388.271 1384.77 386.506C1383.78 384.741 1382.4 383.362 1380.63 382.368C1378.89 381.348 1376.87 380.839 1374.55 380.839C1372.14 380.839 1370 381.398 1368.14 382.517C1366.3 383.61 1364.86 385.089 1363.81 386.954C1362.77 388.793 1362.24 390.844 1362.21 393.106V402.465C1362.21 405.299 1362.73 407.748 1363.78 409.811C1364.85 411.874 1366.35 413.465 1368.29 414.583C1370.23 415.702 1372.53 416.261 1375.19 416.261C1376.95 416.261 1378.57 416.013 1380.03 415.516C1381.5 415.018 1382.76 414.273 1383.8 413.278C1384.84 412.284 1385.64 411.066 1386.19 409.624L1400.88 410.594C1400.13 414.124 1398.6 417.206 1396.29 419.841C1394 422.451 1391.05 424.489 1387.42 425.956C1383.81 427.398 1379.65 428.119 1374.93 428.119ZM1411.88 427V350.636H1427.76V379.347H1428.25C1428.94 377.806 1429.95 376.24 1431.27 374.649C1432.61 373.033 1434.35 371.691 1436.49 370.622C1438.65 369.528 1441.33 368.982 1444.54 368.982C1448.72 368.982 1452.57 370.075 1456.1 372.263C1459.63 374.425 1462.45 377.694 1464.56 382.069C1466.68 386.419 1467.73 391.876 1467.73 398.438C1467.73 404.827 1466.7 410.221 1464.64 414.621C1462.6 418.996 1459.82 422.314 1456.29 424.576C1452.78 426.814 1448.85 427.932 1444.5 427.932C1441.42 427.932 1438.8 427.423 1436.64 426.403C1434.5 425.384 1432.75 424.104 1431.38 422.563C1430.01 420.997 1428.97 419.418 1428.25 417.827H1427.54V427H1411.88ZM1427.43 398.364C1427.43 401.769 1427.9 404.74 1428.84 407.275C1429.79 409.811 1431.16 411.787 1432.94 413.204C1434.73 414.596 1436.91 415.292 1439.47 415.292C1442.06 415.292 1444.24 414.583 1446.03 413.167C1447.82 411.725 1449.18 409.736 1450.1 407.201C1451.04 404.64 1451.51 401.695 1451.51 398.364C1451.51 395.058 1451.05 392.149 1450.13 389.638C1449.21 387.128 1447.86 385.164 1446.07 383.747C1444.28 382.33 1442.08 381.622 1439.47 381.622C1436.88 381.622 1434.7 382.305 1432.91 383.673C1431.14 385.04 1429.79 386.979 1428.84 389.489C1427.9 392 1427.43 394.958 1427.43 398.364ZM1494.66 428.081C1491.01 428.081 1487.75 427.447 1484.89 426.18C1482.04 424.887 1479.77 422.985 1478.11 420.475C1476.47 417.939 1475.65 414.782 1475.65 411.004C1475.65 407.822 1476.23 405.15 1477.4 402.987C1478.57 400.825 1480.16 399.085 1482.17 397.767C1484.19 396.45 1486.47 395.455 1489.03 394.784C1491.62 394.113 1494.33 393.641 1497.16 393.367C1500.49 393.019 1503.18 392.696 1505.22 392.398C1507.25 392.075 1508.73 391.602 1509.65 390.981C1510.57 390.359 1511.03 389.44 1511.03 388.222V387.998C1511.03 385.636 1510.29 383.809 1508.8 382.517C1507.33 381.224 1505.24 380.578 1502.53 380.578C1499.67 380.578 1497.4 381.212 1495.71 382.479C1494.02 383.722 1492.9 385.288 1492.35 387.178L1477.66 385.984C1478.41 382.504 1479.87 379.496 1482.06 376.961C1484.25 374.401 1487.07 372.437 1490.53 371.07C1494.01 369.678 1498.03 368.982 1502.61 368.982C1505.79 368.982 1508.83 369.354 1511.74 370.1C1514.67 370.846 1517.27 372.002 1519.53 373.568C1521.82 375.134 1523.62 377.147 1524.94 379.608C1526.26 382.044 1526.92 384.965 1526.92 388.371V427H1511.85V419.058H1511.41C1510.49 420.848 1509.26 422.426 1507.71 423.793C1506.17 425.136 1504.32 426.192 1502.16 426.963C1500 427.708 1497.5 428.081 1494.66 428.081ZM1499.21 417.119C1501.55 417.119 1503.61 416.659 1505.4 415.739C1507.19 414.795 1508.6 413.527 1509.62 411.936C1510.64 410.345 1511.14 408.543 1511.14 406.529V400.452C1510.65 400.775 1509.96 401.073 1509.09 401.347C1508.25 401.595 1507.29 401.831 1506.22 402.055C1505.15 402.254 1504.09 402.44 1503.02 402.614C1501.95 402.763 1500.98 402.9 1500.11 403.025C1498.24 403.298 1496.62 403.733 1495.22 404.33C1493.83 404.926 1492.75 405.734 1491.98 406.753C1491.21 407.748 1490.82 408.99 1490.82 410.482C1490.82 412.645 1491.61 414.298 1493.17 415.441C1494.76 416.56 1496.78 417.119 1499.21 417.119ZM1586.89 386.059L1572.35 386.954C1572.1 385.711 1571.57 384.592 1570.75 383.598C1569.93 382.579 1568.85 381.771 1567.5 381.174C1566.19 380.553 1564.61 380.242 1562.77 380.242C1560.31 380.242 1558.23 380.764 1556.54 381.808C1554.85 382.827 1554.01 384.195 1554.01 385.91C1554.01 387.277 1554.55 388.433 1555.65 389.377C1556.74 390.322 1558.62 391.08 1561.28 391.652L1571.64 393.74C1577.21 394.884 1581.36 396.723 1584.1 399.259C1586.83 401.794 1588.2 405.125 1588.2 409.251C1588.2 413.005 1587.09 416.299 1584.88 419.132C1582.69 421.966 1579.68 424.179 1575.86 425.77C1572.05 427.336 1567.67 428.119 1562.69 428.119C1555.11 428.119 1549.07 426.54 1544.57 423.383C1540.1 420.201 1537.48 415.876 1536.71 410.407L1552.33 409.587C1552.8 411.899 1553.94 413.664 1555.76 414.882C1557.57 416.075 1559.9 416.672 1562.73 416.672C1565.52 416.672 1567.75 416.137 1569.44 415.068C1571.16 413.974 1572.03 412.57 1572.05 410.855C1572.03 409.413 1571.42 408.232 1570.23 407.312C1569.03 406.368 1567.19 405.647 1564.71 405.15L1554.79 403.174C1549.2 402.055 1545.03 400.116 1542.3 397.357C1539.59 394.598 1538.23 391.08 1538.23 386.805C1538.23 383.126 1539.23 379.956 1541.22 377.297C1543.23 374.637 1546.05 372.586 1549.68 371.144C1553.34 369.702 1557.61 368.982 1562.51 368.982C1569.74 368.982 1575.43 370.51 1579.59 373.568C1583.76 376.625 1586.2 380.789 1586.89 386.059ZM1624.3 428.119C1618.41 428.119 1613.34 426.925 1609.09 424.539C1604.86 422.128 1601.61 418.722 1599.32 414.322C1597.03 409.898 1595.89 404.665 1595.89 398.625C1595.89 392.733 1597.03 387.563 1599.32 383.113C1601.61 378.664 1604.83 375.196 1608.98 372.71C1613.15 370.224 1618.05 368.982 1623.67 368.982C1627.45 368.982 1630.96 369.591 1634.22 370.809C1637.5 372.002 1640.36 373.804 1642.8 376.215C1645.26 378.626 1647.17 381.659 1648.54 385.313C1649.91 388.942 1650.59 393.193 1650.59 398.065V402.428H1602.23V392.584H1635.64C1635.64 390.297 1635.14 388.271 1634.15 386.506C1633.15 384.741 1631.77 383.362 1630.01 382.368C1628.27 381.348 1626.24 380.839 1623.93 380.839C1621.52 380.839 1619.38 381.398 1617.52 382.517C1615.68 383.61 1614.23 385.089 1613.19 386.954C1612.15 388.793 1611.61 390.844 1611.59 393.106V402.465C1611.59 405.299 1612.11 407.748 1613.15 409.811C1614.22 411.874 1615.73 413.465 1617.66 414.583C1619.6 415.702 1621.9 416.261 1624.56 416.261C1626.33 416.261 1627.94 416.013 1629.41 415.516C1630.88 415.018 1632.13 414.273 1633.18 413.278C1634.22 412.284 1635.02 411.066 1635.56 409.624L1650.25 410.594C1649.51 414.124 1647.98 417.206 1645.67 419.841C1643.38 422.451 1640.42 424.489 1636.79 425.956C1633.19 427.398 1629.02 428.119 1624.3 428.119Z" fill="black" fill-opacity="0.4"/>
</svg>
