<svg width="170" height="33" viewBox="0 0 170 33" fill="none" xmlns="http://www.w3.org/2000/svg">
    <path d="M25.6396 30.0401C29.0562 30.0401 32.4728 30.0481 35.8921 30.0401C42.2381 30.0215 47.2114 25.2416 47.2222 19.1589C47.233 13.0069 42.2678 8.20577 35.8732 8.18979C33.9862 8.18446 32.0992 8.14449 30.2149 8.20844C29.2944 8.24041 28.7584 7.96065 28.2602 7.16135C24.9113 1.80334 18.8361 -0.834362 12.4956 0.234042C6.57202 1.23051 1.6339 5.98903 0.334389 11.9492C-1.6609 21.1092 5.52971 29.9495 15.0675 30.0348C18.5925 30.0667 22.1147 30.0401 25.6396 30.0401ZM26.4843 24.5222C22.1309 24.5222 18.0212 24.7913 13.9657 24.453C9.24413 24.056 5.72193 20.0381 5.55137 15.5354C5.34561 10.0761 9.54193 5.55208 14.9241 5.43485C20.5932 5.30962 24.9871 9.54327 25.0196 15.1491C25.0386 18.285 24.6649 21.4742 26.4843 24.5222ZM32.6867 13.4013C33.4691 13.4306 35.5835 13.6171 36.3659 13.641C39.3223 13.737 41.6966 16.2015 41.6885 19.1483C41.6831 22.0737 39.26 24.5196 36.2982 24.5942C33.304 24.6688 30.7049 22.3908 30.575 19.4973C30.4992 17.8187 30.2366 14.88 30.2122 13.1988"
          fill="#01EE8A"/>
    <path d="M71.7405 17.3242C71.7405 18.9779 71.3546 20.2568 70.5828 21.1719C69.8111 22.0869 68.6755 22.539 67.1706 22.539C65.6657 22.539 64.5632 22.0814 63.7915 21.1719C63.0198 20.2623 62.6339 18.9779 62.6339 17.3242V4.32031H58.3838V17.4179C58.3838 19.4355 58.7366 21.1223 59.4477 22.4894C60.1533 23.8509 61.1621 24.8818 62.474 25.5763C63.7805 26.2709 65.3515 26.6237 67.1706 26.6237C68.9897 26.6237 70.5939 26.2764 71.9003 25.5763C73.2068 24.8818 74.21 23.8509 74.9101 22.4894C75.6047 21.1278 75.9575 19.4355 75.9575 17.4179V4.32031H71.7405V17.3242Z"
          fill="white"/>
    <path d="M91.8721 11.1948C90.7861 10.5003 89.5293 10.1475 88.0905 10.1475C86.6518 10.1475 85.5107 10.4837 84.4688 11.1618C84.0223 11.4539 83.6254 11.8067 83.2616 12.1981L82.782 10.5003H79.6289V32.3516H83.8459V25.2075C84.0334 25.3618 84.2208 25.5107 84.4247 25.6375C85.4556 26.2934 86.6683 26.6187 88.063 26.6187C89.4576 26.6187 90.7641 26.2714 91.861 25.5713C92.958 24.8767 93.8069 23.901 94.4188 22.6607C95.0307 21.4149 95.3339 19.9872 95.3339 18.3776C95.3339 16.7679 95.0307 15.3126 94.4188 14.0834C93.8069 12.8541 92.958 11.8839 91.8776 11.1838L91.8721 11.1948ZM90.0033 21.5252C89.3033 22.33 88.4213 22.7324 87.3463 22.7324C86.2714 22.7324 85.3839 22.33 84.6728 21.5252C83.9672 20.7203 83.6089 19.673 83.6089 18.3886C83.6089 17.1042 83.9617 16.0237 84.6728 15.2189C85.3784 14.4141 86.2714 14.0117 87.3463 14.0117C88.4213 14.0117 89.3033 14.4196 90.0033 15.2355C90.6979 16.0513 91.0507 17.1042 91.0507 18.3886C91.0507 19.673 90.7034 20.7203 90.0033 21.5252Z"
          fill="white"/>
    <path d="M101.607 13.9443C101.971 13.7293 102.39 13.6246 102.864 13.6246C103.724 13.6246 104.474 13.7844 105.118 14.1097C105.763 14.4349 106.287 14.8098 106.695 15.2342L109.429 12.9466C108.806 12.1528 107.985 11.4747 106.965 10.918C105.945 10.3612 104.716 10.0801 103.277 10.0801C102.054 10.0801 100.995 10.3061 100.108 10.7581C99.2146 11.2101 98.5366 11.8165 98.0625 12.5772C97.5885 13.3379 97.3569 14.1813 97.3569 15.1019C97.3569 16.4525 97.7649 17.4998 98.5807 18.2385C99.3966 18.9772 100.62 19.5615 102.252 19.9915C103.134 20.2065 103.801 20.4104 104.264 20.6033C104.727 20.7963 105.041 20.9947 105.212 21.1987C105.383 21.4027 105.471 21.6342 105.471 21.8933C105.471 22.2791 105.311 22.5989 104.986 22.8579C104.666 23.117 104.236 23.2438 103.696 23.2438C102.902 23.2438 102.186 23.0784 101.557 22.7422C100.924 22.4114 100.262 21.8602 99.5785 21.0829L97.0042 23.3375C97.842 24.5613 98.8012 25.4212 99.8872 25.9118C100.973 26.408 102.114 26.6505 103.316 26.6505C104.451 26.6505 105.477 26.441 106.392 26.0221C107.301 25.6031 108.029 25.0133 108.564 24.2526C109.098 23.4919 109.369 22.5933 109.369 21.5625C109.369 20.2726 108.95 19.2473 108.112 18.4755C107.274 17.7038 105.89 17.0919 103.961 16.6399C102.825 16.3588 102.054 16.0942 101.657 15.8351C101.26 15.576 101.061 15.2563 101.061 14.8704C101.061 14.4625 101.243 14.1538 101.607 13.9388V13.9443Z"
          fill="white"/>
    <path d="M123.607 11.1948C122.372 10.5003 120.939 10.1475 119.313 10.1475C117.687 10.1475 116.248 10.4947 115.019 11.1948C113.784 11.8949 112.825 12.8596 112.136 14.0944C111.447 15.3292 111.105 16.7624 111.105 18.3886C111.105 20.0148 111.447 21.4535 112.136 22.6828C112.825 23.9176 113.784 24.8822 115.019 25.5823C116.254 26.2769 117.687 26.6297 119.313 26.6297C120.939 26.6297 122.378 26.2824 123.607 25.5823C124.842 24.8878 125.801 23.9176 126.49 22.6828C127.179 21.448 127.521 20.0148 127.521 18.3886C127.521 16.7624 127.179 15.3237 126.49 14.0944C125.801 12.8596 124.842 11.8949 123.607 11.1948ZM122.141 21.3984C121.413 22.1591 120.465 22.5395 119.308 22.5395C118.15 22.5395 117.207 22.1536 116.491 21.3818C115.774 20.6101 115.41 19.6013 115.41 18.3555C115.41 17.1097 115.769 16.1064 116.491 15.3457C117.207 14.585 118.15 14.2046 119.308 14.2046C120.465 14.2046 121.408 14.5905 122.141 15.3622C122.869 16.134 123.238 17.1428 123.238 18.3886C123.238 19.6344 122.874 20.6377 122.141 21.3984Z"
          fill="white"/>
    <path d="M143.562 12.176C143.231 11.5531 142.735 11.0625 142.079 10.6932C141.423 10.3294 140.563 10.1475 139.488 10.1475C138.59 10.1475 137.73 10.2908 136.914 10.5829C136.098 10.8696 135.332 11.2665 134.615 11.7571C134.307 11.9666 134.02 12.2036 133.739 12.4406L133.182 10.5003H130.029V26.2383H134.246V16.1009C134.467 15.8694 134.709 15.6434 134.968 15.4394C135.453 15.0646 135.971 14.7724 136.528 14.5684C137.085 14.3645 137.631 14.2653 138.171 14.2653C138.75 14.2653 139.229 14.4251 139.604 14.7504C139.979 15.0701 140.166 15.715 140.166 16.6797V26.2383H144.383V16.7128C144.383 15.8749 144.328 15.0646 144.224 14.2818C144.113 13.499 143.898 12.7934 143.562 12.176Z"
          fill="white"/>
    <path d="M149.985 3.00293C149.213 3.00293 148.595 3.24548 148.132 3.72506C147.669 4.21016 147.443 4.83307 147.443 5.61032C147.443 6.33797 147.675 6.93882 148.132 7.41289C148.595 7.88696 149.213 8.11849 149.985 8.11849C150.756 8.11849 151.374 7.88145 151.837 7.41289C152.3 6.93882 152.531 6.33797 152.531 5.61032C152.531 4.83858 152.3 4.21016 151.837 3.72506C151.374 3.23997 150.756 3.00293 149.985 3.00293Z"
          fill="white"/>
    <path d="M152.106 10.5049H147.889V26.2429H152.106V10.5049Z" fill="white"/>
    <path d="M164.835 21.9103C164.289 22.3072 163.606 22.5057 162.79 22.5057C161.737 22.5057 160.86 22.1419 160.149 21.4087C159.444 20.6811 159.085 19.6613 159.085 18.3493C159.085 17.0373 159.438 16.0451 160.149 15.3064C160.855 14.5678 161.737 14.1984 162.79 14.1984C163.606 14.1984 164.289 14.4024 164.835 14.8103C165.381 15.2182 165.816 15.786 166.136 16.5136L170 14.8379C169.443 13.3991 168.523 12.258 167.249 11.4091C165.97 10.5602 164.499 10.1357 162.823 10.1357C161.147 10.1357 159.808 10.483 158.606 11.1831C157.404 11.8832 156.478 12.8534 155.822 14.0937C155.166 15.3395 154.841 16.7562 154.841 18.3438C154.841 19.9314 155.166 21.3811 155.822 22.627C156.478 23.8728 157.404 24.8485 158.606 25.5541C159.808 26.2597 161.213 26.618 162.823 26.618C164.432 26.618 165.943 26.1825 167.233 25.3115C168.523 24.4406 169.443 23.2995 170 21.8828L166.136 20.207C165.816 20.9346 165.381 21.5024 164.835 21.8993V21.9103Z"
          fill="white"/>
</svg>
