<svg width="198" height="38" viewBox="0 0 198 38" fill="none" xmlns="http://www.w3.org/2000/svg">
<path d="M29.8626 34.9879C33.8419 34.9879 37.8213 34.9972 41.8038 34.9879C49.1949 34.9662 54.9874 29.399 55 22.3145C55.0126 15.1492 49.2296 9.55731 41.7817 9.53869C39.5839 9.53248 37.3861 9.48593 35.1915 9.56041C34.1194 9.59765 33.4951 9.27181 32.9149 8.34086C29.0143 2.10036 21.9385 -0.971786 14.5537 0.27259C7.65447 1.43318 1.90301 6.97546 0.389465 13.9173C-1.93445 24.586 6.44048 34.8824 17.5493 34.9817C21.6547 35.0189 25.7571 34.9879 29.8626 34.9879ZM30.8464 28.5612C25.776 28.5612 20.9894 28.8746 16.2659 28.4805C10.7667 28.0181 6.66436 23.3385 6.46571 18.0942C6.22606 11.7357 11.1135 6.46654 17.3821 6.33C23.985 6.18415 29.1026 11.1151 29.1405 17.6442C29.1625 21.2966 28.7274 25.0112 30.8464 28.5612ZM38.0704 15.6085C38.9817 15.6426 41.4443 15.8599 42.3556 15.8878C45.7989 15.9995 48.5643 18.87 48.5548 22.3021C48.5485 25.7094 45.7264 28.5581 42.2768 28.645C38.7893 28.7319 35.7622 26.0786 35.6109 22.7086C35.5226 20.7536 35.2167 17.3308 35.1883 15.3727" fill="#01EE8A"/>
<path d="M83.5566 20.1779C83.5566 22.104 83.1072 23.5936 82.2083 24.6593C81.3095 25.7251 79.9869 26.2516 78.2341 26.2516C76.4813 26.2516 75.1973 25.7187 74.2984 24.6593C73.3995 23.6 72.9501 22.104 72.9501 20.1779V5.03223H68V20.2871C68 22.6369 68.4109 24.6016 69.2391 26.1938C70.0609 27.7796 71.2359 28.9803 72.7639 29.7892C74.2856 30.5982 76.1154 31.0091 78.2341 31.0091C80.3528 31.0091 82.2211 30.6046 83.7428 29.7892C85.2644 28.9803 86.4329 27.7796 87.2483 26.1938C88.0573 24.608 88.4682 22.6369 88.4682 20.2871V5.03223H83.5566V20.1779Z" fill="black"/>
<path d="M107.004 13.0387C105.739 12.2298 104.275 11.8188 102.599 11.8188C100.924 11.8188 99.5947 12.2105 98.3812 13.0002C97.8612 13.3405 97.3989 13.7514 96.9752 14.2072L96.4166 12.2298H92.7441V37.6802H97.6557V29.3593C97.874 29.5391 98.0923 29.7125 98.3299 29.8601C99.5305 30.6242 100.943 31.003 102.567 31.003C104.192 31.003 105.713 30.5985 106.991 29.7831C108.269 28.9741 109.257 27.8377 109.97 26.3931C110.683 24.9421 111.036 23.2792 111.036 21.4045C111.036 19.5297 110.683 17.8348 109.97 16.403C109.257 14.9713 108.269 13.8413 107.01 13.0259L107.004 13.0387ZM104.827 25.0705C104.012 26.0079 102.985 26.4766 101.733 26.4766C100.481 26.4766 99.447 26.0079 98.6188 25.0705C97.797 24.1331 97.3797 22.9133 97.3797 21.4173C97.3797 19.9214 97.7906 18.663 98.6188 17.7256C99.4406 16.7882 100.481 16.3195 101.733 16.3195C102.985 16.3195 104.012 16.7946 104.827 17.7449C105.636 18.6951 106.047 19.9214 106.047 21.4173C106.047 22.9133 105.643 24.1331 104.827 25.0705Z" fill="black"/>
<path d="M118.342 16.2424C118.766 15.992 119.254 15.87 119.806 15.87C120.808 15.87 121.681 16.0562 122.432 16.435C123.183 16.8138 123.793 17.2504 124.268 17.7448L127.453 15.0803C126.727 14.1558 125.771 13.3661 124.583 12.7176C123.395 12.0691 121.963 11.7417 120.288 11.7417C118.862 11.7417 117.63 12.0049 116.596 12.5314C115.556 13.0579 114.766 13.7641 114.214 14.6501C113.662 15.5361 113.392 16.5185 113.392 17.5907C113.392 19.1637 113.867 20.3835 114.817 21.2439C115.768 22.1042 117.193 22.7848 119.093 23.2855C120.121 23.5359 120.898 23.7735 121.437 23.9982C121.976 24.2229 122.342 24.4541 122.541 24.6916C122.74 24.9292 122.843 25.1988 122.843 25.5006C122.843 25.95 122.657 26.3224 122.278 26.6241C121.906 26.9259 121.405 27.0736 120.776 27.0736C119.851 27.0736 119.016 26.881 118.284 26.4893C117.546 26.1041 116.776 25.4621 115.98 24.5568L112.981 27.1827C113.957 28.608 115.074 29.6096 116.339 30.181C117.604 30.7589 118.933 31.0414 120.333 31.0414C121.655 31.0414 122.849 30.7974 123.915 30.3094C124.974 29.8215 125.822 29.1345 126.445 28.2485C127.068 27.3625 127.382 26.316 127.382 25.1154C127.382 23.613 126.894 22.4188 125.918 21.5199C124.942 20.6211 123.331 19.9084 121.084 19.382C119.761 19.0545 118.862 18.7463 118.4 18.4446C117.938 18.1428 117.707 17.7704 117.707 17.321C117.707 16.8459 117.918 16.4864 118.342 16.236V16.2424Z" fill="black"/>
<path d="M143.966 13.0387C142.528 12.2298 140.859 11.8188 138.964 11.8188C137.07 11.8188 135.395 12.2233 133.963 13.0387C132.525 13.8541 131.408 14.9777 130.605 16.4158C129.803 17.854 129.405 19.5233 129.405 21.4173C129.405 23.3113 129.803 24.9871 130.605 26.4188C131.408 27.857 132.525 28.9805 133.963 29.7959C135.401 30.6049 137.07 31.0158 138.964 31.0158C140.859 31.0158 142.534 30.6113 143.966 29.7959C145.404 28.987 146.521 27.857 147.324 26.4188C148.126 24.9806 148.524 23.3113 148.524 21.4173C148.524 19.5233 148.126 17.8476 147.324 16.4158C146.521 14.9777 145.404 13.8541 143.966 13.0387ZM142.258 24.9229C141.411 25.8089 140.306 26.2519 138.958 26.2519C137.61 26.2519 136.512 25.8024 135.677 24.9036C134.843 24.0047 134.419 22.8298 134.419 21.3788C134.419 19.9278 134.836 18.7593 135.677 17.8733C136.512 16.9873 137.61 16.5443 138.958 16.5443C140.306 16.5443 141.404 16.9937 142.258 17.8925C143.106 18.7914 143.536 19.9663 143.536 21.4173C143.536 22.8683 143.112 24.0368 142.258 24.9229Z" fill="black"/>
<path d="M167.208 14.1815C166.822 13.456 166.245 12.8846 165.481 12.4545C164.716 12.0307 163.715 11.8188 162.463 11.8188C161.416 11.8188 160.415 11.9858 159.465 12.3261C158.514 12.6599 157.622 13.1222 156.787 13.6936C156.428 13.9376 156.094 14.2137 155.766 14.4897L155.118 12.2298H151.446V30.5599H156.357V18.7529C156.614 18.4832 156.896 18.22 157.198 17.9824C157.763 17.5458 158.367 17.2056 159.015 16.968C159.664 16.7304 160.299 16.6149 160.928 16.6149C161.603 16.6149 162.161 16.8011 162.598 17.1799C163.034 17.5523 163.253 18.3034 163.253 19.427V30.5599H168.164V19.4655C168.164 18.4896 168.1 17.5458 167.978 16.6341C167.85 15.7224 167.599 14.9006 167.208 14.1815Z" fill="black"/>
<path d="M174.688 3.49805C173.789 3.49805 173.07 3.78055 172.531 4.33912C171.991 4.90411 171.728 5.62962 171.728 6.53489C171.728 7.38238 171.998 8.0822 172.531 8.63435C173.07 9.18651 173.789 9.45617 174.688 9.45617C175.587 9.45617 176.306 9.18009 176.845 8.63435C177.384 8.0822 177.654 7.38238 177.654 6.53489C177.654 5.63604 177.384 4.90411 176.845 4.33912C176.306 3.77413 175.587 3.49805 174.688 3.49805Z" fill="black"/>
<path d="M177.159 12.2363H172.248V30.5665H177.159V12.2363Z" fill="black"/>
<path d="M191.984 25.5196C191.349 25.9819 190.552 26.213 189.602 26.213C188.376 26.213 187.355 25.7893 186.527 24.9354C185.705 24.0879 185.288 22.9001 185.288 21.372C185.288 19.844 185.699 18.6883 186.527 17.828C187.349 16.9677 188.376 16.5375 189.602 16.5375C190.552 16.5375 191.349 16.775 191.984 17.2502C192.62 17.7253 193.127 18.3866 193.499 19.234L198 17.2823C197.352 15.6065 196.279 14.2775 194.796 13.2888C193.307 12.3 191.593 11.8057 189.641 11.8057C187.689 11.8057 186.129 12.2101 184.729 13.0255C183.329 13.8409 182.251 14.9709 181.487 16.4155C180.723 17.8665 180.344 19.5165 180.344 21.3656C180.344 23.2147 180.723 24.9032 181.487 26.3543C182.251 27.8053 183.329 28.9417 184.729 29.7635C186.129 30.5853 187.766 31.0026 189.641 31.0026C191.515 31.0026 193.275 30.4954 194.777 29.481C196.279 28.4666 197.352 27.1375 198 25.4875L193.499 23.5357C193.127 24.3832 192.62 25.0445 191.984 25.5068V25.5196Z" fill="black"/>
</svg>
