<svg width="411" height="53" viewBox="0 0 411 53" fill="none" xmlns="http://www.w3.org/2000/svg">
    <rect x="0.5" y="0.5" width="410" height="52" rx="9.5" fill="#171717" fill-opacity="0.6" stroke="#2C2C2C"/>
    <path d="M28 16L37.955 21.94C38.285 22.1417 38.5417 22.4167 38.725 22.765C38.9083 23.1133 39 23.48 39 23.865V35.8C39 36.405 38.7846 36.9229 38.3538 37.3538C37.9229 37.7846 37.405 38 36.8 38H19.2C18.595 38 18.0771 37.7846 17.6463 37.3538C17.2154 36.9229 17 36.405 17 35.8V23.865C17 23.48 17.0917 23.1133 17.275 22.765C17.4583 22.4167 17.715 22.1417 18.045 21.94L28 16ZM28 28.815L36.58 23.7L28 18.585L19.42 23.7L28 28.815ZM28 31.4L19.2 26.12V35.8H36.8V26.12L28 31.4Z"
          fill="#737373"/>
</svg>
