<svg width="21" height="22" viewBox="0 0 21 22" fill="none" xmlns="http://www.w3.org/2000/svg">
<path d="M10.5 3.5C8.51088 3.5 6.60322 4.29018 5.1967 5.6967C3.79018 7.10322 3 9.01088 3 11C3 12.9891 3.79018 14.8968 5.1967 16.3033C6.60322 17.7098 8.51088 18.5 10.5 18.5C12.4891 18.5 14.3968 17.7098 15.8033 16.3033C17.2098 14.8968 18 12.9891 18 11C18 9.01088 17.2098 7.10322 15.8033 5.6967C14.3968 4.29018 12.4891 3.5 10.5 3.5ZM21 11C21 13.7848 19.8938 16.4555 17.9246 18.4246C15.9555 20.3938 13.2848 21.5 10.5 21.5C7.71523 21.5 5.04451 20.3938 3.07538 18.4246C1.10625 16.4555 0 13.7848 0 11C0 8.21523 1.10625 5.54451 3.07538 3.57538C5.04451 1.60625 7.71523 0.5 10.5 0.5C13.2848 0.5 15.9555 1.60625 17.9246 3.57538C19.8938 5.54451 21 8.21523 21 11Z" fill="#000"/>
</svg>
