<svg width="29" height="28" viewBox="0 0 29 28" fill="none" xmlns="http://www.w3.org/2000/svg">
    <path d="M24.1693 7.23245C24.3014 7.23245 24.4021 7.23245 24.4965 7.23245C25.1951 7.23245 25.8936 7.23245 26.5859 7.23245C27.7816 7.24504 28.5305 8.16385 28.2725 9.32809C27.7124 11.8705 27.146 14.4067 26.5733 16.9429C25.8999 19.9384 25.2265 22.934 24.5532 25.9358C24.2763 27.1693 23.2568 28 21.9918 28C15.2644 28 8.53699 28 1.81586 28C0.594982 28 -0.0532166 27.3015 0.00342212 26.0806C0.0160085 25.7722 0.0223017 25.4638 0.0223017 25.1555C0.0223017 17.547 0.0223017 9.93853 0.0223017 2.33006C0.0223017 2.06574 0.0285949 1.79513 0.0915269 1.53711C0.324375 0.630893 1.10473 0.0141597 2.08647 0.00786649C4.52823 -0.0047199 6.96999 0.0015733 9.41175 0.0015733C9.63201 0.0015733 9.77046 0.0959712 9.88374 0.278474C10.4061 1.13435 10.9536 1.97764 11.4696 2.8398C11.5892 3.04119 11.7214 3.11041 11.9605 3.11041C15.3022 3.10412 18.6439 3.10412 21.9856 3.11041C23.068 3.11041 23.8546 3.6768 24.0938 4.63337C24.1504 4.86621 24.163 5.11794 24.1693 5.36338C24.1819 5.97382 24.1693 6.59055 24.1693 7.23875V7.23245ZM11.9101 27.3518C15.2518 27.3518 18.5935 27.3518 21.9352 27.3518C22.9799 27.3518 23.7162 26.7477 23.9427 25.7219C24.2826 24.2052 24.6224 22.6885 24.9622 21.1656C25.8496 17.2135 26.7369 13.255 27.618 9.30292C27.8193 8.3904 27.404 7.88695 26.46 7.88065C25.4342 7.88065 24.4084 7.88065 23.3889 7.88065C17.7314 7.88065 12.0738 7.88065 6.41619 7.88065C5.32117 7.88065 4.61633 8.45963 4.3709 9.53576C3.1689 14.8976 1.9669 20.2594 0.764899 25.6212C0.733433 25.7596 0.70826 25.9044 0.683087 26.0428C0.544637 26.8483 0.947401 27.3455 1.75922 27.3455C5.13867 27.3455 8.52441 27.3455 11.9039 27.3455L11.9101 27.3518ZM0.68938 22.7766C0.68938 22.7766 0.720846 22.7766 0.733433 22.7829C0.758606 22.676 0.783778 22.5753 0.808951 22.4683C1.7844 18.126 2.77243 13.7837 3.71641 9.43507C3.99331 8.17014 5.1135 7.20728 6.51688 7.21987C12.0549 7.25763 17.5866 7.23875 23.1246 7.23875H23.5148C23.5148 6.59684 23.5148 5.98011 23.5148 5.36967C23.5148 4.28095 22.9862 3.75232 21.8912 3.75232C18.4865 3.75232 15.0819 3.75232 11.6836 3.75232C11.3941 3.75232 11.2179 3.66421 11.0606 3.41249C10.5508 2.5629 10.0096 1.72591 9.49356 0.876328C9.39287 0.706411 9.27959 0.643479 9.07821 0.649772C6.82525 0.656066 4.56599 0.649772 2.31302 0.649772C1.21801 0.649772 0.68938 1.1784 0.68938 2.26712C0.68938 8.99455 0.68938 15.7157 0.68938 22.4431V22.7704V22.7766Z"
          fill="#01EE8A"/>
    <path d="M18.1719 15.5899C18.6439 15.6969 19.0782 15.8983 19.2418 16.3514C19.3802 16.7227 19.4306 17.1444 19.4369 17.5471C19.4557 19.7623 19.4432 21.9775 19.4432 24.1865C19.4432 24.3815 19.4432 24.5766 19.4306 24.7717C19.3676 25.5835 18.7887 26.1311 17.9706 26.1311C15.4407 26.1311 12.9045 26.1311 10.3747 26.1311C9.49991 26.1311 8.90835 25.5458 8.89576 24.6647C8.88318 23.7963 8.88318 22.9215 8.88318 22.0531C8.88318 20.4546 8.88318 18.8561 8.89576 17.2576C8.90835 16.2759 9.18525 15.9235 10.1544 15.5774C10.1544 14.8222 10.1418 14.0607 10.1544 13.2929C10.1607 12.909 10.1859 12.5126 10.274 12.135C10.7711 10.14 12.615 8.90658 14.717 9.13942C16.6175 9.35339 18.1342 11.0714 18.1656 13.0538C18.1782 13.8908 18.1656 14.7341 18.1656 15.5837L18.1719 15.5899ZM16.8189 17.824H11.5137V23.9096H16.8189V17.824ZM15.9127 15.5962C15.9316 15.5522 15.9441 15.5333 15.9441 15.5144C15.9441 14.7278 15.9567 13.9348 15.9441 13.1482C15.9379 12.1287 15.1575 11.342 14.1632 11.342C13.1688 11.342 12.3885 12.1287 12.3822 13.1482C12.3822 13.8845 12.3822 14.6208 12.3822 15.3634C12.3822 15.4389 12.3948 15.5207 12.4074 15.5962H15.9127ZM17.5049 15.5899C17.5049 14.6334 17.5678 13.7083 17.4923 12.7958C17.3601 11.1532 16.0071 9.86314 14.4149 9.76874C12.7031 9.66805 11.1613 10.7694 10.8907 12.4496C10.7271 13.4628 10.8215 14.5138 10.8026 15.5459C10.8026 15.5585 10.8278 15.5774 10.8404 15.5899H11.7214C11.7214 15.4389 11.7214 15.3068 11.7214 15.1746C11.7277 14.3942 11.6962 13.6139 11.7592 12.8398C11.8599 11.6189 12.9297 10.6875 14.1569 10.6875C15.3966 10.6875 16.4728 11.6252 16.5672 12.8587C16.6301 13.6454 16.5923 14.432 16.6049 15.2249C16.6049 15.3445 16.6049 15.4641 16.6049 15.5962H17.5049V15.5899ZM18.7635 24.6081H9.56284C9.54396 25.1934 9.84604 25.4891 10.4628 25.4891C12.9297 25.4891 15.4029 25.4891 17.8699 25.4891C17.9328 25.4891 17.9957 25.4891 18.0524 25.4829C18.5306 25.4262 18.7824 25.1178 18.7635 24.6081ZM9.56284 17.1318H18.7635C18.7761 16.5906 18.474 16.257 17.9831 16.257C16.907 16.257 15.8309 16.2507 14.761 16.2507C13.2884 16.2507 11.8095 16.2507 10.3369 16.257C9.84604 16.257 9.54396 16.5906 9.55655 17.1318H9.56284ZM10.8215 21.6692V20.0896H9.57543V21.6692H10.8215ZM18.7635 21.6692V20.0833H17.5049V21.6692H18.7635ZM9.56284 19.3973H10.8152V17.8303H9.56284V19.3973ZM17.5111 17.824V19.4036H18.7572V17.824H17.5111ZM9.56284 23.9096H10.8152V22.3425H9.56284V23.9096ZM18.7635 22.3488H17.4986V23.9096H18.7635V22.3488Z"
          fill="#01EE8A"/>
    <path d="M13.3072 21.9842C13.3072 21.852 13.3009 21.7198 13.3072 21.5877C13.3261 21.3548 13.2632 21.1786 13.0933 20.9898C12.5961 20.436 12.659 19.5865 13.2002 19.0767C13.7478 18.5607 14.6036 18.567 15.1448 19.0956C15.6735 19.6116 15.7175 20.4486 15.2204 21.0087C15.0693 21.1786 15.0127 21.336 15.019 21.5562C15.0316 21.9149 15.019 22.2736 15.019 22.6324C15.019 22.9093 14.8868 23.054 14.6099 23.054C14.3016 23.054 13.9932 23.054 13.6911 23.054C13.4457 23.054 13.3135 22.9218 13.3072 22.6701C13.3072 22.4436 13.3072 22.217 13.3072 21.9967V21.9842ZM14.3078 22.3743C14.3078 22.3743 14.3456 22.3429 14.3456 22.324C14.3456 21.9527 14.3645 21.5877 14.3582 21.2164C14.3582 20.9961 14.4148 20.8325 14.6036 20.6941C14.9749 20.4172 15.0127 19.9137 14.7169 19.5865C14.4274 19.2718 13.9114 19.2655 13.6219 19.5802C13.3198 19.9011 13.345 20.4172 13.7163 20.6878C13.9177 20.8388 13.9743 21.0087 13.968 21.2353C13.9617 21.6129 13.968 21.9842 13.968 22.3743H14.3078Z"
          fill="#01EE8A"/>
</svg>
