<svg width="570" height="342" viewBox="0 0 570 342" fill="none" xmlns="http://www.w3.org/2000/svg">
    <rect x="0.5" y="0.5" width="569" height="340.9" rx="19.5" fill="#12161D" stroke="#12161D"/>
    <circle cx="22.0341" cy="19.0273" r="5.99215" fill="#ED6A5E"/>
    <circle cx="43.0185" cy="19.0273" r="5.99215" fill="#F6BD4F"/>
    <circle cx="64.0029" cy="19.0273" r="5.99215" fill="#61C354"/>
    <path d="M108.45 90.3643C108.45 92.1104 108.207 93.502 107.721 94.5391C107.24 95.5703 106.59 96.0859 105.77 96.0859C104.932 96.0859 104.513 95.626 104.513 94.7061V94.6357L104.53 94.3721H104.478C104.278 94.8877 103.997 95.3037 103.634 95.6201C103.276 95.9307 102.869 96.0859 102.412 96.0859C101.791 96.0859 101.305 95.793 100.953 95.207C100.607 94.6211 100.435 93.7861 100.435 92.7021C100.435 91.7588 100.575 90.8682 100.856 90.0303C101.144 89.1924 101.53 88.5332 102.017 88.0527C102.509 87.5664 103.057 87.3232 103.66 87.3232C104.076 87.3232 104.416 87.4463 104.68 87.6924C104.949 87.9326 105.148 88.3164 105.277 88.8438H105.321L105.603 87.5166H106.622L105.752 91.9727C105.518 93.2031 105.4 94.0176 105.4 94.416C105.4 94.9316 105.544 95.1895 105.831 95.1895C106.288 95.1895 106.66 94.7529 106.947 93.8799C107.24 93.0068 107.387 91.8408 107.387 90.3818C107.387 88.7764 107.067 87.4756 106.429 86.4795C105.79 85.4775 104.943 84.9766 103.889 84.9766C103.021 84.9766 102.254 85.293 101.586 85.9258C100.918 86.5527 100.402 87.4375 100.039 88.5801C99.6758 89.7227 99.4941 91.0234 99.4941 92.4824C99.4941 94.293 99.834 95.7402 100.514 96.8242C101.193 97.9082 102.125 98.4502 103.309 98.4502C103.859 98.4502 104.39 98.3477 104.899 98.1426C105.409 97.9375 105.96 97.5771 106.552 97.0615L107.176 97.8262C106.502 98.4062 105.849 98.8281 105.216 99.0918C104.583 99.3555 103.918 99.4873 103.221 99.4873C102.254 99.4873 101.401 99.2031 100.663 98.6348C99.9307 98.0664 99.3682 97.249 98.9756 96.1826C98.583 95.1104 98.3867 93.877 98.3867 92.4824C98.3867 90.8066 98.6123 89.3213 99.0635 88.0264C99.5146 86.7256 100.159 85.7236 100.997 85.0205C101.835 84.3115 102.805 83.957 103.906 83.957C104.832 83.957 105.635 84.2236 106.314 84.7568C107 85.2842 107.527 86.0342 107.896 87.0068C108.266 87.9736 108.45 89.0928 108.45 90.3643ZM104.812 90.1094C104.812 89.4883 104.709 89.0195 104.504 88.7031C104.299 88.3809 104.023 88.2197 103.678 88.2197C103.309 88.2197 102.969 88.416 102.658 88.8086C102.348 89.1953 102.096 89.7461 101.902 90.4609C101.715 91.1699 101.621 91.9111 101.621 92.6846C101.621 94.3311 101.955 95.1543 102.623 95.1543C103.057 95.1543 103.446 94.876 103.792 94.3193C104.138 93.7627 104.393 93.0244 104.557 92.1045C104.727 91.1846 104.812 90.5195 104.812 90.1094ZM109.953 92.2363C109.953 90.6543 110.331 89.4385 111.087 88.5889C111.843 87.7393 112.936 87.3145 114.365 87.3145C115.432 87.3145 116.311 87.5723 117.002 88.0879C117.693 88.5977 118.121 89.2861 118.285 90.1533L116.598 90.2764C116.504 89.7432 116.27 89.3242 115.895 89.0195C115.52 88.709 114.986 88.5537 114.295 88.5537C113.369 88.5537 112.689 88.8408 112.256 89.415C111.828 89.9893 111.614 90.918 111.614 92.2012C111.614 93.502 111.828 94.4541 112.256 95.0576C112.689 95.6553 113.366 95.9541 114.286 95.9541C114.919 95.9541 115.443 95.7988 115.859 95.4883C116.275 95.1777 116.533 94.7031 116.633 94.0645L118.303 94.1699C118.227 94.7324 118.013 95.2451 117.661 95.708C117.315 96.165 116.855 96.5254 116.281 96.7891C115.707 97.0469 115.065 97.1758 114.356 97.1758C112.921 97.1758 111.828 96.7539 111.078 95.9102C110.328 95.0664 109.953 93.8418 109.953 92.2363ZM126.09 95.752H129.43V97H120.799V95.752H124.508V85.2051H121.968V83.957H126.09V95.752ZM140.073 92.2363C140.073 93.8359 139.704 95.0605 138.966 95.9102C138.233 96.7539 137.173 97.1758 135.784 97.1758C134.425 97.1758 133.382 96.748 132.655 95.8926C131.935 95.0371 131.574 93.8184 131.574 92.2363C131.574 90.6016 131.943 89.374 132.682 88.5537C133.426 87.7275 134.478 87.3145 135.837 87.3145C137.267 87.3145 138.33 87.7217 139.027 88.5361C139.725 89.3506 140.073 90.584 140.073 92.2363ZM138.412 92.2363C138.412 90.9766 138.21 90.0361 137.806 89.415C137.407 88.7939 136.76 88.4834 135.863 88.4834C134.955 88.4834 134.29 88.7998 133.868 89.4326C133.446 90.0654 133.235 91 133.235 92.2363C133.235 93.4668 133.446 94.4043 133.868 95.0488C134.29 95.6875 134.923 96.0068 135.767 96.0068C136.698 96.0068 137.372 95.6934 137.788 95.0664C138.204 94.4395 138.412 93.4961 138.412 92.2363ZM144.45 87.4902V93.5195C144.45 94.4336 144.594 95.0693 144.881 95.4268C145.168 95.7783 145.681 95.9541 146.419 95.9541C147.175 95.9541 147.772 95.6963 148.212 95.1807C148.651 94.665 148.871 93.9385 148.871 93.001V87.4902H150.462V94.9697C150.462 96.0771 150.479 96.7539 150.515 97H149.021C149.015 96.9707 149.009 96.8916 149.003 96.7627C148.997 96.6338 148.988 96.4873 148.977 96.3232C148.971 96.1533 148.962 95.8369 148.95 95.374H148.924C148.561 96.0303 148.139 96.4961 147.658 96.7715C147.184 97.041 146.592 97.1758 145.883 97.1758C144.84 97.1758 144.075 96.918 143.589 96.4023C143.108 95.8809 142.868 95.0225 142.868 93.8271V87.4902H144.45ZM159.629 95.4707C159.342 96.0859 158.961 96.5342 158.486 96.8154C158.012 97.0908 157.42 97.2285 156.711 97.2285C155.527 97.2285 154.657 96.8213 154.101 96.0068C153.544 95.1924 153.266 93.9648 153.266 92.3242C153.266 89.0078 154.414 87.3496 156.711 87.3496C157.42 87.3496 158.012 87.4756 158.486 87.7275C158.967 87.9795 159.351 88.3926 159.638 88.9668H159.655L159.638 87.6396V83.957H161.22V95.04C161.22 96.0303 161.237 96.6836 161.272 97H159.761C159.737 96.9121 159.717 96.6982 159.699 96.3584C159.682 96.0186 159.673 95.7227 159.673 95.4707H159.629ZM154.9 92.2715C154.9 93.5723 155.073 94.5215 155.419 95.1191C155.771 95.7109 156.339 96.0068 157.124 96.0068C157.979 96.0068 158.612 95.6992 159.022 95.084C159.433 94.4629 159.638 93.4785 159.638 92.1309C159.638 90.8711 159.438 89.9541 159.04 89.3799C158.647 88.8057 158.015 88.5186 157.142 88.5186C156.351 88.5186 155.779 88.8203 155.428 89.4238C155.076 90.0273 154.9 90.9766 154.9 92.2715ZM167.223 97V94.3721H169.288V97H167.223ZM101.208 187.49V193.52C101.208 194.434 101.352 195.069 101.639 195.427C101.926 195.778 102.438 195.954 103.177 195.954C103.933 195.954 104.53 195.696 104.97 195.181C105.409 194.665 105.629 193.938 105.629 193.001V187.49H107.22V194.97C107.22 196.077 107.237 196.754 107.272 197H105.778C105.772 196.971 105.767 196.892 105.761 196.763C105.755 196.634 105.746 196.487 105.734 196.323C105.729 196.153 105.72 195.837 105.708 195.374H105.682C105.318 196.03 104.896 196.496 104.416 196.771C103.941 197.041 103.35 197.176 102.641 197.176C101.598 197.176 100.833 196.918 100.347 196.402C99.8662 195.881 99.626 195.022 99.626 193.827V187.49H101.208ZM118.391 192.201C118.391 195.518 117.242 197.176 114.945 197.176C113.504 197.176 112.534 196.637 112.036 195.559H111.992C112.016 195.605 112.027 196.092 112.027 197.018V200.735H110.437V189.459C110.437 188.463 110.419 187.807 110.384 187.49H111.922C111.928 187.514 111.937 187.602 111.948 187.754C111.96 187.9 111.972 188.12 111.983 188.413C112.001 188.7 112.01 188.914 112.01 189.055H112.045C112.338 188.439 112.71 187.994 113.161 187.719C113.618 187.438 114.213 187.297 114.945 187.297C116.105 187.297 116.97 187.698 117.538 188.501C118.106 189.298 118.391 190.531 118.391 192.201ZM116.756 192.201C116.756 190.877 116.577 189.934 116.22 189.371C115.862 188.803 115.3 188.519 114.532 188.519C113.647 188.519 113.009 188.841 112.616 189.485C112.224 190.124 112.027 191.094 112.027 192.395C112.027 193.643 112.224 194.557 112.616 195.137C113.009 195.717 113.642 196.007 114.515 196.007C115.294 196.007 115.862 195.711 116.22 195.119C116.577 194.527 116.756 193.555 116.756 192.201ZM127.197 195.471C126.91 196.086 126.529 196.534 126.055 196.815C125.58 197.091 124.988 197.229 124.279 197.229C123.096 197.229 122.226 196.821 121.669 196.007C121.112 195.192 120.834 193.965 120.834 192.324C120.834 189.008 121.982 187.35 124.279 187.35C124.988 187.35 125.58 187.476 126.055 187.728C126.535 187.979 126.919 188.393 127.206 188.967H127.224L127.206 187.64V183.957H128.788V195.04C128.788 196.03 128.806 196.684 128.841 197H127.329C127.306 196.912 127.285 196.698 127.268 196.358C127.25 196.019 127.241 195.723 127.241 195.471H127.197ZM122.469 192.271C122.469 193.572 122.642 194.521 122.987 195.119C123.339 195.711 123.907 196.007 124.692 196.007C125.548 196.007 126.181 195.699 126.591 195.084C127.001 194.463 127.206 193.479 127.206 192.131C127.206 190.871 127.007 189.954 126.608 189.38C126.216 188.806 125.583 188.519 124.71 188.519C123.919 188.519 123.348 188.82 122.996 189.424C122.645 190.027 122.469 190.977 122.469 192.271ZM140.108 196.024C140.261 196.024 140.434 196.004 140.627 195.963V196.947C140.229 197.041 139.821 197.088 139.405 197.088C138.819 197.088 138.392 196.936 138.122 196.631C137.858 196.32 137.709 195.837 137.674 195.181H137.621C137.24 195.89 136.789 196.399 136.268 196.71C135.752 197.021 135.113 197.176 134.352 197.176C133.426 197.176 132.729 196.924 132.26 196.42C131.791 195.916 131.557 195.225 131.557 194.346C131.557 192.301 132.887 191.264 135.547 191.234L137.621 191.199V190.681C137.621 189.913 137.466 189.362 137.155 189.028C136.845 188.688 136.35 188.519 135.67 188.519C134.979 188.519 134.48 188.642 134.176 188.888C133.871 189.134 133.689 189.515 133.631 190.03L131.979 189.881C132.248 188.17 133.487 187.314 135.696 187.314C136.868 187.314 137.747 187.59 138.333 188.141C138.925 188.686 139.221 189.477 139.221 190.514V194.609C139.221 195.078 139.282 195.433 139.405 195.673C139.528 195.907 139.763 196.024 140.108 196.024ZM134.756 195.972C135.318 195.972 135.816 195.837 136.25 195.567C136.684 195.298 137.021 194.938 137.261 194.486C137.501 194.035 137.621 193.569 137.621 193.089V192.307L135.951 192.342C135.26 192.354 134.732 192.43 134.369 192.57C134.006 192.711 133.722 192.928 133.517 193.221C133.317 193.508 133.218 193.892 133.218 194.372C133.218 194.853 133.347 195.239 133.604 195.532C133.868 195.825 134.252 195.972 134.756 195.972ZM142.912 188.738V187.49H144.406L144.916 185.012H145.971V187.49H149.768V188.738H145.971V194.469C145.971 194.932 146.094 195.274 146.34 195.497C146.592 195.72 147.002 195.831 147.57 195.831C148.355 195.831 149.226 195.731 150.181 195.532V196.736C149.19 197.006 148.209 197.141 147.236 197.141C146.287 197.141 145.575 196.941 145.101 196.543C144.626 196.139 144.389 195.503 144.389 194.636V188.738H142.912ZM154.883 192.579C154.883 193.646 155.117 194.48 155.586 195.084C156.061 195.688 156.708 195.989 157.528 195.989C158.132 195.989 158.659 195.86 159.11 195.603C159.567 195.339 159.872 194.981 160.024 194.53L161.413 194.926C161.155 195.652 160.681 196.209 159.989 196.596C159.304 196.982 158.483 197.176 157.528 197.176C156.146 197.176 155.082 196.745 154.338 195.884C153.594 195.022 153.222 193.789 153.222 192.184C153.222 190.619 153.585 189.418 154.312 188.58C155.044 187.736 156.099 187.314 157.476 187.314C158.853 187.314 159.896 187.733 160.604 188.571C161.313 189.409 161.668 190.675 161.668 192.368V192.579H154.883ZM157.493 188.483C156.708 188.483 156.087 188.741 155.63 189.257C155.173 189.767 154.93 190.47 154.9 191.366H160.033C159.869 189.444 159.022 188.483 157.493 188.483ZM167.223 197V194.372H169.288V197H167.223Z"
          fill="#A7A9AB"/>
    <path d="M183.351 96.0244C183.503 96.0244 183.676 96.0039 183.869 95.9629V96.9473C183.471 97.041 183.063 97.0879 182.647 97.0879C182.062 97.0879 181.634 96.9355 181.364 96.6309C181.101 96.3203 180.951 95.8369 180.916 95.1807H180.863C180.482 95.8896 180.031 96.3994 179.51 96.71C178.994 97.0205 178.355 97.1758 177.594 97.1758C176.668 97.1758 175.971 96.9238 175.502 96.4199C175.033 95.916 174.799 95.2246 174.799 94.3457C174.799 92.3008 176.129 91.2637 178.789 91.2344L180.863 91.1992V90.6807C180.863 89.9131 180.708 89.3623 180.397 89.0283C180.087 88.6885 179.592 88.5186 178.912 88.5186C178.221 88.5186 177.723 88.6416 177.418 88.8877C177.113 89.1338 176.932 89.5146 176.873 90.0303L175.221 89.8809C175.49 88.1699 176.729 87.3145 178.938 87.3145C180.11 87.3145 180.989 87.5898 181.575 88.1406C182.167 88.6855 182.463 89.4766 182.463 90.5137V94.6094C182.463 95.0781 182.524 95.4326 182.647 95.6729C182.771 95.9072 183.005 96.0244 183.351 96.0244ZM177.998 95.9717C178.561 95.9717 179.059 95.8369 179.492 95.5674C179.926 95.2979 180.263 94.9375 180.503 94.4863C180.743 94.0352 180.863 93.5693 180.863 93.0889V92.3066L179.193 92.3418C178.502 92.3535 177.975 92.4297 177.611 92.5703C177.248 92.7109 176.964 92.9277 176.759 93.2207C176.56 93.5078 176.46 93.8916 176.46 94.3721C176.46 94.8525 176.589 95.2393 176.847 95.5322C177.11 95.8252 177.494 95.9717 177.998 95.9717ZM185.627 92.2363C185.627 90.6543 186.005 89.4385 186.761 88.5889C187.517 87.7393 188.609 87.3145 190.039 87.3145C191.105 87.3145 191.984 87.5723 192.676 88.0879C193.367 88.5977 193.795 89.2861 193.959 90.1533L192.271 90.2764C192.178 89.7432 191.943 89.3242 191.568 89.0195C191.193 88.709 190.66 88.5537 189.969 88.5537C189.043 88.5537 188.363 88.8408 187.93 89.415C187.502 89.9893 187.288 90.918 187.288 92.2012C187.288 93.502 187.502 94.4541 187.93 95.0576C188.363 95.6553 189.04 95.9541 189.96 95.9541C190.593 95.9541 191.117 95.7988 191.533 95.4883C191.949 95.1777 192.207 94.7031 192.307 94.0645L193.977 94.1699C193.9 94.7324 193.687 95.2451 193.335 95.708C192.989 96.165 192.529 96.5254 191.955 96.7891C191.381 97.0469 190.739 97.1758 190.03 97.1758C188.595 97.1758 187.502 96.7539 186.752 95.9102C186.002 95.0664 185.627 93.8418 185.627 92.2363ZM196.965 88.7383V87.4902H198.459L198.969 85.0117H200.023V87.4902H203.82V88.7383H200.023V94.4688C200.023 94.9316 200.146 95.2744 200.393 95.4971C200.645 95.7197 201.055 95.8311 201.623 95.8311C202.408 95.8311 203.278 95.7314 204.233 95.5322V96.7363C203.243 97.0059 202.262 97.1406 201.289 97.1406C200.34 97.1406 199.628 96.9414 199.153 96.543C198.679 96.1387 198.441 95.5029 198.441 94.6357V88.7383H196.965ZM212.653 95.752H215.993V97H207.362V95.752H211.071V88.7383H208.268V87.4902H212.653V95.752ZM210.896 85.6445V83.957H212.653V85.6445H210.896ZM223.2 97H221.328L217.522 87.4902H219.298L221.653 93.6777L221.803 94.1436L222.26 95.7607L222.567 94.7324L222.91 93.6953L225.336 87.4902H227.103L223.2 97ZM230.557 92.5791C230.557 93.6455 230.791 94.4805 231.26 95.084C231.734 95.6875 232.382 95.9893 233.202 95.9893C233.806 95.9893 234.333 95.8604 234.784 95.6025C235.241 95.3389 235.546 94.9814 235.698 94.5303L237.087 94.9258C236.829 95.6523 236.354 96.209 235.663 96.5957C234.978 96.9824 234.157 97.1758 233.202 97.1758C231.819 97.1758 230.756 96.7451 230.012 95.8838C229.268 95.0225 228.896 93.7891 228.896 92.1836C228.896 90.6191 229.259 89.418 229.985 88.5801C230.718 87.7363 231.772 87.3145 233.149 87.3145C234.526 87.3145 235.569 87.7334 236.278 88.5713C236.987 89.4092 237.342 90.6748 237.342 92.3682V92.5791H230.557ZM233.167 88.4834C232.382 88.4834 231.761 88.7412 231.304 89.2568C230.847 89.7666 230.604 90.4697 230.574 91.3662H235.707C235.543 89.4443 234.696 88.4834 233.167 88.4834ZM224.896 129.573H223.648L223.297 123.957H225.266L224.896 129.573ZM220.95 129.573H219.711L219.351 123.957H221.319L220.95 129.573ZM235.417 137V131.524H230.829V137H229.15V125.144H230.829V130.118H235.417V125.144H237.096V137H235.417ZM245.085 135.752H248.425V137H239.794V135.752H243.503V128.738H240.699V127.49H245.085V135.752ZM243.327 125.645V123.957H245.085V125.645H243.327ZM257.328 129.573H256.08L255.729 123.957H257.697L257.328 129.573ZM253.382 129.573H252.143L251.782 123.957H253.751L253.382 129.573ZM176.882 187.49V193.52C176.882 194.434 177.025 195.069 177.312 195.427C177.6 195.778 178.112 195.954 178.851 195.954C179.606 195.954 180.204 195.696 180.644 195.181C181.083 194.665 181.303 193.938 181.303 193.001V187.49H182.894V194.97C182.894 196.077 182.911 196.754 182.946 197H181.452C181.446 196.971 181.44 196.892 181.435 196.763C181.429 196.634 181.42 196.487 181.408 196.323C181.402 196.153 181.394 195.837 181.382 195.374H181.355C180.992 196.03 180.57 196.496 180.09 196.771C179.615 197.041 179.023 197.176 178.314 197.176C177.271 197.176 176.507 196.918 176.021 196.402C175.54 195.881 175.3 195.022 175.3 193.827V187.49H176.882ZM194.064 192.201C194.064 195.518 192.916 197.176 190.619 197.176C189.178 197.176 188.208 196.637 187.71 195.559H187.666C187.689 195.605 187.701 196.092 187.701 197.018V200.735H186.11V189.459C186.11 188.463 186.093 187.807 186.058 187.49H187.596C187.602 187.514 187.61 187.602 187.622 187.754C187.634 187.9 187.646 188.12 187.657 188.413C187.675 188.7 187.684 188.914 187.684 189.055H187.719C188.012 188.439 188.384 187.994 188.835 187.719C189.292 187.438 189.887 187.297 190.619 187.297C191.779 187.297 192.644 187.698 193.212 188.501C193.78 189.298 194.064 190.531 194.064 192.201ZM192.43 192.201C192.43 190.877 192.251 189.934 191.894 189.371C191.536 188.803 190.974 188.519 190.206 188.519C189.321 188.519 188.683 188.841 188.29 189.485C187.897 190.124 187.701 191.094 187.701 192.395C187.701 193.643 187.897 194.557 188.29 195.137C188.683 195.717 189.315 196.007 190.188 196.007C190.968 196.007 191.536 195.711 191.894 195.119C192.251 194.527 192.43 193.555 192.43 192.201ZM202.871 195.471C202.584 196.086 202.203 196.534 201.729 196.815C201.254 197.091 200.662 197.229 199.953 197.229C198.77 197.229 197.899 196.821 197.343 196.007C196.786 195.192 196.508 193.965 196.508 192.324C196.508 189.008 197.656 187.35 199.953 187.35C200.662 187.35 201.254 187.476 201.729 187.728C202.209 187.979 202.593 188.393 202.88 188.967H202.897L202.88 187.64V183.957H204.462V195.04C204.462 196.03 204.479 196.684 204.515 197H203.003C202.979 196.912 202.959 196.698 202.941 196.358C202.924 196.019 202.915 195.723 202.915 195.471H202.871ZM198.143 192.271C198.143 193.572 198.315 194.521 198.661 195.119C199.013 195.711 199.581 196.007 200.366 196.007C201.222 196.007 201.854 195.699 202.265 195.084C202.675 194.463 202.88 193.479 202.88 192.131C202.88 190.871 202.681 189.954 202.282 189.38C201.89 188.806 201.257 188.519 200.384 188.519C199.593 188.519 199.021 188.82 198.67 189.424C198.318 190.027 198.143 190.977 198.143 192.271ZM215.782 196.024C215.935 196.024 216.107 196.004 216.301 195.963V196.947C215.902 197.041 215.495 197.088 215.079 197.088C214.493 197.088 214.065 196.936 213.796 196.631C213.532 196.32 213.383 195.837 213.348 195.181H213.295C212.914 195.89 212.463 196.399 211.941 196.71C211.426 197.021 210.787 197.176 210.025 197.176C209.1 197.176 208.402 196.924 207.934 196.42C207.465 195.916 207.23 195.225 207.23 194.346C207.23 192.301 208.561 191.264 211.221 191.234L213.295 191.199V190.681C213.295 189.913 213.14 189.362 212.829 189.028C212.519 188.688 212.023 188.519 211.344 188.519C210.652 188.519 210.154 188.642 209.85 188.888C209.545 189.134 209.363 189.515 209.305 190.03L207.652 189.881C207.922 188.17 209.161 187.314 211.37 187.314C212.542 187.314 213.421 187.59 214.007 188.141C214.599 188.686 214.895 189.477 214.895 190.514V194.609C214.895 195.078 214.956 195.433 215.079 195.673C215.202 195.907 215.437 196.024 215.782 196.024ZM210.43 195.972C210.992 195.972 211.49 195.837 211.924 195.567C212.357 195.298 212.694 194.938 212.935 194.486C213.175 194.035 213.295 193.569 213.295 193.089V192.307L211.625 192.342C210.934 192.354 210.406 192.43 210.043 192.57C209.68 192.711 209.396 192.928 209.19 193.221C208.991 193.508 208.892 193.892 208.892 194.372C208.892 194.853 209.021 195.239 209.278 195.532C209.542 195.825 209.926 195.972 210.43 195.972ZM218.586 188.738V187.49H220.08L220.59 185.012H221.645V187.49H225.441V188.738H221.645V194.469C221.645 194.932 221.768 195.274 222.014 195.497C222.266 195.72 222.676 195.831 223.244 195.831C224.029 195.831 224.899 195.731 225.854 195.532V196.736C224.864 197.006 223.883 197.141 222.91 197.141C221.961 197.141 221.249 196.941 220.774 196.543C220.3 196.139 220.062 195.503 220.062 194.636V188.738H218.586ZM230.557 192.579C230.557 193.646 230.791 194.48 231.26 195.084C231.734 195.688 232.382 195.989 233.202 195.989C233.806 195.989 234.333 195.86 234.784 195.603C235.241 195.339 235.546 194.981 235.698 194.53L237.087 194.926C236.829 195.652 236.354 196.209 235.663 196.596C234.978 196.982 234.157 197.176 233.202 197.176C231.819 197.176 230.756 196.745 230.012 195.884C229.268 195.022 228.896 193.789 228.896 192.184C228.896 190.619 229.259 189.418 229.985 188.58C230.718 187.736 231.772 187.314 233.149 187.314C234.526 187.314 235.569 187.733 236.278 188.571C236.987 189.409 237.342 190.675 237.342 192.368V192.579H230.557ZM233.167 188.483C232.382 188.483 231.761 188.741 231.304 189.257C230.847 189.767 230.604 190.47 230.574 191.366H235.707C235.543 189.444 234.696 188.483 233.167 188.483Z"
          fill="#01EE8A"/>
    <path d="M105.576 115.471C105.289 116.086 104.908 116.534 104.434 116.815C103.959 117.091 103.367 117.229 102.658 117.229C101.475 117.229 100.604 116.821 100.048 116.007C99.4912 115.192 99.2129 113.965 99.2129 112.324C99.2129 109.008 100.361 107.35 102.658 107.35C103.367 107.35 103.959 107.476 104.434 107.728C104.914 107.979 105.298 108.393 105.585 108.967H105.603L105.585 107.64V103.957H107.167V115.04C107.167 116.03 107.185 116.684 107.22 117H105.708C105.685 116.912 105.664 116.698 105.646 116.358C105.629 116.019 105.62 115.723 105.62 115.471H105.576ZM100.848 112.271C100.848 113.572 101.021 114.521 101.366 115.119C101.718 115.711 102.286 116.007 103.071 116.007C103.927 116.007 104.56 115.699 104.97 115.084C105.38 114.463 105.585 113.479 105.585 112.131C105.585 110.871 105.386 109.954 104.987 109.38C104.595 108.806 103.962 108.519 103.089 108.519C102.298 108.519 101.727 108.82 101.375 109.424C101.023 110.027 100.848 110.977 100.848 112.271ZM111.641 112.579C111.641 113.646 111.875 114.48 112.344 115.084C112.818 115.688 113.466 115.989 114.286 115.989C114.89 115.989 115.417 115.86 115.868 115.603C116.325 115.339 116.63 114.981 116.782 114.53L118.171 114.926C117.913 115.652 117.438 116.209 116.747 116.596C116.062 116.982 115.241 117.176 114.286 117.176C112.903 117.176 111.84 116.745 111.096 115.884C110.352 115.022 109.979 113.789 109.979 112.184C109.979 110.619 110.343 109.418 111.069 108.58C111.802 107.736 112.856 107.314 114.233 107.314C115.61 107.314 116.653 107.733 117.362 108.571C118.071 109.409 118.426 110.675 118.426 112.368V112.579H111.641ZM114.251 108.483C113.466 108.483 112.845 108.741 112.388 109.257C111.931 109.767 111.688 110.47 111.658 111.366H116.791C116.627 109.444 115.78 108.483 114.251 108.483ZM124.719 108.738V117H123.137V108.738H120.834V107.49H123.137V107.271C123.137 106.069 123.418 105.217 123.98 104.713C124.549 104.209 125.492 103.957 126.811 103.957C127.232 103.957 127.687 103.978 128.173 104.019C128.665 104.054 129.034 104.095 129.28 104.142V105.416C129.104 105.387 128.747 105.354 128.208 105.319C127.675 105.284 127.271 105.267 126.995 105.267C126.386 105.267 125.926 105.334 125.615 105.469C125.305 105.604 125.076 105.823 124.93 106.128C124.789 106.433 124.719 106.857 124.719 107.402V107.49H129.034V108.738H124.719ZM150.427 128.932C149.771 128.82 149.149 128.765 148.563 128.765C147.62 128.765 146.858 129.119 146.278 129.828C145.698 130.537 145.408 131.439 145.408 132.535V137H143.826V130.839C143.826 130.394 143.785 129.869 143.703 129.266C143.627 128.662 143.516 128.07 143.369 127.49H144.872C145.106 128.299 145.247 129.031 145.294 129.688H145.338C145.631 129.031 145.918 128.551 146.199 128.246C146.48 127.936 146.814 127.704 147.201 127.552C147.588 127.394 148.06 127.314 148.616 127.314C149.226 127.314 149.829 127.364 150.427 127.464V128.932ZM154.883 132.579C154.883 133.646 155.117 134.48 155.586 135.084C156.061 135.688 156.708 135.989 157.528 135.989C158.132 135.989 158.659 135.86 159.11 135.603C159.567 135.339 159.872 134.981 160.024 134.53L161.413 134.926C161.155 135.652 160.681 136.209 159.989 136.596C159.304 136.982 158.483 137.176 157.528 137.176C156.146 137.176 155.082 136.745 154.338 135.884C153.594 135.022 153.222 133.789 153.222 132.184C153.222 130.619 153.585 129.418 154.312 128.58C155.044 127.736 156.099 127.314 157.476 127.314C158.853 127.314 159.896 127.733 160.604 128.571C161.313 129.409 161.668 130.675 161.668 132.368V132.579H154.883ZM157.493 128.483C156.708 128.483 156.087 128.741 155.63 129.257C155.173 129.767 154.93 130.47 154.9 131.366H160.033C159.869 129.444 159.022 128.483 157.493 128.483ZM164.533 128.738V127.49H166.027L166.537 125.012H167.592V127.49H171.389V128.738H167.592V134.469C167.592 134.932 167.715 135.274 167.961 135.497C168.213 135.72 168.623 135.831 169.191 135.831C169.977 135.831 170.847 135.731 171.802 135.532V136.736C170.812 137.006 169.83 137.141 168.857 137.141C167.908 137.141 167.196 136.941 166.722 136.543C166.247 136.139 166.01 135.503 166.01 134.636V128.738H164.533ZM176.882 127.49V133.52C176.882 134.434 177.025 135.069 177.312 135.427C177.6 135.778 178.112 135.954 178.851 135.954C179.606 135.954 180.204 135.696 180.644 135.181C181.083 134.665 181.303 133.938 181.303 133.001V127.49H182.894V134.97C182.894 136.077 182.911 136.754 182.946 137H181.452C181.446 136.971 181.44 136.892 181.435 136.763C181.429 136.634 181.42 136.487 181.408 136.323C181.402 136.153 181.394 135.837 181.382 135.374H181.355C180.992 136.03 180.57 136.496 180.09 136.771C179.615 137.041 179.023 137.176 178.314 137.176C177.271 137.176 176.507 136.918 176.021 136.402C175.54 135.881 175.3 135.022 175.3 133.827V127.49H176.882ZM193.669 128.932C193.013 128.82 192.392 128.765 191.806 128.765C190.862 128.765 190.101 129.119 189.521 129.828C188.94 130.537 188.65 131.439 188.65 132.535V137H187.068V130.839C187.068 130.394 187.027 129.869 186.945 129.266C186.869 128.662 186.758 128.07 186.611 127.49H188.114C188.349 128.299 188.489 129.031 188.536 129.688H188.58C188.873 129.031 189.16 128.551 189.441 128.246C189.723 127.936 190.057 127.704 190.443 127.552C190.83 127.394 191.302 127.314 191.858 127.314C192.468 127.314 193.071 127.364 193.669 127.464V128.932ZM202.924 137V130.892C202.924 130.095 202.769 129.503 202.458 129.116C202.153 128.729 201.664 128.536 200.99 128.536C200.264 128.536 199.666 128.803 199.197 129.336C198.734 129.863 198.503 130.581 198.503 131.489V137H196.921V129.521C196.921 128.413 196.903 127.736 196.868 127.49H198.362C198.368 127.52 198.374 127.599 198.38 127.728C198.386 127.856 198.392 128.006 198.397 128.176C198.409 128.34 198.421 128.653 198.433 129.116H198.459C199.074 127.915 200.088 127.314 201.5 127.314C202.514 127.314 203.27 127.59 203.768 128.141C204.266 128.686 204.515 129.526 204.515 130.663V137H202.924Z"
          fill="#C587C0"/>
    <path d="M145.909 117V110.971C145.909 110.068 145.836 109.438 145.689 109.081C145.549 108.718 145.288 108.536 144.907 108.536C144.532 108.536 144.228 108.817 143.993 109.38C143.765 109.942 143.65 110.704 143.65 111.665V117H142.165V109.521C142.165 108.413 142.147 107.736 142.112 107.49H143.422L143.475 108.606V109.028H143.492C143.691 108.431 143.943 107.997 144.248 107.728C144.553 107.452 144.934 107.314 145.391 107.314C145.906 107.314 146.29 107.455 146.542 107.736C146.8 108.018 146.984 108.451 147.096 109.037H147.113C147.348 108.416 147.626 107.974 147.948 107.71C148.276 107.446 148.689 107.314 149.188 107.314C149.879 107.314 150.374 107.566 150.673 108.07C150.972 108.574 151.121 109.438 151.121 110.663V117H149.645V110.971C149.645 110.068 149.571 109.438 149.425 109.081C149.284 108.718 149.023 108.536 148.643 108.536C148.256 108.536 147.948 108.782 147.72 109.274C147.497 109.767 147.386 110.505 147.386 111.489V117H145.909ZM154.619 120.735C154.186 120.735 153.822 120.703 153.529 120.639V119.452C153.752 119.487 153.998 119.505 154.268 119.505C154.73 119.505 155.164 119.332 155.568 118.986C155.979 118.641 156.324 118.09 156.605 117.334L156.764 116.903L152.633 107.49H154.32L156.641 113.133C157.174 114.445 157.461 115.189 157.502 115.365L157.862 114.398L160.587 107.49H162.257L158.249 117C157.728 118.377 157.186 119.344 156.623 119.9C156.066 120.457 155.398 120.735 154.619 120.735ZM162.819 118.934V118.09H173.7V118.934H162.819ZM178.771 108.738V117H177.189V108.738H174.887V107.49H177.189V107.271C177.189 106.069 177.471 105.217 178.033 104.713C178.602 104.209 179.545 103.957 180.863 103.957C181.285 103.957 181.739 103.978 182.226 104.019C182.718 104.054 183.087 104.095 183.333 104.142V105.416C183.157 105.387 182.8 105.354 182.261 105.319C181.728 105.284 181.323 105.267 181.048 105.267C180.438 105.267 179.979 105.334 179.668 105.469C179.357 105.604 179.129 105.823 178.982 106.128C178.842 106.433 178.771 106.857 178.771 107.402V107.49H183.087V108.738H178.771ZM187.692 107.49V113.52C187.692 114.434 187.836 115.069 188.123 115.427C188.41 115.778 188.923 115.954 189.661 115.954C190.417 115.954 191.015 115.696 191.454 115.181C191.894 114.665 192.113 113.938 192.113 113.001V107.49H193.704V114.97C193.704 116.077 193.722 116.754 193.757 117H192.263C192.257 116.971 192.251 116.892 192.245 116.763C192.239 116.634 192.23 116.487 192.219 116.323C192.213 116.153 192.204 115.837 192.192 115.374H192.166C191.803 116.03 191.381 116.496 190.9 116.771C190.426 117.041 189.834 117.176 189.125 117.176C188.082 117.176 187.317 116.918 186.831 116.402C186.351 115.881 186.11 115.022 186.11 113.827V107.49H187.692ZM202.924 117V110.892C202.924 110.095 202.769 109.503 202.458 109.116C202.153 108.729 201.664 108.536 200.99 108.536C200.264 108.536 199.666 108.803 199.197 109.336C198.734 109.863 198.503 110.581 198.503 111.489V117H196.921V109.521C196.921 108.413 196.903 107.736 196.868 107.49H198.362C198.368 107.52 198.374 107.599 198.38 107.728C198.386 107.856 198.392 108.006 198.397 108.176C198.409 108.34 198.421 108.653 198.433 109.116H198.459C199.074 107.915 200.088 107.314 201.5 107.314C202.514 107.314 203.27 107.59 203.768 108.141C204.266 108.686 204.515 109.526 204.515 110.663V117H202.924ZM207.248 112.236C207.248 110.654 207.626 109.438 208.382 108.589C209.138 107.739 210.23 107.314 211.66 107.314C212.727 107.314 213.605 107.572 214.297 108.088C214.988 108.598 215.416 109.286 215.58 110.153L213.893 110.276C213.799 109.743 213.564 109.324 213.189 109.02C212.814 108.709 212.281 108.554 211.59 108.554C210.664 108.554 209.984 108.841 209.551 109.415C209.123 109.989 208.909 110.918 208.909 112.201C208.909 113.502 209.123 114.454 209.551 115.058C209.984 115.655 210.661 115.954 211.581 115.954C212.214 115.954 212.738 115.799 213.154 115.488C213.57 115.178 213.828 114.703 213.928 114.064L215.598 114.17C215.521 114.732 215.308 115.245 214.956 115.708C214.61 116.165 214.15 116.525 213.576 116.789C213.002 117.047 212.36 117.176 211.651 117.176C210.216 117.176 209.123 116.754 208.373 115.91C207.623 115.066 207.248 113.842 207.248 112.236ZM218.586 108.738V107.49H220.08L220.59 105.012H221.645V107.49H225.441V108.738H221.645V114.469C221.645 114.932 221.768 115.274 222.014 115.497C222.266 115.72 222.676 115.831 223.244 115.831C224.029 115.831 224.899 115.731 225.854 115.532V116.736C224.864 117.006 223.883 117.141 222.91 117.141C221.961 117.141 221.249 116.941 220.774 116.543C220.3 116.139 220.062 115.503 220.062 114.636V108.738H218.586ZM234.274 115.752H237.614V117H228.983V115.752H232.692V108.738H229.889V107.49H234.274V115.752ZM232.517 105.645V103.957H234.274V105.645H232.517ZM248.179 112.236C248.179 113.836 247.81 115.061 247.071 115.91C246.339 116.754 245.278 117.176 243.89 117.176C242.53 117.176 241.487 116.748 240.761 115.893C240.04 115.037 239.68 113.818 239.68 112.236C239.68 110.602 240.049 109.374 240.787 108.554C241.531 107.728 242.583 107.314 243.942 107.314C245.372 107.314 246.436 107.722 247.133 108.536C247.83 109.351 248.179 110.584 248.179 112.236ZM246.518 112.236C246.518 110.977 246.315 110.036 245.911 109.415C245.513 108.794 244.865 108.483 243.969 108.483C243.061 108.483 242.396 108.8 241.974 109.433C241.552 110.065 241.341 111 241.341 112.236C241.341 113.467 241.552 114.404 241.974 115.049C242.396 115.688 243.028 116.007 243.872 116.007C244.804 116.007 245.478 115.693 245.894 115.066C246.31 114.439 246.518 113.496 246.518 112.236ZM256.977 117V110.892C256.977 110.095 256.821 109.503 256.511 109.116C256.206 108.729 255.717 108.536 255.043 108.536C254.316 108.536 253.719 108.803 253.25 109.336C252.787 109.863 252.556 110.581 252.556 111.489V117H250.974V109.521C250.974 108.413 250.956 107.736 250.921 107.49H252.415C252.421 107.52 252.427 107.599 252.433 107.728C252.438 107.856 252.444 108.006 252.45 108.176C252.462 108.34 252.474 108.653 252.485 109.116H252.512C253.127 107.915 254.141 107.314 255.553 107.314C256.566 107.314 257.322 107.59 257.82 108.141C258.318 108.686 258.567 109.526 258.567 110.663V117H256.977ZM264.808 112.342C264.808 113.953 265.057 115.409 265.555 116.71C266.053 118.011 266.864 119.353 267.989 120.735H266.319C265.194 119.353 264.386 118.014 263.894 116.719C263.407 115.418 263.164 113.953 263.164 112.324C263.164 110.725 263.404 109.283 263.885 108C264.365 106.711 265.177 105.363 266.319 103.957H267.989C266.864 105.34 266.053 106.685 265.555 107.991C265.057 109.292 264.808 110.742 264.808 112.342ZM278.747 112.324C278.747 113.965 278.504 115.433 278.018 116.728C277.537 118.017 276.734 119.353 275.609 120.735H273.922C275.07 119.323 275.891 117.967 276.383 116.666C276.875 115.359 277.121 113.918 277.121 112.342C277.121 110.771 276.875 109.336 276.383 108.035C275.891 106.729 275.07 105.369 273.922 103.957H275.609C276.752 105.363 277.561 106.705 278.035 107.982C278.51 109.26 278.747 110.707 278.747 112.324ZM286.139 117V114.372H288.204V117H286.139ZM286.139 110.118V107.49H288.204V110.118H286.139Z"
          fill="#539DD6"/>
    <path d="M243.187 192.342C243.187 193.953 243.436 195.409 243.934 196.71C244.432 198.011 245.243 199.353 246.368 200.735H244.698C243.573 199.353 242.765 198.014 242.272 196.719C241.786 195.418 241.543 193.953 241.543 192.324C241.543 190.725 241.783 189.283 242.264 188C242.744 186.711 243.556 185.363 244.698 183.957H246.368C245.243 185.34 244.432 186.685 243.934 187.991C243.436 189.292 243.187 190.742 243.187 192.342ZM257.126 192.324C257.126 193.965 256.883 195.433 256.396 196.728C255.916 198.017 255.113 199.353 253.988 200.735H252.301C253.449 199.323 254.27 197.967 254.762 196.666C255.254 195.359 255.5 193.918 255.5 192.342C255.5 190.771 255.254 189.336 254.762 188.035C254.27 186.729 253.449 185.369 252.301 183.957H253.988C255.131 185.363 255.939 186.705 256.414 187.982C256.889 189.26 257.126 190.707 257.126 192.324Z"
          fill="#DCDBAA"/>
    <path d="M48.5693 97V95.7256H52.4277V86.752C52.2109 87.209 51.6953 87.6074 50.8809 87.9473C50.0723 88.2871 49.2754 88.457 48.4902 88.457V87.1562C49.3574 87.1562 50.1748 86.9658 50.9424 86.585C51.7158 86.2041 52.2549 85.7236 52.5596 85.1436H54.0186V95.7256H57.1211V97H48.5693ZM48.4551 117V115.972C48.7422 115.333 49.1875 114.691 49.791 114.047C50.4004 113.396 51.2266 112.655 52.2695 111.823C53.2012 111.079 53.8721 110.432 54.2822 109.881C54.6924 109.33 54.8975 108.8 54.8975 108.29C54.8975 107.64 54.6953 107.139 54.291 106.787C53.8867 106.436 53.3096 106.26 52.5596 106.26C51.8916 106.26 51.3496 106.444 50.9336 106.813C50.5234 107.177 50.2803 107.689 50.2041 108.352L48.5869 108.202C48.7041 107.206 49.1113 106.418 49.8086 105.838C50.5059 105.252 51.4229 104.959 52.5596 104.959C53.8076 104.959 54.7803 105.24 55.4775 105.803C56.1748 106.365 56.5234 107.162 56.5234 108.193C56.5234 108.867 56.3008 109.541 55.8555 110.215C55.4102 110.883 54.7451 111.568 53.8604 112.271C52.6533 113.232 51.8154 113.941 51.3467 114.398C50.8838 114.85 50.5557 115.289 50.3623 115.717H56.7168V117H48.4551ZM56.8486 133.748C56.8486 134.838 56.4795 135.682 55.7412 136.279C55.0029 136.877 53.9717 137.176 52.6475 137.176C51.3936 137.176 50.3916 136.892 49.6416 136.323C48.8916 135.755 48.4492 134.92 48.3145 133.818L49.9492 133.669C50.1602 135.134 51.0596 135.866 52.6475 135.866C53.4443 135.866 54.0684 135.682 54.5195 135.312C54.9766 134.943 55.2051 134.404 55.2051 133.695C55.2051 133.256 55.0703 132.887 54.8008 132.588C54.5371 132.283 54.1768 132.052 53.7197 131.894C53.2627 131.729 52.75 131.647 52.1816 131.647H51.2852V130.276H52.1465C52.6504 130.276 53.1104 130.194 53.5264 130.03C53.9482 129.86 54.2793 129.623 54.5195 129.318C54.7598 129.014 54.8799 128.653 54.8799 128.237C54.8799 127.616 54.6836 127.133 54.291 126.787C53.9043 126.436 53.3271 126.26 52.5596 126.26C51.8623 126.26 51.2969 126.438 50.8633 126.796C50.4355 127.153 50.1865 127.657 50.1162 128.308L48.5254 128.185C48.6426 127.171 49.0615 126.38 49.7822 125.812C50.5088 125.243 51.4404 124.959 52.5771 124.959C53.8193 124.959 54.7832 125.234 55.4688 125.785C56.1602 126.33 56.5059 127.092 56.5059 128.07C56.5059 128.768 56.2744 129.374 55.8115 129.89C55.3486 130.405 54.7158 130.745 53.9131 130.909V130.944C54.7979 131.044 55.5068 131.354 56.04 131.876C56.5791 132.397 56.8486 133.021 56.8486 133.748ZM55.4248 154.196V157H53.8428V154.196H48.0947V152.966L53.6758 145.144H55.4248V152.948H57.0771V154.196H55.4248ZM53.8428 146.857L49.4482 152.948H53.8428V146.857ZM56.8486 173.098C56.8486 173.912 56.6758 174.627 56.3301 175.242C55.9844 175.857 55.4775 176.335 54.8096 176.675C54.1475 177.009 53.3623 177.176 52.4541 177.176C51.2998 177.176 50.3682 176.924 49.6592 176.42C48.9502 175.916 48.502 175.187 48.3145 174.231L49.9141 174.047C50.248 175.271 51.1064 175.884 52.4893 175.884C53.3154 175.884 53.9746 175.638 54.4668 175.146C54.959 174.653 55.2051 173.982 55.2051 173.133C55.2051 172.406 54.9619 171.812 54.4756 171.349C53.9893 170.886 53.3389 170.654 52.5244 170.654C52.0967 170.654 51.6982 170.722 51.3291 170.856C50.96 170.991 50.5908 171.22 50.2217 171.542H48.6748L49.0879 165.144H56.1279V166.418H50.5469L50.292 170.153C50.9775 169.626 51.8301 169.362 52.8496 169.362C54.0449 169.362 55.0088 169.708 55.7412 170.399C56.4795 171.085 56.8486 171.984 56.8486 173.098ZM56.8223 193.08C56.8223 194.322 56.4648 195.315 55.75 196.06C55.041 196.804 54.0654 197.176 52.8232 197.176C51.4404 197.176 50.377 196.672 49.6328 195.664C48.8887 194.65 48.5166 193.215 48.5166 191.357C48.5166 189.318 48.9033 187.742 49.6768 186.629C50.4502 185.516 51.54 184.959 52.9463 184.959C54.8154 184.959 55.9932 185.8 56.4795 187.481L54.9678 187.754C54.6572 186.746 53.9775 186.242 52.9287 186.242C52.0322 186.242 51.335 186.649 50.8369 187.464C50.3389 188.278 50.0898 189.421 50.0898 190.892C50.377 190.358 50.7812 189.954 51.3027 189.679C51.8242 189.397 52.4219 189.257 53.0957 189.257C54.2207 189.257 55.123 189.605 55.8027 190.303C56.4824 190.994 56.8223 191.92 56.8223 193.08ZM55.2139 193.15C55.2139 192.307 54.9883 191.65 54.5371 191.182C54.0918 190.713 53.4854 190.479 52.7178 190.479C52.2842 190.479 51.874 190.578 51.4873 190.777C51.1006 190.971 50.7959 191.243 50.5732 191.595C50.3564 191.94 50.248 192.333 50.248 192.772C50.248 193.663 50.4824 194.407 50.9512 195.005C51.4258 195.603 52.0322 195.901 52.7705 195.901C53.5146 195.901 54.1064 195.655 54.5459 195.163C54.9912 194.671 55.2139 194 55.2139 193.15ZM56.585 206.365C53.8135 210.35 52.4277 213.895 52.4277 217H50.7754C50.7754 215.459 51.1328 213.798 51.8477 212.017C52.5684 210.229 53.6377 208.363 55.0557 206.418H48.5781V205.144H56.585V206.365ZM56.8047 233.678C56.8047 234.756 56.4385 235.608 55.7061 236.235C54.9795 236.862 53.9395 237.176 52.5859 237.176C51.2617 237.176 50.2246 236.868 49.4746 236.253C48.7305 235.638 48.3584 234.785 48.3584 233.695C48.3584 232.939 48.5898 232.298 49.0527 231.771C49.5156 231.237 50.1074 230.909 50.8281 230.786V230.751C50.1719 230.593 49.6445 230.259 49.2461 229.749C48.8477 229.239 48.6484 228.656 48.6484 228C48.6484 227.426 48.8096 226.904 49.1318 226.436C49.46 225.967 49.9199 225.604 50.5117 225.346C51.1035 225.088 51.7832 224.959 52.5508 224.959C53.3535 224.959 54.0537 225.091 54.6514 225.354C55.249 225.612 55.7061 225.973 56.0225 226.436C56.3389 226.898 56.4971 227.426 56.4971 228.018C56.4971 228.68 56.2949 229.266 55.8906 229.775C55.4863 230.285 54.9561 230.604 54.2998 230.733V230.769C55.0615 230.892 55.668 231.214 56.1191 231.735C56.5762 232.251 56.8047 232.898 56.8047 233.678ZM54.8535 228.105C54.8535 227.455 54.6543 226.966 54.2559 226.638C53.8633 226.304 53.2949 226.137 52.5508 226.137C51.8301 226.137 51.2676 226.304 50.8633 226.638C50.4648 226.972 50.2656 227.461 50.2656 228.105C50.2656 228.756 50.4678 229.26 50.8721 229.617C51.2764 229.975 51.8418 230.153 52.5684 230.153C54.0918 230.153 54.8535 229.471 54.8535 228.105ZM55.1611 233.528C55.1611 232.825 54.9326 232.286 54.4756 231.911C54.0186 231.53 53.377 231.34 52.5508 231.34C51.7539 231.34 51.127 231.545 50.6699 231.955C50.2188 232.359 49.9932 232.896 49.9932 233.563C49.9932 234.354 50.2129 234.958 50.6523 235.374C51.0977 235.784 51.748 235.989 52.6035 235.989C53.4648 235.989 54.1064 235.787 54.5283 235.383C54.9502 234.979 55.1611 234.36 55.1611 233.528ZM56.7432 250.821C56.7432 252.849 56.3535 254.416 55.5742 255.523C54.7949 256.625 53.6904 257.176 52.2607 257.176C51.2939 257.176 50.5176 256.974 49.9316 256.569C49.3516 256.159 48.9355 255.5 48.6836 254.592L50.1953 254.354C50.5117 255.386 51.209 255.901 52.2871 255.901C53.1895 255.901 53.8926 255.494 54.3965 254.68C54.9062 253.859 55.167 252.729 55.1787 251.287C54.9443 251.814 54.543 252.239 53.9746 252.562C53.4062 252.878 52.7822 253.036 52.1025 253.036C50.9951 253.036 50.1045 252.664 49.4307 251.92C48.7627 251.17 48.4287 250.194 48.4287 248.993C48.4287 247.751 48.7949 246.77 49.5273 246.049C50.2656 245.322 51.2734 244.959 52.5508 244.959C55.3457 244.959 56.7432 246.913 56.7432 250.821ZM55.0205 249.424C55.0205 248.48 54.7861 247.716 54.3174 247.13C53.8486 246.538 53.2422 246.242 52.498 246.242C51.7363 246.242 51.1357 246.497 50.6963 247.007C50.2568 247.517 50.0371 248.179 50.0371 248.993C50.0371 249.831 50.2568 250.508 50.6963 251.023C51.1357 251.533 51.7305 251.788 52.4805 251.788C52.9258 251.788 53.3447 251.688 53.7373 251.489C54.1357 251.284 54.4492 251.003 54.6777 250.646C54.9062 250.282 55.0205 249.875 55.0205 249.424ZM37.7588 277V275.726H41.6172V266.752C41.4004 267.209 40.8848 267.607 40.0703 267.947C39.2617 268.287 38.4648 268.457 37.6797 268.457V267.156C38.5469 267.156 39.3643 266.966 40.1318 266.585C40.9053 266.204 41.4443 265.724 41.749 265.144H43.208V275.726H46.3105V277H37.7588ZM56.8838 271.067C56.8838 273.048 56.5176 274.562 55.7852 275.611C55.0586 276.654 53.9834 277.176 52.5596 277.176C51.1357 277.176 50.0664 276.657 49.3516 275.62C48.6367 274.577 48.2793 273.06 48.2793 271.067C48.2793 269.022 48.6279 267.493 49.3252 266.479C50.0225 265.466 51.1182 264.959 52.6123 264.959C54.0713 264.959 55.1465 265.472 55.8379 266.497C56.5352 267.517 56.8838 269.04 56.8838 271.067ZM55.2754 271.067C55.2754 269.368 55.0674 268.141 54.6514 267.385C54.2412 266.623 53.5615 266.242 52.6123 266.242C51.6396 266.242 50.9395 266.617 50.5117 267.367C50.0898 268.117 49.8789 269.351 49.8789 271.067C49.8789 272.737 50.0928 273.959 50.5205 274.732C50.9541 275.5 51.6396 275.884 52.5771 275.884C53.5088 275.884 54.1914 275.488 54.625 274.697C55.0586 273.906 55.2754 272.696 55.2754 271.067ZM51.5488 272.122V269.934H53.6143V272.122H51.5488Z"
          fill="#30363D"/>
    <path d="M107.088 241L105.875 237.643H100.927L99.7227 241H98L102.482 229.144H104.39L108.793 241H107.088ZM103.414 230.409L103.309 230.752L102.702 232.615L101.375 236.333H105.444L103.924 231.938L103.414 230.409ZM118.391 236.201C118.391 239.518 117.242 241.176 114.945 241.176C113.504 241.176 112.534 240.637 112.036 239.559H111.992C112.016 239.605 112.027 240.092 112.027 241.018V244.735H110.437V233.459C110.437 232.463 110.419 231.807 110.384 231.49H111.922C111.928 231.514 111.937 231.602 111.948 231.754C111.96 231.9 111.972 232.12 111.983 232.413C112.001 232.7 112.01 232.914 112.01 233.055H112.045C112.338 232.439 112.71 231.994 113.161 231.719C113.618 231.438 114.213 231.297 114.945 231.297C116.105 231.297 116.97 231.698 117.538 232.501C118.106 233.298 118.391 234.531 118.391 236.201ZM116.756 236.201C116.756 234.877 116.577 233.934 116.22 233.371C115.862 232.803 115.3 232.519 114.532 232.519C113.647 232.519 113.009 232.841 112.616 233.485C112.224 234.124 112.027 235.094 112.027 236.395C112.027 237.643 112.224 238.557 112.616 239.137C113.009 239.717 113.642 240.007 114.515 240.007C115.294 240.007 115.862 239.711 116.22 239.119C116.577 238.527 116.756 237.555 116.756 236.201ZM129.201 236.201C129.201 239.518 128.053 241.176 125.756 241.176C124.314 241.176 123.345 240.637 122.847 239.559H122.803C122.826 239.605 122.838 240.092 122.838 241.018V244.735H121.247V233.459C121.247 232.463 121.229 231.807 121.194 231.49H122.732C122.738 231.514 122.747 231.602 122.759 231.754C122.771 231.9 122.782 232.12 122.794 232.413C122.812 232.7 122.82 232.914 122.82 233.055H122.855C123.148 232.439 123.521 231.994 123.972 231.719C124.429 231.438 125.023 231.297 125.756 231.297C126.916 231.297 127.78 231.698 128.349 232.501C128.917 233.298 129.201 234.531 129.201 236.201ZM127.566 236.201C127.566 234.877 127.388 233.934 127.03 233.371C126.673 232.803 126.11 232.519 125.343 232.519C124.458 232.519 123.819 232.841 123.427 233.485C123.034 234.124 122.838 235.094 122.838 236.395C122.838 237.643 123.034 238.557 123.427 239.137C123.819 239.717 124.452 240.007 125.325 240.007C126.104 240.007 126.673 239.711 127.03 239.119C127.388 238.527 127.566 237.555 127.566 236.201ZM136.9 239.752H140.24V241H131.609V239.752H135.318V229.205H132.778V227.957H136.9V239.752ZM147.79 239.752H151.13V241H142.499V239.752H146.208V232.738H143.404V231.49H147.79V239.752ZM146.032 229.645V227.957H147.79V229.645H146.032ZM154.883 236.579C154.883 237.646 155.117 238.48 155.586 239.084C156.061 239.688 156.708 239.989 157.528 239.989C158.132 239.989 158.659 239.86 159.11 239.603C159.567 239.339 159.872 238.981 160.024 238.53L161.413 238.926C161.155 239.652 160.681 240.209 159.989 240.596C159.304 240.982 158.483 241.176 157.528 241.176C156.146 241.176 155.082 240.745 154.338 239.884C153.594 239.022 153.222 237.789 153.222 236.184C153.222 234.619 153.585 233.418 154.312 232.58C155.044 231.736 156.099 231.314 157.476 231.314C158.853 231.314 159.896 231.733 160.604 232.571C161.313 233.409 161.668 234.675 161.668 236.368V236.579H154.883ZM157.493 232.483C156.708 232.483 156.087 232.741 155.63 233.257C155.173 233.767 154.93 234.47 154.9 235.366H160.033C159.869 233.444 159.022 232.483 157.493 232.483ZM170.439 239.471C170.152 240.086 169.771 240.534 169.297 240.815C168.822 241.091 168.23 241.229 167.521 241.229C166.338 241.229 165.468 240.821 164.911 240.007C164.354 239.192 164.076 237.965 164.076 236.324C164.076 233.008 165.225 231.35 167.521 231.35C168.23 231.35 168.822 231.476 169.297 231.728C169.777 231.979 170.161 232.393 170.448 232.967H170.466L170.448 231.64V227.957H172.03V239.04C172.03 240.03 172.048 240.684 172.083 241H170.571C170.548 240.912 170.527 240.698 170.51 240.358C170.492 240.019 170.483 239.723 170.483 239.471H170.439ZM165.711 236.271C165.711 237.572 165.884 238.521 166.229 239.119C166.581 239.711 167.149 240.007 167.935 240.007C168.79 240.007 169.423 239.699 169.833 239.084C170.243 238.463 170.448 237.479 170.448 236.131C170.448 234.871 170.249 233.954 169.851 233.38C169.458 232.806 168.825 232.519 167.952 232.519C167.161 232.519 166.59 232.82 166.238 233.424C165.887 234.027 165.711 234.977 165.711 236.271ZM193.432 241H191.639L190.382 236.86L189.881 235.085L189.538 236.307L188.062 241H186.277L184.669 231.49H186.233L187.051 236.825C187.244 238.372 187.341 239.327 187.341 239.69C187.569 238.753 187.739 238.126 187.851 237.81L189.037 234.083H190.733L191.876 237.818C192.063 238.434 192.225 239.058 192.359 239.69C192.359 239.515 192.371 239.295 192.395 239.031C192.418 238.768 192.447 238.498 192.482 238.223C192.518 237.941 192.553 237.675 192.588 237.423C192.623 237.171 192.649 236.972 192.667 236.825L193.555 231.49H195.102L193.432 241ZM201.843 239.752H205.183V241H196.552V239.752H200.261V232.738H197.457V231.49H201.843V239.752ZM200.085 229.645V227.957H201.843V229.645H200.085ZM207.775 232.738V231.49H209.27L209.779 229.012H210.834V231.49H214.631V232.738H210.834V238.469C210.834 238.932 210.957 239.274 211.203 239.497C211.455 239.72 211.865 239.831 212.434 239.831C213.219 239.831 214.089 239.731 215.044 239.532V240.736C214.054 241.006 213.072 241.141 212.1 241.141C211.15 241.141 210.438 240.941 209.964 240.543C209.489 240.139 209.252 239.503 209.252 238.636V232.738H207.775ZM218.542 227.957H220.133V231.385C220.133 231.73 220.106 232.308 220.054 233.116H220.08C220.695 231.915 221.688 231.314 223.06 231.314C225.11 231.314 226.136 232.431 226.136 234.663V241H224.545V234.892C224.545 234.095 224.39 233.503 224.079 233.116C223.774 232.729 223.285 232.536 222.611 232.536C221.885 232.536 221.287 232.803 220.818 233.336C220.355 233.863 220.124 234.581 220.124 235.489V241H218.542V227.957ZM237.368 236.236C237.368 237.836 236.999 239.061 236.261 239.91C235.528 240.754 234.468 241.176 233.079 241.176C231.72 241.176 230.677 240.748 229.95 239.893C229.229 239.037 228.869 237.818 228.869 236.236C228.869 234.602 229.238 233.374 229.977 232.554C230.721 231.728 231.772 231.314 233.132 231.314C234.562 231.314 235.625 231.722 236.322 232.536C237.02 233.351 237.368 234.584 237.368 236.236ZM235.707 236.236C235.707 234.977 235.505 234.036 235.101 233.415C234.702 232.794 234.055 232.483 233.158 232.483C232.25 232.483 231.585 232.8 231.163 233.433C230.741 234.065 230.53 235 230.53 236.236C230.53 237.467 230.741 238.404 231.163 239.049C231.585 239.688 232.218 240.007 233.062 240.007C233.993 240.007 234.667 239.693 235.083 239.066C235.499 238.439 235.707 237.496 235.707 236.236ZM241.745 231.49V237.52C241.745 238.434 241.889 239.069 242.176 239.427C242.463 239.778 242.976 239.954 243.714 239.954C244.47 239.954 245.067 239.696 245.507 239.181C245.946 238.665 246.166 237.938 246.166 237.001V231.49H247.757V238.97C247.757 240.077 247.774 240.754 247.81 241H246.315C246.31 240.971 246.304 240.892 246.298 240.763C246.292 240.634 246.283 240.487 246.271 240.323C246.266 240.153 246.257 239.837 246.245 239.374H246.219C245.855 240.03 245.434 240.496 244.953 240.771C244.479 241.041 243.887 241.176 243.178 241.176C242.135 241.176 241.37 240.918 240.884 240.402C240.403 239.881 240.163 239.022 240.163 237.827V231.49H241.745ZM251.018 232.738V231.49H252.512L253.021 229.012H254.076V231.49H257.873V232.738H254.076V238.469C254.076 238.932 254.199 239.274 254.445 239.497C254.697 239.72 255.107 239.831 255.676 239.831C256.461 239.831 257.331 239.731 258.286 239.532V240.736C257.296 241.006 256.314 241.141 255.342 241.141C254.393 241.141 253.681 240.941 253.206 240.543C252.731 240.139 252.494 239.503 252.494 238.636V232.738H251.018ZM280.153 232.932C279.497 232.82 278.876 232.765 278.29 232.765C277.347 232.765 276.585 233.119 276.005 233.828C275.425 234.537 275.135 235.439 275.135 236.535V241H273.553V234.839C273.553 234.394 273.512 233.869 273.43 233.266C273.354 232.662 273.242 232.07 273.096 231.49H274.599C274.833 232.299 274.974 233.031 275.021 233.688H275.064C275.357 233.031 275.645 232.551 275.926 232.246C276.207 231.936 276.541 231.704 276.928 231.552C277.314 231.394 277.786 231.314 278.343 231.314C278.952 231.314 279.556 231.364 280.153 231.464V232.932ZM284.609 236.579C284.609 237.646 284.844 238.48 285.312 239.084C285.787 239.688 286.435 239.989 287.255 239.989C287.858 239.989 288.386 239.86 288.837 239.603C289.294 239.339 289.599 238.981 289.751 238.53L291.14 238.926C290.882 239.652 290.407 240.209 289.716 240.596C289.03 240.982 288.21 241.176 287.255 241.176C285.872 241.176 284.809 240.745 284.064 239.884C283.32 239.022 282.948 237.789 282.948 236.184C282.948 234.619 283.312 233.418 284.038 232.58C284.771 231.736 285.825 231.314 287.202 231.314C288.579 231.314 289.622 231.733 290.331 232.571C291.04 233.409 291.395 234.675 291.395 236.368V236.579H284.609ZM287.22 232.483C286.435 232.483 285.813 232.741 285.356 233.257C284.899 233.767 284.656 234.47 284.627 235.366H289.76C289.596 233.444 288.749 232.483 287.22 232.483ZM301.906 238.284C301.906 239.187 301.563 239.896 300.878 240.411C300.198 240.921 299.255 241.176 298.048 241.176C296.841 241.176 295.921 240.988 295.288 240.613C294.661 240.232 294.251 239.635 294.058 238.82L295.455 238.548C295.566 239.052 295.804 239.421 296.167 239.655C296.536 239.884 297.163 239.998 298.048 239.998C299.63 239.998 300.421 239.497 300.421 238.495C300.421 238.12 300.277 237.818 299.99 237.59C299.703 237.355 299.264 237.165 298.672 237.019C297.125 236.638 296.144 236.339 295.728 236.122C295.312 235.905 294.992 235.636 294.77 235.313C294.547 234.985 294.436 234.578 294.436 234.092C294.436 233.23 294.746 232.557 295.367 232.07C295.988 231.584 296.888 231.341 298.065 231.341C299.097 231.341 299.92 231.537 300.535 231.93C301.15 232.316 301.534 232.882 301.687 233.626L300.263 233.802C300.198 233.38 299.99 233.061 299.639 232.844C299.287 232.627 298.763 232.519 298.065 232.519C296.63 232.519 295.912 232.961 295.912 233.846C295.912 234.197 296.032 234.479 296.272 234.689C296.519 234.9 296.911 235.07 297.45 235.199L298.496 235.472C299.451 235.706 300.137 235.938 300.553 236.166C300.975 236.395 301.306 236.682 301.546 237.027C301.786 237.367 301.906 237.786 301.906 238.284ZM305.07 232.738V231.49H306.564L307.074 229.012H308.129V231.49H311.926V232.738H308.129V238.469C308.129 238.932 308.252 239.274 308.498 239.497C308.75 239.72 309.16 239.831 309.729 239.831C310.514 239.831 311.384 239.731 312.339 239.532V240.736C311.349 241.006 310.367 241.141 309.395 241.141C308.445 241.141 307.733 240.941 307.259 240.543C306.784 240.139 306.547 239.503 306.547 238.636V232.738H305.07ZM323.888 240.024C324.04 240.024 324.213 240.004 324.406 239.963V240.947C324.008 241.041 323.601 241.088 323.185 241.088C322.599 241.088 322.171 240.936 321.901 240.631C321.638 240.32 321.488 239.837 321.453 239.181H321.4C321.02 239.89 320.568 240.399 320.047 240.71C319.531 241.021 318.893 241.176 318.131 241.176C317.205 241.176 316.508 240.924 316.039 240.42C315.57 239.916 315.336 239.225 315.336 238.346C315.336 236.301 316.666 235.264 319.326 235.234L321.4 235.199V234.681C321.4 233.913 321.245 233.362 320.935 233.028C320.624 232.688 320.129 232.519 319.449 232.519C318.758 232.519 318.26 232.642 317.955 232.888C317.65 233.134 317.469 233.515 317.41 234.03L315.758 233.881C316.027 232.17 317.267 231.314 319.476 231.314C320.647 231.314 321.526 231.59 322.112 232.141C322.704 232.686 323 233.477 323 234.514V238.609C323 239.078 323.062 239.433 323.185 239.673C323.308 239.907 323.542 240.024 323.888 240.024ZM318.535 239.972C319.098 239.972 319.596 239.837 320.029 239.567C320.463 239.298 320.8 238.938 321.04 238.486C321.28 238.035 321.4 237.569 321.4 237.089V236.307L319.73 236.342C319.039 236.354 318.512 236.43 318.148 236.57C317.785 236.711 317.501 236.928 317.296 237.221C317.097 237.508 316.997 237.892 316.997 238.372C316.997 238.853 317.126 239.239 317.384 239.532C317.647 239.825 318.031 239.972 318.535 239.972ZM334.206 232.932C333.55 232.82 332.929 232.765 332.343 232.765C331.399 232.765 330.638 233.119 330.058 233.828C329.478 234.537 329.188 235.439 329.188 236.535V241H327.605V234.839C327.605 234.394 327.564 233.869 327.482 233.266C327.406 232.662 327.295 232.07 327.148 231.49H328.651C328.886 232.299 329.026 233.031 329.073 233.688H329.117C329.41 233.031 329.697 232.551 329.979 232.246C330.26 231.936 330.594 231.704 330.98 231.552C331.367 231.394 331.839 231.314 332.396 231.314C333.005 231.314 333.608 231.364 334.206 231.464V232.932ZM337.502 232.738V231.49H338.996L339.506 229.012H340.561V231.49H344.357V232.738H340.561V238.469C340.561 238.932 340.684 239.274 340.93 239.497C341.182 239.72 341.592 239.831 342.16 239.831C342.945 239.831 343.815 239.731 344.771 239.532V240.736C343.78 241.006 342.799 241.141 341.826 241.141C340.877 241.141 340.165 240.941 339.69 240.543C339.216 240.139 338.979 239.503 338.979 238.636V232.738H337.502Z"
          fill="#595D75"/>
</svg>
