<svg width="16" height="18" viewBox="0 0 16 18" fill="none" xmlns="http://www.w3.org/2000/svg">
    <path d="M1.9974 9.28333L4.51882 9.96233C4.73441 9.32823 4.98158 8.70428 5.26032 8.09048C5.53894 7.47576 5.85572 6.87867 6.21065 6.2992L4.67351 6.2047C4.5662 6.20151 4.47072 6.2188 4.38706 6.25657C4.30209 6.29498 4.2292 6.35407 4.1684 6.43383L1.9974 9.28333ZM5.36849 10.4688L8.47611 12.8378C9.18771 12.3877 9.89842 11.8448 10.6082 11.2091C11.318 10.5734 11.9805 9.85212 12.5957 9.04518C13.4896 7.87257 14.1339 6.65672 14.5287 5.39762C14.9231 4.13903 15.0515 2.72974 14.9141 1.16974C13.3734 1.45048 12.0485 1.94771 10.9394 2.66143C9.82985 3.37566 8.82794 4.31934 7.93364 5.49247C7.31889 6.29889 6.79884 7.12879 6.37351 7.98216C5.94896 8.8345 5.61396 9.66337 5.36849 10.4688ZM10.1797 7.38031C9.85181 7.13038 9.66143 6.80754 9.60852 6.4118C9.5547 6.01617 9.65275 5.65443 9.90268 5.32658C10.1526 4.99873 10.4754 4.80835 10.8712 4.75544C11.2668 4.70161 11.6286 4.79967 11.9564 5.0496C12.2843 5.29953 12.4746 5.62236 12.5276 6.01811C12.5814 6.41373 12.4833 6.77547 12.2334 7.10332C11.9835 7.43118 11.6606 7.62156 11.2649 7.67447C10.8693 7.72829 10.5075 7.63024 10.1797 7.38031ZM10.5123 15.7744L12.6728 12.9402C12.7336 12.8605 12.7733 12.7724 12.7919 12.676C12.8101 12.5802 12.8035 12.4809 12.772 12.3783L12.2736 10.9211C11.8089 11.4169 11.2647 11.9233 10.6412 12.4405C10.018 12.9572 9.53019 13.3232 9.17772 13.5385L10.513 15.775L10.5123 15.7744ZM15.6953 0.145001C16.0422 1.91467 16.0107 3.58667 15.6009 5.161C15.1905 6.73495 14.4268 8.25454 13.3098 9.71978C13.2644 9.77934 13.2196 9.84347 13.1754 9.91216C13.1312 9.98085 13.0773 10.0462 13.0137 10.1082L13.6693 12.044C13.7638 12.2938 13.791 12.552 13.7507 12.8185C13.7101 13.0856 13.61 13.3238 13.4505 13.5331L10.4199 17.5085L8.27697 13.9144L4.36837 10.9348L0.349706 9.83176L3.39149 5.84158C3.55101 5.63234 3.75182 5.47096 3.99395 5.35745C4.23568 5.24446 4.48925 5.20027 4.75465 5.22488L6.81027 5.35471L7.09455 4.98179C8.21193 3.51603 9.47491 2.37706 10.8835 1.56487C12.2921 0.752684 13.896 0.279393 15.6953 0.145001Z"
          fill="#01EE8A"/>
</svg>
