<svg width="54" height="43" viewBox="0 0 54 43" fill="none" xmlns="http://www.w3.org/2000/svg">
    <path d="M27.0006 9.03773C29.1015 9.03773 31.2084 8.98261 33.3092 9.04998C38.2949 9.21535 42.7231 12.5473 44.334 17.2757C46.7472 24.3682 42.3679 31.8834 34.9875 33.2799C34.2218 33.4269 33.4256 33.482 32.6416 33.4881C28.881 33.5065 25.1203 33.5065 21.3596 33.4943C15.9575 33.482 11.3333 30.1746 9.63668 25.1338C7.35211 18.3291 11.4313 10.9793 18.4258 9.35622C19.3874 9.13573 20.398 9.04998 21.3903 9.02548C23.2584 8.97648 25.1264 9.01323 26.9945 9.01323C26.9945 9.01935 26.9945 9.02548 26.9945 9.03773H27.0006ZM32.4456 11.7817C33.1684 11.8613 33.8605 11.898 34.5403 12.0205C39.6607 12.927 43.1151 18.1331 41.9759 23.2045C40.9714 27.6695 37.2353 30.6646 32.6355 30.6768C28.8871 30.683 25.1387 30.6891 21.3903 30.6707C20.7472 30.6707 20.0979 30.6095 19.4671 30.4992C14.5549 29.6417 11.0944 24.7112 11.9335 19.793C12.7114 15.2667 16.3189 12.0328 20.9125 11.8674C23.485 11.7755 26.0574 11.8429 28.6299 11.8368C28.7768 11.8368 28.9238 11.8184 29.0647 11.8123V10.0238C28.9545 10.0177 28.8748 10.0055 28.7952 10.0055C26.2657 10.0055 23.7422 9.99933 21.2127 10.0055C20.6492 10.0055 20.0796 10.0422 19.5283 10.1341C12.9318 11.1692 8.68732 17.6187 10.3533 24.0804C11.6334 29.066 16.1045 32.4898 21.3596 32.502C25.1203 32.5082 28.881 32.5143 32.6416 32.4959C33.3521 32.4959 34.0749 32.4286 34.7792 32.3122C40.9408 31.2893 45.1547 24.9746 43.7582 18.8742C42.6496 14.0479 38.8155 10.6057 33.9095 10.0667C33.4256 10.0116 32.9356 10.0606 32.4456 10.0606V11.7817ZM32.4456 14.6175C32.9662 14.6665 33.4685 14.691 33.9646 14.7706C37.3333 15.328 39.7893 18.6783 39.3177 22.0653C38.8461 25.434 36.1573 27.8288 32.7396 27.8472C28.9116 27.8717 25.0774 27.8839 21.2433 27.8472C16.9253 27.8104 13.8751 23.964 14.7938 19.7746C15.4492 16.7857 18.1257 14.6726 21.2984 14.6542C23.7422 14.642 26.186 14.6542 28.6299 14.6542C28.7707 14.6542 28.9055 14.6542 29.0647 14.6542V12.8413C28.9361 12.8351 28.8197 12.8229 28.7095 12.8229C26.2412 12.8229 23.7728 12.8229 21.3045 12.8229C20.8574 12.8229 20.4103 12.8596 19.9693 12.9209C15.198 13.5701 11.909 18.3598 12.9931 23.0636C13.8996 27.0203 17.2499 29.6724 21.3658 29.6785C25.1142 29.6846 28.8626 29.6846 32.611 29.6785C33.1377 29.6785 33.6706 29.6417 34.1912 29.556C38.0009 28.9129 40.9592 25.5993 41.1736 21.8509C41.4185 17.5635 38.6072 14.0724 34.914 13.1046C34.1055 12.8903 33.2847 12.7984 32.4456 12.8413V14.6175ZM32.4456 17.4594C32.5743 17.4655 32.6906 17.4594 32.8009 17.4778C33.3276 17.588 33.885 17.6309 34.3627 17.8453C35.9552 18.5496 36.8249 20.2952 36.488 21.9673C36.1206 23.7741 34.6506 25.0114 32.7458 25.0236C28.9177 25.0481 25.0836 25.0604 21.2555 25.0236C18.7076 24.9991 16.9559 22.7329 17.5561 20.3258C17.9849 18.6109 19.4854 17.4839 21.3719 17.4778C23.8035 17.4717 26.235 17.4778 28.6666 17.4778C28.8013 17.4778 28.9361 17.4594 29.077 17.4533V15.6709C28.9606 15.6648 28.8565 15.6464 28.7523 15.6464C26.2473 15.6464 23.7483 15.6342 21.2433 15.6526C20.7227 15.6526 20.1837 15.7261 19.6814 15.8669C17.0049 16.6203 15.3144 19.1989 15.6513 21.9612C15.9943 24.7419 18.334 26.8304 21.2249 26.8488C25.0652 26.8794 28.9116 26.8733 32.7519 26.8488C35.3856 26.8304 37.5966 25.0971 38.2091 22.6288C38.8277 20.1298 37.713 17.5574 35.4652 16.3263C34.5281 15.8118 33.5236 15.5913 32.4456 15.6526V17.4533V17.4594ZM26.9639 24.0436C27.8091 24.0436 28.6544 24.0436 29.4996 24.0436C30.7001 24.0436 31.9005 24.0804 33.0949 24.0069C34.7425 23.9028 35.9001 22.2184 35.4958 20.6137C35.1651 19.2785 34.081 18.47 32.6049 18.47C28.8687 18.47 25.1326 18.47 21.4025 18.47C21.2372 18.47 21.0718 18.4823 20.9125 18.4945C19.2649 18.6538 18.1135 20.2891 18.5116 21.8999C18.8362 23.2168 19.9264 24.0375 21.3719 24.0436C23.24 24.0497 25.1081 24.0436 26.9761 24.0436H26.9639ZM30.1059 11.8062H31.4228V10.0238H30.1059V11.8062ZM30.1059 12.8413V14.6358H31.4167V12.8413H30.1059ZM30.1059 15.6648V17.4594H31.4167V15.6648H30.1059Z"
          fill="#01EE8A"/>
    <g filter="url(#filter0_f_38_55)">
        <path d="M27.0006 9.03773C29.1015 9.03773 31.2084 8.98261 33.3092 9.04998C38.2949 9.21535 42.7231 12.5473 44.334 17.2757C46.7472 24.3682 42.3679 31.8834 34.9875 33.2799C34.2218 33.4269 33.4256 33.482 32.6416 33.4881C28.881 33.5065 25.1203 33.5065 21.3596 33.4943C15.9575 33.482 11.3333 30.1746 9.63668 25.1338C7.35211 18.3291 11.4313 10.9793 18.4258 9.35622C19.3874 9.13573 20.398 9.04998 21.3903 9.02548C23.2584 8.97648 25.1264 9.01323 26.9945 9.01323C26.9945 9.01935 26.9945 9.02548 26.9945 9.03773H27.0006ZM32.4456 11.7817C33.1684 11.8613 33.8605 11.898 34.5403 12.0205C39.6607 12.927 43.1151 18.1331 41.9759 23.2045C40.9714 27.6695 37.2353 30.6646 32.6355 30.6768C28.8871 30.683 25.1387 30.6891 21.3903 30.6707C20.7472 30.6707 20.0979 30.6095 19.4671 30.4992C14.5549 29.6417 11.0944 24.7112 11.9335 19.793C12.7114 15.2667 16.3189 12.0328 20.9125 11.8674C23.485 11.7755 26.0574 11.8429 28.6299 11.8368C28.7768 11.8368 28.9238 11.8184 29.0647 11.8123V10.0238C28.9545 10.0177 28.8748 10.0055 28.7952 10.0055C26.2657 10.0055 23.7422 9.99933 21.2127 10.0055C20.6492 10.0055 20.0796 10.0422 19.5283 10.1341C12.9318 11.1692 8.68732 17.6187 10.3533 24.0804C11.6334 29.066 16.1045 32.4898 21.3596 32.502C25.1203 32.5082 28.881 32.5143 32.6416 32.4959C33.3521 32.4959 34.0749 32.4286 34.7792 32.3122C40.9408 31.2893 45.1547 24.9746 43.7582 18.8742C42.6496 14.0479 38.8155 10.6057 33.9095 10.0667C33.4256 10.0116 32.9356 10.0606 32.4456 10.0606V11.7817ZM32.4456 14.6175C32.9662 14.6665 33.4685 14.691 33.9646 14.7706C37.3333 15.328 39.7893 18.6783 39.3177 22.0653C38.8461 25.434 36.1573 27.8288 32.7396 27.8472C28.9116 27.8717 25.0774 27.8839 21.2433 27.8472C16.9253 27.8104 13.8751 23.964 14.7938 19.7746C15.4492 16.7857 18.1257 14.6726 21.2984 14.6542C23.7422 14.642 26.186 14.6542 28.6299 14.6542C28.7707 14.6542 28.9055 14.6542 29.0647 14.6542V12.8413C28.9361 12.8351 28.8197 12.8229 28.7095 12.8229C26.2412 12.8229 23.7728 12.8229 21.3045 12.8229C20.8574 12.8229 20.4103 12.8596 19.9693 12.9209C15.198 13.5701 11.909 18.3598 12.9931 23.0636C13.8996 27.0203 17.2499 29.6724 21.3658 29.6785C25.1142 29.6846 28.8626 29.6846 32.611 29.6785C33.1377 29.6785 33.6706 29.6417 34.1912 29.556C38.0009 28.9129 40.9592 25.5993 41.1736 21.8509C41.4185 17.5635 38.6072 14.0724 34.914 13.1046C34.1055 12.8903 33.2847 12.7984 32.4456 12.8413V14.6175ZM32.4456 17.4594C32.5743 17.4655 32.6906 17.4594 32.8009 17.4778C33.3276 17.588 33.885 17.6309 34.3627 17.8453C35.9552 18.5496 36.8249 20.2952 36.488 21.9673C36.1206 23.7741 34.6506 25.0114 32.7458 25.0236C28.9177 25.0481 25.0836 25.0604 21.2555 25.0236C18.7076 24.9991 16.9559 22.7329 17.5561 20.3258C17.9849 18.6109 19.4854 17.4839 21.3719 17.4778C23.8035 17.4717 26.235 17.4778 28.6666 17.4778C28.8013 17.4778 28.9361 17.4594 29.077 17.4533V15.6709C28.9606 15.6648 28.8565 15.6464 28.7523 15.6464C26.2473 15.6464 23.7483 15.6342 21.2433 15.6526C20.7227 15.6526 20.1837 15.7261 19.6814 15.8669C17.0049 16.6203 15.3144 19.1989 15.6513 21.9612C15.9943 24.7419 18.334 26.8304 21.2249 26.8488C25.0652 26.8794 28.9116 26.8733 32.7519 26.8488C35.3856 26.8304 37.5966 25.0971 38.2091 22.6288C38.8277 20.1298 37.713 17.5574 35.4652 16.3263C34.5281 15.8118 33.5236 15.5913 32.4456 15.6526V17.4533V17.4594ZM26.9639 24.0436C27.8091 24.0436 28.6544 24.0436 29.4996 24.0436C30.7001 24.0436 31.9005 24.0804 33.0949 24.0069C34.7425 23.9028 35.9001 22.2184 35.4958 20.6137C35.1651 19.2785 34.081 18.47 32.6049 18.47C28.8687 18.47 25.1326 18.47 21.4025 18.47C21.2372 18.47 21.0718 18.4823 20.9125 18.4945C19.2649 18.6538 18.1135 20.2891 18.5116 21.8999C18.8362 23.2168 19.9264 24.0375 21.3719 24.0436C23.24 24.0497 25.1081 24.0436 26.9761 24.0436H26.9639ZM30.1059 11.8062H31.4228V10.0238H30.1059V11.8062ZM30.1059 12.8413V14.6358H31.4167V12.8413H30.1059ZM30.1059 15.6648V17.4594H31.4167V15.6648H30.1059Z"
              fill="#01EE8A"/>
    </g>
    <defs>
        <filter id="filter0_f_38_55" x="0" y="0" width="54" height="42.502" filterUnits="userSpaceOnUse"
                color-interpolation-filters="sRGB">
            <feFlood flood-opacity="0" result="BackgroundImageFix"/>
            <feBlend mode="normal" in="SourceGraphic" in2="BackgroundImageFix" result="shape"/>
            <feGaussianBlur stdDeviation="4.5" result="effect1_foregroundBlur_38_55"/>
        </filter>
    </defs>
</svg>
