<svg width="54" height="53" viewBox="0 0 54 53" fill="none" xmlns="http://www.w3.org/2000/svg">
    <path d="M26.1832 35.849H22.5437C20.9914 35.849 20.2152 35.849 19.9272 35.3455C19.6393 34.842 20.0328 34.173 20.8198 32.835L25.7523 24.4498C26.1272 23.8125 26.3146 23.4939 26.4989 23.544C26.6832 23.5942 26.6832 23.9639 26.6832 24.7033V30.3854C26.6832 30.6211 26.6832 30.7389 26.7565 30.8121C26.8297 30.8854 26.9475 30.8854 27.1832 30.8854H30.8228C32.3751 30.8854 33.1512 30.8854 33.4392 31.3889C33.7272 31.8924 33.3337 32.5614 32.5466 33.8994L27.6142 42.2845C27.2393 42.9219 27.0519 43.2405 26.8676 43.1903C26.6832 43.1401 26.6832 42.7704 26.6832 42.031V36.349C26.6832 36.1133 26.6832 35.9955 26.61 35.9222C26.5368 35.849 26.4189 35.849 26.1832 35.849Z"
          fill="#01EE8A"/>
    <path fill-rule="evenodd" clip-rule="evenodd"
          d="M26.6824 9C22.5982 9 19.0844 11.4372 17.514 14.9345C17.0669 15.9301 16.1943 16.6353 15.2273 16.6353C11.788 16.6353 9 19.4233 9 22.8626C9 25.6419 10.8207 27.9959 13.3345 28.797C13.3456 28.4153 13.3643 28.0712 13.3954 27.7598C11.412 27.0176 10 25.105 10 22.8626C10 19.9756 12.3403 17.6353 15.2273 17.6353C16.705 17.6353 17.8719 16.5787 18.4262 15.3441C19.8413 12.193 23.0063 10 26.6824 10C29.7748 10 32.505 11.5514 34.1371 13.9207L34.1417 13.9274C34.7204 14.7675 35.1601 15.4058 35.4942 15.8664C35.8172 16.3117 36.0769 16.6424 36.2901 16.8206C36.5166 17.0099 36.6901 17.1518 36.8937 17.2588C37.0973 17.3658 37.3125 17.4281 37.5969 17.5073C37.8509 17.5779 38.1407 17.607 38.4905 17.6212C38.8396 17.6353 39.2824 17.6353 39.852 17.6353H39.8636C41.7966 17.6353 43.3636 19.2023 43.3636 21.1353V24.5898C43.3636 26.4788 41.8672 28.0183 39.9951 28.0874C40.0162 28.3909 40.0284 28.7227 40.0354 29.0866C42.4411 28.9963 44.3636 27.0176 44.3636 24.5898V21.1353C44.3636 18.65 42.3489 16.6353 39.8636 16.6353C39.28 16.6353 38.8574 16.6352 38.5309 16.622C38.2027 16.6087 38.0055 16.5829 37.8649 16.5438C37.5651 16.4604 37.4529 16.423 37.3588 16.3736C37.2647 16.3241 37.1703 16.253 36.9315 16.0534C36.8305 15.969 36.6419 15.7455 36.3037 15.2793C35.9776 14.8297 35.5448 14.2015 34.9606 13.3534C33.1499 10.7248 30.1176 9 26.6824 9Z"
          fill="#01EE8A"/>
    <g filter="url(#filter0_f_53_286)">
        <path d="M26.1832 35.849H22.5437C20.9914 35.849 20.2152 35.849 19.9272 35.3455C19.6393 34.842 20.0328 34.173 20.8198 32.835L25.7523 24.4498C26.1272 23.8125 26.3146 23.4939 26.4989 23.544C26.6832 23.5942 26.6832 23.9639 26.6832 24.7033V30.3854C26.6832 30.6211 26.6832 30.7389 26.7565 30.8121C26.8297 30.8854 26.9475 30.8854 27.1832 30.8854H30.8228C32.3751 30.8854 33.1512 30.8854 33.4392 31.3889C33.7272 31.8924 33.3337 32.5614 32.5466 33.8994L27.6142 42.2845C27.2393 42.9219 27.0519 43.2405 26.8676 43.1903C26.6832 43.1401 26.6832 42.7704 26.6832 42.031V36.349C26.6832 36.1133 26.6832 35.9955 26.61 35.9222C26.5368 35.849 26.4189 35.849 26.1832 35.849Z"
              fill="#01EE8A"/>
        <path fill-rule="evenodd" clip-rule="evenodd"
              d="M26.6824 9C22.5982 9 19.0844 11.4372 17.514 14.9345C17.0669 15.9301 16.1943 16.6353 15.2273 16.6353C11.788 16.6353 9 19.4233 9 22.8626C9 25.6419 10.8207 27.9959 13.3345 28.797C13.3456 28.4153 13.3643 28.0712 13.3954 27.7598C11.412 27.0176 10 25.105 10 22.8626C10 19.9756 12.3403 17.6353 15.2273 17.6353C16.705 17.6353 17.8719 16.5787 18.4262 15.3441C19.8413 12.193 23.0063 10 26.6824 10C29.7748 10 32.505 11.5514 34.1371 13.9207L34.1417 13.9274C34.7204 14.7675 35.1601 15.4058 35.4942 15.8664C35.8172 16.3117 36.0769 16.6424 36.2901 16.8206C36.5166 17.0099 36.6901 17.1518 36.8937 17.2588C37.0973 17.3658 37.3125 17.4281 37.5969 17.5073C37.8509 17.5779 38.1407 17.607 38.4905 17.6212C38.8396 17.6353 39.2824 17.6353 39.852 17.6353H39.8636C41.7966 17.6353 43.3636 19.2023 43.3636 21.1353V24.5898C43.3636 26.4788 41.8672 28.0183 39.9951 28.0874C40.0162 28.3909 40.0284 28.7227 40.0354 29.0866C42.4411 28.9963 44.3636 27.0176 44.3636 24.5898V21.1353C44.3636 18.65 42.3489 16.6353 39.8636 16.6353C39.28 16.6353 38.8574 16.6352 38.5309 16.622C38.2027 16.6087 38.0055 16.5829 37.8649 16.5438C37.5651 16.4604 37.4529 16.423 37.3588 16.3736C37.2647 16.3241 37.1703 16.253 36.9315 16.0534C36.8305 15.969 36.6419 15.7455 36.3037 15.2793C35.9776 14.8297 35.5448 14.2015 34.9606 13.3534C33.1499 10.7248 30.1176 9 26.6824 9Z"
              fill="#01EE8A"/>
    </g>
    <defs>
        <filter id="filter0_f_53_286" x="0" y="0" width="53.3633" height="52.1953" filterUnits="userSpaceOnUse"
                color-interpolation-filters="sRGB">
            <feFlood flood-opacity="0" result="BackgroundImageFix"/>
            <feBlend mode="normal" in="SourceGraphic" in2="BackgroundImageFix" result="shape"/>
            <feGaussianBlur stdDeviation="4.5" result="effect1_foregroundBlur_53_286"/>
        </filter>
    </defs>
</svg>
