<svg width="77" height="16" viewBox="0 0 77 16" fill="none" xmlns="http://www.w3.org/2000/svg">
    <path d="M3.73758 14.1174L4.78029 9.60974L1.2832 6.57786L5.9032 6.17682L7.69987 1.92578L9.49654 6.17682L14.1165 6.57786L10.6195 9.60974L11.6622 14.1174L7.69987 11.7272L3.73758 14.1174Z"
          fill="#FFD338"/>
    <path d="M19.138 14.1174L20.1807 9.60974L16.6836 6.57786L21.3036 6.17682L23.1003 1.92578L24.8969 6.17682L29.5169 6.57786L26.0198 9.60974L27.0626 14.1174L23.1003 11.7272L19.138 14.1174Z"
          fill="#FFD338"/>
    <path d="M34.5374 14.1174L35.5801 9.60974L32.083 6.57786L36.703 6.17682L38.4997 1.92578L40.2963 6.17682L44.9163 6.57786L41.4193 9.60974L42.462 14.1174L38.4997 11.7272L34.5374 14.1174Z"
          fill="#FFD338"/>
    <path d="M49.9378 14.1174L50.9805 9.60974L47.4834 6.57786L52.1034 6.17682L53.9001 1.92578L55.6967 6.17682L60.3167 6.57786L56.8196 9.60974L57.8624 14.1174L53.9001 11.7272L49.9378 14.1174Z"
          fill="#FFD338"/>
    <path d="M65.3372 14.1174L66.3799 9.60974L62.8828 6.57786L67.5028 6.17682L69.2995 1.92578L71.0961 6.17682L75.7161 6.57786L72.2191 9.60974L73.2618 14.1174L69.2995 11.7272L65.3372 14.1174Z"
          fill="#FFD338"/>
</svg>
