<svg width="28" height="28" viewBox="0 0 28 28" fill="none" xmlns="http://www.w3.org/2000/svg">
    <path d="M13.5002 19.5998H12.8303C11.278 19.5998 10.5019 19.5998 10.2139 19.0963C9.92588 18.5928 10.3194 17.9238 11.1065 16.5858L13.0692 13.2491L13.0692 13.2491C13.4441 12.6118 13.6315 12.2932 13.8158 12.3434C14.0002 12.3936 14.0002 12.7633 14.0002 13.5027V16.0665C14.0002 16.3022 14.0002 16.4201 14.0734 16.4933C14.1466 16.5665 14.2645 16.5665 14.5002 16.5665H15.17C16.7223 16.5665 17.4985 16.5665 17.7865 17.07C18.0744 17.5735 17.6809 18.2425 16.8939 19.5805L14.9311 22.9172C14.5562 23.5545 14.3688 23.8732 14.1845 23.823C14.0002 23.7728 14.0002 23.4031 14.0002 22.6637V20.0998C14.0002 19.8641 14.0002 19.7463 13.9269 19.6731C13.8537 19.5998 13.7359 19.5998 13.5002 19.5998Z"
          fill="#01EE8A"/>
    <path fill-rule="evenodd" clip-rule="evenodd"
          d="M14 3C11.4244 3 9.20891 4.53744 8.21924 6.74254C7.96712 7.30428 7.49136 7.66667 7 7.66667C4.79086 7.66667 3 9.45753 3 11.6667C3 13.4811 4.20813 15.0134 5.86385 15.503C5.88148 15.3074 5.9093 15.1444 5.95318 14.9938C5.99921 14.8359 6.05766 14.6836 6.12744 14.5378C4.89616 14.1641 4 13.02 4 11.6667C4 10.0098 5.34315 8.66667 7 8.66667C8.00206 8.66667 8.77218 7.95275 9.13157 7.152C9.96587 5.29307 11.8325 4 14 4C16.1675 4 18.0341 5.29307 18.8684 7.152C19.2278 7.95275 19.9979 8.66667 21 8.66667C22.6569 8.66667 24 10.0098 24 11.6667C24 13.02 23.1038 14.1641 21.8726 14.5378C21.9423 14.6836 22.0008 14.8359 22.0468 14.9938C22.0907 15.1444 22.1185 15.3074 22.1361 15.503C23.7919 15.0134 25 13.4811 25 11.6667C25 9.45753 23.2091 7.66667 21 7.66667C20.5086 7.66667 20.0329 7.30428 19.7808 6.74254C18.7911 4.53744 16.5756 3 14 3Z"
          fill="#01EE8A"/>
</svg>
