<svg width="30" height="30" viewBox="0 0 30 30" fill="none" xmlns="http://www.w3.org/2000/svg">
    <path d="M11.25 7.5C11.25 7.99246 11.347 8.48009 11.5355 8.93506C11.7239 9.39003 12.0001 9.80343 12.3483 10.1517C12.6966 10.4999 13.11 10.7761 13.5649 10.9645C14.0199 11.153 14.5075 11.25 15 11.25C15.4925 11.25 15.9801 11.153 16.4351 10.9645C16.89 10.7761 17.3034 10.4999 17.6517 10.1516C17.9999 9.80343 18.2761 9.39003 18.4645 8.93506C18.653 8.48009 18.75 7.99246 18.75 7.5C18.75 7.00754 18.653 6.51991 18.4645 6.06494C18.2761 5.60996 17.9999 5.19657 17.6516 4.84835C17.3034 4.50013 16.89 4.22391 16.4351 4.03545C15.9801 3.847 15.4925 3.75 15 3.75C14.5075 3.75 14.0199 3.847 13.5649 4.03545C13.11 4.22391 12.6966 4.50013 12.3483 4.84835C12.0001 5.19657 11.7239 5.60997 11.5355 6.06494C11.347 6.51991 11.25 7.00755 11.25 7.5L11.25 7.5Z"
          stroke="#01EE8A"/>
    <path d="M5.54733 17.3769C5.12085 17.6231 4.74704 17.9509 4.44725 18.3416C4.14746 18.7323 3.92756 19.1782 3.8001 19.6539C3.67265 20.1296 3.64013 20.6257 3.70441 21.1139C3.76869 21.6022 3.9285 22.073 4.17473 22.4995C4.42096 22.926 4.74878 23.2998 5.13947 23.5996C5.53016 23.8993 5.97608 24.1192 6.45176 24.2467C6.92743 24.3742 7.42356 24.4067 7.9118 24.3424C8.40004 24.2781 8.87085 24.1183 9.29733 23.8721C9.72381 23.6258 10.0976 23.298 10.3974 22.9073C10.6972 22.5166 10.9171 22.0707 11.0445 21.595C11.172 21.1194 11.2045 20.6232 11.1402 20.135C11.076 19.6468 10.9161 19.176 10.6699 18.7495C10.4237 18.323 10.0959 17.9492 9.70518 17.6494C9.31449 17.3496 8.86857 17.1297 8.3929 17.0023C7.91722 16.8748 7.4211 16.8423 6.93285 16.9066C6.44461 16.9708 5.9738 17.1307 5.54732 17.3769L5.54733 17.3769Z"
          stroke="#01EE8A"/>
    <path d="M24.4527 17.3769C24.8792 17.6231 25.253 17.9509 25.5527 18.3416C25.8525 18.7323 26.0724 19.1782 26.1999 19.6539C26.3274 20.1296 26.3599 20.6257 26.2956 21.1139C26.2313 21.6022 26.0715 22.073 25.8253 22.4995C25.579 22.926 25.2512 23.2998 24.8605 23.5996C24.4698 23.8993 24.0239 24.1192 23.5482 24.2467C23.0726 24.3742 22.5764 24.4067 22.0882 24.3424C21.6 24.2781 21.1292 24.1183 20.7027 23.8721C20.2762 23.6258 19.9024 23.298 19.6026 22.9073C19.3028 22.5166 19.0829 22.0707 18.9555 21.595C18.828 21.1194 18.7955 20.6232 18.8598 20.135C18.924 19.6468 19.0839 19.176 19.3301 18.7495C19.5763 18.323 19.9041 17.9492 20.2948 17.6494C20.6855 17.3496 21.1314 17.1297 21.6071 17.0023C22.0828 16.8748 22.5789 16.8423 23.0671 16.9066C23.5554 16.9708 24.0262 17.1307 24.4527 17.3769L24.4527 17.3769Z"
          stroke="#01EE8A"/>
    <path fill-rule="evenodd" clip-rule="evenodd"
          d="M11.25 7.52183C11.2499 7.51468 11.2499 7.50752 11.2499 7.50037C11.2499 7.11939 11.308 6.74129 11.4215 6.37898C11.2738 6.43251 11.1272 6.4894 10.9818 6.54963C9.7079 7.07731 8.55039 7.85073 7.57537 8.82575C6.60036 9.80077 5.82694 10.9583 5.29926 12.2322C4.77159 13.5061 4.5 14.8715 4.5 16.2504C4.5 16.8675 4.5544 17.4819 4.6618 18.0866C4.91881 17.8071 5.21723 17.5677 5.54718 17.3772C5.55338 17.3737 5.55959 17.3701 5.5658 17.3666C5.52206 16.9969 5.5 16.6242 5.5 16.2504C5.5 15.0028 5.74572 13.7675 6.22314 12.6149C6.70056 11.4623 7.40033 10.415 8.28248 9.53286C9.13533 8.68001 10.1425 7.99763 11.25 7.52183ZM18.7499 7.52176C19.8574 7.99756 20.8646 8.67996 21.7175 9.53285C22.5997 10.415 23.2994 11.4623 23.7769 12.6149C24.2543 13.7675 24.5 15.0028 24.5 16.2504C24.5 16.6242 24.4779 16.9969 24.4342 17.3667C24.4403 17.3702 24.4465 17.3737 24.4526 17.3772C24.7827 17.5678 25.0811 17.8072 25.3382 18.0867C25.4456 17.482 25.5 16.8675 25.5 16.2504C25.5 14.8715 25.2284 13.5061 24.7007 12.2322C24.1731 10.9583 23.3996 9.80076 22.4246 8.82574C21.4496 7.85073 20.2921 7.0773 19.0182 6.54963C18.8727 6.48937 18.726 6.43246 18.5783 6.37891C18.6919 6.74124 18.7499 7.11936 18.7499 7.50037C18.7499 7.5075 18.7499 7.51463 18.7499 7.52176ZM21.7602 24.2847C21.3894 24.2018 21.0328 24.063 20.7026 23.8724C20.6966 23.8689 20.6906 23.8654 20.6846 23.8619C20.054 24.3329 19.3659 24.7247 18.6355 25.0272C17.4829 25.5046 16.2476 25.7504 15 25.7504C13.7524 25.7504 12.5171 25.5046 11.3645 25.0272C10.6341 24.7247 9.94598 24.3328 9.31537 23.8619C9.30932 23.8654 9.30325 23.8689 9.29718 23.8724C8.96711 24.063 8.61049 24.2018 8.23978 24.2846C9.06165 24.9762 9.98619 25.5387 10.9818 25.9511C12.2557 26.4788 13.6211 26.7504 15 26.7504C16.3789 26.7504 17.7443 26.4788 19.0182 25.9511C20.0138 25.5387 20.9383 24.9762 21.7602 24.2847Z"
          fill="#01EE8A"/>
</svg>
