<svg width="42" height="28" viewBox="0 0 42 28" fill="none" xmlns="http://www.w3.org/2000/svg">
    <path d="M20.5698 0.043114C22.9705 0.043114 25.3781 -0.0198772 27.7788 0.0571121C33.476 0.246086 38.5363 4.05356 40.3771 9.45681C43.1347 17.5617 38.1304 26.1495 29.6965 27.7453C28.8217 27.9133 27.9118 27.9762 27.0159 27.9832C22.7185 28.0042 18.4211 28.0042 14.1237 27.9902C7.95055 27.9762 2.66628 24.1968 0.727547 18.4366C-1.88309 10.6606 2.77826 2.26181 10.7712 0.407064C11.87 0.155099 13.0248 0.0571121 14.1587 0.029116C16.2934 -0.0268763 18.4281 0.0151179 20.5628 0.0151179C20.5628 0.0221169 20.5628 0.029116 20.5628 0.043114H20.5698ZM26.7919 3.17868C27.6178 3.26967 28.4087 3.31166 29.1856 3.45164C35.0368 4.4875 38.9842 10.4367 37.6824 16.2319C36.5346 21.3342 32.2652 24.7567 27.0089 24.7707C22.7255 24.7777 18.4421 24.7847 14.1587 24.7637C13.4238 24.7637 12.6819 24.6937 11.961 24.5677C6.34777 23.5879 2.39332 17.9536 3.35218 12.3334C4.24106 7.16113 8.36349 3.46564 13.6128 3.27667C16.5524 3.17168 19.4919 3.24867 22.4315 3.24167C22.5995 3.24167 22.7675 3.22067 22.9285 3.21367V1.16996C22.8025 1.16296 22.7115 1.14896 22.6205 1.14896C19.7299 1.14896 16.8463 1.14196 13.9557 1.14896C13.3118 1.14896 12.6609 1.19096 12.031 1.29594C4.49303 2.47878 -0.357302 9.84876 1.54643 17.2327C3.00923 22.9299 8.11852 26.8424 14.1237 26.8564C18.4211 26.8634 22.7185 26.8704 27.0159 26.8494C27.8278 26.8494 28.6537 26.7724 29.4586 26.6394C36.4996 25.4706 41.3149 18.2546 39.7191 11.2836C38.4523 5.76832 34.0709 1.83487 28.4647 1.21895C27.9118 1.15596 27.3519 1.21195 26.7919 1.21195V3.17868ZM26.7919 6.41923C27.3869 6.47522 27.9608 6.50322 28.5277 6.59421C32.3772 7.23112 35.1838 11.0596 34.6448 14.9301C34.1059 18.7795 31.0333 21.5161 27.1279 21.5371C22.7535 21.5651 18.3721 21.5791 13.9907 21.5371C9.05639 21.4951 5.57088 17.0998 6.62073 12.3124C7.36963 8.89689 10.4282 6.48222 14.0537 6.46123C16.8463 6.44723 19.6389 6.46123 22.4315 6.46123C22.5925 6.46123 22.7465 6.46123 22.9285 6.46123V4.38951C22.7815 4.38251 22.6485 4.36851 22.5225 4.36851C19.7019 4.36851 16.8813 4.36851 14.0607 4.36851C13.5498 4.36851 13.0388 4.41051 12.5349 4.4805C7.08267 5.2224 3.32419 10.6956 4.56302 16.0709C5.59887 20.5923 9.42734 23.6228 14.1307 23.6298C18.4141 23.6368 22.6975 23.6368 26.9809 23.6298C27.5828 23.6298 28.1917 23.5879 28.7867 23.4899C33.1401 22.755 36.5206 18.9685 36.7656 14.6851C37.0455 9.78576 33.833 5.79632 29.6125 4.69047C28.6887 4.4455 27.7508 4.34052 26.7919 4.38951V6.41923ZM26.7919 9.66678C26.9389 9.67378 27.0719 9.66678 27.1979 9.68778C27.7998 9.81376 28.4367 9.86275 28.9826 10.1077C30.8024 10.9126 31.7962 12.9073 31.4113 14.8181C30.9914 16.8828 29.3116 18.2966 27.1349 18.3106C22.7605 18.3386 18.3791 18.3526 14.0047 18.3106C11.0931 18.2826 9.09139 15.6929 9.77729 12.9423C10.2672 10.9826 11.982 9.69478 14.1377 9.68778C16.9163 9.68078 19.6949 9.68778 22.4735 9.68778C22.6275 9.68778 22.7815 9.66678 22.9425 9.65978V7.62306C22.8095 7.61607 22.6905 7.59507 22.5715 7.59507C19.7089 7.59507 16.8533 7.58107 13.9907 7.60207C13.3958 7.60207 12.7799 7.68606 12.206 7.84703C9.14738 8.70791 7.21565 11.6545 7.6006 14.8111C7.99254 17.9886 10.6662 20.3753 13.9697 20.3963C18.3581 20.4313 22.7535 20.4243 27.1419 20.3963C30.1515 20.3753 32.6781 18.3946 33.378 15.574C34.0849 12.7184 32.8111 9.77877 30.2425 8.37196C29.1716 7.78404 28.0238 7.53208 26.7919 7.60207V9.65978V9.66678ZM20.5278 17.1907C21.4937 17.1907 22.4595 17.1907 23.4254 17.1907C24.7972 17.1907 26.169 17.2327 27.5338 17.1487C29.4166 17.0298 30.7394 15.105 30.2775 13.2713C29.8995 11.7455 28.6607 10.8216 26.9739 10.8216C22.7045 10.8216 18.4351 10.8216 14.1727 10.8216C13.9837 10.8216 13.7947 10.8356 13.6128 10.8496C11.73 11.0316 10.4142 12.9003 10.8691 14.7411C11.2401 16.2459 12.4859 17.1837 14.1377 17.1907C16.2724 17.1977 18.4071 17.1907 20.5418 17.1907H20.5278ZM24.1183 3.20668H25.6231V1.16996H24.1183V3.20668ZM24.1183 4.38951V6.44023H25.6161V4.38951H24.1183ZM24.1183 7.61607V9.66678H25.6161V7.61607H24.1183Z"
          fill="#01EE8A"/>
</svg>
