<svg width="306" height="116" viewBox="0 0 306 116" fill="none" xmlns="http://www.w3.org/2000/svg">
    <path d="M206 56C203.348 56 200.804 57.0536 198.929 58.9289C197.054 60.8043 196 63.3478 196 66V106C196 108.652 197.054 111.196 198.929 113.071C200.804 114.946 203.348 116 206 116H246C248.652 116 251.196 114.946 253.071 113.071C254.946 111.196 256 108.652 256 106V66C256 63.3478 254.946 60.8043 253.071 58.9289C251.196 57.0536 248.652 56 246 56H206ZM230.447 99.5167C232.847 101.45 235.24 102.4 237.633 102.377C239.1 102.377 240.227 102.11 241.007 101.57C241.371 101.334 241.667 101.006 241.867 100.621C242.066 100.235 242.161 99.8038 242.143 99.37C242.148 98.8968 242.049 98.4283 241.853 97.9975C241.658 97.5668 241.37 97.1841 241.01 96.8767C240.227 96.1933 238.747 95.51 236.57 94.8233C233.957 94.0667 231.937 93.09 230.52 91.89C229.127 90.69 228.42 89.0167 228.393 86.8667C228.393 84.8367 229.273 83.14 231.033 81.77C232.747 80.4033 234.933 79.7167 237.6 79.7167C241.313 79.7167 244.297 80.62 246.543 82.43L243.977 86.4267C243.053 85.7079 241.992 85.184 240.86 84.8867C239.842 84.5463 238.779 84.3609 237.707 84.3367C236.44 84.3367 235.423 84.57 234.663 85.0333C233.907 85.5 233.53 86.11 233.53 86.8667C233.53 87.7 233.993 88.4067 234.92 88.9933C235.853 89.5567 237.44 90.18 239.687 90.8633C242.4 91.67 244.333 92.7467 245.48 94.09C246.63 95.4333 247.203 97.1467 247.203 99.2233C247.203 101.35 246.387 103.183 244.747 104.723C243.133 106.24 240.787 107.033 237.707 107.107C233.673 107.107 230.3 105.897 227.587 103.477L230.447 99.5167ZM212.013 101.643C212.797 102.133 213.737 102.377 214.837 102.377C215.987 102.377 216.937 102.047 217.697 101.387C218.453 100.703 218.833 99.5167 218.833 97.83V80.1567H223.783V98.7833C223.71 101.667 222.88 103.747 221.29 105.017C220.422 105.754 219.411 106.304 218.32 106.63C217.309 106.938 216.26 107.098 215.203 107.107C213.37 107.107 211.743 106.79 210.327 106.153C208.81 105.47 207.54 104.26 206.513 102.523L209.96 99.7C210.593 100.557 211.28 101.203 212.013 101.643Z"
          fill="white" fill-opacity="0.4"/>
    <path d="M4.976 28.16C4.10133 28.16 3.264 28.0373 2.464 27.792C1.664 27.536 1.02933 27.2107 0.56 26.816L1.28 25.2C1.728 25.552 2.28267 25.8453 2.944 26.08C3.60533 26.3147 4.28267 26.432 4.976 26.432C5.56267 26.432 6.03733 26.368 6.4 26.24C6.76267 26.112 7.02933 25.9413 7.2 25.728C7.37067 25.504 7.456 25.2533 7.456 24.976C7.456 24.6347 7.33333 24.3627 7.088 24.16C6.84267 23.9467 6.52267 23.7813 6.128 23.664C5.744 23.536 5.312 23.4187 4.832 23.312C4.36267 23.2053 3.888 23.0827 3.408 22.944C2.93867 22.7947 2.50667 22.608 2.112 22.384C1.728 22.1493 1.41333 21.84 1.168 21.456C0.922667 21.072 0.8 20.5813 0.8 19.984C0.8 19.376 0.96 18.8213 1.28 18.32C1.61067 17.808 2.10667 17.4027 2.768 17.104C3.44 16.7947 4.288 16.64 5.312 16.64C5.984 16.64 6.65067 16.7253 7.312 16.896C7.97333 17.0667 8.54933 17.312 9.04 17.632L8.384 19.248C7.88267 18.9493 7.36533 18.7307 6.832 18.592C6.29867 18.4427 5.78667 18.368 5.296 18.368C4.72 18.368 4.25067 18.4373 3.888 18.576C3.536 18.7147 3.27467 18.896 3.104 19.12C2.944 19.344 2.864 19.6 2.864 19.888C2.864 20.2293 2.98133 20.5067 3.216 20.72C3.46133 20.9227 3.776 21.0827 4.16 21.2C4.55467 21.3173 4.992 21.4347 5.472 21.552C5.952 21.6587 6.42667 21.7813 6.896 21.92C7.376 22.0587 7.808 22.24 8.192 22.464C8.58667 22.688 8.90133 22.992 9.136 23.376C9.38133 23.76 9.504 24.2453 9.504 24.832C9.504 25.4293 9.33867 25.984 9.008 26.496C8.688 26.9973 8.192 27.4027 7.52 27.712C6.848 28.0107 6 28.16 4.976 28.16ZM14.9905 28.112C14.2652 28.112 13.6252 27.9787 13.0705 27.712C12.5158 27.4347 12.0838 27.0187 11.7745 26.464C11.4652 25.8987 11.3105 25.1893 11.3105 24.336V19.456H13.3105V24.064C13.3105 24.832 13.4812 25.408 13.8225 25.792C14.1745 26.1653 14.6705 26.352 15.3105 26.352C15.7798 26.352 16.1852 26.256 16.5265 26.064C16.8785 25.872 17.1505 25.584 17.3425 25.2C17.5452 24.816 17.6465 24.3413 17.6465 23.776V19.456H19.6465V28H17.7425V25.696L18.0785 26.4C17.7905 26.9547 17.3692 27.3813 16.8145 27.68C16.2598 27.968 15.6518 28.112 14.9905 28.112ZM27.0011 28.112C26.3078 28.112 25.6731 27.952 25.0971 27.632C24.5318 27.312 24.0785 26.832 23.7371 26.192C23.4065 25.5413 23.2411 24.72 23.2411 23.728C23.2411 22.7253 23.4011 21.904 23.7211 21.264C24.0518 20.624 24.4998 20.1493 25.0651 19.84C25.6305 19.52 26.2758 19.36 27.0011 19.36C27.8438 19.36 28.5851 19.5413 29.2251 19.904C29.8758 20.2667 30.3878 20.7733 30.7611 21.424C31.1451 22.0747 31.3371 22.8427 31.3371 23.728C31.3371 24.6133 31.1451 25.3867 30.7611 26.048C30.3878 26.6987 29.8758 27.2053 29.2251 27.568C28.5851 27.9307 27.8438 28.112 27.0011 28.112ZM22.2651 31.104V19.456H24.1691V21.472L24.1051 23.744L24.2651 26.016V31.104H22.2651ZM26.7771 26.4C27.2571 26.4 27.6838 26.2933 28.0571 26.08C28.4411 25.8667 28.7451 25.5573 28.9691 25.152C29.1931 24.7467 29.3051 24.272 29.3051 23.728C29.3051 23.1733 29.1931 22.6987 28.9691 22.304C28.7451 21.8987 28.4411 21.5893 28.0571 21.376C27.6838 21.1627 27.2571 21.056 26.7771 21.056C26.2971 21.056 25.8651 21.1627 25.4811 21.376C25.0971 21.5893 24.7931 21.8987 24.5691 22.304C24.3451 22.6987 24.2331 23.1733 24.2331 23.728C24.2331 24.272 24.3451 24.7467 24.5691 25.152C24.7931 25.5573 25.0971 25.8667 25.4811 26.08C25.8651 26.2933 26.2971 26.4 26.7771 26.4ZM37.9699 28.112C37.2765 28.112 36.6419 27.952 36.0659 27.632C35.5005 27.312 35.0472 26.832 34.7059 26.192C34.3752 25.5413 34.2099 24.72 34.2099 23.728C34.2099 22.7253 34.3699 21.904 34.6899 21.264C35.0205 20.624 35.4685 20.1493 36.0339 19.84C36.5992 19.52 37.2445 19.36 37.9699 19.36C38.8125 19.36 39.5539 19.5413 40.1939 19.904C40.8445 20.2667 41.3565 20.7733 41.7299 21.424C42.1139 22.0747 42.3059 22.8427 42.3059 23.728C42.3059 24.6133 42.1139 25.3867 41.7299 26.048C41.3565 26.6987 40.8445 27.2053 40.1939 27.568C39.5539 27.9307 38.8125 28.112 37.9699 28.112ZM33.2339 31.104V19.456H35.1379V21.472L35.0739 23.744L35.2339 26.016V31.104H33.2339ZM37.7459 26.4C38.2259 26.4 38.6525 26.2933 39.0259 26.08C39.4099 25.8667 39.7139 25.5573 39.9379 25.152C40.1619 24.7467 40.2739 24.272 40.2739 23.728C40.2739 23.1733 40.1619 22.6987 39.9379 22.304C39.7139 21.8987 39.4099 21.5893 39.0259 21.376C38.6525 21.1627 38.2259 21.056 37.7459 21.056C37.2659 21.056 36.8339 21.1627 36.4499 21.376C36.0659 21.5893 35.7619 21.8987 35.5379 22.304C35.3139 22.6987 35.2019 23.1733 35.2019 23.728C35.2019 24.272 35.3139 24.7467 35.5379 25.152C35.7619 25.5573 36.0659 25.8667 36.4499 26.08C36.8339 26.2933 37.2659 26.4 37.7459 26.4ZM48.0426 28.112C47.168 28.112 46.3893 27.9253 45.7066 27.552C45.024 27.168 44.4853 26.6453 44.0906 25.984C43.696 25.3227 43.4986 24.5707 43.4986 23.728C43.4986 22.8747 43.696 22.1227 44.0906 21.472C44.4853 20.8107 45.024 20.2933 45.7066 19.92C46.3893 19.5467 47.168 19.36 48.0426 19.36C48.928 19.36 49.712 19.5467 50.3946 19.92C51.088 20.2933 51.6266 20.8053 52.0106 21.456C52.4053 22.1067 52.6026 22.864 52.6026 23.728C52.6026 24.5707 52.4053 25.3227 52.0106 25.984C51.6266 26.6453 51.088 27.168 50.3946 27.552C49.712 27.9253 48.928 28.112 48.0426 28.112ZM48.0426 26.4C48.5333 26.4 48.9706 26.2933 49.3546 26.08C49.7386 25.8667 50.0373 25.5573 50.2506 25.152C50.4746 24.7467 50.5866 24.272 50.5866 23.728C50.5866 23.1733 50.4746 22.6987 50.2506 22.304C50.0373 21.8987 49.7386 21.5893 49.3546 21.376C48.9706 21.1627 48.5386 21.056 48.0586 21.056C47.568 21.056 47.1306 21.1627 46.7466 21.376C46.3733 21.5893 46.0746 21.8987 45.8506 22.304C45.6266 22.6987 45.5146 23.1733 45.5146 23.728C45.5146 24.272 45.6266 24.7467 45.8506 25.152C46.0746 25.5573 46.3733 25.8667 46.7466 26.08C47.1306 26.2933 47.5626 26.4 48.0426 26.4ZM54.5151 28V19.456H56.4191V21.808L56.1951 21.12C56.4511 20.544 56.8511 20.1067 57.3951 19.808C57.9498 19.5093 58.6378 19.36 59.4591 19.36V21.264C59.3738 21.2427 59.2938 21.232 59.2191 21.232C59.1445 21.2213 59.0698 21.216 58.9951 21.216C58.2378 21.216 57.6351 21.44 57.1871 21.888C56.7391 22.3253 56.5151 22.9813 56.5151 23.856V28H54.5151ZM64.6843 28.112C63.7456 28.112 63.0203 27.872 62.5082 27.392C61.9963 26.9013 61.7403 26.1813 61.7403 25.232V17.568H63.7403V25.184C63.7403 25.5893 63.8416 25.904 64.0443 26.128C64.2576 26.352 64.5509 26.464 64.9243 26.464C65.3723 26.464 65.7456 26.3467 66.0443 26.112L66.6043 27.536C66.3696 27.728 66.0816 27.872 65.7403 27.968C65.3989 28.064 65.0469 28.112 64.6843 28.112ZM60.3323 21.12V19.52H66.0283V21.12H60.3323ZM71.9843 28.112C71.0349 28.112 70.2029 27.9253 69.4883 27.552C68.7843 27.168 68.2349 26.6453 67.8403 25.984C67.4563 25.3227 67.2643 24.5707 67.2643 23.728C67.2643 22.8747 67.4509 22.1227 67.8243 21.472C68.2083 20.8107 68.7309 20.2933 69.3923 19.92C70.0643 19.5467 70.8269 19.36 71.6803 19.36C72.5123 19.36 73.2536 19.5413 73.9043 19.904C74.5549 20.2667 75.0669 20.7787 75.4403 21.44C75.8136 22.1013 76.0003 22.88 76.0003 23.776C76.0003 23.8613 75.9949 23.9573 75.9843 24.064C75.9843 24.1707 75.9789 24.272 75.9683 24.368H68.8483V23.04H74.9123L74.1283 23.456C74.1389 22.9653 74.0376 22.5333 73.8243 22.16C73.6109 21.7867 73.3176 21.4933 72.9443 21.28C72.5816 21.0667 72.1603 20.96 71.6803 20.96C71.1896 20.96 70.7576 21.0667 70.3843 21.28C70.0216 21.4933 69.7336 21.792 69.5203 22.176C69.3176 22.5493 69.2163 22.992 69.2163 23.504V23.824C69.2163 24.336 69.3336 24.7893 69.5683 25.184C69.8029 25.5787 70.1336 25.8827 70.5603 26.096C70.9869 26.3093 71.4776 26.416 72.0323 26.416C72.5123 26.416 72.9443 26.3413 73.3283 26.192C73.7123 26.0427 74.0536 25.808 74.3523 25.488L75.4243 26.72C75.0403 27.168 74.5549 27.5147 73.9683 27.76C73.3923 27.9947 72.7309 28.112 71.9843 28.112ZM81.5374 28.112C80.716 28.112 79.9747 27.9307 79.3134 27.568C78.6627 27.1947 78.1507 26.6827 77.7774 26.032C77.404 25.3813 77.2174 24.6133 77.2174 23.728C77.2174 22.8427 77.404 22.0747 77.7774 21.424C78.1507 20.7733 78.6627 20.2667 79.3134 19.904C79.9747 19.5413 80.716 19.36 81.5374 19.36C82.252 19.36 82.892 19.52 83.4574 19.84C84.0227 20.1493 84.4707 20.624 84.8014 21.264C85.132 21.904 85.2974 22.7253 85.2974 23.728C85.2974 24.72 85.1374 25.5413 84.8174 26.192C84.4974 26.832 84.0547 27.312 83.4894 27.632C82.924 27.952 82.2734 28.112 81.5374 28.112ZM81.7774 26.4C82.2574 26.4 82.684 26.2933 83.0574 26.08C83.4414 25.8667 83.7454 25.5573 83.9694 25.152C84.204 24.7467 84.3214 24.272 84.3214 23.728C84.3214 23.1733 84.204 22.6987 83.9694 22.304C83.7454 21.8987 83.4414 21.5893 83.0574 21.376C82.684 21.1627 82.2574 21.056 81.7774 21.056C81.2974 21.056 80.8654 21.1627 80.4814 21.376C80.108 21.5893 79.804 21.8987 79.5694 22.304C79.3454 22.6987 79.2334 23.1733 79.2334 23.728C79.2334 24.272 79.3454 24.7467 79.5694 25.152C79.804 25.5573 80.108 25.8667 80.4814 26.08C80.8654 26.2933 81.2974 26.4 81.7774 26.4ZM84.3694 28V25.984L84.4494 23.712L84.2894 21.44V16.128H86.2734V28H84.3694Z"
          fill="white" fill-opacity="0.4"/>
    <path d="M202.688 28.16C201.835 28.16 201.04 28.0213 200.304 27.744C199.579 27.456 198.944 27.056 198.4 26.544C197.867 26.0213 197.451 25.408 197.152 24.704C196.853 24 196.704 23.232 196.704 22.4C196.704 21.568 196.853 20.8 197.152 20.096C197.451 19.392 197.872 18.784 198.416 18.272C198.96 17.7493 199.595 17.3493 200.32 17.072C201.045 16.784 201.84 16.64 202.704 16.64C203.621 16.64 204.459 16.8 205.216 17.12C205.973 17.4293 206.613 17.8933 207.136 18.512L205.792 19.776C205.387 19.3387 204.933 19.0133 204.432 18.8C203.931 18.576 203.387 18.464 202.8 18.464C202.213 18.464 201.675 18.56 201.184 18.752C200.704 18.944 200.283 19.216 199.92 19.568C199.568 19.92 199.291 20.336 199.088 20.816C198.896 21.296 198.8 21.824 198.8 22.4C198.8 22.976 198.896 23.504 199.088 23.984C199.291 24.464 199.568 24.88 199.92 25.232C200.283 25.584 200.704 25.856 201.184 26.048C201.675 26.24 202.213 26.336 202.8 26.336C203.387 26.336 203.931 26.2293 204.432 26.016C204.933 25.792 205.387 25.456 205.792 25.008L207.136 26.288C206.613 26.896 205.973 27.36 205.216 27.68C204.459 28 203.616 28.16 202.688 28.16ZM212.449 28.112C211.574 28.112 210.796 27.9253 210.113 27.552C209.43 27.168 208.892 26.6453 208.497 25.984C208.102 25.3227 207.905 24.5707 207.905 23.728C207.905 22.8747 208.102 22.1227 208.497 21.472C208.892 20.8107 209.43 20.2933 210.113 19.92C210.796 19.5467 211.574 19.36 212.449 19.36C213.334 19.36 214.118 19.5467 214.801 19.92C215.494 20.2933 216.033 20.8053 216.417 21.456C216.812 22.1067 217.009 22.864 217.009 23.728C217.009 24.5707 216.812 25.3227 216.417 25.984C216.033 26.6453 215.494 27.168 214.801 27.552C214.118 27.9253 213.334 28.112 212.449 28.112ZM212.449 26.4C212.94 26.4 213.377 26.2933 213.761 26.08C214.145 25.8667 214.444 25.5573 214.657 25.152C214.881 24.7467 214.993 24.272 214.993 23.728C214.993 23.1733 214.881 22.6987 214.657 22.304C214.444 21.8987 214.145 21.5893 213.761 21.376C213.377 21.1627 212.945 21.056 212.465 21.056C211.974 21.056 211.537 21.1627 211.153 21.376C210.78 21.5893 210.481 21.8987 210.257 22.304C210.033 22.6987 209.921 23.1733 209.921 23.728C209.921 24.272 210.033 24.7467 210.257 25.152C210.481 25.5573 210.78 25.8667 211.153 26.08C211.537 26.2933 211.969 26.4 212.449 26.4ZM229.705 19.36C230.388 19.36 230.991 19.4933 231.513 19.76C232.047 20.0267 232.463 20.4373 232.761 20.992C233.06 21.536 233.209 22.24 233.209 23.104V28H231.209V23.36C231.209 22.6027 231.044 22.0373 230.713 21.664C230.383 21.2907 229.908 21.104 229.289 21.104C228.852 21.104 228.463 21.2 228.121 21.392C227.791 21.584 227.529 21.8667 227.337 22.24C227.156 22.6133 227.065 23.088 227.065 23.664V28H225.065V23.36C225.065 22.6027 224.9 22.0373 224.569 21.664C224.239 21.2907 223.764 21.104 223.145 21.104C222.708 21.104 222.319 21.2 221.977 21.392C221.647 21.584 221.385 21.8667 221.193 22.24C221.012 22.6133 220.921 23.088 220.921 23.664V28H218.921V19.456H220.825V21.728L220.489 21.056C220.777 20.5013 221.193 20.08 221.737 19.792C222.292 19.504 222.921 19.36 223.625 19.36C224.425 19.36 225.119 19.5573 225.705 19.952C226.303 20.3467 226.697 20.944 226.889 21.744L226.105 21.472C226.383 20.832 226.841 20.32 227.481 19.936C228.121 19.552 228.863 19.36 229.705 19.36ZM235.765 28V19.456H237.765V28H235.765ZM236.773 18.048C236.4 18.048 236.09 17.9307 235.845 17.696C235.61 17.4613 235.493 17.1787 235.493 16.848C235.493 16.5067 235.61 16.224 235.845 16C236.09 15.7653 236.4 15.648 236.773 15.648C237.146 15.648 237.45 15.76 237.685 15.984C237.93 16.1973 238.053 16.4693 238.053 16.8C238.053 17.152 237.936 17.4507 237.701 17.696C237.466 17.9307 237.157 18.048 236.773 18.048ZM245.238 19.36C245.921 19.36 246.529 19.4933 247.062 19.76C247.606 20.0267 248.033 20.4373 248.342 20.992C248.651 21.536 248.806 22.24 248.806 23.104V28H246.806V23.36C246.806 22.6027 246.625 22.0373 246.262 21.664C245.91 21.2907 245.414 21.104 244.774 21.104C244.305 21.104 243.889 21.2 243.526 21.392C243.163 21.584 242.881 21.872 242.678 22.256C242.486 22.6293 242.39 23.104 242.39 23.68V28H240.39V19.456H242.294V21.76L241.958 21.056C242.257 20.512 242.689 20.096 243.254 19.808C243.83 19.5093 244.491 19.36 245.238 19.36ZM255.231 31.216C254.442 31.216 253.668 31.1093 252.911 30.896C252.164 30.6933 251.551 30.3947 251.071 30L251.967 28.496C252.34 28.8053 252.81 29.0507 253.375 29.232C253.951 29.424 254.532 29.52 255.119 29.52C256.058 29.52 256.746 29.3013 257.183 28.864C257.62 28.4373 257.839 27.792 257.839 26.928V25.408L257.999 23.472L257.935 21.536V19.456H259.839V26.704C259.839 28.2507 259.444 29.3867 258.655 30.112C257.866 30.848 256.724 31.216 255.231 31.216ZM254.975 27.616C254.164 27.616 253.428 27.4453 252.767 27.104C252.116 26.752 251.599 26.2667 251.215 25.648C250.842 25.0293 250.655 24.304 250.655 23.472C250.655 22.6507 250.842 21.9307 251.215 21.312C251.599 20.6933 252.116 20.2133 252.767 19.872C253.428 19.5307 254.164 19.36 254.975 19.36C255.7 19.36 256.351 19.504 256.927 19.792C257.503 20.08 257.962 20.528 258.303 21.136C258.655 21.744 258.831 22.5227 258.831 23.472C258.831 24.4213 258.655 25.2053 258.303 25.824C257.962 26.432 257.503 26.8853 256.927 27.184C256.351 27.472 255.7 27.616 254.975 27.616ZM255.279 25.92C255.78 25.92 256.228 25.8187 256.623 25.616C257.018 25.4027 257.322 25.1147 257.535 24.752C257.759 24.3787 257.871 23.952 257.871 23.472C257.871 22.992 257.759 22.5707 257.535 22.208C257.322 21.8347 257.018 21.552 256.623 21.36C256.228 21.1573 255.78 21.056 255.279 21.056C254.778 21.056 254.324 21.1573 253.919 21.36C253.524 21.552 253.215 21.8347 252.991 22.208C252.778 22.5707 252.671 22.992 252.671 23.472C252.671 23.952 252.778 24.3787 252.991 24.752C253.215 25.1147 253.524 25.4027 253.919 25.616C254.324 25.8187 254.778 25.92 255.279 25.92ZM269.53 28.112C268.815 28.112 268.127 28.0213 267.466 27.84C266.815 27.648 266.298 27.4187 265.914 27.152L266.682 25.632C267.066 25.8773 267.525 26.08 268.058 26.24C268.591 26.4 269.125 26.48 269.658 26.48C270.287 26.48 270.741 26.3947 271.018 26.224C271.306 26.0533 271.45 25.824 271.45 25.536C271.45 25.3013 271.354 25.1253 271.162 25.008C270.97 24.88 270.719 24.784 270.41 24.72C270.101 24.656 269.754 24.5973 269.37 24.544C268.997 24.4907 268.618 24.4213 268.234 24.336C267.861 24.24 267.519 24.1067 267.21 23.936C266.901 23.7547 266.65 23.5147 266.458 23.216C266.266 22.9173 266.17 22.5227 266.17 22.032C266.17 21.488 266.325 21.0187 266.634 20.624C266.943 20.2187 267.375 19.9093 267.93 19.696C268.495 19.472 269.162 19.36 269.93 19.36C270.506 19.36 271.087 19.424 271.674 19.552C272.261 19.68 272.746 19.8613 273.13 20.096L272.362 21.616C271.957 21.3707 271.546 21.2053 271.13 21.12C270.725 21.024 270.319 20.976 269.914 20.976C269.306 20.976 268.853 21.0667 268.554 21.248C268.266 21.4293 268.122 21.6587 268.122 21.936C268.122 22.192 268.218 22.384 268.41 22.512C268.602 22.64 268.853 22.7413 269.162 22.816C269.471 22.8907 269.813 22.9547 270.186 23.008C270.57 23.0507 270.949 23.12 271.322 23.216C271.695 23.312 272.037 23.4453 272.346 23.616C272.666 23.776 272.922 24.0053 273.114 24.304C273.306 24.6027 273.402 24.992 273.402 25.472C273.402 26.0053 273.242 26.4693 272.922 26.864C272.613 27.2587 272.17 27.568 271.594 27.792C271.018 28.0053 270.33 28.112 269.53 28.112ZM278.965 28.112C278.09 28.112 277.311 27.9253 276.629 27.552C275.946 27.168 275.407 26.6453 275.013 25.984C274.618 25.3227 274.421 24.5707 274.421 23.728C274.421 22.8747 274.618 22.1227 275.013 21.472C275.407 20.8107 275.946 20.2933 276.629 19.92C277.311 19.5467 278.09 19.36 278.965 19.36C279.85 19.36 280.634 19.5467 281.317 19.92C282.01 20.2933 282.549 20.8053 282.933 21.456C283.327 22.1067 283.525 22.864 283.525 23.728C283.525 24.5707 283.327 25.3227 282.933 25.984C282.549 26.6453 282.01 27.168 281.317 27.552C280.634 27.9253 279.85 28.112 278.965 28.112ZM278.965 26.4C279.455 26.4 279.893 26.2933 280.277 26.08C280.661 25.8667 280.959 25.5573 281.173 25.152C281.397 24.7467 281.509 24.272 281.509 23.728C281.509 23.1733 281.397 22.6987 281.173 22.304C280.959 21.8987 280.661 21.5893 280.277 21.376C279.893 21.1627 279.461 21.056 278.981 21.056C278.49 21.056 278.053 21.1627 277.669 21.376C277.295 21.5893 276.997 21.8987 276.773 22.304C276.549 22.6987 276.437 23.1733 276.437 23.728C276.437 24.272 276.549 24.7467 276.773 25.152C276.997 25.5573 277.295 25.8667 277.669 26.08C278.053 26.2933 278.485 26.4 278.965 26.4ZM289.277 28.112C288.402 28.112 287.624 27.9253 286.941 27.552C286.258 27.168 285.72 26.6453 285.325 25.984C284.93 25.3227 284.733 24.5707 284.733 23.728C284.733 22.8747 284.93 22.1227 285.325 21.472C285.72 20.8107 286.258 20.2933 286.941 19.92C287.624 19.5467 288.402 19.36 289.277 19.36C290.162 19.36 290.946 19.5467 291.629 19.92C292.322 20.2933 292.861 20.8053 293.245 21.456C293.64 22.1067 293.837 22.864 293.837 23.728C293.837 24.5707 293.64 25.3227 293.245 25.984C292.861 26.6453 292.322 27.168 291.629 27.552C290.946 27.9253 290.162 28.112 289.277 28.112ZM289.277 26.4C289.768 26.4 290.205 26.2933 290.589 26.08C290.973 25.8667 291.272 25.5573 291.485 25.152C291.709 24.7467 291.821 24.272 291.821 23.728C291.821 23.1733 291.709 22.6987 291.485 22.304C291.272 21.8987 290.973 21.5893 290.589 21.376C290.205 21.1627 289.773 21.056 289.293 21.056C288.802 21.056 288.365 21.1627 287.981 21.376C287.608 21.5893 287.309 21.8987 287.085 22.304C286.861 22.6987 286.749 23.1733 286.749 23.728C286.749 24.272 286.861 24.7467 287.085 25.152C287.309 25.5573 287.608 25.8667 287.981 26.08C288.365 26.2933 288.797 26.4 289.277 26.4ZM300.598 19.36C301.28 19.36 301.888 19.4933 302.422 19.76C302.966 20.0267 303.392 20.4373 303.702 20.992C304.011 21.536 304.166 22.24 304.166 23.104V28H302.166V23.36C302.166 22.6027 301.984 22.0373 301.622 21.664C301.27 21.2907 300.774 21.104 300.134 21.104C299.664 21.104 299.248 21.2 298.886 21.392C298.523 21.584 298.24 21.872 298.038 22.256C297.846 22.6293 297.75 23.104 297.75 23.68V28H295.75V19.456H297.654V21.76L297.318 21.056C297.616 20.512 298.048 20.096 298.614 19.808C299.19 19.5093 299.851 19.36 300.598 19.36Z"
          fill="white" fill-opacity="0.4"/>
    <path d="M29.8227 56C14.5711 56 15.5233 62.6399 15.5233 62.6399L15.5403 69.5191H30.0946V71.5845H9.75952C9.75952 71.5845 0 70.4733 0 85.9224C0 101.372 8.51835 100.824 8.51835 100.824H13.6021V93.6549C13.6021 93.6549 13.328 85.1031 21.9844 85.1031H36.4197C36.4197 85.1031 44.5299 85.2347 44.5299 77.2341V64.0057C44.5299 64.0057 45.7617 56 29.8227 56ZM21.7974 60.6261C22.1413 60.6258 22.482 60.6936 22.7998 60.8256C23.1176 60.9576 23.4063 61.1512 23.6495 61.3953C23.8927 61.6395 24.0856 61.9294 24.2171 62.2484C24.3485 62.5675 24.416 62.9094 24.4157 63.2547C24.416 63.6 24.3485 63.9419 24.2171 64.261C24.0856 64.58 23.8927 64.8699 23.6495 65.1141C23.4063 65.3582 23.1176 65.5518 22.7998 65.6838C22.482 65.8158 22.1413 65.8836 21.7974 65.8833C21.4535 65.8836 21.1129 65.8158 20.7951 65.6838C20.4773 65.5518 20.1885 65.3582 19.9453 65.1141C19.7021 64.8699 19.5092 64.58 19.3778 64.261C19.2463 63.9419 19.1788 63.6 19.1791 63.2547C19.1788 62.9094 19.2463 62.5675 19.3778 62.2484C19.5092 61.9294 19.7021 61.6395 19.9453 61.3953C20.1885 61.1512 20.4773 60.9576 20.7951 60.8256C21.1129 60.6936 21.4535 60.6258 21.7974 60.6261Z"
          fill="white" fill-opacity="0.4"/>
    <path d="M30.254 116C45.5056 116 44.5533 109.36 44.5533 109.36L44.5364 102.481H29.9818V100.416H50.3169C50.3169 100.416 60.0764 101.527 60.0764 86.0777C60.0764 70.6283 51.5581 71.1762 51.5581 71.1762H46.4744V78.3452C46.4744 78.3452 46.7484 86.897 38.092 86.897H23.6567C23.6567 86.897 15.5465 86.7654 15.5465 94.7662V107.995C15.5465 107.995 14.315 116 30.2537 116H30.254ZM38.2792 111.375C37.9353 111.375 37.5947 111.307 37.2769 111.175C36.9591 111.043 36.6703 110.85 36.4271 110.605C36.1839 110.361 35.9911 110.071 35.8596 109.752C35.7281 109.433 35.6606 109.091 35.6609 108.746C35.6606 108.401 35.7281 108.059 35.8595 107.74C35.991 107.421 36.1838 107.131 36.427 106.887C36.6702 106.642 36.959 106.449 37.2768 106.317C37.5947 106.185 37.9353 106.117 38.2792 106.117C38.6232 106.117 38.9638 106.185 39.2816 106.317C39.5994 106.449 39.8882 106.642 40.1314 106.886C40.3746 107.131 40.5674 107.421 40.6989 107.74C40.8304 108.059 40.8979 108.401 40.8976 108.746C40.8979 109.091 40.8304 109.433 40.6989 109.752C40.5674 110.071 40.3746 110.361 40.1314 110.605C39.8882 110.849 39.5994 111.043 39.2816 111.175C38.9638 111.307 38.6232 111.375 38.2792 111.375Z"
          fill="white" fill-opacity="0.4"/>
</svg>
