<svg width="28" height="28" viewBox="0 0 28 28" fill="none" xmlns="http://www.w3.org/2000/svg">
    <path d="M22.4362 12.7391C22.0911 12.6797 21.7516 12.6542 21.4376 12.5552C21.2622 12.4986 21.0614 12.3515 20.985 12.1931C20.6936 11.5736 20.4503 10.9314 20.1873 10.3006C20.0883 10.0658 20.1222 9.85929 20.275 9.65844C20.4673 9.40101 20.6484 9.13793 20.8209 8.89465C20.2325 8.30625 19.6583 7.73482 19.0614 7.13793C18.8351 7.29917 18.5692 7.47739 18.3146 7.66975C18.0939 7.83666 17.8704 7.86211 17.6158 7.75179C17.0048 7.49153 16.3909 7.23977 15.7742 6.988C15.5536 6.89747 15.4178 6.75037 15.381 6.50992C15.3301 6.18177 15.2679 5.85645 15.2085 5.51416H12.7332C12.6766 5.83948 12.6172 6.15348 12.572 6.47032C12.5324 6.7334 12.3966 6.89747 12.1505 6.99648C11.5423 7.23977 10.9397 7.48871 10.34 7.74896C10.0713 7.86494 9.84213 7.831 9.61299 7.65561C9.37537 7.47173 9.12643 7.30483 8.90861 7.14924C8.3202 7.73765 7.74312 8.31756 7.1434 8.92011C7.28767 9.12379 7.46023 9.38121 7.64977 9.62732C7.82515 9.85646 7.85344 10.0856 7.74029 10.3543C7.48286 10.9541 7.23109 11.5594 6.98781 12.1648C6.8888 12.4137 6.71907 12.5467 6.45882 12.5835C6.14198 12.6316 5.82798 12.691 5.49135 12.7476C5.49135 13.6217 5.49135 14.4845 5.49135 15.3444C5.49135 15.4491 5.497 15.5538 5.48852 15.6556C5.46306 15.9526 5.25938 16.1394 4.97649 16.1309C4.70492 16.1224 4.51256 15.9413 4.49842 15.6556C4.48427 15.3954 4.49276 15.1351 4.49276 14.8749C4.49276 14.063 4.49276 13.2539 4.49276 12.442C4.49276 12.0205 4.6342 11.8084 5.04722 11.8084C5.8789 11.8084 6.32869 11.4321 6.56065 10.6344C6.67664 10.2412 6.74736 9.94415 6.43336 9.63581C6.30323 9.50568 6.20988 9.33595 6.10521 9.18319C5.8789 8.85787 5.89022 8.65985 6.16179 8.38545C6.90295 7.64146 7.64411 6.89747 8.3881 6.15914C8.63987 5.90737 8.84354 5.89323 9.13774 6.08559C9.18018 6.11388 9.22261 6.14783 9.26504 6.17612C9.54793 6.36565 9.85345 6.7334 10.1109 6.70228C10.5974 6.64571 11.0585 6.36565 11.5225 6.15914C11.5904 6.12803 11.63 5.99224 11.6498 5.89606C11.7063 5.60186 11.7431 5.302 11.7969 5.00497C11.8591 4.64853 12.0288 4.4986 12.3881 4.49577C13.4376 4.49295 14.4871 4.49295 15.5366 4.49577C15.9157 4.49577 16.0798 4.6457 16.1448 5.02194C16.1844 5.25674 16.2523 5.49153 16.258 5.72916C16.2665 6.03467 16.4051 6.19026 16.688 6.28644C17.0218 6.3996 17.3386 6.56084 17.6696 6.67965C17.7658 6.7136 17.9157 6.69945 18.0006 6.64571C18.275 6.47597 18.5267 6.27513 18.7926 6.09125C19.0868 5.8904 19.2933 5.90172 19.5423 6.15066C20.2948 6.89747 21.0444 7.64712 21.7912 8.3996C22.043 8.65137 22.0571 8.85787 21.8591 9.14925C21.6837 9.40667 21.4829 9.64995 21.3245 9.91587C21.2622 10.0205 21.2368 10.1903 21.2764 10.3006C21.4037 10.674 21.5819 11.0276 21.7148 11.3982C21.7827 11.5877 21.9044 11.6471 22.0854 11.6698C22.374 11.7065 22.6597 11.7546 22.9454 11.8055C23.3018 11.8706 23.4461 12.0403 23.4489 12.4024C23.4518 13.4519 23.4518 14.5014 23.4489 15.551C23.4489 15.913 23.3018 16.0799 22.9454 16.1478C22.7106 16.1931 22.4758 16.2582 22.2382 16.261C21.9044 16.2667 21.7403 16.4251 21.6413 16.7278C21.5451 17.022 21.4206 17.3105 21.282 17.5906C21.183 17.7886 21.217 17.9328 21.3471 18.0969C21.5281 18.3232 21.6922 18.5665 21.8563 18.807C22.0487 19.0899 22.043 19.2992 21.811 19.534C21.0501 20.3034 20.2834 21.0644 19.5197 21.8282C19.3047 22.0432 19.0614 22.0545 18.8153 21.8819C18.5522 21.6981 18.3004 21.4944 18.0232 21.3275C17.9213 21.2652 17.7488 21.2454 17.6356 21.285C17.2537 21.418 16.8803 21.5764 16.5154 21.7518C16.4164 21.7999 16.3174 21.93 16.2919 22.0404C16.2212 22.3317 16.1929 22.6344 16.142 22.9314C16.0769 23.3105 15.9129 23.4576 15.5338 23.4576C14.4843 23.4604 13.4348 23.4604 12.3853 23.4576C12.026 23.4576 11.8591 23.3049 11.794 22.9484C11.7742 22.8353 11.7346 22.7221 11.7403 22.6118C11.7742 21.964 11.3952 21.715 10.8435 21.4774C10.2863 21.2398 9.86193 21.2115 9.4376 21.6556C9.36688 21.7292 9.2707 21.7801 9.18584 21.8395C8.84354 22.0743 8.64835 22.063 8.36264 21.7773C7.63279 21.0503 6.90578 20.3232 6.17876 19.5934C5.88739 19.2992 5.87041 19.1068 6.10238 18.773C6.26362 18.5439 6.41638 18.3063 6.5946 18.0913C6.73321 17.9244 6.75019 17.7716 6.64552 17.5849C6.58894 17.4859 6.55217 17.3756 6.52105 17.2681C6.4475 17.0163 6.55783 16.7815 6.79262 16.6797C7.03025 16.5778 7.29616 16.6457 7.41214 16.8749C7.55076 17.1521 7.6922 17.4378 7.76575 17.7348C7.80535 17.9017 7.7516 18.1252 7.66674 18.2836C7.51398 18.5637 7.30464 18.8126 7.13774 19.0474C7.72614 19.6358 8.30323 20.2101 8.90578 20.8126C9.11794 20.6627 9.38103 20.4817 9.63845 20.2893C9.85062 20.1309 10.0628 20.1026 10.3089 20.2044C10.9284 20.4675 11.5536 20.7221 12.1788 20.9767C12.3994 21.0672 12.5267 21.2228 12.5635 21.4633C12.6144 21.7886 12.6738 22.1139 12.7332 22.4505H15.2056C15.2566 22.1478 15.3131 21.8452 15.3556 21.5425C15.398 21.2483 15.5395 21.0616 15.828 20.9484C16.4079 20.7249 16.9822 20.4817 17.5508 20.2299C17.8506 20.0969 18.1052 20.1224 18.3598 20.3289C18.5861 20.5099 18.8294 20.6655 19.0416 20.8155C19.6328 20.2271 20.2099 19.65 20.8068 19.0559C20.6427 18.8239 20.4617 18.558 20.2693 18.3006C20.1194 18.0998 20.0854 17.8932 20.1844 17.6584C20.4475 17.0276 20.6908 16.3855 20.9822 15.7659C21.0586 15.6047 21.2594 15.4576 21.4348 15.4039C21.7488 15.3048 22.0854 15.2794 22.4305 15.22V12.7362L22.4362 12.7391Z"
          fill="#01EE8A"/>
    <path d="M23.1491 3.37835C23.2142 2.91442 23.2736 2.4618 23.3415 2.00919C23.398 1.64144 23.5791 1.47736 23.8846 1.49716C24.1929 1.51697 24.374 1.72913 24.3344 2.07991C24.2523 2.77015 24.1449 3.45756 24.0487 4.1478C24.0317 4.26096 24.0232 4.37411 24.0006 4.48727C23.9525 4.71923 23.8309 4.89745 23.5847 4.93706C22.7531 5.06435 21.9214 5.18882 21.0869 5.29915C20.7955 5.33875 20.5805 5.14356 20.5381 4.8635C20.4985 4.59476 20.671 4.3628 20.968 4.31471C21.4093 4.24399 21.8507 4.18458 22.3259 4.11669C22.2722 4.05445 22.2439 4.00353 22.1986 3.96959C19.8422 2.11951 17.2 1.01909 14.176 0.976654C11.2113 0.934221 8.55219 1.86492 6.20707 3.65275C3.65261 5.59901 1.95246 8.12801 1.25373 11.2765C0.552178 14.425 1.10663 17.4038 2.62573 20.2214C2.81244 20.5693 3.02743 20.9003 3.22545 21.2398C3.4065 21.5453 3.36123 21.8423 3.10947 22.0064C2.86901 22.1648 2.58613 22.0884 2.39094 21.7942C0.605926 19.121 -0.17201 16.1733 0.0316679 12.9654C0.450339 6.4703 5.28769 1.48302 11.3952 0.286412C15.6781 -0.553759 19.531 0.461801 22.9086 3.23691C22.9652 3.28217 23.0218 3.32744 23.0784 3.3727C23.084 3.37835 23.0982 3.3727 23.1491 3.37553V3.37835Z"
          fill="#01EE8A"/>
    <path d="M4.79554 24.5894C4.7333 25.0421 4.67107 25.4947 4.60318 25.9445C4.54943 26.3009 4.38252 26.465 4.09398 26.4621C3.76866 26.4621 3.56781 26.2415 3.61025 25.8822C3.69228 25.192 3.79695 24.5046 3.89313 23.8143C3.91011 23.6899 3.92142 23.5654 3.94688 23.4438C3.9978 23.209 4.13641 23.0505 4.38252 23.0166C5.20289 22.895 6.02609 22.7705 6.84929 22.6602C7.14066 22.6206 7.35848 22.8101 7.40092 23.0901C7.44052 23.3589 7.27645 23.5937 6.97659 23.6446C6.53811 23.721 6.09398 23.7776 5.58479 23.8539C5.76301 24.0039 5.90162 24.1312 6.05155 24.2443C8.33161 25.9841 10.8832 26.9827 13.7743 26.9855C16.7729 26.9883 19.4434 26.0039 21.7941 24.1764C24.2807 22.2472 25.9695 19.7691 26.6909 16.6856C27.4349 13.5116 26.8804 10.5244 25.3104 7.69833C25.1237 7.3617 24.9115 7.04204 24.7107 6.71389C24.5212 6.40271 24.5664 6.11417 24.821 5.9501C25.0785 5.78602 25.3528 5.87089 25.5565 6.18206C27.135 8.6064 28.0516 11.2401 27.9978 14.1594C27.9356 17.5993 26.6739 20.5781 24.3939 23.1213C22.0572 25.7266 19.1577 27.3504 15.681 27.8568C12.5975 28.3037 9.70926 27.6701 7.03316 26.0916C6.26654 25.639 5.55367 25.1015 4.78988 24.5866L4.79554 24.5894Z"
          fill="#01EE8A"/>
    <path d="M14.2693 18.9795C11.4574 18.9597 9.26502 17.0333 9.04154 14.6655C8.77846 11.896 10.4249 9.58204 13.0302 9.07568C14.0373 8.88049 15.0161 9.02476 15.9666 9.38402C16.1278 9.44343 16.2806 9.54527 16.4164 9.65559C16.6597 9.85361 16.7049 10.0912 16.5635 10.3147C16.422 10.541 16.1561 10.6146 15.8789 10.4731C15.2169 10.1337 14.5239 9.96677 13.7771 9.99788C11.5875 10.0856 9.87606 11.9922 9.99487 14.2101C10.1137 16.4335 12.0486 18.1648 14.2438 17.9639C17.0274 17.7094 18.8407 14.8975 17.5338 12.1931C17.3442 11.7999 17.3725 11.5707 17.6413 11.4038C17.9242 11.2256 18.2127 11.319 18.3824 11.6584C19.299 13.5028 19.1773 15.2822 17.9553 16.9371C16.9708 18.2666 15.613 18.9512 14.2664 18.9852L14.2693 18.9795Z"
          fill="#01EE8A"/>
</svg>
