<svg width="473" height="282" viewBox="0 0 473 282" fill="none" xmlns="http://www.w3.org/2000/svg">
    <g clip-path="url(#clip0_334_220)">
        <rect width="473" height="282" rx="10" fill="#12161D"/>
        <path d="M43.5693 84V82.7256H47.4277V73.752C47.2109 74.209 46.6953 74.6074 45.8809 74.9473C45.0723 75.2871 44.2754 75.457 43.4902 75.457V74.1562C44.3574 74.1562 45.1748 73.9658 45.9424 73.585C46.7158 73.2041 47.2549 72.7236 47.5596 72.1436H49.0186V82.7256H52.1211V84H43.5693ZM43.4551 104V102.972C43.7422 102.333 44.1875 101.691 44.791 101.047C45.4004 100.396 46.2266 99.6553 47.2695 98.8232C48.2012 98.0791 48.8721 97.4316 49.2822 96.8809C49.6924 96.3301 49.8975 95.7998 49.8975 95.29C49.8975 94.6396 49.6953 94.1387 49.291 93.7871C48.8867 93.4355 48.3096 93.2598 47.5596 93.2598C46.8916 93.2598 46.3496 93.4443 45.9336 93.8135C45.5234 94.1768 45.2803 94.6895 45.2041 95.3516L43.5869 95.2021C43.7041 94.2061 44.1113 93.418 44.8086 92.8379C45.5059 92.252 46.4229 91.959 47.5596 91.959C48.8076 91.959 49.7803 92.2402 50.4775 92.8027C51.1748 93.3652 51.5234 94.1621 51.5234 95.1934C51.5234 95.8672 51.3008 96.541 50.8555 97.2148C50.4102 97.8828 49.7451 98.5684 48.8604 99.2715C47.6533 100.232 46.8154 100.941 46.3467 101.398C45.8838 101.85 45.5557 102.289 45.3623 102.717H51.7168V104H43.4551ZM51.8486 120.748C51.8486 121.838 51.4795 122.682 50.7412 123.279C50.0029 123.877 48.9717 124.176 47.6475 124.176C46.3936 124.176 45.3916 123.892 44.6416 123.323C43.8916 122.755 43.4492 121.92 43.3145 120.818L44.9492 120.669C45.1602 122.134 46.0596 122.866 47.6475 122.866C48.4443 122.866 49.0684 122.682 49.5195 122.312C49.9766 121.943 50.2051 121.404 50.2051 120.695C50.2051 120.256 50.0703 119.887 49.8008 119.588C49.5371 119.283 49.1768 119.052 48.7197 118.894C48.2627 118.729 47.75 118.647 47.1816 118.647H46.2852V117.276H47.1465C47.6504 117.276 48.1104 117.194 48.5264 117.03C48.9482 116.86 49.2793 116.623 49.5195 116.318C49.7598 116.014 49.8799 115.653 49.8799 115.237C49.8799 114.616 49.6836 114.133 49.291 113.787C48.9043 113.436 48.3271 113.26 47.5596 113.26C46.8623 113.26 46.2969 113.438 45.8633 113.796C45.4355 114.153 45.1865 114.657 45.1162 115.308L43.5254 115.185C43.6426 114.171 44.0615 113.38 44.7822 112.812C45.5088 112.243 46.4404 111.959 47.5771 111.959C48.8193 111.959 49.7832 112.234 50.4688 112.785C51.1602 113.33 51.5059 114.092 51.5059 115.07C51.5059 115.768 51.2744 116.374 50.8115 116.89C50.3486 117.405 49.7158 117.745 48.9131 117.909V117.944C49.7979 118.044 50.5068 118.354 51.04 118.876C51.5791 119.397 51.8486 120.021 51.8486 120.748ZM50.4248 141.196V144H48.8428V141.196H43.0947V139.966L48.6758 132.144H50.4248V139.948H52.0771V141.196H50.4248ZM48.8428 133.857L44.4482 139.948H48.8428V133.857ZM51.8486 160.098C51.8486 160.912 51.6758 161.627 51.3301 162.242C50.9844 162.857 50.4775 163.335 49.8096 163.675C49.1475 164.009 48.3623 164.176 47.4541 164.176C46.2998 164.176 45.3682 163.924 44.6592 163.42C43.9502 162.916 43.502 162.187 43.3145 161.231L44.9141 161.047C45.248 162.271 46.1064 162.884 47.4893 162.884C48.3154 162.884 48.9746 162.638 49.4668 162.146C49.959 161.653 50.2051 160.982 50.2051 160.133C50.2051 159.406 49.9619 158.812 49.4756 158.349C48.9893 157.886 48.3389 157.654 47.5244 157.654C47.0967 157.654 46.6982 157.722 46.3291 157.856C45.96 157.991 45.5908 158.22 45.2217 158.542H43.6748L44.0879 152.144H51.1279V153.418H45.5469L45.292 157.153C45.9775 156.626 46.8301 156.362 47.8496 156.362C49.0449 156.362 50.0088 156.708 50.7412 157.399C51.4795 158.085 51.8486 158.984 51.8486 160.098ZM51.8223 180.08C51.8223 181.322 51.4648 182.315 50.75 183.06C50.041 183.804 49.0654 184.176 47.8232 184.176C46.4404 184.176 45.377 183.672 44.6328 182.664C43.8887 181.65 43.5166 180.215 43.5166 178.357C43.5166 176.318 43.9033 174.742 44.6768 173.629C45.4502 172.516 46.54 171.959 47.9463 171.959C49.8154 171.959 50.9932 172.8 51.4795 174.481L49.9678 174.754C49.6572 173.746 48.9775 173.242 47.9287 173.242C47.0322 173.242 46.335 173.649 45.8369 174.464C45.3389 175.278 45.0898 176.421 45.0898 177.892C45.377 177.358 45.7812 176.954 46.3027 176.679C46.8242 176.397 47.4219 176.257 48.0957 176.257C49.2207 176.257 50.123 176.605 50.8027 177.303C51.4824 177.994 51.8223 178.92 51.8223 180.08ZM50.2139 180.15C50.2139 179.307 49.9883 178.65 49.5371 178.182C49.0918 177.713 48.4854 177.479 47.7178 177.479C47.2842 177.479 46.874 177.578 46.4873 177.777C46.1006 177.971 45.7959 178.243 45.5732 178.595C45.3564 178.94 45.248 179.333 45.248 179.772C45.248 180.663 45.4824 181.407 45.9512 182.005C46.4258 182.603 47.0322 182.901 47.7705 182.901C48.5146 182.901 49.1064 182.655 49.5459 182.163C49.9912 181.671 50.2139 181 50.2139 180.15ZM51.585 193.365C48.8135 197.35 47.4277 200.895 47.4277 204H45.7754C45.7754 202.459 46.1328 200.798 46.8477 199.017C47.5684 197.229 48.6377 195.363 50.0557 193.418H43.5781V192.144H51.585V193.365ZM51.8047 220.678C51.8047 221.756 51.4385 222.608 50.7061 223.235C49.9795 223.862 48.9395 224.176 47.5859 224.176C46.2617 224.176 45.2246 223.868 44.4746 223.253C43.7305 222.638 43.3584 221.785 43.3584 220.695C43.3584 219.939 43.5898 219.298 44.0527 218.771C44.5156 218.237 45.1074 217.909 45.8281 217.786V217.751C45.1719 217.593 44.6445 217.259 44.2461 216.749C43.8477 216.239 43.6484 215.656 43.6484 215C43.6484 214.426 43.8096 213.904 44.1318 213.436C44.46 212.967 44.9199 212.604 45.5117 212.346C46.1035 212.088 46.7832 211.959 47.5508 211.959C48.3535 211.959 49.0537 212.091 49.6514 212.354C50.249 212.612 50.7061 212.973 51.0225 213.436C51.3389 213.898 51.4971 214.426 51.4971 215.018C51.4971 215.68 51.2949 216.266 50.8906 216.775C50.4863 217.285 49.9561 217.604 49.2998 217.733V217.769C50.0615 217.892 50.668 218.214 51.1191 218.735C51.5762 219.251 51.8047 219.898 51.8047 220.678ZM49.8535 215.105C49.8535 214.455 49.6543 213.966 49.2559 213.638C48.8633 213.304 48.2949 213.137 47.5508 213.137C46.8301 213.137 46.2676 213.304 45.8633 213.638C45.4648 213.972 45.2656 214.461 45.2656 215.105C45.2656 215.756 45.4678 216.26 45.8721 216.617C46.2764 216.975 46.8418 217.153 47.5684 217.153C49.0918 217.153 49.8535 216.471 49.8535 215.105ZM50.1611 220.528C50.1611 219.825 49.9326 219.286 49.4756 218.911C49.0186 218.53 48.377 218.34 47.5508 218.34C46.7539 218.34 46.127 218.545 45.6699 218.955C45.2188 219.359 44.9932 219.896 44.9932 220.563C44.9932 221.354 45.2129 221.958 45.6523 222.374C46.0977 222.784 46.748 222.989 47.6035 222.989C48.4648 222.989 49.1064 222.787 49.5283 222.383C49.9502 221.979 50.1611 221.36 50.1611 220.528ZM51.7432 237.821C51.7432 239.849 51.3535 241.416 50.5742 242.523C49.7949 243.625 48.6904 244.176 47.2607 244.176C46.2939 244.176 45.5176 243.974 44.9316 243.569C44.3516 243.159 43.9355 242.5 43.6836 241.592L45.1953 241.354C45.5117 242.386 46.209 242.901 47.2871 242.901C48.1895 242.901 48.8926 242.494 49.3965 241.68C49.9062 240.859 50.167 239.729 50.1787 238.287C49.9443 238.814 49.543 239.239 48.9746 239.562C48.4062 239.878 47.7822 240.036 47.1025 240.036C45.9951 240.036 45.1045 239.664 44.4307 238.92C43.7627 238.17 43.4287 237.194 43.4287 235.993C43.4287 234.751 43.7949 233.77 44.5273 233.049C45.2656 232.322 46.2734 231.959 47.5508 231.959C50.3457 231.959 51.7432 233.913 51.7432 237.821ZM50.0205 236.424C50.0205 235.48 49.7861 234.716 49.3174 234.13C48.8486 233.538 48.2422 233.242 47.498 233.242C46.7363 233.242 46.1357 233.497 45.6963 234.007C45.2568 234.517 45.0371 235.179 45.0371 235.993C45.0371 236.831 45.2568 237.508 45.6963 238.023C46.1357 238.533 46.7305 238.788 47.4805 238.788C47.9258 238.788 48.3447 238.688 48.7373 238.489C49.1357 238.284 49.4492 238.003 49.6777 237.646C49.9062 237.282 50.0205 236.875 50.0205 236.424ZM32.7588 264V262.726H36.6172V253.752C36.4004 254.209 35.8848 254.607 35.0703 254.947C34.2617 255.287 33.4648 255.457 32.6797 255.457V254.156C33.5469 254.156 34.3643 253.966 35.1318 253.585C35.9053 253.204 36.4443 252.724 36.749 252.144H38.208V262.726H41.3105V264H32.7588ZM51.8838 258.067C51.8838 260.048 51.5176 261.562 50.7852 262.611C50.0586 263.654 48.9834 264.176 47.5596 264.176C46.1357 264.176 45.0664 263.657 44.3516 262.62C43.6367 261.577 43.2793 260.06 43.2793 258.067C43.2793 256.022 43.6279 254.493 44.3252 253.479C45.0225 252.466 46.1182 251.959 47.6123 251.959C49.0713 251.959 50.1465 252.472 50.8379 253.497C51.5352 254.517 51.8838 256.04 51.8838 258.067ZM50.2754 258.067C50.2754 256.368 50.0674 255.141 49.6514 254.385C49.2412 253.623 48.5615 253.242 47.6123 253.242C46.6396 253.242 45.9395 253.617 45.5117 254.367C45.0898 255.117 44.8789 256.351 44.8789 258.067C44.8789 259.737 45.0928 260.959 45.5205 261.732C45.9541 262.5 46.6396 262.884 47.5771 262.884C48.5088 262.884 49.1914 262.488 49.625 261.697C50.0586 260.906 50.2754 259.696 50.2754 258.067ZM46.5488 259.122V256.934H48.6143V259.122H46.5488Z"
              fill="#30363D"/>
        <circle cx="32" cy="28" r="6" fill="#ED6A5E"/>
        <circle cx="52.5137" cy="28" r="6" fill="#F6BD4F"/>
        <circle cx="73.0273" cy="28" r="6" fill="#61C354"/>
    </g>
    <defs>
        <clipPath id="clip0_334_220">
            <rect width="473" height="282" fill="white"/>
        </clipPath>
    </defs>
</svg>
