<svg width="570" height="342" viewBox="0 0 570 342" fill="none" xmlns="http://www.w3.org/2000/svg">
    <rect x="0.5" y="0.5" width="569" height="340.9" rx="19.5" fill="#12161D" stroke="#12161D"/>
    <circle cx="22.0341" cy="19.0273" r="5.99215" fill="#ED6A5E"/>
    <circle cx="43.0185" cy="19.0273" r="5.99215" fill="#F6BD4F"/>
    <circle cx="64.0029" cy="19.0273" r="5.99215" fill="#61C354"/>
    <path d="M108.45 90.3643C108.45 92.1104 108.207 93.502 107.721 94.5391C107.24 95.5703 106.59 96.0859 105.77 96.0859C104.932 96.0859 104.513 95.626 104.513 94.7061V94.6357L104.53 94.3721H104.478C104.278 94.8877 103.997 95.3037 103.634 95.6201C103.276 95.9307 102.869 96.0859 102.412 96.0859C101.791 96.0859 101.305 95.793 100.953 95.207C100.607 94.6211 100.435 93.7861 100.435 92.7021C100.435 91.7588 100.575 90.8682 100.856 90.0303C101.144 89.1924 101.53 88.5332 102.017 88.0527C102.509 87.5664 103.057 87.3232 103.66 87.3232C104.076 87.3232 104.416 87.4463 104.68 87.6924C104.949 87.9326 105.148 88.3164 105.277 88.8438H105.321L105.603 87.5166H106.622L105.752 91.9727C105.518 93.2031 105.4 94.0176 105.4 94.416C105.4 94.9316 105.544 95.1895 105.831 95.1895C106.288 95.1895 106.66 94.7529 106.947 93.8799C107.24 93.0068 107.387 91.8408 107.387 90.3818C107.387 88.7764 107.067 87.4756 106.429 86.4795C105.79 85.4775 104.943 84.9766 103.889 84.9766C103.021 84.9766 102.254 85.293 101.586 85.9258C100.918 86.5527 100.402 87.4375 100.039 88.5801C99.6758 89.7227 99.4941 91.0234 99.4941 92.4824C99.4941 94.293 99.834 95.7402 100.514 96.8242C101.193 97.9082 102.125 98.4502 103.309 98.4502C103.859 98.4502 104.39 98.3477 104.899 98.1426C105.409 97.9375 105.96 97.5771 106.552 97.0615L107.176 97.8262C106.502 98.4062 105.849 98.8281 105.216 99.0918C104.583 99.3555 103.918 99.4873 103.221 99.4873C102.254 99.4873 101.401 99.2031 100.663 98.6348C99.9307 98.0664 99.3682 97.249 98.9756 96.1826C98.583 95.1104 98.3867 93.877 98.3867 92.4824C98.3867 90.8066 98.6123 89.3213 99.0635 88.0264C99.5146 86.7256 100.159 85.7236 100.997 85.0205C101.835 84.3115 102.805 83.957 103.906 83.957C104.832 83.957 105.635 84.2236 106.314 84.7568C107 85.2842 107.527 86.0342 107.896 87.0068C108.266 87.9736 108.45 89.0928 108.45 90.3643ZM104.812 90.1094C104.812 89.4883 104.709 89.0195 104.504 88.7031C104.299 88.3809 104.023 88.2197 103.678 88.2197C103.309 88.2197 102.969 88.416 102.658 88.8086C102.348 89.1953 102.096 89.7461 101.902 90.4609C101.715 91.1699 101.621 91.9111 101.621 92.6846C101.621 94.3311 101.955 95.1543 102.623 95.1543C103.057 95.1543 103.446 94.876 103.792 94.3193C104.138 93.7627 104.393 93.0244 104.557 92.1045C104.727 91.1846 104.812 90.5195 104.812 90.1094ZM116.387 95.4707C116.1 96.0859 115.719 96.5342 115.244 96.8154C114.77 97.0908 114.178 97.2285 113.469 97.2285C112.285 97.2285 111.415 96.8213 110.858 96.0068C110.302 95.1924 110.023 93.9648 110.023 92.3242C110.023 89.0078 111.172 87.3496 113.469 87.3496C114.178 87.3496 114.77 87.4756 115.244 87.7275C115.725 87.9795 116.108 88.3926 116.396 88.9668H116.413L116.396 87.6396V83.957H117.978V95.04C117.978 96.0303 117.995 96.6836 118.03 97H116.519C116.495 96.9121 116.475 96.6982 116.457 96.3584C116.439 96.0186 116.431 95.7227 116.431 95.4707H116.387ZM111.658 92.2715C111.658 93.5723 111.831 94.5215 112.177 95.1191C112.528 95.7109 113.097 96.0068 113.882 96.0068C114.737 96.0068 115.37 95.6992 115.78 95.084C116.19 94.4629 116.396 93.4785 116.396 92.1309C116.396 90.8711 116.196 89.9541 115.798 89.3799C115.405 88.8057 114.772 88.5186 113.899 88.5186C113.108 88.5186 112.537 88.8203 112.186 89.4238C111.834 90.0273 111.658 90.9766 111.658 92.2715ZM122.829 87.4902V93.5195C122.829 94.4336 122.973 95.0693 123.26 95.4268C123.547 95.7783 124.06 95.9541 124.798 95.9541C125.554 95.9541 126.151 95.6963 126.591 95.1807C127.03 94.665 127.25 93.9385 127.25 93.001V87.4902H128.841V94.9697C128.841 96.0771 128.858 96.7539 128.894 97H127.399C127.394 96.9707 127.388 96.8916 127.382 96.7627C127.376 96.6338 127.367 96.4873 127.355 96.3232C127.35 96.1533 127.341 95.8369 127.329 95.374H127.303C126.939 96.0303 126.518 96.4961 126.037 96.7715C125.562 97.041 124.971 97.1758 124.262 97.1758C123.219 97.1758 122.454 96.918 121.968 96.4023C121.487 95.8809 121.247 95.0225 121.247 93.8271V87.4902H122.829ZM139.616 88.9316C138.96 88.8203 138.339 88.7646 137.753 88.7646C136.81 88.7646 136.048 89.1191 135.468 89.8281C134.888 90.5371 134.598 91.4395 134.598 92.5352V97H133.016V90.8389C133.016 90.3936 132.975 89.8691 132.893 89.2656C132.816 88.6621 132.705 88.0703 132.559 87.4902H134.062C134.296 88.2988 134.437 89.0312 134.483 89.6875H134.527C134.82 89.0312 135.107 88.5508 135.389 88.2461C135.67 87.9355 136.004 87.7041 136.391 87.5518C136.777 87.3936 137.249 87.3145 137.806 87.3145C138.415 87.3145 139.019 87.3643 139.616 87.4639V88.9316ZM150.919 96.0244C151.071 96.0244 151.244 96.0039 151.438 95.9629V96.9473C151.039 97.041 150.632 97.0879 150.216 97.0879C149.63 97.0879 149.202 96.9355 148.933 96.6309C148.669 96.3203 148.52 95.8369 148.484 95.1807H148.432C148.051 95.8896 147.6 96.3994 147.078 96.71C146.562 97.0205 145.924 97.1758 145.162 97.1758C144.236 97.1758 143.539 96.9238 143.07 96.4199C142.602 95.916 142.367 95.2246 142.367 94.3457C142.367 92.3008 143.697 91.2637 146.357 91.2344L148.432 91.1992V90.6807C148.432 89.9131 148.276 89.3623 147.966 89.0283C147.655 88.6885 147.16 88.5186 146.48 88.5186C145.789 88.5186 145.291 88.6416 144.986 88.8877C144.682 89.1338 144.5 89.5146 144.441 90.0303L142.789 89.8809C143.059 88.1699 144.298 87.3145 146.507 87.3145C147.679 87.3145 148.558 87.5898 149.144 88.1406C149.735 88.6855 150.031 89.4766 150.031 90.5137V94.6094C150.031 95.0781 150.093 95.4326 150.216 95.6729C150.339 95.9072 150.573 96.0244 150.919 96.0244ZM145.566 95.9717C146.129 95.9717 146.627 95.8369 147.061 95.5674C147.494 95.2979 147.831 94.9375 148.071 94.4863C148.312 94.0352 148.432 93.5693 148.432 93.0889V92.3066L146.762 92.3418C146.07 92.3535 145.543 92.4297 145.18 92.5703C144.816 92.7109 144.532 92.9277 144.327 93.2207C144.128 93.5078 144.028 93.8916 144.028 94.3721C144.028 94.8525 144.157 95.2393 144.415 95.5322C144.679 95.8252 145.062 95.9717 145.566 95.9717ZM161.633 92.2012C161.633 93.8652 161.334 95.1104 160.736 95.9365C160.145 96.7627 159.295 97.1758 158.188 97.1758C156.758 97.1758 155.779 96.6367 155.252 95.5586H155.234C155.234 95.8398 155.223 96.1328 155.199 96.4375C155.182 96.7422 155.167 96.9297 155.155 97H153.626C153.661 96.6836 153.679 96.0303 153.679 95.04V83.957H155.261V87.6748C155.261 88.0557 155.249 88.5156 155.226 89.0547H155.261C155.794 87.8828 156.772 87.2969 158.196 87.2969C160.487 87.2969 161.633 88.9316 161.633 92.2012ZM159.998 92.2539C159.998 90.9414 159.816 89.9922 159.453 89.4062C159.096 88.8145 158.533 88.5186 157.766 88.5186C156.893 88.5186 156.257 88.8408 155.858 89.4854C155.46 90.124 155.261 91.0938 155.261 92.3945C155.261 93.6191 155.454 94.5273 155.841 95.1191C156.228 95.7109 156.863 96.0068 157.748 96.0068C158.539 96.0068 159.11 95.7021 159.462 95.0928C159.819 94.4775 159.998 93.5312 159.998 92.2539ZM169.332 95.752H172.672V97H164.041V95.752H167.75V85.2051H165.21V83.957H169.332V95.752ZM176.504 92.5791C176.504 93.6455 176.738 94.4805 177.207 95.084C177.682 95.6875 178.329 95.9893 179.149 95.9893C179.753 95.9893 180.28 95.8604 180.731 95.6025C181.188 95.3389 181.493 94.9814 181.646 94.5303L183.034 94.9258C182.776 95.6523 182.302 96.209 181.61 96.5957C180.925 96.9824 180.104 97.1758 179.149 97.1758C177.767 97.1758 176.703 96.7451 175.959 95.8838C175.215 95.0225 174.843 93.7891 174.843 92.1836C174.843 90.6191 175.206 89.418 175.933 88.5801C176.665 87.7363 177.72 87.3145 179.097 87.3145C180.474 87.3145 181.517 87.7334 182.226 88.5713C182.935 89.4092 183.289 90.6748 183.289 92.3682V92.5791H176.504ZM179.114 88.4834C178.329 88.4834 177.708 88.7412 177.251 89.2568C176.794 89.7666 176.551 90.4697 176.521 91.3662H181.654C181.49 89.4443 180.644 88.4834 179.114 88.4834ZM224.896 129.573H223.648L223.297 123.957H225.266L224.896 129.573ZM220.95 129.573H219.711L219.351 123.957H221.319L220.95 129.573ZM235.417 137V131.524H230.829V137H229.15V125.144H230.829V130.118H235.417V125.144H237.096V137H235.417ZM245.085 135.752H248.425V137H239.794V135.752H243.503V128.738H240.699V127.49H245.085V135.752ZM243.327 125.645V123.957H245.085V125.645H243.327ZM257.328 129.573H256.08L255.729 123.957H257.697L257.328 129.573ZM253.382 129.573H252.143L251.782 123.957H253.751L253.382 129.573Z"
          fill="#01EE8A"/>
    <path d="M105.576 115.471C105.289 116.086 104.908 116.534 104.434 116.815C103.959 117.091 103.367 117.229 102.658 117.229C101.475 117.229 100.604 116.821 100.048 116.007C99.4912 115.192 99.2129 113.965 99.2129 112.324C99.2129 109.008 100.361 107.35 102.658 107.35C103.367 107.35 103.959 107.476 104.434 107.728C104.914 107.979 105.298 108.393 105.585 108.967H105.603L105.585 107.64V103.957H107.167V115.04C107.167 116.03 107.185 116.684 107.22 117H105.708C105.685 116.912 105.664 116.698 105.646 116.358C105.629 116.019 105.62 115.723 105.62 115.471H105.576ZM100.848 112.271C100.848 113.572 101.021 114.521 101.366 115.119C101.718 115.711 102.286 116.007 103.071 116.007C103.927 116.007 104.56 115.699 104.97 115.084C105.38 114.463 105.585 113.479 105.585 112.131C105.585 110.871 105.386 109.954 104.987 109.38C104.595 108.806 103.962 108.519 103.089 108.519C102.298 108.519 101.727 108.82 101.375 109.424C101.023 110.027 100.848 110.977 100.848 112.271ZM111.641 112.579C111.641 113.646 111.875 114.48 112.344 115.084C112.818 115.688 113.466 115.989 114.286 115.989C114.89 115.989 115.417 115.86 115.868 115.603C116.325 115.339 116.63 114.981 116.782 114.53L118.171 114.926C117.913 115.652 117.438 116.209 116.747 116.596C116.062 116.982 115.241 117.176 114.286 117.176C112.903 117.176 111.84 116.745 111.096 115.884C110.352 115.022 109.979 113.789 109.979 112.184C109.979 110.619 110.343 109.418 111.069 108.58C111.802 107.736 112.856 107.314 114.233 107.314C115.61 107.314 116.653 107.733 117.362 108.571C118.071 109.409 118.426 110.675 118.426 112.368V112.579H111.641ZM114.251 108.483C113.466 108.483 112.845 108.741 112.388 109.257C111.931 109.767 111.688 110.47 111.658 111.366H116.791C116.627 109.444 115.78 108.483 114.251 108.483ZM124.719 108.738V117H123.137V108.738H120.834V107.49H123.137V107.271C123.137 106.069 123.418 105.217 123.98 104.713C124.549 104.209 125.492 103.957 126.811 103.957C127.232 103.957 127.687 103.978 128.173 104.019C128.665 104.054 129.034 104.095 129.28 104.142V105.416C129.104 105.387 128.747 105.354 128.208 105.319C127.675 105.284 127.271 105.267 126.995 105.267C126.386 105.267 125.926 105.334 125.615 105.469C125.305 105.604 125.076 105.823 124.93 106.128C124.789 106.433 124.719 106.857 124.719 107.402V107.49H129.034V108.738H124.719ZM150.427 128.932C149.771 128.82 149.149 128.765 148.563 128.765C147.62 128.765 146.858 129.119 146.278 129.828C145.698 130.537 145.408 131.439 145.408 132.535V137H143.826V130.839C143.826 130.394 143.785 129.869 143.703 129.266C143.627 128.662 143.516 128.07 143.369 127.49H144.872C145.106 128.299 145.247 129.031 145.294 129.688H145.338C145.631 129.031 145.918 128.551 146.199 128.246C146.48 127.936 146.814 127.704 147.201 127.552C147.588 127.394 148.06 127.314 148.616 127.314C149.226 127.314 149.829 127.364 150.427 127.464V128.932ZM154.883 132.579C154.883 133.646 155.117 134.48 155.586 135.084C156.061 135.688 156.708 135.989 157.528 135.989C158.132 135.989 158.659 135.86 159.11 135.603C159.567 135.339 159.872 134.981 160.024 134.53L161.413 134.926C161.155 135.652 160.681 136.209 159.989 136.596C159.304 136.982 158.483 137.176 157.528 137.176C156.146 137.176 155.082 136.745 154.338 135.884C153.594 135.022 153.222 133.789 153.222 132.184C153.222 130.619 153.585 129.418 154.312 128.58C155.044 127.736 156.099 127.314 157.476 127.314C158.853 127.314 159.896 127.733 160.604 128.571C161.313 129.409 161.668 130.675 161.668 132.368V132.579H154.883ZM157.493 128.483C156.708 128.483 156.087 128.741 155.63 129.257C155.173 129.767 154.93 130.47 154.9 131.366H160.033C159.869 129.444 159.022 128.483 157.493 128.483ZM164.533 128.738V127.49H166.027L166.537 125.012H167.592V127.49H171.389V128.738H167.592V134.469C167.592 134.932 167.715 135.274 167.961 135.497C168.213 135.72 168.623 135.831 169.191 135.831C169.977 135.831 170.847 135.731 171.802 135.532V136.736C170.812 137.006 169.83 137.141 168.857 137.141C167.908 137.141 167.196 136.941 166.722 136.543C166.247 136.139 166.01 135.503 166.01 134.636V128.738H164.533ZM176.882 127.49V133.52C176.882 134.434 177.025 135.069 177.312 135.427C177.6 135.778 178.112 135.954 178.851 135.954C179.606 135.954 180.204 135.696 180.644 135.181C181.083 134.665 181.303 133.938 181.303 133.001V127.49H182.894V134.97C182.894 136.077 182.911 136.754 182.946 137H181.452C181.446 136.971 181.44 136.892 181.435 136.763C181.429 136.634 181.42 136.487 181.408 136.323C181.402 136.153 181.394 135.837 181.382 135.374H181.355C180.992 136.03 180.57 136.496 180.09 136.771C179.615 137.041 179.023 137.176 178.314 137.176C177.271 137.176 176.507 136.918 176.021 136.402C175.54 135.881 175.3 135.022 175.3 133.827V127.49H176.882ZM193.669 128.932C193.013 128.82 192.392 128.765 191.806 128.765C190.862 128.765 190.101 129.119 189.521 129.828C188.94 130.537 188.65 131.439 188.65 132.535V137H187.068V130.839C187.068 130.394 187.027 129.869 186.945 129.266C186.869 128.662 186.758 128.07 186.611 127.49H188.114C188.349 128.299 188.489 129.031 188.536 129.688H188.58C188.873 129.031 189.16 128.551 189.441 128.246C189.723 127.936 190.057 127.704 190.443 127.552C190.83 127.394 191.302 127.314 191.858 127.314C192.468 127.314 193.071 127.364 193.669 127.464V128.932ZM202.924 137V130.892C202.924 130.095 202.769 129.503 202.458 129.116C202.153 128.729 201.664 128.536 200.99 128.536C200.264 128.536 199.666 128.803 199.197 129.336C198.734 129.863 198.503 130.581 198.503 131.489V137H196.921V129.521C196.921 128.413 196.903 127.736 196.868 127.49H198.362C198.368 127.52 198.374 127.599 198.38 127.728C198.386 127.856 198.392 128.006 198.397 128.176C198.409 128.34 198.421 128.653 198.433 129.116H198.459C199.074 127.915 200.088 127.314 201.5 127.314C202.514 127.314 203.27 127.59 203.768 128.141C204.266 128.686 204.515 129.526 204.515 130.663V137H202.924Z"
          fill="#C587C0"/>
    <path d="M145.909 117V110.971C145.909 110.068 145.836 109.438 145.689 109.081C145.549 108.718 145.288 108.536 144.907 108.536C144.532 108.536 144.228 108.817 143.993 109.38C143.765 109.942 143.65 110.704 143.65 111.665V117H142.165V109.521C142.165 108.413 142.147 107.736 142.112 107.49H143.422L143.475 108.606V109.028H143.492C143.691 108.431 143.943 107.997 144.248 107.728C144.553 107.452 144.934 107.314 145.391 107.314C145.906 107.314 146.29 107.455 146.542 107.736C146.8 108.018 146.984 108.451 147.096 109.037H147.113C147.348 108.416 147.626 107.974 147.948 107.71C148.276 107.446 148.689 107.314 149.188 107.314C149.879 107.314 150.374 107.566 150.673 108.07C150.972 108.574 151.121 109.438 151.121 110.663V117H149.645V110.971C149.645 110.068 149.571 109.438 149.425 109.081C149.284 108.718 149.023 108.536 148.643 108.536C148.256 108.536 147.948 108.782 147.72 109.274C147.497 109.767 147.386 110.505 147.386 111.489V117H145.909ZM154.619 120.735C154.186 120.735 153.822 120.703 153.529 120.639V119.452C153.752 119.487 153.998 119.505 154.268 119.505C154.73 119.505 155.164 119.332 155.568 118.986C155.979 118.641 156.324 118.09 156.605 117.334L156.764 116.903L152.633 107.49H154.32L156.641 113.133C157.174 114.445 157.461 115.189 157.502 115.365L157.862 114.398L160.587 107.49H162.257L158.249 117C157.728 118.377 157.186 119.344 156.623 119.9C156.066 120.457 155.398 120.735 154.619 120.735ZM162.819 118.934V118.09H173.7V118.934H162.819ZM178.771 108.738V117H177.189V108.738H174.887V107.49H177.189V107.271C177.189 106.069 177.471 105.217 178.033 104.713C178.602 104.209 179.545 103.957 180.863 103.957C181.285 103.957 181.739 103.978 182.226 104.019C182.718 104.054 183.087 104.095 183.333 104.142V105.416C183.157 105.387 182.8 105.354 182.261 105.319C181.728 105.284 181.323 105.267 181.048 105.267C180.438 105.267 179.979 105.334 179.668 105.469C179.357 105.604 179.129 105.823 178.982 106.128C178.842 106.433 178.771 106.857 178.771 107.402V107.49H183.087V108.738H178.771ZM187.692 107.49V113.52C187.692 114.434 187.836 115.069 188.123 115.427C188.41 115.778 188.923 115.954 189.661 115.954C190.417 115.954 191.015 115.696 191.454 115.181C191.894 114.665 192.113 113.938 192.113 113.001V107.49H193.704V114.97C193.704 116.077 193.722 116.754 193.757 117H192.263C192.257 116.971 192.251 116.892 192.245 116.763C192.239 116.634 192.23 116.487 192.219 116.323C192.213 116.153 192.204 115.837 192.192 115.374H192.166C191.803 116.03 191.381 116.496 190.9 116.771C190.426 117.041 189.834 117.176 189.125 117.176C188.082 117.176 187.317 116.918 186.831 116.402C186.351 115.881 186.11 115.022 186.11 113.827V107.49H187.692ZM202.924 117V110.892C202.924 110.095 202.769 109.503 202.458 109.116C202.153 108.729 201.664 108.536 200.99 108.536C200.264 108.536 199.666 108.803 199.197 109.336C198.734 109.863 198.503 110.581 198.503 111.489V117H196.921V109.521C196.921 108.413 196.903 107.736 196.868 107.49H198.362C198.368 107.52 198.374 107.599 198.38 107.728C198.386 107.856 198.392 108.006 198.397 108.176C198.409 108.34 198.421 108.653 198.433 109.116H198.459C199.074 107.915 200.088 107.314 201.5 107.314C202.514 107.314 203.27 107.59 203.768 108.141C204.266 108.686 204.515 109.526 204.515 110.663V117H202.924ZM207.248 112.236C207.248 110.654 207.626 109.438 208.382 108.589C209.138 107.739 210.23 107.314 211.66 107.314C212.727 107.314 213.605 107.572 214.297 108.088C214.988 108.598 215.416 109.286 215.58 110.153L213.893 110.276C213.799 109.743 213.564 109.324 213.189 109.02C212.814 108.709 212.281 108.554 211.59 108.554C210.664 108.554 209.984 108.841 209.551 109.415C209.123 109.989 208.909 110.918 208.909 112.201C208.909 113.502 209.123 114.454 209.551 115.058C209.984 115.655 210.661 115.954 211.581 115.954C212.214 115.954 212.738 115.799 213.154 115.488C213.57 115.178 213.828 114.703 213.928 114.064L215.598 114.17C215.521 114.732 215.308 115.245 214.956 115.708C214.61 116.165 214.15 116.525 213.576 116.789C213.002 117.047 212.36 117.176 211.651 117.176C210.216 117.176 209.123 116.754 208.373 115.91C207.623 115.066 207.248 113.842 207.248 112.236ZM218.586 108.738V107.49H220.08L220.59 105.012H221.645V107.49H225.441V108.738H221.645V114.469C221.645 114.932 221.768 115.274 222.014 115.497C222.266 115.72 222.676 115.831 223.244 115.831C224.029 115.831 224.899 115.731 225.854 115.532V116.736C224.864 117.006 223.883 117.141 222.91 117.141C221.961 117.141 221.249 116.941 220.774 116.543C220.3 116.139 220.062 115.503 220.062 114.636V108.738H218.586ZM234.274 115.752H237.614V117H228.983V115.752H232.692V108.738H229.889V107.49H234.274V115.752ZM232.517 105.645V103.957H234.274V105.645H232.517ZM248.179 112.236C248.179 113.836 247.81 115.061 247.071 115.91C246.339 116.754 245.278 117.176 243.89 117.176C242.53 117.176 241.487 116.748 240.761 115.893C240.04 115.037 239.68 113.818 239.68 112.236C239.68 110.602 240.049 109.374 240.787 108.554C241.531 107.728 242.583 107.314 243.942 107.314C245.372 107.314 246.436 107.722 247.133 108.536C247.83 109.351 248.179 110.584 248.179 112.236ZM246.518 112.236C246.518 110.977 246.315 110.036 245.911 109.415C245.513 108.794 244.865 108.483 243.969 108.483C243.061 108.483 242.396 108.8 241.974 109.433C241.552 110.065 241.341 111 241.341 112.236C241.341 113.467 241.552 114.404 241.974 115.049C242.396 115.688 243.028 116.007 243.872 116.007C244.804 116.007 245.478 115.693 245.894 115.066C246.31 114.439 246.518 113.496 246.518 112.236ZM256.977 117V110.892C256.977 110.095 256.821 109.503 256.511 109.116C256.206 108.729 255.717 108.536 255.043 108.536C254.316 108.536 253.719 108.803 253.25 109.336C252.787 109.863 252.556 110.581 252.556 111.489V117H250.974V109.521C250.974 108.413 250.956 107.736 250.921 107.49H252.415C252.421 107.52 252.427 107.599 252.433 107.728C252.438 107.856 252.444 108.006 252.45 108.176C252.462 108.34 252.474 108.653 252.485 109.116H252.512C253.127 107.915 254.141 107.314 255.553 107.314C256.566 107.314 257.322 107.59 257.82 108.141C258.318 108.686 258.567 109.526 258.567 110.663V117H256.977ZM264.808 112.342C264.808 113.953 265.057 115.409 265.555 116.71C266.053 118.011 266.864 119.353 267.989 120.735H266.319C265.194 119.353 264.386 118.014 263.894 116.719C263.407 115.418 263.164 113.953 263.164 112.324C263.164 110.725 263.404 109.283 263.885 108C264.365 106.711 265.177 105.363 266.319 103.957H267.989C266.864 105.34 266.053 106.685 265.555 107.991C265.057 109.292 264.808 110.742 264.808 112.342ZM278.747 112.324C278.747 113.965 278.504 115.433 278.018 116.728C277.537 118.017 276.734 119.353 275.609 120.735H273.922C275.07 119.323 275.891 117.967 276.383 116.666C276.875 115.359 277.121 113.918 277.121 112.342C277.121 110.771 276.875 109.336 276.383 108.035C275.891 106.729 275.07 105.369 273.922 103.957H275.609C276.752 105.363 277.561 106.705 278.035 107.982C278.51 109.26 278.747 110.707 278.747 112.324ZM286.139 117V114.372H288.204V117H286.139ZM286.139 110.118V107.49H288.204V110.118H286.139Z"
          fill="#539DD6"/>
    <path d="M48.5693 97V95.7256H52.4277V86.752C52.2109 87.209 51.6953 87.6074 50.8809 87.9473C50.0723 88.2871 49.2754 88.457 48.4902 88.457V87.1562C49.3574 87.1562 50.1748 86.9658 50.9424 86.585C51.7158 86.2041 52.2549 85.7236 52.5596 85.1436H54.0186V95.7256H57.1211V97H48.5693ZM48.4551 117V115.972C48.7422 115.333 49.1875 114.691 49.791 114.047C50.4004 113.396 51.2266 112.655 52.2695 111.823C53.2012 111.079 53.8721 110.432 54.2822 109.881C54.6924 109.33 54.8975 108.8 54.8975 108.29C54.8975 107.64 54.6953 107.139 54.291 106.787C53.8867 106.436 53.3096 106.26 52.5596 106.26C51.8916 106.26 51.3496 106.444 50.9336 106.813C50.5234 107.177 50.2803 107.689 50.2041 108.352L48.5869 108.202C48.7041 107.206 49.1113 106.418 49.8086 105.838C50.5059 105.252 51.4229 104.959 52.5596 104.959C53.8076 104.959 54.7803 105.24 55.4775 105.803C56.1748 106.365 56.5234 107.162 56.5234 108.193C56.5234 108.867 56.3008 109.541 55.8555 110.215C55.4102 110.883 54.7451 111.568 53.8604 112.271C52.6533 113.232 51.8154 113.941 51.3467 114.398C50.8838 114.85 50.5557 115.289 50.3623 115.717H56.7168V117H48.4551ZM56.8486 133.748C56.8486 134.838 56.4795 135.682 55.7412 136.279C55.0029 136.877 53.9717 137.176 52.6475 137.176C51.3936 137.176 50.3916 136.892 49.6416 136.323C48.8916 135.755 48.4492 134.92 48.3145 133.818L49.9492 133.669C50.1602 135.134 51.0596 135.866 52.6475 135.866C53.4443 135.866 54.0684 135.682 54.5195 135.312C54.9766 134.943 55.2051 134.404 55.2051 133.695C55.2051 133.256 55.0703 132.887 54.8008 132.588C54.5371 132.283 54.1768 132.052 53.7197 131.894C53.2627 131.729 52.75 131.647 52.1816 131.647H51.2852V130.276H52.1465C52.6504 130.276 53.1104 130.194 53.5264 130.03C53.9482 129.86 54.2793 129.623 54.5195 129.318C54.7598 129.014 54.8799 128.653 54.8799 128.237C54.8799 127.616 54.6836 127.133 54.291 126.787C53.9043 126.436 53.3271 126.26 52.5596 126.26C51.8623 126.26 51.2969 126.438 50.8633 126.796C50.4355 127.153 50.1865 127.657 50.1162 128.308L48.5254 128.185C48.6426 127.171 49.0615 126.38 49.7822 125.812C50.5088 125.243 51.4404 124.959 52.5771 124.959C53.8193 124.959 54.7832 125.234 55.4688 125.785C56.1602 126.33 56.5059 127.092 56.5059 128.07C56.5059 128.768 56.2744 129.374 55.8115 129.89C55.3486 130.405 54.7158 130.745 53.9131 130.909V130.944C54.7979 131.044 55.5068 131.354 56.04 131.876C56.5791 132.397 56.8486 133.021 56.8486 133.748ZM55.4248 154.196V157H53.8428V154.196H48.0947V152.966L53.6758 145.144H55.4248V152.948H57.0771V154.196H55.4248ZM53.8428 146.857L49.4482 152.948H53.8428V146.857ZM56.8486 173.098C56.8486 173.912 56.6758 174.627 56.3301 175.242C55.9844 175.857 55.4775 176.335 54.8096 176.675C54.1475 177.009 53.3623 177.176 52.4541 177.176C51.2998 177.176 50.3682 176.924 49.6592 176.42C48.9502 175.916 48.502 175.187 48.3145 174.231L49.9141 174.047C50.248 175.271 51.1064 175.884 52.4893 175.884C53.3154 175.884 53.9746 175.638 54.4668 175.146C54.959 174.653 55.2051 173.982 55.2051 173.133C55.2051 172.406 54.9619 171.812 54.4756 171.349C53.9893 170.886 53.3389 170.654 52.5244 170.654C52.0967 170.654 51.6982 170.722 51.3291 170.856C50.96 170.991 50.5908 171.22 50.2217 171.542H48.6748L49.0879 165.144H56.1279V166.418H50.5469L50.292 170.153C50.9775 169.626 51.8301 169.362 52.8496 169.362C54.0449 169.362 55.0088 169.708 55.7412 170.399C56.4795 171.085 56.8486 171.984 56.8486 173.098ZM56.8223 193.08C56.8223 194.322 56.4648 195.315 55.75 196.06C55.041 196.804 54.0654 197.176 52.8232 197.176C51.4404 197.176 50.377 196.672 49.6328 195.664C48.8887 194.65 48.5166 193.215 48.5166 191.357C48.5166 189.318 48.9033 187.742 49.6768 186.629C50.4502 185.516 51.54 184.959 52.9463 184.959C54.8154 184.959 55.9932 185.8 56.4795 187.481L54.9678 187.754C54.6572 186.746 53.9775 186.242 52.9287 186.242C52.0322 186.242 51.335 186.649 50.8369 187.464C50.3389 188.278 50.0898 189.421 50.0898 190.892C50.377 190.358 50.7812 189.954 51.3027 189.679C51.8242 189.397 52.4219 189.257 53.0957 189.257C54.2207 189.257 55.123 189.605 55.8027 190.303C56.4824 190.994 56.8223 191.92 56.8223 193.08ZM55.2139 193.15C55.2139 192.307 54.9883 191.65 54.5371 191.182C54.0918 190.713 53.4854 190.479 52.7178 190.479C52.2842 190.479 51.874 190.578 51.4873 190.777C51.1006 190.971 50.7959 191.243 50.5732 191.595C50.3564 191.94 50.248 192.333 50.248 192.772C50.248 193.663 50.4824 194.407 50.9512 195.005C51.4258 195.603 52.0322 195.901 52.7705 195.901C53.5146 195.901 54.1064 195.655 54.5459 195.163C54.9912 194.671 55.2139 194 55.2139 193.15ZM56.585 206.365C53.8135 210.35 52.4277 213.895 52.4277 217H50.7754C50.7754 215.459 51.1328 213.798 51.8477 212.017C52.5684 210.229 53.6377 208.363 55.0557 206.418H48.5781V205.144H56.585V206.365ZM56.8047 233.678C56.8047 234.756 56.4385 235.608 55.7061 236.235C54.9795 236.862 53.9395 237.176 52.5859 237.176C51.2617 237.176 50.2246 236.868 49.4746 236.253C48.7305 235.638 48.3584 234.785 48.3584 233.695C48.3584 232.939 48.5898 232.298 49.0527 231.771C49.5156 231.237 50.1074 230.909 50.8281 230.786V230.751C50.1719 230.593 49.6445 230.259 49.2461 229.749C48.8477 229.239 48.6484 228.656 48.6484 228C48.6484 227.426 48.8096 226.904 49.1318 226.436C49.46 225.967 49.9199 225.604 50.5117 225.346C51.1035 225.088 51.7832 224.959 52.5508 224.959C53.3535 224.959 54.0537 225.091 54.6514 225.354C55.249 225.612 55.7061 225.973 56.0225 226.436C56.3389 226.898 56.4971 227.426 56.4971 228.018C56.4971 228.68 56.2949 229.266 55.8906 229.775C55.4863 230.285 54.9561 230.604 54.2998 230.733V230.769C55.0615 230.892 55.668 231.214 56.1191 231.735C56.5762 232.251 56.8047 232.898 56.8047 233.678ZM54.8535 228.105C54.8535 227.455 54.6543 226.966 54.2559 226.638C53.8633 226.304 53.2949 226.137 52.5508 226.137C51.8301 226.137 51.2676 226.304 50.8633 226.638C50.4648 226.972 50.2656 227.461 50.2656 228.105C50.2656 228.756 50.4678 229.26 50.8721 229.617C51.2764 229.975 51.8418 230.153 52.5684 230.153C54.0918 230.153 54.8535 229.471 54.8535 228.105ZM55.1611 233.528C55.1611 232.825 54.9326 232.286 54.4756 231.911C54.0186 231.53 53.377 231.34 52.5508 231.34C51.7539 231.34 51.127 231.545 50.6699 231.955C50.2188 232.359 49.9932 232.896 49.9932 233.563C49.9932 234.354 50.2129 234.958 50.6523 235.374C51.0977 235.784 51.748 235.989 52.6035 235.989C53.4648 235.989 54.1064 235.787 54.5283 235.383C54.9502 234.979 55.1611 234.36 55.1611 233.528ZM56.7432 250.821C56.7432 252.849 56.3535 254.416 55.5742 255.523C54.7949 256.625 53.6904 257.176 52.2607 257.176C51.2939 257.176 50.5176 256.974 49.9316 256.569C49.3516 256.159 48.9355 255.5 48.6836 254.592L50.1953 254.354C50.5117 255.386 51.209 255.901 52.2871 255.901C53.1895 255.901 53.8926 255.494 54.3965 254.68C54.9062 253.859 55.167 252.729 55.1787 251.287C54.9443 251.814 54.543 252.239 53.9746 252.562C53.4062 252.878 52.7822 253.036 52.1025 253.036C50.9951 253.036 50.1045 252.664 49.4307 251.92C48.7627 251.17 48.4287 250.194 48.4287 248.993C48.4287 247.751 48.7949 246.77 49.5273 246.049C50.2656 245.322 51.2734 244.959 52.5508 244.959C55.3457 244.959 56.7432 246.913 56.7432 250.821ZM55.0205 249.424C55.0205 248.48 54.7861 247.716 54.3174 247.13C53.8486 246.538 53.2422 246.242 52.498 246.242C51.7363 246.242 51.1357 246.497 50.6963 247.007C50.2568 247.517 50.0371 248.179 50.0371 248.993C50.0371 249.831 50.2568 250.508 50.6963 251.023C51.1357 251.533 51.7305 251.788 52.4805 251.788C52.9258 251.788 53.3447 251.688 53.7373 251.489C54.1357 251.284 54.4492 251.003 54.6777 250.646C54.9062 250.282 55.0205 249.875 55.0205 249.424ZM37.7588 277V275.726H41.6172V266.752C41.4004 267.209 40.8848 267.607 40.0703 267.947C39.2617 268.287 38.4648 268.457 37.6797 268.457V267.156C38.5469 267.156 39.3643 266.966 40.1318 266.585C40.9053 266.204 41.4443 265.724 41.749 265.144H43.208V275.726H46.3105V277H37.7588ZM56.8838 271.067C56.8838 273.048 56.5176 274.562 55.7852 275.611C55.0586 276.654 53.9834 277.176 52.5596 277.176C51.1357 277.176 50.0664 276.657 49.3516 275.62C48.6367 274.577 48.2793 273.06 48.2793 271.067C48.2793 269.022 48.6279 267.493 49.3252 266.479C50.0225 265.466 51.1182 264.959 52.6123 264.959C54.0713 264.959 55.1465 265.472 55.8379 266.497C56.5352 267.517 56.8838 269.04 56.8838 271.067ZM55.2754 271.067C55.2754 269.368 55.0674 268.141 54.6514 267.385C54.2412 266.623 53.5615 266.242 52.6123 266.242C51.6396 266.242 50.9395 266.617 50.5117 267.367C50.0898 268.117 49.8789 269.351 49.8789 271.067C49.8789 272.737 50.0928 273.959 50.5205 274.732C50.9541 275.5 51.6396 275.884 52.5771 275.884C53.5088 275.884 54.1914 275.488 54.625 274.697C55.0586 273.906 55.2754 272.696 55.2754 271.067ZM51.5488 272.122V269.934H53.6143V272.122H51.5488Z"
          fill="#30363D"/>
    <path d="M107.088 231L105.875 227.643H100.927L99.7227 231H98L102.482 219.144H104.39L108.793 231H107.088ZM103.414 220.409L103.309 220.752L102.702 222.615L101.375 226.333H105.444L103.924 221.938L103.414 220.409ZM109.953 226.236C109.953 224.654 110.331 223.438 111.087 222.589C111.843 221.739 112.936 221.314 114.365 221.314C115.432 221.314 116.311 221.572 117.002 222.088C117.693 222.598 118.121 223.286 118.285 224.153L116.598 224.276C116.504 223.743 116.27 223.324 115.895 223.02C115.52 222.709 114.986 222.554 114.295 222.554C113.369 222.554 112.689 222.841 112.256 223.415C111.828 223.989 111.614 224.918 111.614 226.201C111.614 227.502 111.828 228.454 112.256 229.058C112.689 229.655 113.366 229.954 114.286 229.954C114.919 229.954 115.443 229.799 115.859 229.488C116.275 229.178 116.533 228.703 116.633 228.064L118.303 228.17C118.227 228.732 118.013 229.245 117.661 229.708C117.315 230.165 116.855 230.525 116.281 230.789C115.707 231.047 115.065 231.176 114.356 231.176C112.921 231.176 111.828 230.754 111.078 229.91C110.328 229.066 109.953 227.842 109.953 226.236ZM121.291 222.738V221.49H122.785L123.295 219.012H124.35V221.49H128.146V222.738H124.35V228.469C124.35 228.932 124.473 229.274 124.719 229.497C124.971 229.72 125.381 229.831 125.949 229.831C126.734 229.831 127.604 229.731 128.56 229.532V230.736C127.569 231.006 126.588 231.141 125.615 231.141C124.666 231.141 123.954 230.941 123.479 230.543C123.005 230.139 122.768 229.503 122.768 228.636V222.738H121.291ZM136.979 229.752H140.319V231H131.688V229.752H135.397V222.738H132.594V221.49H136.979V229.752ZM135.222 219.645V217.957H136.979V219.645H135.222ZM147.526 231H145.654L141.849 221.49H143.624L145.979 227.678L146.129 228.144L146.586 229.761L146.894 228.732L147.236 227.695L149.662 221.49H151.429L147.526 231ZM161.729 230.024C161.882 230.024 162.055 230.004 162.248 229.963V230.947C161.85 231.041 161.442 231.088 161.026 231.088C160.44 231.088 160.013 230.936 159.743 230.631C159.479 230.32 159.33 229.837 159.295 229.181H159.242C158.861 229.89 158.41 230.399 157.889 230.71C157.373 231.021 156.734 231.176 155.973 231.176C155.047 231.176 154.35 230.924 153.881 230.42C153.412 229.916 153.178 229.225 153.178 228.346C153.178 226.301 154.508 225.264 157.168 225.234L159.242 225.199V224.681C159.242 223.913 159.087 223.362 158.776 223.028C158.466 222.688 157.971 222.519 157.291 222.519C156.6 222.519 156.102 222.642 155.797 222.888C155.492 223.134 155.311 223.515 155.252 224.03L153.6 223.881C153.869 222.17 155.108 221.314 157.317 221.314C158.489 221.314 159.368 221.59 159.954 222.141C160.546 222.686 160.842 223.477 160.842 224.514V228.609C160.842 229.078 160.903 229.433 161.026 229.673C161.149 229.907 161.384 230.024 161.729 230.024ZM156.377 229.972C156.939 229.972 157.438 229.837 157.871 229.567C158.305 229.298 158.642 228.938 158.882 228.486C159.122 228.035 159.242 227.569 159.242 227.089V226.307L157.572 226.342C156.881 226.354 156.354 226.43 155.99 226.57C155.627 226.711 155.343 226.928 155.138 227.221C154.938 227.508 154.839 227.892 154.839 228.372C154.839 228.853 154.968 229.239 155.226 229.532C155.489 229.825 155.873 229.972 156.377 229.972ZM164.533 222.738V221.49H166.027L166.537 219.012H167.592V221.49H171.389V222.738H167.592V228.469C167.592 228.932 167.715 229.274 167.961 229.497C168.213 229.72 168.623 229.831 169.191 229.831C169.977 229.831 170.847 229.731 171.802 229.532V230.736C170.812 231.006 169.83 231.141 168.857 231.141C167.908 231.141 167.196 230.941 166.722 230.543C166.247 230.139 166.01 229.503 166.01 228.636V222.738H164.533ZM176.504 226.579C176.504 227.646 176.738 228.48 177.207 229.084C177.682 229.688 178.329 229.989 179.149 229.989C179.753 229.989 180.28 229.86 180.731 229.603C181.188 229.339 181.493 228.981 181.646 228.53L183.034 228.926C182.776 229.652 182.302 230.209 181.61 230.596C180.925 230.982 180.104 231.176 179.149 231.176C177.767 231.176 176.703 230.745 175.959 229.884C175.215 229.022 174.843 227.789 174.843 226.184C174.843 224.619 175.206 223.418 175.933 222.58C176.665 221.736 177.72 221.314 179.097 221.314C180.474 221.314 181.517 221.733 182.226 222.571C182.935 223.409 183.289 224.675 183.289 226.368V226.579H176.504ZM179.114 222.483C178.329 222.483 177.708 222.741 177.251 223.257C176.794 223.767 176.551 224.47 176.521 225.366H181.654C181.49 223.444 180.644 222.483 179.114 222.483ZM192.061 229.471C191.773 230.086 191.393 230.534 190.918 230.815C190.443 231.091 189.852 231.229 189.143 231.229C187.959 231.229 187.089 230.821 186.532 230.007C185.976 229.192 185.697 227.965 185.697 226.324C185.697 223.008 186.846 221.35 189.143 221.35C189.852 221.35 190.443 221.476 190.918 221.728C191.398 221.979 191.782 222.393 192.069 222.967H192.087L192.069 221.64V217.957H193.651V229.04C193.651 230.03 193.669 230.684 193.704 231H192.192C192.169 230.912 192.148 230.698 192.131 230.358C192.113 230.019 192.104 229.723 192.104 229.471H192.061ZM187.332 226.271C187.332 227.572 187.505 228.521 187.851 229.119C188.202 229.711 188.771 230.007 189.556 230.007C190.411 230.007 191.044 229.699 191.454 229.084C191.864 228.463 192.069 227.479 192.069 226.131C192.069 224.871 191.87 223.954 191.472 223.38C191.079 222.806 190.446 222.519 189.573 222.519C188.782 222.519 188.211 222.82 187.859 223.424C187.508 224.027 187.332 224.977 187.332 226.271ZM213.682 229.471C213.395 230.086 213.014 230.534 212.539 230.815C212.064 231.091 211.473 231.229 210.764 231.229C209.58 231.229 208.71 230.821 208.153 230.007C207.597 229.192 207.318 227.965 207.318 226.324C207.318 223.008 208.467 221.35 210.764 221.35C211.473 221.35 212.064 221.476 212.539 221.728C213.02 221.979 213.403 222.393 213.69 222.967H213.708L213.69 221.64V217.957H215.272V229.04C215.272 230.03 215.29 230.684 215.325 231H213.813C213.79 230.912 213.77 230.698 213.752 230.358C213.734 230.019 213.726 229.723 213.726 229.471H213.682ZM208.953 226.271C208.953 227.572 209.126 228.521 209.472 229.119C209.823 229.711 210.392 230.007 211.177 230.007C212.032 230.007 212.665 229.699 213.075 229.084C213.485 228.463 213.69 227.479 213.69 226.131C213.69 224.871 213.491 223.954 213.093 223.38C212.7 222.806 212.067 222.519 211.194 222.519C210.403 222.519 209.832 222.82 209.48 223.424C209.129 224.027 208.953 224.977 208.953 226.271ZM220.124 221.49V227.52C220.124 228.434 220.268 229.069 220.555 229.427C220.842 229.778 221.354 229.954 222.093 229.954C222.849 229.954 223.446 229.696 223.886 229.181C224.325 228.665 224.545 227.938 224.545 227.001V221.49H226.136V228.97C226.136 230.077 226.153 230.754 226.188 231H224.694C224.688 230.971 224.683 230.892 224.677 230.763C224.671 230.634 224.662 230.487 224.65 230.323C224.645 230.153 224.636 229.837 224.624 229.374H224.598C224.234 230.03 223.812 230.496 223.332 230.771C222.857 231.041 222.266 231.176 221.557 231.176C220.514 231.176 219.749 230.918 219.263 230.402C218.782 229.881 218.542 229.022 218.542 227.827V221.49H220.124ZM236.911 222.932C236.255 222.82 235.634 222.765 235.048 222.765C234.104 222.765 233.343 223.119 232.763 223.828C232.183 224.537 231.893 225.439 231.893 226.535V231H230.311V224.839C230.311 224.394 230.27 223.869 230.188 223.266C230.111 222.662 230 222.07 229.854 221.49H231.356C231.591 222.299 231.731 223.031 231.778 223.688H231.822C232.115 223.031 232.402 222.551 232.684 222.246C232.965 221.936 233.299 221.704 233.686 221.552C234.072 221.394 234.544 221.314 235.101 221.314C235.71 221.314 236.313 221.364 236.911 221.464V222.932ZM248.214 230.024C248.366 230.024 248.539 230.004 248.732 229.963V230.947C248.334 231.041 247.927 231.088 247.511 231.088C246.925 231.088 246.497 230.936 246.228 230.631C245.964 230.32 245.814 229.837 245.779 229.181H245.727C245.346 229.89 244.895 230.399 244.373 230.71C243.857 231.021 243.219 231.176 242.457 231.176C241.531 231.176 240.834 230.924 240.365 230.42C239.896 229.916 239.662 229.225 239.662 228.346C239.662 226.301 240.992 225.264 243.652 225.234L245.727 225.199V224.681C245.727 223.913 245.571 223.362 245.261 223.028C244.95 222.688 244.455 222.519 243.775 222.519C243.084 222.519 242.586 222.642 242.281 222.888C241.977 223.134 241.795 223.515 241.736 224.03L240.084 223.881C240.354 222.17 241.593 221.314 243.802 221.314C244.974 221.314 245.853 221.59 246.438 222.141C247.03 222.686 247.326 223.477 247.326 224.514V228.609C247.326 229.078 247.388 229.433 247.511 229.673C247.634 229.907 247.868 230.024 248.214 230.024ZM242.861 229.972C243.424 229.972 243.922 229.837 244.355 229.567C244.789 229.298 245.126 228.938 245.366 228.486C245.606 228.035 245.727 227.569 245.727 227.089V226.307L244.057 226.342C243.365 226.354 242.838 226.43 242.475 226.57C242.111 226.711 241.827 226.928 241.622 227.221C241.423 227.508 241.323 227.892 241.323 228.372C241.323 228.853 241.452 229.239 241.71 229.532C241.974 229.825 242.357 229.972 242.861 229.972ZM258.928 226.201C258.928 227.865 258.629 229.11 258.031 229.937C257.439 230.763 256.59 231.176 255.482 231.176C254.053 231.176 253.074 230.637 252.547 229.559H252.529C252.529 229.84 252.518 230.133 252.494 230.438C252.477 230.742 252.462 230.93 252.45 231H250.921C250.956 230.684 250.974 230.03 250.974 229.04V217.957H252.556V221.675C252.556 222.056 252.544 222.516 252.521 223.055H252.556C253.089 221.883 254.067 221.297 255.491 221.297C257.782 221.297 258.928 222.932 258.928 226.201ZM257.293 226.254C257.293 224.941 257.111 223.992 256.748 223.406C256.391 222.814 255.828 222.519 255.061 222.519C254.188 222.519 253.552 222.841 253.153 223.485C252.755 224.124 252.556 225.094 252.556 226.395C252.556 227.619 252.749 228.527 253.136 229.119C253.522 229.711 254.158 230.007 255.043 230.007C255.834 230.007 256.405 229.702 256.757 229.093C257.114 228.478 257.293 227.531 257.293 226.254ZM266.627 229.752H269.967V231H261.336V229.752H265.045V219.205H262.505V217.957H266.627V229.752ZM273.799 226.579C273.799 227.646 274.033 228.48 274.502 229.084C274.977 229.688 275.624 229.989 276.444 229.989C277.048 229.989 277.575 229.86 278.026 229.603C278.483 229.339 278.788 228.981 278.94 228.53L280.329 228.926C280.071 229.652 279.597 230.209 278.905 230.596C278.22 230.982 277.399 231.176 276.444 231.176C275.062 231.176 273.998 230.745 273.254 229.884C272.51 229.022 272.138 227.789 272.138 226.184C272.138 224.619 272.501 223.418 273.228 222.58C273.96 221.736 275.015 221.314 276.392 221.314C277.769 221.314 278.812 221.733 279.521 222.571C280.229 223.409 280.584 224.675 280.584 226.368V226.579H273.799ZM276.409 222.483C275.624 222.483 275.003 222.741 274.546 223.257C274.089 223.767 273.846 224.47 273.816 225.366H278.949C278.785 223.444 277.938 222.483 276.409 222.483ZM100.83 246.579C100.83 247.646 101.064 248.48 101.533 249.084C102.008 249.688 102.655 249.989 103.476 249.989C104.079 249.989 104.606 249.86 105.058 249.603C105.515 249.339 105.819 248.981 105.972 248.53L107.36 248.926C107.103 249.652 106.628 250.209 105.937 250.596C105.251 250.982 104.431 251.176 103.476 251.176C102.093 251.176 101.029 250.745 100.285 249.884C99.541 249.022 99.1689 247.789 99.1689 246.184C99.1689 244.619 99.5322 243.418 100.259 242.58C100.991 241.736 102.046 241.314 103.423 241.314C104.8 241.314 105.843 241.733 106.552 242.571C107.261 243.409 107.615 244.675 107.615 246.368V246.579H100.83ZM103.44 242.483C102.655 242.483 102.034 242.741 101.577 243.257C101.12 243.767 100.877 244.47 100.848 245.366H105.98C105.816 243.444 104.97 242.483 103.44 242.483ZM117.002 251L114.181 247.098L111.342 251H109.637L113.284 246.113L109.795 241.49H111.544L114.181 245.19L116.8 241.49H118.566L115.077 246.096L118.769 251H117.002ZM122.451 246.579C122.451 247.646 122.686 248.48 123.154 249.084C123.629 249.688 124.276 249.989 125.097 249.989C125.7 249.989 126.228 249.86 126.679 249.603C127.136 249.339 127.44 248.981 127.593 248.53L128.981 248.926C128.724 249.652 128.249 250.209 127.558 250.596C126.872 250.982 126.052 251.176 125.097 251.176C123.714 251.176 122.65 250.745 121.906 249.884C121.162 249.022 120.79 247.789 120.79 246.184C120.79 244.619 121.153 243.418 121.88 242.58C122.612 241.736 123.667 241.314 125.044 241.314C126.421 241.314 127.464 241.733 128.173 242.571C128.882 243.409 129.236 244.675 129.236 246.368V246.579H122.451ZM125.062 242.483C124.276 242.483 123.655 242.741 123.198 243.257C122.741 243.767 122.498 244.47 122.469 245.366H127.602C127.438 243.444 126.591 242.483 125.062 242.483ZM131.574 246.236C131.574 244.654 131.952 243.438 132.708 242.589C133.464 241.739 134.557 241.314 135.986 241.314C137.053 241.314 137.932 241.572 138.623 242.088C139.314 242.598 139.742 243.286 139.906 244.153L138.219 244.276C138.125 243.743 137.891 243.324 137.516 243.02C137.141 242.709 136.607 242.554 135.916 242.554C134.99 242.554 134.311 242.841 133.877 243.415C133.449 243.989 133.235 244.918 133.235 246.201C133.235 247.502 133.449 248.454 133.877 249.058C134.311 249.655 134.987 249.954 135.907 249.954C136.54 249.954 137.064 249.799 137.48 249.488C137.896 249.178 138.154 248.703 138.254 248.064L139.924 248.17C139.848 248.732 139.634 249.245 139.282 249.708C138.937 250.165 138.477 250.525 137.902 250.789C137.328 251.047 136.687 251.176 135.978 251.176C134.542 251.176 133.449 250.754 132.699 249.91C131.949 249.066 131.574 247.842 131.574 246.236ZM144.45 241.49V247.52C144.45 248.434 144.594 249.069 144.881 249.427C145.168 249.778 145.681 249.954 146.419 249.954C147.175 249.954 147.772 249.696 148.212 249.181C148.651 248.665 148.871 247.938 148.871 247.001V241.49H150.462V248.97C150.462 250.077 150.479 250.754 150.515 251H149.021C149.015 250.971 149.009 250.892 149.003 250.763C148.997 250.634 148.988 250.487 148.977 250.323C148.971 250.153 148.962 249.837 148.95 249.374H148.924C148.561 250.03 148.139 250.496 147.658 250.771C147.184 251.041 146.592 251.176 145.883 251.176C144.84 251.176 144.075 250.918 143.589 250.402C143.108 249.881 142.868 249.022 142.868 247.827V241.49H144.45ZM153.723 242.738V241.49H155.217L155.727 239.012H156.781V241.49H160.578V242.738H156.781V248.469C156.781 248.932 156.904 249.274 157.15 249.497C157.402 249.72 157.812 249.831 158.381 249.831C159.166 249.831 160.036 249.731 160.991 249.532V250.736C160.001 251.006 159.02 251.141 158.047 251.141C157.098 251.141 156.386 250.941 155.911 250.543C155.437 250.139 155.199 249.503 155.199 248.636V242.738H153.723ZM169.411 249.752H172.751V251H164.12V249.752H167.829V242.738H165.025V241.49H169.411V249.752ZM167.653 239.645V237.957H169.411V239.645H167.653ZM183.315 246.236C183.315 247.836 182.946 249.061 182.208 249.91C181.476 250.754 180.415 251.176 179.026 251.176C177.667 251.176 176.624 250.748 175.897 249.893C175.177 249.037 174.816 247.818 174.816 246.236C174.816 244.602 175.186 243.374 175.924 242.554C176.668 241.728 177.72 241.314 179.079 241.314C180.509 241.314 181.572 241.722 182.27 242.536C182.967 243.351 183.315 244.584 183.315 246.236ZM181.654 246.236C181.654 244.977 181.452 244.036 181.048 243.415C180.649 242.794 180.002 242.483 179.105 242.483C178.197 242.483 177.532 242.8 177.11 243.433C176.688 244.065 176.478 245 176.478 246.236C176.478 247.467 176.688 248.404 177.11 249.049C177.532 249.688 178.165 250.007 179.009 250.007C179.94 250.007 180.614 249.693 181.03 249.066C181.446 248.439 181.654 247.496 181.654 246.236ZM192.113 251V244.892C192.113 244.095 191.958 243.503 191.647 243.116C191.343 242.729 190.854 242.536 190.18 242.536C189.453 242.536 188.855 242.803 188.387 243.336C187.924 243.863 187.692 244.581 187.692 245.489V251H186.11V243.521C186.11 242.413 186.093 241.736 186.058 241.49H187.552C187.558 241.52 187.563 241.599 187.569 241.728C187.575 241.856 187.581 242.006 187.587 242.176C187.599 242.34 187.61 242.653 187.622 243.116H187.648C188.264 241.915 189.277 241.314 190.689 241.314C191.703 241.314 192.459 241.59 192.957 242.141C193.455 242.686 193.704 243.526 193.704 244.663V251H192.113ZM199.654 251V248.372H201.72V251H199.654Z"
          fill="#595D75"/>
</svg>
