<svg width="12" height="12" viewBox="0 0 12 12" fill="none" xmlns="http://www.w3.org/2000/svg">
<path fill-rule="evenodd" clip-rule="evenodd" d="M5.68091 3.90625C5.12581 3.90625 4.59344 4.12676 4.20092 4.51928C3.8084 4.9118 3.58789 5.44417 3.58789 5.99927C3.58789 6.55438 3.8084 7.08675 4.20092 7.47926C4.59344 7.87178 5.12581 8.0923 5.68091 8.0923C6.23602 8.0923 6.76839 7.87178 7.1609 7.47926C7.55342 7.08675 7.77394 6.55438 7.77394 5.99927C7.77394 5.44417 7.55342 4.9118 7.1609 4.51928C6.76839 4.12676 6.23602 3.90625 5.68091 3.90625ZM4.4251 5.99927C4.4251 5.66621 4.55741 5.34679 4.79292 5.11128C5.02843 4.87577 5.34785 4.74346 5.68091 4.74346C6.01398 4.74346 6.3334 4.87577 6.56891 5.11128C6.80442 5.34679 6.93673 5.66621 6.93673 5.99927C6.93673 6.33234 6.80442 6.65176 6.56891 6.88727C6.3334 7.12278 6.01398 7.25509 5.68091 7.25509C5.34785 7.25509 5.02843 7.12278 4.79292 6.88727C4.55741 6.65176 4.4251 6.33234 4.4251 5.99927Z" fill="#C4C4C4"/>
<path fill-rule="evenodd" clip-rule="evenodd" d="M5.66706 0C5.41869 0 5.21162 -1.03962e-08 5.04194 0.0111628C4.86851 0.0183849 4.69746 0.0542165 4.53571 0.117209C4.34943 0.194283 4.18016 0.307297 4.03757 0.449797C3.89497 0.592298 3.78184 0.761494 3.70464 0.947721C3.62371 1.14307 3.60195 1.34958 3.59301 1.57395C3.59212 1.65601 3.5704 1.7365 3.52988 1.80786C3.48937 1.87923 3.43139 1.93913 3.36139 1.98195C3.28932 2.0213 3.20844 2.04169 3.12633 2.0412C3.04422 2.04072 2.96358 2.01937 2.89199 1.97916C2.69329 1.87423 2.50353 1.78995 2.29367 1.76205C2.09382 1.73576 1.89076 1.74909 1.69606 1.80129C1.50137 1.85348 1.31887 1.94351 1.15897 2.06623C1.02377 2.175 0.907424 2.30531 0.814597 2.45191C0.719713 2.59367 0.615899 2.77284 0.491992 2.98772L0.478039 3.01228C0.353573 3.22716 0.250318 3.40633 0.175527 3.55926C0.0973874 3.71888 0.035992 3.87628 0.0136665 4.05042C-0.0395799 4.45395 0.0696365 4.8621 0.317294 5.18512C0.446225 5.35312 0.614225 5.47535 0.803992 5.59479C0.874742 5.63662 0.933687 5.69576 0.975282 5.76664C1.01688 5.83753 1.03975 5.91784 1.04176 6C1.03975 6.08217 1.01688 6.16247 0.975282 6.23336C0.933687 6.30424 0.874742 6.36338 0.803992 6.40521C0.614225 6.52465 0.446783 6.64688 0.317294 6.81488C0.194569 6.97478 0.10454 7.15729 0.0523472 7.35198C0.000154849 7.54667 -0.0131785 7.74974 0.0131084 7.94958C0.0359921 8.12372 0.0968293 8.28112 0.174969 8.44074C0.250318 8.59367 0.353573 8.77284 0.478039 8.98772L0.491992 9.01228C0.615899 9.22716 0.719713 9.40633 0.814597 9.54809C0.913387 9.69488 1.01943 9.82716 1.15897 9.93321C1.31883 10.056 1.50131 10.1462 1.696 10.1985C1.8907 10.2507 2.09378 10.2642 2.29367 10.238C2.50353 10.21 2.69329 10.1263 2.89199 10.0208C2.9635 9.98068 3.04404 9.95936 3.12605 9.95887C3.20806 9.95838 3.28885 9.97875 3.36083 10.018C3.43122 10.0605 3.48956 10.1203 3.53031 10.1918C3.57105 10.2632 3.59283 10.3438 3.59357 10.426C3.60195 10.6504 3.62371 10.8569 3.7052 11.0523C3.78227 11.2386 3.89529 11.4078 4.03779 11.5504C4.18029 11.693 4.34949 11.8062 4.53571 11.8833C4.69757 11.9503 4.86502 11.9766 5.04194 11.9883C5.21162 12 5.41869 12 5.66706 12H5.69497C5.94334 12 6.15041 12 6.32009 11.9888C6.49757 11.9766 6.66446 11.9503 6.82632 11.8828C7.0126 11.8057 7.18187 11.6927 7.32446 11.5502C7.46706 11.4077 7.58019 11.2385 7.65739 11.0523C7.73832 10.8569 7.76008 10.6504 7.76901 10.426C7.76981 10.3439 7.79149 10.2633 7.83201 10.1918C7.87253 10.1204 7.93056 10.0604 8.00064 10.0175C8.07276 9.97822 8.15366 9.95793 8.23577 9.95852C8.31788 9.9591 8.39849 9.98055 8.47004 10.0208C8.66874 10.1258 8.8585 10.21 9.06836 10.2374C9.47189 10.2906 9.88005 10.1814 10.2031 9.93377C10.3426 9.82661 10.4486 9.69488 10.5474 9.54809C10.6423 9.40633 10.7461 9.22716 10.87 9.01228L10.884 8.98772C11.0085 8.77284 11.1117 8.59367 11.1865 8.44074C11.2646 8.28112 11.326 8.12316 11.3484 7.94958C11.4016 7.54605 11.2924 7.1379 11.0447 6.81488C10.9158 6.64688 10.7478 6.52465 10.558 6.40521C10.4873 6.36338 10.4283 6.30424 10.3867 6.23336C10.3452 6.16247 10.3223 6.08217 10.3203 6C10.3203 5.84484 10.4051 5.69079 10.558 5.59479C10.7478 5.47535 10.9152 5.35312 11.0447 5.18512C11.1675 5.02522 11.2575 4.84271 11.3097 4.64802C11.3619 4.45333 11.3752 4.25026 11.3489 4.05042C11.3224 3.87891 11.2677 3.71296 11.1871 3.55926C11.0918 3.37381 10.9907 3.1914 10.884 3.01228L10.87 2.98772C10.7681 2.80582 10.6605 2.62713 10.5474 2.45191C10.4546 2.30546 10.3383 2.17534 10.2031 2.06679C10.0432 1.94397 9.86072 1.85384 9.66603 1.80155C9.47133 1.74926 9.26825 1.73584 9.06836 1.76205C8.8585 1.78995 8.66874 1.87367 8.47004 1.97916C8.39851 2.01927 8.31798 2.04056 8.23598 2.04105C8.15398 2.04154 8.0732 2.0212 8.0012 1.98195C7.93099 1.93927 7.87279 1.87942 7.83207 1.80805C7.79136 1.73667 7.76947 1.65612 7.76846 1.57395C7.76008 1.34958 7.73832 1.14307 7.65683 0.947721C7.57976 0.761442 7.46674 0.59217 7.32424 0.449574C7.18174 0.306977 7.01254 0.19385 6.82632 0.116651C6.66446 0.0496744 6.49702 0.0234419 6.32009 0.0117209C6.15041 1.55942e-08 5.94334 0 5.69497 0H5.66706ZM4.85608 0.890233C4.89906 0.872372 4.96436 0.856186 5.09888 0.846698C5.23674 0.837209 5.41534 0.837209 5.68102 0.837209C5.94669 0.837209 6.12529 0.837209 6.26315 0.846698C6.39767 0.856186 6.46297 0.872372 6.50595 0.890233C6.67729 0.961116 6.81292 1.09674 6.88381 1.26809C6.90613 1.32167 6.92455 1.40595 6.93181 1.60521C6.94855 2.04726 7.17683 2.47312 7.58204 2.70698C7.98725 2.9414 8.47004 2.92577 8.86129 2.71926C9.03767 2.62605 9.11971 2.59981 9.17776 2.59256C9.36114 2.56833 9.54665 2.61791 9.69348 2.73042C9.73032 2.75888 9.7772 2.80744 9.85255 2.91907C9.93013 3.03405 10.0194 3.18865 10.1523 3.4186C10.2851 3.64856 10.3739 3.80372 10.4347 3.92763C10.4944 4.04874 10.5128 4.11349 10.5184 4.15981C10.5426 4.3432 10.4931 4.5287 10.3805 4.67554C10.3448 4.72186 10.2812 4.77991 10.1126 4.88595C9.73757 5.12149 9.48306 5.53228 9.48306 6C9.48306 6.46772 9.73757 6.87851 10.1126 7.11405C10.2812 7.22009 10.3448 7.27814 10.3805 7.32447C10.4933 7.47126 10.5424 7.65656 10.5184 7.84019C10.5128 7.88651 10.4939 7.95181 10.4347 8.07237C10.3739 8.19684 10.2851 8.35144 10.1523 8.5814C10.0194 8.81135 9.92957 8.96595 9.85255 9.08093C9.7772 9.19256 9.73032 9.24112 9.69348 9.26958C9.54665 9.38209 9.36114 9.43167 9.17776 9.40744C9.11971 9.40019 9.03822 9.37395 8.86129 9.28074C8.4706 9.07423 7.98725 9.05861 7.58204 9.29247C7.17683 9.52688 6.94855 9.95275 6.93181 10.3948C6.92455 10.594 6.90613 10.6783 6.88381 10.7319C6.84874 10.8166 6.79732 10.8936 6.73249 10.9584C6.66765 11.0233 6.59067 11.0747 6.50595 11.1098C6.46297 11.1276 6.39767 11.1438 6.26315 11.1533C6.12529 11.1628 5.94669 11.1628 5.68102 11.1628C5.41534 11.1628 5.23674 11.1628 5.09888 11.1533C4.96436 11.1438 4.89906 11.1276 4.85608 11.1098C4.77136 11.0747 4.69438 11.0233 4.62954 10.9584C4.56471 10.8936 4.51329 10.8166 4.47822 10.7319C4.4559 10.6783 4.43748 10.594 4.43022 10.3948C4.41348 9.95275 4.1852 9.52688 3.77999 9.29302C3.37478 9.05861 2.89199 9.07423 2.50074 9.28074C2.32436 9.37395 2.24232 9.40019 2.18427 9.40744C2.00089 9.43167 1.81538 9.38209 1.66855 9.26958C1.63171 9.24112 1.58483 9.19256 1.50948 9.08093C1.4045 8.91752 1.30455 8.75093 1.20976 8.5814C1.07692 8.35144 0.988178 8.19628 0.927341 8.07237C0.86762 7.95126 0.849201 7.88651 0.84362 7.84019C0.819388 7.6568 0.868976 7.4713 0.98148 7.32447C1.0172 7.27814 1.08083 7.22009 1.24939 7.11405C1.62446 6.87851 1.87897 6.46772 1.87897 6C1.87897 5.53228 1.62446 5.12149 1.24939 4.88595C1.08083 4.77991 1.0172 4.72186 0.98148 4.67554C0.868976 4.5287 0.819388 4.3432 0.84362 4.15981C0.849201 4.11349 0.868178 4.04819 0.927341 3.92763C0.988178 3.80316 1.07692 3.64856 1.20976 3.4186C1.3426 3.18865 1.43246 3.03405 1.50948 2.91907C1.58483 2.80744 1.63171 2.75888 1.66855 2.73042C1.81538 2.61791 2.00089 2.56833 2.18427 2.59256C2.24232 2.59981 2.32381 2.62605 2.50074 2.71926C2.89143 2.92577 3.37478 2.9414 3.77999 2.70698C4.1852 2.47312 4.41348 2.04726 4.43022 1.60521C4.43748 1.40595 4.4559 1.32167 4.47822 1.26809C4.54911 1.09674 4.68474 0.961116 4.85608 0.890233Z" fill="#C4C4C4"/>
</svg>
