<svg width="17" height="17" viewBox="0 0 17 17" fill="none" xmlns="http://www.w3.org/2000/svg">
<path d="M9.5612 4.95703L12.0404 7.4362M4.95703 9.5612L7.4362 12.0404M7.4362 4.95703L4.95703 7.4362M12.0404 9.5612L9.5612 12.0404" stroke="#F428A5" stroke-linecap="round"/>
<path d="M8.4987 5.31185C9.2811 5.31185 9.91536 4.67759 9.91536 3.89518C9.91536 3.11278 9.2811 2.47852 8.4987 2.47852C7.71629 2.47852 7.08203 3.11278 7.08203 3.89518C7.08203 4.67759 7.71629 5.31185 8.4987 5.31185Z" stroke="#F428A5"/>
<path d="M8.4987 14.5208C9.2811 14.5208 9.91536 13.8866 9.91536 13.1042C9.91536 12.3218 9.2811 11.6875 8.4987 11.6875C7.71629 11.6875 7.08203 12.3218 7.08203 13.1042C7.08203 13.8866 7.71629 14.5208 8.4987 14.5208Z" stroke="#F428A5"/>
<path d="M3.89518 9.91536C4.67759 9.91536 5.31185 9.2811 5.31185 8.4987C5.31185 7.71629 4.67759 7.08203 3.89518 7.08203C3.11278 7.08203 2.47852 7.71629 2.47852 8.4987C2.47852 9.2811 3.11278 9.91536 3.89518 9.91536Z" stroke="#F428A5"/>
<path d="M13.1042 9.91536C13.8866 9.91536 14.5208 9.2811 14.5208 8.4987C14.5208 7.71629 13.8866 7.08203 13.1042 7.08203C12.3218 7.08203 11.6875 7.71629 11.6875 8.4987C11.6875 9.2811 12.3218 9.91536 13.1042 9.91536Z" stroke="#F428A5"/>
</svg>
