<svg width="14" height="13" viewBox="0 0 14 13" fill="none" xmlns="http://www.w3.org/2000/svg">
<path d="M12.8744 4.66485L12.887 4.7008L12.9339 4.85609L12.9732 4.99547L12.9899 5.05912L13.0173 5.17436C13.3731 6.78015 13.1134 8.46101 12.2894 9.88448C11.4672 11.3123 10.1382 12.3788 8.56621 12.8724L8.45537 12.9053L8.31928 12.9404L8.12256 12.9871C8.05307 13.0029 7.98107 13.0042 7.91104 12.991C7.84102 12.9777 7.77447 12.9502 7.71557 12.9101C7.65666 12.87 7.60665 12.8181 7.56867 12.7578C7.53069 12.6975 7.50554 12.63 7.4948 12.5596C7.47274 12.415 7.50578 12.2674 7.58739 12.146C7.66899 12.0246 7.79321 11.9383 7.93544 11.9041L8.09375 11.8643C8.19252 11.8385 8.27758 11.8133 8.34864 11.7894C9.61105 11.3631 10.6744 10.4906 11.339 9.33574C12.0074 8.18164 12.231 6.82311 11.9679 5.51568L11.9489 5.4298L11.9237 5.32965L11.8921 5.21497L11.8543 5.08601C11.8119 4.94534 11.8239 4.79387 11.8879 4.66164C11.9519 4.5294 12.0633 4.42606 12.2 4.3721C12.2635 4.34701 12.3313 4.33468 12.3996 4.33582C12.4678 4.33696 12.5352 4.35154 12.5978 4.37872C12.6605 4.40591 12.7171 4.44517 12.7646 4.49427C12.812 4.54337 12.8493 4.60133 12.8744 4.66485ZM0.928836 4.36798C1.07431 4.41433 1.19583 4.51583 1.26733 4.65073C1.33883 4.78563 1.35462 4.94317 1.31131 5.08958C1.26192 5.25585 1.22625 5.39413 1.2043 5.5047C0.942286 6.8111 1.1662 8.16821 1.83398 9.32119C2.49921 10.4771 3.56384 11.3501 4.82764 11.776L4.9116 11.8026L4.95934 11.8163L5.06634 11.8454L5.25676 11.8923C5.39981 11.926 5.52499 12.0121 5.60747 12.1337C5.68996 12.2554 5.72372 12.4035 5.70206 12.5489C5.68174 12.6852 5.60812 12.8078 5.49739 12.8898C5.38667 12.9718 5.2479 13.0065 5.11161 12.9862L5.07375 12.9794L4.91571 12.9423L4.77579 12.9067L4.65342 12.8724L4.59854 12.8559C3.0299 12.3609 1.70416 11.2952 0.883565 9.86966C0.0580646 8.4437 -0.20117 6.75951 0.157306 5.15131L0.178433 5.06351L0.20587 4.96062L0.259098 4.77817L0.27995 4.70958C0.300103 4.64452 0.332874 4.58407 0.376392 4.53168C0.41991 4.47928 0.473323 4.43598 0.533579 4.40423C0.593836 4.37249 0.659756 4.35292 0.727575 4.34665C0.795394 4.34039 0.863783 4.34782 0.928836 4.36798ZM6.59898 2.19497C9.02359 2.19497 10.9889 4.16029 10.9889 6.5849C10.9889 9.00951 9.02359 10.9748 6.59898 10.9748C4.17464 10.9748 2.20905 9.00951 2.20905 6.5849C2.20905 4.16029 4.17464 2.19497 6.59898 2.19497ZM6.59898 3.29245C4.78072 3.29245 3.30653 4.76664 3.30653 6.5849C3.30653 8.40315 4.78072 9.87734 6.59898 9.87734C8.41751 9.87734 9.89142 8.40315 9.89142 6.5849C9.89142 4.76664 8.41751 3.29245 6.59898 3.29245ZM6.59898 4.68355e-06C8.24668 -0.00196217 9.83491 0.61562 11.0484 1.73019L11.114 1.79247L11.1895 1.86765L11.2745 1.95599L11.3695 2.05724C11.4179 2.1095 11.455 2.17118 11.4786 2.23843C11.5021 2.30568 11.5115 2.37706 11.5062 2.44811C11.501 2.51917 11.4811 2.58837 11.4479 2.65141C11.4147 2.71445 11.3688 2.76997 11.3132 2.8145C11.199 2.906 11.0546 2.95125 10.9086 2.94129C10.7626 2.93133 10.6257 2.86688 10.5249 2.76072C10.4654 2.69762 10.41 2.64137 10.359 2.59143L10.2629 2.49979L10.219 2.46056C9.21868 1.58039 7.93142 1.09569 6.59898 1.09749C5.26531 1.09565 3.97694 1.58119 2.97619 2.46275L2.94491 2.49074L2.8755 2.55659L2.79675 2.63479L2.66094 2.77609C2.45242 2.99805 2.10836 3.02302 1.86993 2.8337C1.81646 2.79126 1.77187 2.73869 1.73873 2.679C1.70558 2.61932 1.68452 2.55368 1.67675 2.48586C1.66898 2.41803 1.67465 2.34933 1.69344 2.2837C1.71222 2.21806 1.74376 2.15677 1.78624 2.10333L1.81094 2.07425L1.92206 1.95599L2.02303 1.85228C2.07104 1.80427 2.11521 1.76174 2.15582 1.7247C3.36853 0.61369 4.95401 -0.00178101 6.5987 4.68355e-06" fill="#01EE8A"/>
</svg>
