<svg width="17" height="13" viewBox="0 0 17 13" fill="none" xmlns="http://www.w3.org/2000/svg">
<path d="M13.6036 6.03571C13.0929 6.03571 12.6558 5.85402 12.2924 5.49064C11.929 5.12726 11.747 4.6899 11.7464 4.17857V1.85714C11.7464 1.34643 11.9284 0.909381 12.2924 0.546C12.6564 0.182619 13.0935 0.000619048 13.6036 0H14.8339C15.3446 0 15.782 0.182 16.146 0.546C16.51 0.91 16.6917 1.34705 16.6911 1.85714V4.17857C16.6911 4.68928 16.5094 5.12664 16.146 5.49064C15.7826 5.85464 15.3453 6.03633 14.8339 6.03571H13.6036ZM7.73036 6.03571C7.21964 6.03571 6.7826 5.85402 6.41921 5.49064C6.05583 5.12726 5.87383 4.6899 5.87321 4.17857V1.85714C5.87321 1.34643 6.05521 0.909381 6.41921 0.546C6.78321 0.182619 7.22026 0.000619048 7.73036 0H8.96071C9.47143 0 9.90879 0.182 10.2728 0.546C10.6368 0.91 10.8185 1.34705 10.8179 1.85714V4.17857C10.8179 4.68928 10.6362 5.12664 10.2728 5.49064C9.9094 5.85464 9.47205 6.03633 8.96071 6.03571H7.73036ZM1.85714 6.03571C1.34643 6.03571 0.909381 5.85402 0.546 5.49064C0.182619 5.12726 0.000619048 4.6899 0 4.17857V1.85714C0 1.34643 0.182 0.909381 0.546 0.546C0.91 0.182619 1.34705 0.000619048 1.85714 0H3.0875C3.59821 0 4.03557 0.182 4.39957 0.546C4.76357 0.91 4.94526 1.34705 4.94464 1.85714V4.17857C4.94464 4.68928 4.76295 5.12664 4.39957 5.49064C4.03619 5.85464 3.59883 6.03633 3.0875 6.03571H1.85714ZM1.85714 13C1.34643 13 0.909381 12.8183 0.546 12.4549C0.182619 12.0915 0.000619048 11.6542 0 11.1429V8.82143C0 8.31071 0.182 7.87367 0.546 7.51028C0.91 7.1469 1.34705 6.9649 1.85714 6.96428H3.0875C3.59821 6.96428 4.03557 7.14628 4.39957 7.51028C4.76357 7.87428 4.94526 8.31133 4.94464 8.82143V11.1429C4.94464 11.6536 4.76295 12.0909 4.39957 12.4549C4.03619 12.8189 3.59883 13.0006 3.0875 13H1.85714ZM7.73036 13C7.21964 13 6.7826 12.8183 6.41921 12.4549C6.05583 12.0915 5.87383 11.6542 5.87321 11.1429V8.82143C5.87321 8.31071 6.05521 7.87367 6.41921 7.51028C6.78321 7.1469 7.22026 6.9649 7.73036 6.96428H8.96071C9.47143 6.96428 9.90879 7.14628 10.2728 7.51028C10.6368 7.87428 10.8185 8.31133 10.8179 8.82143V11.1429C10.8179 11.6536 10.6362 12.0909 10.2728 12.4549C9.9094 12.8189 9.47205 13.0006 8.96071 13H7.73036ZM13.6036 13C13.0929 13 12.6558 12.8183 12.2924 12.4549C11.929 12.0915 11.747 11.6542 11.7464 11.1429V8.82143C11.7464 8.31071 11.9284 7.87367 12.2924 7.51028C12.6564 7.1469 13.0935 6.9649 13.6036 6.96428H14.8339C15.3446 6.96428 15.782 7.14628 16.146 7.51028C16.51 7.87428 16.6917 8.31133 16.6911 8.82143V11.1429C16.6911 11.6536 16.5094 12.0909 16.146 12.4549C15.7826 12.8189 15.3453 13.0006 14.8339 13H13.6036Z" fill="#F6BD4F"/>
</svg>
