<svg width="13" height="13" viewBox="0 0 13 13" fill="none" xmlns="http://www.w3.org/2000/svg">
<path d="M5.41667 11.9173C5.12935 11.9173 4.8538 11.8032 4.65063 11.6C4.44747 11.3969 4.33333 11.1213 4.33333 10.834V2.16732C4.33333 1.88 4.44747 1.60445 4.65063 1.40129C4.8538 1.19812 5.12935 1.08398 5.41667 1.08398H11.375C11.6623 1.08398 11.9379 1.19812 12.141 1.40129C12.3442 1.60445 12.4583 1.88 12.4583 2.16732V10.834C12.4583 11.1213 12.3442 11.3969 12.141 11.6C11.9379 11.8032 11.6623 11.9173 11.375 11.9173H5.41667ZM5.14583 10.834C5.14583 10.9058 5.17437 10.9747 5.22516 11.0255C5.27595 11.0763 5.34484 11.1048 5.41667 11.1048H11.375C11.4468 11.1048 11.5157 11.0763 11.5665 11.0255C11.6173 10.9747 11.6458 10.9058 11.6458 10.834V2.16732C11.6458 2.09549 11.6173 2.0266 11.5665 1.97581C11.5157 1.92502 11.4468 1.89648 11.375 1.89648H5.41667C5.34484 1.89648 5.27595 1.92502 5.22516 1.97581C5.17437 2.0266 5.14583 2.09549 5.14583 2.16732V10.834ZM3.34208 2.25669C3.39024 2.35302 3.39818 2.46453 3.36416 2.56671C3.33013 2.6689 3.25692 2.75338 3.16062 2.80161C3.03712 2.86336 3.00083 2.89748 2.99 2.91048C2.98783 2.91295 2.98634 2.91594 2.98567 2.91915C2.9808 2.93899 2.97862 2.9594 2.97917 2.97982V10.0215C2.97917 10.0594 2.9835 10.0767 2.98567 10.0822C2.9862 10.0854 2.98771 10.0884 2.99 10.0908C3.00083 10.1038 3.03712 10.1379 3.16062 10.1997C3.20835 10.2235 3.25092 10.2565 3.2859 10.2968C3.32088 10.3371 3.34758 10.3839 3.36448 10.4345C3.38138 10.4851 3.38815 10.5385 3.3844 10.5917C3.38065 10.6449 3.36645 10.6969 3.34262 10.7446C3.3188 10.7923 3.2858 10.8349 3.24552 10.8699C3.20524 10.9049 3.15846 10.9316 3.10786 10.9485C3.00567 10.9826 2.8941 10.9747 2.79771 10.9266C2.65037 10.8529 2.48354 10.756 2.35896 10.6027C2.22083 10.4326 2.16667 10.2344 2.16667 10.0215V2.97982C2.16667 2.76694 2.22083 2.56869 2.35896 2.39861C2.48354 2.24532 2.65037 2.14836 2.79771 2.07469C2.8941 2.02657 3.00567 2.01871 3.10786 2.05284C3.21005 2.08697 3.29395 2.1603 3.34208 2.25669ZM1.16458 3.04698C1.19131 3.09318 1.20867 3.14419 1.21568 3.1971C1.22268 3.25001 1.2192 3.30378 1.20541 3.35534C1.19163 3.4069 1.16782 3.45524 1.13535 3.4976C1.10288 3.53995 1.06238 3.57549 1.01617 3.60219C0.934917 3.64932 0.876958 3.69428 0.842833 3.7349C0.8125 3.77065 0.8125 3.7869 0.8125 3.79232V9.20898C0.8125 9.2144 0.8125 9.23065 0.842833 9.2664C0.876958 9.30648 0.934917 9.35198 1.01617 9.39911C1.06233 9.42585 1.10278 9.46143 1.13519 9.50381C1.16761 9.54618 1.19136 9.59453 1.20509 9.64609C1.21882 9.69764 1.22227 9.7514 1.21522 9.80429C1.20818 9.85717 1.19079 9.90815 1.16404 9.95432C1.1373 10.0005 1.10172 10.0409 1.05934 10.0733C1.01697 10.1058 0.968619 10.1295 0.917063 10.1432C0.865507 10.157 0.811752 10.1604 0.758866 10.1534C0.705979 10.1463 0.654998 10.1289 0.608833 10.1022C0.395417 9.97869 0 9.70028 0 9.20898V3.79232C0 3.30103 0.395417 3.02315 0.608833 2.89857C0.65503 2.87184 0.70604 2.85448 0.758949 2.84747C0.811858 2.84047 0.865629 2.84395 0.917189 2.85774C0.968749 2.87152 1.01709 2.89533 1.05944 2.9278C1.1018 2.96027 1.13734 3.00077 1.16404 3.04698H1.16458Z" fill="#B68AF5"/>
</svg>
