<svg width="13" height="13" viewBox="0 0 13 13" fill="none" xmlns="http://www.w3.org/2000/svg">
<path d="M6.5 4.33398V6.50065L7.85417 7.85482" stroke="#EE964F" stroke-width="1.5" stroke-linecap="round" stroke-linejoin="round"/>
<path d="M2.35 3.72186L1.94375 3.72349C1.94418 3.83058 1.98687 3.93317 2.06254 4.00894C2.13822 4.08471 2.24075 4.12754 2.34783 4.12811L2.35 3.72186ZM3.72692 4.13461C3.78027 4.13486 3.83314 4.1246 3.88253 4.10442C3.93191 4.08423 3.97684 4.05451 4.01474 4.01697C4.05263 3.97942 4.08277 3.93477 4.10341 3.88558C4.12406 3.83639 4.13481 3.78361 4.13506 3.73026C4.13531 3.67691 4.12505 3.62403 4.10487 3.57465C4.08468 3.52527 4.05496 3.48034 4.01742 3.44244C3.97987 3.40454 3.93522 3.37441 3.88603 3.35376C3.83684 3.33312 3.78406 3.32236 3.73071 3.32211L3.72692 4.13461ZM2.74921 2.34061C2.74892 2.28726 2.73814 2.23449 2.71746 2.18531C2.69678 2.13613 2.66661 2.09151 2.62869 2.05399C2.59076 2.01646 2.54582 1.98678 2.49642 1.96663C2.44703 1.94647 2.39414 1.93625 2.34079 1.93653C2.28744 1.93682 2.23467 1.9476 2.18549 1.96828C2.13631 1.98896 2.09169 2.01913 2.05417 2.05705C2.01664 2.09498 1.98696 2.13992 1.9668 2.18932C1.94665 2.23871 1.93642 2.2916 1.93671 2.34495L2.74921 2.34061ZM2.07321 5.84195C2.08099 5.78885 2.07818 5.73474 2.06494 5.68274C2.05169 5.63074 2.02827 5.58188 1.99604 5.53898C1.9638 5.49608 1.92339 5.45999 1.87712 5.43279C1.83086 5.4056 1.77967 5.38784 1.72651 5.38054C1.67334 5.37324 1.61926 5.37655 1.56738 5.39027C1.51551 5.40399 1.46686 5.42786 1.42426 5.46048C1.38165 5.49311 1.34593 5.53385 1.31916 5.58036C1.29239 5.62687 1.2751 5.67822 1.26829 5.73145L2.07321 5.84195ZM10.2172 2.78316C8.148 0.713989 4.80429 0.692322 2.74867 2.74849L3.32283 3.32266C5.05617 1.58986 7.88529 1.60016 9.643 3.35732L10.2172 2.78316ZM2.78333 10.217C4.8525 12.2862 8.19621 12.3078 10.2518 10.2517L9.67767 9.67749C7.94433 11.4103 5.11521 11.4 3.3575 9.64282L2.78333 10.217ZM10.2518 10.2517C12.3075 8.19603 12.2863 4.85232 10.2172 2.78316L9.643 3.35732C11.4002 5.11503 11.4105 7.94416 9.67767 9.67749L10.2518 10.2517ZM2.74867 2.74849L2.06238 3.43424L2.63708 4.00841L3.32283 3.32266L2.74867 2.74849ZM2.34783 4.12811L3.72692 4.13461L3.73071 3.32211L2.35217 3.31561L2.34783 4.12811ZM2.75625 3.7197L2.74921 2.34061L1.93671 2.34495L1.94375 3.72349L2.75625 3.7197ZM1.26775 5.73091C1.15646 6.5448 1.23535 7.37342 1.49822 8.15169C1.76109 8.92997 2.20079 9.63672 2.78279 10.2164L3.35696 9.64228C2.86362 9.15114 2.49089 8.5523 2.26805 7.8928C2.04521 7.2333 1.97833 6.53111 2.07267 5.84141L1.26775 5.73091Z" fill="#EE964F"/>
</svg>
