<svg width="13" height="13" viewBox="0 0 13 13" fill="none" xmlns="http://www.w3.org/2000/svg">
<path d="M5.94181 1.02483C6.09267 0.882202 6.2924 0.802734 6.5 0.802734C6.7076 0.802734 6.90733 0.882202 7.05819 1.02483L10.9939 4.74526C11.2377 4.9752 11.375 5.29614 11.375 5.63089V10.1565C11.375 10.4797 11.2466 10.7897 11.018 11.0183C10.7895 11.2469 10.4795 11.3753 10.1562 11.3753H8.53125C8.37113 11.3753 8.21259 11.3437 8.06467 11.2824C7.91675 11.2211 7.78236 11.1313 7.66918 11.018C7.55599 10.9048 7.46624 10.7703 7.40504 10.6223C7.34384 10.4744 7.31239 10.3158 7.3125 10.1557V8.12445C7.3125 8.01671 7.2697 7.91337 7.19351 7.83719C7.11733 7.761 7.01399 7.7182 6.90625 7.7182H6.09375C5.98601 7.7182 5.88267 7.761 5.80649 7.83719C5.7303 7.91337 5.6875 8.01671 5.6875 8.12445V10.1557C5.6875 10.4789 5.5591 10.7889 5.33054 11.0175C5.10198 11.246 4.79198 11.3745 4.46875 11.3745H2.84375C2.52052 11.3745 2.21052 11.246 1.98196 11.0175C1.7534 10.7889 1.625 10.4789 1.625 10.1557V5.63007C1.625 5.29532 1.76313 4.97439 2.00688 4.74445L5.94181 1.02483ZM6.5 1.6147L2.56425 5.33595C2.52429 5.37383 2.49246 5.41943 2.47067 5.47C2.44888 5.52056 2.43759 5.57502 2.4375 5.63007V10.1557C2.4375 10.2634 2.4803 10.3668 2.55649 10.443C2.63267 10.5191 2.73601 10.562 2.84375 10.562H4.46875C4.57649 10.562 4.67983 10.5191 4.75601 10.443C4.8322 10.3668 4.875 10.2634 4.875 10.1557V8.12445C4.875 7.80122 5.0034 7.49122 5.23196 7.26266C5.46052 7.0341 5.77052 6.9057 6.09375 6.9057H6.90625C7.22948 6.9057 7.53948 7.0341 7.76804 7.26266C7.9966 7.49122 8.125 7.80122 8.125 8.12445V10.1557C8.125 10.2634 8.1678 10.3668 8.24399 10.443C8.32017 10.5191 8.42351 10.562 8.53125 10.562H10.1562C10.264 10.562 10.3673 10.5191 10.4435 10.443C10.5197 10.3668 10.5625 10.2634 10.5625 10.1557V5.63007C10.5625 5.57488 10.5513 5.52026 10.5295 5.46956C10.5077 5.41885 10.4758 5.37311 10.4358 5.33514L6.5 1.6147Z" fill="#01EE8A"/>
</svg>
