<svg width="13" height="13" viewBox="0 0 13 13" fill="none" xmlns="http://www.w3.org/2000/svg">
<path d="M10.0607 2.1865L10.0606 2.18664L10.069 2.19525L10.8138 2.95358L10.8203 2.96013L10.827 2.96634C10.895 3.02865 10.9421 3.09926 10.9723 3.18129C11.0088 3.28028 11.0252 3.37453 11.025 3.46573V3.46667C11.025 3.57022 11.0074 3.66601 10.9733 3.75637C10.9432 3.83634 10.8934 3.91423 10.8169 3.99023L10.8161 3.99105L3.78211 11.025H1.975V9.21809L9.01658 2.18984C9.09439 2.11951 9.17788 2.06688 9.26779 2.02972C9.3558 1.99335 9.44791 1.975 9.54687 1.975C9.64635 1.975 9.74219 1.99342 9.83668 2.03122C9.92294 2.06572 9.99665 2.11658 10.0607 2.1865ZM9.28585 4.47249L9.53333 4.71997L9.78082 4.47249L10.5392 3.71415L10.7866 3.46667L10.5392 3.21918L9.78082 2.46085L9.53333 2.21336L9.28585 2.46085L8.52751 3.21918L8.28003 3.46667L8.52751 3.71415L9.28585 4.47249Z" stroke="#B68AF5" stroke-width="0.7"/>
</svg>
