<svg width="13" height="13" viewBox="0 0 13 13" fill="none" xmlns="http://www.w3.org/2000/svg">
<path fill-rule="evenodd" clip-rule="evenodd" d="M4.0625 1.95813L4.69625 1.625L12.0087 6.5V7.17438L7.3125 10.3049V9.32994L11.05 6.84125L4.875 2.72187V5.6875H4.0625V1.95813Z" fill="#D01010"/>
<path fill-rule="evenodd" clip-rule="evenodd" d="M3.95829 6.34435C3.26766 6.30128 2.57298 6.47353 2.00585 6.86516C1.39404 7.25922 1.00404 7.82716 0.787915 8.51453C0.569352 9.17266 0.614852 9.91203 0.87404 10.5604C1.13703 11.2061 1.61218 11.7428 2.22116 12.0822C2.83541 12.4332 3.53417 12.5185 4.2256 12.3893C4.92517 12.2577 5.53373 11.8653 5.96679 11.3453L5.97085 11.3404C6.40066 10.7822 6.6631 10.1306 6.6631 9.42941C6.67317 8.60807 6.36244 7.81519 5.79698 7.21941L5.7921 7.21535C5.31679 6.74003 4.66435 6.38822 3.95829 6.34435ZM2.39748 7.46153C2.81348 7.15847 3.34973 7.04147 3.85348 7.07966C4.38648 7.11866 4.84554 7.34616 5.2331 7.73291C5.65235 8.15216 5.88554 8.76803 5.88554 9.38878V9.40016C5.92373 9.92747 5.73685 10.4239 5.42566 10.8537C5.07954 11.2746 4.61885 11.5443 4.11754 11.6589C3.61082 11.7746 3.07903 11.6927 2.63066 11.4298C2.16591 11.1592 1.81816 10.7733 1.58416 10.2679C1.35666 9.77472 1.35504 9.2401 1.51023 8.73635V8.7331C1.65198 8.2203 1.96511 7.77154 2.39748 7.46153ZM5.16242 8.81841L3.53741 10.4434H2.96216L2.14966 9.63091L2.72491 9.05647L3.24979 9.58216L4.58716 8.24397L5.16242 8.81841Z" fill="#D01010"/>
</svg>
