<svg width="12" height="12" viewBox="0 0 12 12" fill="none" xmlns="http://www.w3.org/2000/svg">
<path d="M3.66667 5H1.33333C0.966667 5 0.652889 4.86956 0.392 4.60867C0.131111 4.34778 0.000444444 4.03378 0 3.66667V1.33333C0 0.966667 0.130667 0.652889 0.392 0.392C0.653333 0.131111 0.967111 0.000444444 1.33333 0H3.66667C4.03333 0 4.34733 0.130667 4.60867 0.392C4.87 0.653333 5.00044 0.967111 5 1.33333V3.66667C5 4.03333 4.86956 4.34733 4.60867 4.60867C4.34778 4.87 4.03378 5.00044 3.66667 5ZM1.33333 3.66667H3.66667V1.33333H1.33333V3.66667ZM3.66667 12H1.33333C0.966667 12 0.652889 11.8696 0.392 11.6087C0.131111 11.3478 0.000444444 11.0338 0 10.6667V8.33333C0 7.96667 0.130667 7.65289 0.392 7.392C0.653333 7.13111 0.967111 7.00044 1.33333 7H3.66667C4.03333 7 4.34733 7.13067 4.60867 7.392C4.87 7.65333 5.00044 7.96711 5 8.33333V10.6667C5 11.0333 4.86956 11.3473 4.60867 11.6087C4.34778 11.87 4.03378 12.0004 3.66667 12ZM1.33333 10.6667H3.66667V8.33333H1.33333V10.6667ZM10.6667 5H8.33333C7.96667 5 7.65289 4.86956 7.392 4.60867C7.13111 4.34778 7.00044 4.03378 7 3.66667V1.33333C7 0.966667 7.13067 0.652889 7.392 0.392C7.65333 0.131111 7.96711 0.000444444 8.33333 0H10.6667C11.0333 0 11.3473 0.130667 11.6087 0.392C11.87 0.653333 12.0004 0.967111 12 1.33333V3.66667C12 4.03333 11.8696 4.34733 11.6087 4.60867C11.3478 4.87 11.0338 5.00044 10.6667 5ZM8.33333 3.66667H10.6667V1.33333H8.33333V3.66667ZM10.6667 12H8.33333C7.96667 12 7.65289 11.8696 7.392 11.6087C7.13111 11.3478 7.00044 11.0338 7 10.6667V8.33333C7 7.96667 7.13067 7.65289 7.392 7.392C7.65333 7.13111 7.96711 7.00044 8.33333 7H10.6667C11.0333 7 11.3473 7.13067 11.6087 7.392C11.87 7.65333 12.0004 7.96711 12 8.33333V10.6667C12 11.0333 11.8696 11.3473 11.6087 11.6087C11.3478 11.87 11.0338 12.0004 10.6667 12ZM8.33333 10.6667H10.6667V8.33333H8.33333V10.6667Z" fill="#01EE8A"/>
</svg>
