<svg width="12" height="12" viewBox="0 0 12 12" fill="none" xmlns="http://www.w3.org/2000/svg">
<path d="M0 11.3327V9.99935H12V11.3327H0ZM0 1.99935V0.666016H12V1.99935H0ZM1.33333 8.66602C0.966667 8.66602 0.652889 8.53557 0.392 8.27468C0.131111 8.01379 0.000444444 7.69979 0 7.33268V4.66602C0 4.29935 0.130667 3.98557 0.392 3.72468C0.653333 3.46379 0.967111 3.33313 1.33333 3.33268H10.6667C11.0333 3.33268 11.3473 3.46335 11.6087 3.72468C11.87 3.98602 12.0004 4.29979 12 4.66602V7.33268C12 7.69935 11.8696 8.01335 11.6087 8.27468C11.3478 8.53602 11.0338 8.66646 10.6667 8.66602H1.33333ZM1.33333 7.33268H10.6667V4.66602H1.33333V7.33268Z" fill="#C4C4C4"/>
</svg>
